<svg width="96" height="32" viewBox="0 0 96 32" fill="none" xmlns="http://www.w3.org/2000/svg">
<g clip-path="url(#clip0_5923_19964)">
<path d="M28.1108 4.50977C27.5691 4.50977 27.1199 4.68972 26.7668 5.04616C26.4102 5.40606 26.2354 5.85593 26.2354 6.4027C26.2354 6.94948 26.4136 7.40281 26.7668 7.75925C27.1199 8.11915 27.5691 8.29564 28.1108 8.29564C28.6525 8.29564 29.1016 8.11569 29.4548 7.75925C29.8079 7.40281 29.9862 6.94948 29.9862 6.4027C29.9862 5.85593 29.8079 5.4026 29.4548 5.04616C29.0982 4.68972 28.6525 4.50977 28.1108 4.50977Z" fill="url(#paint0_linear_5923_19964)"/>
<path d="M29.517 10.209H26.7021V25.3698H29.517V10.209Z" fill="url(#paint1_linear_5923_19964)"/>
<path d="M35.5785 4.20898H32.7637V25.3704H35.5785V4.20898Z" fill="url(#paint2_linear_5923_19964)"/>
<path d="M41.6059 4.20898H38.791V25.3704H41.6059V4.20898Z" fill="url(#paint3_linear_5923_19964)"/>
<path d="M57.4179 12.1681C56.7082 11.4518 55.8785 10.8946 54.9288 10.4932C53.979 10.0918 52.9505 9.89453 51.8465 9.89453C50.7425 9.89453 49.7379 10.0952 48.7813 10.4932C47.8213 10.8946 46.9916 11.4518 46.2922 12.1681C45.5928 12.8845 45.0407 13.7219 44.6327 14.6805C44.2247 15.6391 44.0225 16.6773 44.0225 17.7916C44.0225 18.9059 44.2247 19.9198 44.6327 20.8853C45.0407 21.8543 45.5928 22.6918 46.2922 23.3977C46.9916 24.1037 47.8213 24.6608 48.7813 25.0726C49.7413 25.4845 50.763 25.6886 51.8465 25.6886C52.9299 25.6886 53.979 25.4845 54.9288 25.0726C55.8785 24.6608 56.7082 24.1037 57.4179 23.3977C58.1276 22.6918 58.6796 21.8543 59.0773 20.8853C59.475 19.9164 59.6705 18.8851 59.6705 17.7916C59.6705 16.698 59.4716 15.6391 59.0773 14.6805C58.6796 13.7219 58.1276 12.8845 57.4179 12.1681ZM56.4785 19.7953C56.2282 20.4182 55.8785 20.958 55.4293 21.4217C54.9802 21.8854 54.4488 22.2419 53.835 22.4945C53.2179 22.7471 52.5562 22.8752 51.8465 22.8752C51.1367 22.8752 50.4785 22.7471 49.875 22.4945C49.2682 22.2419 48.7436 21.8854 48.2945 21.4217C47.8453 20.958 47.4922 20.4182 47.2316 19.7953C46.971 19.1758 46.8407 18.5045 46.8407 17.7881C46.8407 17.0718 46.971 16.3762 47.2316 15.7671C47.4922 15.1581 47.8453 14.6182 48.2945 14.158C48.7436 13.6942 49.2682 13.3378 49.875 13.0852C50.4785 12.8326 51.1367 12.7045 51.8465 12.7045C52.5562 12.7045 53.2179 12.8326 53.835 13.0852C54.4488 13.3378 54.9836 13.6977 55.4293 14.158C55.8785 14.6217 56.2282 15.1581 56.4785 15.7671C56.7287 16.3797 56.8556 17.051 56.8556 17.7881C56.8556 18.5252 56.7287 19.1724 56.4785 19.7953Z" fill="url(#paint4_linear_5923_19964)"/>
<path d="M82.9367 16.0055C83.2795 15.4068 83.7081 14.8842 84.219 14.4413C84.7298 13.9983 85.299 13.6523 85.923 13.3996C86.5504 13.147 87.2052 13.019 87.8944 13.019H95.5607L95.9995 10.209H70.7378C69.6544 10.209 68.6155 10.4097 67.6247 10.8077C66.6338 11.2091 65.7355 11.7559 64.9333 12.4514C64.131 13.147 63.459 13.9637 62.9138 14.8981C62.3721 15.8359 62.0155 16.8498 61.851 17.9468C61.683 19.0196 61.7207 20.0301 61.9607 20.9783C62.2007 21.9265 62.6121 22.7467 63.195 23.4422C63.7778 24.1378 64.5047 24.6846 65.3687 25.086C66.2327 25.4874 67.1995 25.6847 68.2624 25.6847C69.2018 25.6847 70.107 25.5324 70.9847 25.2279C71.8624 24.9234 72.675 24.4977 73.4258 23.9475L73.3641 24.2624C73.2578 24.958 73.035 25.6051 72.6921 26.2038C72.3493 26.8025 71.9241 27.325 71.4235 27.768C70.923 28.2109 70.3607 28.557 69.7333 28.8096C69.1058 29.0622 68.451 29.1903 67.7618 29.1903C66.699 29.1903 65.811 28.91 65.1013 28.3528C64.3915 27.7957 63.9321 27.0413 63.723 26.0931H60.7812C60.843 26.9547 61.0487 27.7507 61.3915 28.4774C61.7344 29.2041 62.1938 29.8236 62.7698 30.3392C63.3424 30.8548 64.011 31.2597 64.7721 31.5539C65.5333 31.848 66.3733 31.9968 67.2921 31.9968C68.3755 31.9968 69.4213 31.7961 70.4224 31.3981C71.4235 30.9967 72.3218 30.4499 73.1138 29.7543C73.9058 29.0588 74.5744 28.2386 75.1161 27.2904C75.6578 26.3422 76.0144 25.3317 76.179 24.2589L77.5573 15.5417H74.7424L74.3653 17.9434C74.2624 18.639 74.0361 19.2861 73.6933 19.8848C73.3504 20.4834 72.9253 21.006 72.4247 21.449C71.9241 21.8919 71.355 22.238 70.7207 22.4906C70.083 22.7432 69.4213 22.8713 68.7321 22.8713C68.043 22.8713 67.4533 22.7432 66.9013 22.4906C66.3493 22.238 65.8898 21.8919 65.523 21.449C65.1561 21.006 64.8955 20.4869 64.7413 19.8848C64.5835 19.2861 64.5595 18.639 64.6624 17.9434C64.7653 17.2478 64.9915 16.6007 65.3344 16.002C65.6773 15.4033 66.1058 14.8808 66.6167 14.4378C67.1275 13.9949 67.6967 13.6488 68.3207 13.3962C68.9481 13.1436 69.603 13.0155 70.2921 13.0155H81.9218C81.3767 13.5761 80.907 14.2025 80.5058 14.8946C79.9641 15.8324 79.6075 16.8464 79.443 17.9434C79.275 19.0162 79.3127 20.0267 79.5527 20.9749C79.7927 21.9231 80.2041 22.7432 80.787 23.4388C81.3698 24.1344 82.0967 24.6811 82.9607 25.0826C83.8247 25.484 84.7915 25.6812 85.8544 25.6812C86.7938 25.6812 87.699 25.529 88.5767 25.2244C89.4544 24.9199 90.267 24.4943 91.0178 23.944L90.9561 24.2589C90.8498 24.9545 90.627 25.6016 90.2841 26.2003C89.9413 26.799 89.5161 27.3216 89.0155 27.7645C88.515 28.2075 87.9527 28.5535 87.3253 28.8061C86.6978 29.0588 86.043 29.1868 85.3538 29.1868C84.291 29.1868 83.403 28.9065 82.6933 28.3494C81.9835 27.7922 81.5241 27.0378 81.315 26.0896H78.3733C78.435 26.9513 78.6407 27.7472 78.9835 28.4739C79.3264 29.2007 79.7858 29.8201 80.3618 30.3357C80.9344 30.8514 81.603 31.2562 82.3641 31.5504C83.1253 31.8445 83.9653 31.9933 84.8841 31.9933C85.9675 31.9933 87.0133 31.7926 88.0144 31.3947C89.0155 30.9932 89.9138 30.4465 90.7058 29.7509C91.4978 29.0553 92.1664 28.2352 92.7081 27.287C93.2498 26.3388 93.6064 25.3283 93.771 24.2555L95.1493 15.5383H92.3344L91.9573 17.9399C91.8544 18.6355 91.6281 19.2826 91.2853 19.8813C90.9424 20.48 90.5173 21.0025 90.0167 21.4455C89.5161 21.8884 88.947 22.2345 88.3127 22.4871C87.675 22.7398 87.0133 22.8678 86.3241 22.8678C85.635 22.8678 85.0453 22.7398 84.4933 22.4871C83.9413 22.2345 83.4818 21.8884 83.115 21.4455C82.7481 21.0025 82.4875 20.4835 82.3333 19.8813C82.1755 19.2826 82.1515 18.6355 82.2544 17.9399C82.3573 17.2443 82.5835 16.5972 82.9264 15.9985L82.9367 16.0055Z" fill="url(#paint5_linear_5923_19964)"/>
<path d="M17.88 13.1398H8.11543C7.98172 13.1398 7.872 13.0291 7.872 12.8941C7.872 12.7592 7.98172 12.6484 8.11543 12.6484H14.6229C18.0754 12.6484 20.8869 9.81075 20.8869 6.32594C20.8869 2.84114 18.0789 0 14.6229 0H10.2L9.768 2.78923H14.6229C16.5531 2.78923 18.1234 4.37418 18.1234 6.32248C18.1234 8.27079 16.5531 9.85574 14.6229 9.85574H8.11543C6.456 9.85574 5.10514 11.2192 5.10514 12.8941C5.10514 14.569 6.456 15.9325 8.11543 15.9325H17.88C19.8103 15.9325 21.3806 17.5175 21.3806 19.4658C21.3806 21.4141 19.8103 22.999 17.88 22.999H0.432L0 25.7882H17.88C21.3326 25.7882 24.144 22.9506 24.144 19.4658C24.144 15.981 21.3326 13.1433 17.88 13.1433V13.1398Z" fill="url(#paint6_linear_5923_19964)"/>
</g>
<defs>
<linearGradient id="paint0_linear_5923_19964" x1="-0.936084" y1="6.4027" x2="96.9428" y2="6.4027" gradientUnits="userSpaceOnUse">
<stop stop-color="#57F287"/>
<stop offset="0.46" stop-color="#00EEB0"/>
<stop offset="1" stop-color="#00FFFF"/>
</linearGradient>
<linearGradient id="paint1_linear_5923_19964" x1="-0.935563" y1="17.7877" x2="96.9433" y2="17.7877" gradientUnits="userSpaceOnUse">
<stop stop-color="#57F287"/>
<stop offset="0.46" stop-color="#00EEB0"/>
<stop offset="1" stop-color="#00FFFF"/>
</linearGradient>
<linearGradient id="paint2_linear_5923_19964" x1="-0.935752" y1="14.788" x2="96.9431" y2="14.788" gradientUnits="userSpaceOnUse">
<stop stop-color="#57F287"/>
<stop offset="0.46" stop-color="#00EEB0"/>
<stop offset="1" stop-color="#00FFFF"/>
</linearGradient>
<linearGradient id="paint3_linear_5923_19964" x1="-0.935838" y1="14.788" x2="96.943" y2="14.788" gradientUnits="userSpaceOnUse">
<stop stop-color="#57F287"/>
<stop offset="0.46" stop-color="#00EEB0"/>
<stop offset="1" stop-color="#00FFFF"/>
</linearGradient>
<linearGradient id="paint4_linear_5923_19964" x1="-0.936394" y1="17.7881" x2="96.9425" y2="17.7881" gradientUnits="userSpaceOnUse">
<stop stop-color="#57F287"/>
<stop offset="0.46" stop-color="#00EEB0"/>
<stop offset="1" stop-color="#00FFFF"/>
</linearGradient>
<linearGradient id="paint5_linear_5923_19964" x1="-0.936474" y1="21.1064" x2="96.9424" y2="21.1064" gradientUnits="userSpaceOnUse">
<stop stop-color="#57F287"/>
<stop offset="0.46" stop-color="#00EEB0"/>
<stop offset="1" stop-color="#00FFFF"/>
</linearGradient>
<linearGradient id="paint6_linear_5923_19964" x1="-0.936" y1="12.8907" x2="96.9429" y2="12.8907" gradientUnits="userSpaceOnUse">
<stop stop-color="#57F287"/>
<stop offset="0.46" stop-color="#00EEB0"/>
<stop offset="1" stop-color="#00FFFF"/>
</linearGradient>
<clipPath id="clip0_5923_19964">
<rect width="96" height="32" fill="white"/>
</clipPath>
</defs>
</svg>
