<svg width="34" height="32" viewBox="0 0 34 32" fill="none" xmlns="http://www.w3.org/2000/svg">
<path d="M13.96 24.3H4.92999C4.41999 26.6 2.42 28.32 0 28.43V30.37C0 31.33 1.07999 31.89 1.85999 31.33L10.15 25.42C10.49 25.18 10.97 25.42 10.97 25.84V30.66C10.97 31.49 11.91 31.98 12.59 31.49L17.33 28.12C15.64 27.51 14.35 26.07 13.95 24.29L13.96 24.3Z" fill="#A2E5F4"/>
<path d="M19.71 20.21C17.6 19.81 15.79 21.62 16.19 23.73C16.41 24.91 17.36 25.86 18.54 26.08C20.65 26.48 22.46 24.67 22.06 22.56C21.84 21.38 20.89 20.43 19.71 20.21Z" fill="#A2E5F4"/>
<path d="M21.33 15.21C20.66 15.13 19.95 15.09 19.18 15.09H0V17.86C2.42 17.97 4.41999 19.7 4.92999 21.99H13.96C14.49 19.62 16.6 17.85 19.12 17.85C19.6 17.85 20.07 17.92 20.51 18.04C22.74 18.65 24.38 20.67 24.41 23.08L28.31 20.3V20.07C28.31 18.14 26.14 15.76 21.33 15.21Z" fill="#A2E5F4"/>
<path d="M32.72 15.51L12.6 1.18003C11.92 0.700025 10.98 1.18002 10.98 2.01002V5.31003L11.65 5.80002L21.39 12.91C25.53 13.35 29.71 15.06 30.48 18.77L32.72 17.18C33.29 16.77 33.29 15.92 32.72 15.51Z" fill="#A2E5F4"/>
<path d="M2.76001 23.15C2.76001 21.58 1.55 20.29 0 20.17V26.13C1.54 26.01 2.76001 24.72 2.76001 23.15Z" fill="#A2E5F4"/>
<path d="M1.85999 1.35001C1.07999 0.790011 0 1.35001 0 2.31001V5.48001H7.66L1.85999 1.35001Z" fill="#A2E5F4"/>
<path d="M10.63 7.78003H0V12.79H17.93" fill="#A2E5F4"/>
</svg>
