<svg width="31" height="33" viewBox="0 0 31 33" fill="none" xmlns="http://www.w3.org/2000/svg">
<path d="M22.5363 16.4248H10.2288C10.0603 16.4248 9.922 16.2864 9.922 16.1177C9.922 15.949 10.0603 15.8105 10.2288 15.8105H18.4309C22.7826 15.8105 26.3261 12.2634 26.3261 7.90743C26.3261 3.55142 22.7869 0 18.4309 0H12.8563L12.3118 3.48654H18.4309C20.8639 3.48654 22.8431 5.46772 22.8431 7.9031C22.8431 10.3385 20.8639 12.3197 18.4309 12.3197H10.2288C8.13725 12.3197 6.43461 14.024 6.43461 16.1177C6.43461 18.2113 8.13725 19.9156 10.2288 19.9156H22.5363C24.9692 19.9156 26.9484 21.8968 26.9484 24.3322C26.9484 26.7676 24.9692 28.7488 22.5363 28.7488H0.5445L0 32.2353H22.5363C26.8879 32.2353 30.4315 28.6882 30.4315 24.3322C30.4315 19.9762 26.8879 16.4291 22.5363 16.4291V16.4248Z" fill="url(#paint0_linear_52_31328)"/>
<defs>
<linearGradient id="paint0_linear_52_31328" x1="-1.17975" y1="16.1133" x2="122.188" y2="16.1133" gradientUnits="userSpaceOnUse">
<stop stop-color="#57F287"/>
<stop offset="0.46" stop-color="#00EEB0"/>
<stop offset="1" stop-color="#00FFFF"/>
</linearGradient>
</defs>
</svg>
