<svg width="160" height="34" viewBox="0 0 160 34" fill="none" xmlns="http://www.w3.org/2000/svg">
<path d="M34.2117 0.793701H39.3148V10.9098C39.8286 10.2105 40.5206 9.66004 41.3194 9.31524C42.2014 8.92172 43.1589 8.72381 44.1255 8.73523C46.0999 8.73523 47.6127 9.34531 48.6641 10.5655C49.7154 11.7857 50.2442 13.4355 50.2504 15.5149V25.6678H45.1824V16.7117C45.1824 15.3615 44.8788 14.4611 44.2717 14.0106C43.7447 13.5921 43.0948 13.3562 42.4207 13.3385C41.6716 13.3445 40.9389 13.5581 40.3051 13.9553C39.6214 14.3665 39.279 15.2369 39.2778 16.5663V25.6678H34.2117V0.793701Z" fill="white"/>
<path d="M67.3623 24.5612C65.8445 25.612 64.028 26.138 61.913 26.1392C60.1854 26.1392 58.667 25.7765 57.3577 25.051C56.0622 24.3432 54.9988 23.2796 54.2944 21.9871C53.5464 20.5878 53.1705 19.0216 53.2023 17.4372C53.2023 15.6953 53.5663 14.1664 54.2944 12.8505C54.9962 11.5602 56.0607 10.5013 57.3577 9.80317C58.7235 9.07803 60.2522 8.71051 61.8001 8.73522C63.3088 8.70711 64.8006 9.05595 66.1388 9.74977C67.3645 10.3911 68.3819 11.3655 69.0726 12.5596C69.777 13.8031 70.1354 15.2109 70.111 16.6381C70.1216 17.3804 70.0484 18.1216 69.8925 18.8476H58.2314C58.2376 19.2877 58.3365 19.7215 58.5218 20.1211C58.707 20.5207 58.9745 20.8773 59.3068 21.1677C59.9744 21.7471 60.8431 22.0374 61.913 22.0386C62.6327 22.0574 63.3462 21.9013 63.9916 21.5838C64.5162 21.3407 64.9405 20.9252 65.1929 20.4072H70.1517C69.8111 22.1258 68.8813 23.5104 67.3623 24.5612ZM64.9023 15.5517C64.9043 15.175 64.82 14.8028 64.6558 14.4633C64.4916 14.1239 64.2518 13.8261 63.9546 13.5926C63.3475 13.1101 62.5701 12.8683 61.6224 12.8671C60.6747 12.8659 59.8967 13.1077 59.2883 13.5926C58.99 13.8273 58.7472 14.1246 58.5774 14.4632C58.4075 14.8018 58.3147 15.1734 58.3054 15.5517H64.9023Z" fill="white"/>
<path d="M73.1763 5.97882C72.8594 5.68837 72.6076 5.33477 72.4373 4.94106C72.267 4.54734 72.182 4.12235 72.1879 3.69377C72.1778 3.26419 72.2586 2.8373 72.425 2.44079C72.5915 2.04428 72.8399 1.687 73.1541 1.39214C73.8197 0.79705 74.683 0.467834 75.5779 0.467834C76.4728 0.467834 77.3362 0.79705 78.0018 1.39214C78.316 1.687 78.5643 2.04428 78.7308 2.44079C78.8972 2.8373 78.9781 3.26419 78.968 3.69377C78.9705 4.11881 78.8843 4.53976 78.7148 4.92994C78.5453 5.32011 78.2962 5.67101 77.9832 5.96041C77.6682 6.27402 77.2926 6.52088 76.879 6.68607C76.4655 6.85127 76.0225 6.93138 75.577 6.92157C75.1339 6.93116 74.6934 6.85272 74.2811 6.69084C73.8689 6.52896 73.4933 6.2869 73.1763 5.97882ZM73.03 9.31526H78.1332V33.3903H73.0671L73.03 9.31526Z" fill="white"/>
<path d="M99.4567 0.793701V25.6678H95.229L94.9366 23.7105C94.3459 24.5087 93.5453 25.1293 92.6229 25.5039C91.422 25.9909 90.1264 26.203 88.832 26.1246C87.5376 26.0462 86.2775 25.6793 85.1449 25.051C83.9165 24.325 82.9184 23.2695 82.2648 22.0055C81.5726 20.6994 81.2264 19.1883 81.2264 17.4722C81.1959 15.8883 81.5522 14.3207 82.2648 12.9039C82.9104 11.6248 83.9096 10.5554 85.1449 9.82159C86.4218 9.08363 87.8776 8.70789 89.354 8.73523C90.3453 8.71894 91.332 8.87215 92.2712 9.18819C93.0755 9.45582 93.8049 9.90882 94.3998 10.5102V0.793701H99.4567ZM93.2429 20.4275C93.9833 19.6676 94.3535 18.6586 94.3535 17.4004C94.3535 16.1729 93.9833 15.1816 93.2429 14.4267C92.5026 13.6718 91.5363 13.2974 90.3443 13.3035C89.1548 13.3035 88.2071 13.684 87.5012 14.4451C86.7954 15.2062 86.4418 16.2035 86.4406 17.4372C86.4406 18.6647 86.7991 19.6615 87.516 20.4275C88.233 21.1935 89.1757 21.574 90.3443 21.5691C91.5351 21.5691 92.5013 21.1886 93.2429 20.4275Z" fill="white"/>
<path d="M120.633 9.31527V25.6679H115.751V23.7787C115.136 24.5447 114.332 25.1381 113.417 25.5003C112.39 25.9298 111.287 26.146 110.174 26.1355C108.742 26.1638 107.332 25.7932 106.101 25.0658C104.92 24.3503 103.971 23.3115 103.368 22.0736C102.723 20.7945 102.401 19.308 102.401 17.614C102.401 15.85 102.748 14.2972 103.44 12.9555C104.094 11.6591 105.109 10.5775 106.364 9.84004C107.664 9.09058 109.145 8.70857 110.647 8.73526C113.004 8.73526 114.802 9.46012 116.041 10.9098L116.369 9.31527H120.633ZM114.42 20.4275C115.16 19.6677 115.53 18.6586 115.53 17.4004C115.53 16.1729 115.16 15.1816 114.42 14.4267C113.679 13.6718 112.713 13.2974 111.521 13.3035C110.332 13.3035 109.384 13.6841 108.678 14.4451C107.972 15.2062 107.62 16.2036 107.621 17.4372C107.621 18.6648 107.98 19.6615 108.697 20.4275C109.413 21.1935 110.355 21.574 111.521 21.5691C112.712 21.5691 113.678 21.1886 114.42 20.4275Z" fill="white"/>
<path d="M138.842 9.8216C140.077 10.5555 141.075 11.6248 141.72 12.9039C142.435 14.3201 142.792 15.888 142.76 17.4722C142.76 19.1907 142.414 20.7018 141.72 22.0055C141.067 23.2694 140.07 24.3248 138.842 25.051C137.71 25.6784 136.451 26.0449 135.158 26.1233C133.864 26.2017 132.57 25.99 131.37 25.5039C130.446 25.1299 129.645 24.5092 129.054 23.7105L128.763 25.6678H124.534V0.793701H129.637V10.5102C130.239 9.92832 130.961 9.48351 131.753 9.2066C132.676 8.87958 133.651 8.71992 134.631 8.73523C136.108 8.70793 137.564 9.08365 138.842 9.8216ZM136.473 20.4275C137.19 19.6676 137.548 18.6709 137.548 17.4372C137.548 16.2035 137.196 15.2062 136.491 14.4451C135.787 13.6853 134.839 13.3047 133.648 13.3035C132.457 13.3023 131.497 13.6767 130.768 14.4267C130.039 15.1767 129.674 16.1679 129.674 17.4004C129.674 18.6574 130.039 19.6664 130.768 20.4275C131.497 21.1886 132.455 21.5691 133.641 21.5691C134.812 21.5691 135.756 21.1886 136.473 20.4275Z" fill="white"/>
<path d="M146.041 5.97882C145.725 5.68783 145.474 5.33404 145.305 4.94039C145.135 4.54674 145.051 4.12202 145.057 3.69377C145.046 3.26419 145.127 2.8373 145.294 2.44079C145.46 2.04428 145.709 1.687 146.023 1.39214C146.688 0.79705 147.552 0.467834 148.447 0.467834C149.341 0.467834 150.205 0.79705 150.87 1.39214C151.185 1.687 151.433 2.04428 151.599 2.44079C151.766 2.8373 151.847 3.26419 151.837 3.69377C151.839 4.11868 151.754 4.53954 151.584 4.92971C151.415 5.31987 151.166 5.67085 150.854 5.96041C150.539 6.27402 150.163 6.52087 149.75 6.68607C149.336 6.85126 148.893 6.93138 148.447 6.92157C148.003 6.9319 147.562 6.85382 147.149 6.69192C146.735 6.53002 146.359 6.28757 146.041 5.97882ZM145.895 9.31526H150.998V25.6678H145.893L145.895 9.31526Z" fill="white"/>
<path d="M154.897 0.793701H160V25.6678H154.897V0.793701Z" fill="white"/>
<path d="M111.11 1.38109C111.528 1.36846 111.94 1.47312 112.3 1.68306C112.634 1.88117 112.909 2.16396 113.096 2.50244C113.285 2.8354 113.385 3.21041 113.389 3.59249C113.396 3.96803 113.305 4.33897 113.126 4.66965C112.951 4.99843 112.686 5.27199 112.363 5.45957C112.001 5.67168 111.586 5.77764 111.166 5.76523C110.739 5.78099 110.317 5.67629 109.948 5.46325C109.62 5.26945 109.35 4.99238 109.165 4.66045C108.98 4.32915 108.883 3.95656 108.884 3.57776C108.878 3.1963 108.969 2.81962 109.148 2.48219C109.322 2.1505 109.585 1.87372 109.909 1.68306C110.272 1.47109 110.689 1.36636 111.11 1.38109ZM111.11 0.394154C110.507 0.379599 109.911 0.535364 109.393 0.843431C108.92 1.12896 108.536 1.53864 108.282 2.02739C108.031 2.50874 107.903 3.04464 107.912 3.58697C107.914 4.12804 108.053 4.65992 108.315 5.13366C108.581 5.61792 108.973 6.02233 109.45 6.30473C109.975 6.59932 110.568 6.7541 111.171 6.7541C111.774 6.7541 112.367 6.59932 112.893 6.30473C113.369 6.02513 113.759 5.61982 114.018 5.13366C114.271 4.65757 114.398 4.12539 114.388 3.58697C114.383 3.04058 114.24 2.50424 113.972 2.02739C113.691 1.52015 113.276 1.09945 112.771 0.811374C112.267 0.523298 111.692 0.378955 111.11 0.394154Z" fill="white"/>
<path d="M11.1669 19.4719H3.94813C3.74536 20.3757 3.24861 21.1878 2.53483 21.7824C1.82106 22.3769 0.930098 22.7207 1.73569e-06 22.7604V24.2998C-0.000330582 24.4722 0.0470625 24.6414 0.136986 24.7888C0.226909 24.9362 0.355891 25.0561 0.509793 25.1354C0.663695 25.2147 0.836575 25.2503 1.00948 25.2384C1.18239 25.2264 1.34865 25.1673 1.49004 25.0676L8.12577 20.3631C8.18802 20.3192 8.26118 20.2932 8.33726 20.2879C8.41335 20.2826 8.48943 20.2982 8.55723 20.3329C8.62502 20.3677 8.68191 20.4203 8.7217 20.4851C8.76149 20.5498 8.78265 20.6241 8.78287 20.7V24.5391C8.78281 24.6889 8.82423 24.8359 8.90257 24.9638C8.98092 25.0917 9.09317 25.1957 9.22701 25.2644C9.36085 25.3331 9.51112 25.3637 9.66133 25.353C9.81154 25.3424 9.95589 25.2907 10.0786 25.2038L13.8693 22.5174C13.1975 22.2772 12.5976 21.8721 12.1251 21.3397C11.6527 20.8073 11.3231 20.1648 11.1669 19.4719Z" fill="#A2E5F4"/>
<path d="M15.7666 16.2293C15.2622 16.1297 14.7389 16.1942 14.2742 16.4134C13.8095 16.6325 13.428 16.9947 13.1862 17.4462C12.9445 17.8977 12.8552 18.4146 12.9316 18.9205C13.0081 19.4264 13.2462 19.8944 13.6107 20.2553C13.9753 20.6161 14.4469 20.8507 14.9558 20.9242C15.4648 20.9978 15.984 20.9064 16.4367 20.6637C16.8894 20.421 17.2515 20.0397 17.4695 19.5764C17.6875 19.113 17.7498 18.5922 17.6472 18.0909C17.5528 17.6309 17.3239 17.2088 16.9894 16.8777C16.6548 16.5465 16.2295 16.321 15.7666 16.2293Z" fill="#A2E5F4"/>
<path d="M17.0641 12.2392C16.4944 12.1763 15.9215 12.145 15.3483 12.1453H0V14.3549C0.928714 14.3953 1.81817 14.739 2.53083 15.3328C3.24348 15.9265 3.73964 16.7373 3.94257 17.6398H11.1614C11.3873 16.6319 11.9776 15.7418 12.8201 15.1386C13.6626 14.5353 14.6985 14.2611 15.731 14.3679C16.7634 14.4747 17.7204 14.9552 18.4201 15.7179C19.1198 16.4807 19.5133 17.4727 19.5259 18.5052L22.643 16.2956V16.1115C22.6485 14.5722 20.916 12.6775 17.0641 12.2392Z" fill="#A2E5F4"/>
<path d="M26.1746 12.4713L10.0711 1.06808C9.94859 0.980478 9.80412 0.928275 9.65367 0.917242C9.50321 0.906209 9.35261 0.936775 9.21853 1.00556C9.08444 1.07435 8.97209 1.17868 8.89389 1.30702C8.81568 1.43536 8.77468 1.58272 8.7754 1.73279V4.36033L9.31403 4.75068L17.1122 10.4072C20.4273 10.7533 23.7757 12.1196 24.3847 15.0675L26.1746 13.7988C26.2811 13.7236 26.3681 13.6241 26.428 13.5086C26.488 13.3931 26.5193 13.265 26.5193 13.135C26.5193 13.0051 26.488 12.877 26.428 12.7615C26.3681 12.646 26.2811 12.5465 26.1746 12.4713Z" fill="#A2E5F4"/>
<path d="M2.20636 18.5567C2.2063 17.9577 1.97907 17.3807 1.57006 16.9411C1.16105 16.5014 0.600367 16.2315 0 16.1851L0 20.9283C0.600367 20.8819 1.16105 20.612 1.57006 20.1723C1.97907 19.7327 2.2063 19.1557 2.20636 18.5567Z" fill="#A2E5F4"/>
<path d="M1.49003 1.20618C1.3489 1.10663 1.18299 1.04758 1.0104 1.03547C0.837822 1.02336 0.665214 1.05867 0.511436 1.13753C0.357657 1.21639 0.228623 1.33578 0.138428 1.48265C0.048233 1.62952 0.000346737 1.79822 0 1.97032L0 4.49106H6.12672L1.49003 1.20618Z" fill="#A2E5F4"/>
<path d="M8.50152 6.32312C8.49041 6.32312 0 6.32312 0 6.32312V10.3132H14.345" fill="#A2E5F4"/>
</svg>
