<svg width="121" height="40" viewBox="0 0 121 40" fill="none" xmlns="http://www.w3.org/2000/svg">
<path d="M35.4314 5.63647C34.7486 5.63647 34.1825 5.86141 33.7374 6.30696C33.288 6.75684 33.0676 7.31918 33.0676 8.00265C33.0676 8.68611 33.2923 9.25278 33.7374 9.69833C34.1825 10.1482 34.7486 10.3688 35.4314 10.3688C36.1142 10.3688 36.6803 10.1439 37.1254 9.69833C37.5705 9.25278 37.7952 8.68611 37.7952 8.00265C37.7952 7.31918 37.5705 6.75251 37.1254 6.30696C36.676 5.86141 36.1142 5.63647 35.4314 5.63647Z" fill="url(#paint0_linear_52_31320)"/>
<path d="M37.2032 12.7609H33.6553V31.7119H37.2032V12.7609Z" fill="url(#paint1_linear_52_31320)"/>
<path d="M44.8435 5.26013H41.2956V31.712H44.8435V5.26013Z" fill="url(#paint2_linear_52_31320)"/>
<path d="M52.4405 5.26013H48.8926V31.712H52.4405V5.26013Z" fill="url(#paint3_linear_52_31320)"/>
<path d="M72.371 15.2093C71.4764 14.3139 70.4306 13.6174 69.2336 13.1157C68.0366 12.6139 66.7401 12.3673 65.3486 12.3673C63.9571 12.3673 62.691 12.6182 61.4853 13.1157C60.2753 13.6174 59.2295 14.3139 58.3479 15.2093C57.4664 16.1047 56.7706 17.1516 56.2564 18.3498C55.7421 19.548 55.4871 20.8457 55.4871 22.2386C55.4871 23.6315 55.7421 24.8989 56.2564 26.1058C56.7706 27.317 57.4664 28.3638 58.3479 29.2463C59.2295 30.1287 60.2753 30.8252 61.4853 31.3399C62.6953 31.8547 63.9831 32.1099 65.3486 32.1099C66.7142 32.1099 68.0366 31.8547 69.2336 31.3399C70.4306 30.8252 71.4764 30.1287 72.371 29.2463C73.2655 28.3638 73.9613 27.317 74.4625 26.1058C74.9638 24.8946 75.2101 23.6055 75.2101 22.2386C75.2101 20.8717 74.9595 19.548 74.4625 18.3498C73.9613 17.1516 73.2655 16.1047 72.371 15.2093ZM71.1869 24.7432C70.8714 25.5218 70.4306 26.1967 69.8645 26.7763C69.2984 27.356 68.6286 27.8015 67.8551 28.1173C67.0772 28.4331 66.2432 28.5931 65.3486 28.5931C64.4541 28.5931 63.6244 28.4331 62.8638 28.1173C62.0989 27.8015 61.4378 27.356 60.8716 26.7763C60.3055 26.1967 59.8604 25.5218 59.532 24.7432C59.2036 23.9689 59.0394 23.1297 59.0394 22.2343C59.0394 21.3389 59.2036 20.4694 59.532 19.7081C59.8604 18.9467 60.3055 18.2719 60.8716 17.6966C61.4378 17.117 62.0989 16.6714 62.8638 16.3556C63.6244 16.0399 64.4541 15.8798 65.3486 15.8798C66.2432 15.8798 67.0772 16.0399 67.8551 16.3556C68.6286 16.6714 69.3028 17.1213 69.8645 17.6966C70.4306 18.2763 70.8714 18.9467 71.1869 19.7081C71.5024 20.4737 71.6623 21.3129 71.6623 22.2343C71.6623 23.1557 71.5024 23.9646 71.1869 24.7432Z" fill="url(#paint4_linear_52_31320)"/>
<path d="M104.535 20.0065C104.967 19.2581 105.508 18.6049 106.152 18.0512C106.795 17.4975 107.513 17.065 108.299 16.7492C109.09 16.4334 109.916 16.2734 110.784 16.2734H120.447L121 12.7609H89.1597C87.7941 12.7609 86.4848 13.0118 85.2359 13.5092C83.987 14.011 82.8547 14.6945 81.8435 15.5639C80.8323 16.4334 79.9853 17.4543 79.2982 18.6222C78.6154 19.7945 78.166 21.0619 77.9586 22.4332C77.7468 23.7742 77.7944 25.0373 78.0969 26.2225C78.3994 27.4078 78.9179 28.433 79.6526 29.3024C80.3872 30.1719 81.3034 30.8554 82.3924 31.3572C83.4814 31.8589 84.7 32.1055 86.0396 32.1055C87.2237 32.1055 88.3646 31.9152 89.4709 31.5345C90.5771 31.1539 91.6013 30.6218 92.5477 29.934L92.4699 30.3276C92.336 31.1971 92.0551 32.006 91.6229 32.7544C91.1908 33.5027 90.6549 34.1559 90.024 34.7096C89.3931 35.2633 88.6844 35.6959 87.8935 36.0116C87.1027 36.3274 86.2773 36.4875 85.4087 36.4875C84.0691 36.4875 82.9498 36.1371 82.0553 35.4406C81.1608 34.7442 80.5817 33.8012 80.3181 32.6159H76.6103C76.6881 33.6931 76.9474 34.688 77.3795 35.5964C77.8116 36.5048 78.3907 37.2791 79.1167 37.9236C79.8384 38.5681 80.6811 39.0743 81.6404 39.4419C82.5998 39.8096 83.6585 39.9956 84.8167 39.9956C86.1823 39.9956 87.5003 39.7447 88.7621 39.2473C90.024 38.7455 91.1562 38.062 92.1545 37.1926C93.1527 36.3231 93.9954 35.2979 94.6782 34.1127C95.361 32.9274 95.8104 31.6643 96.0178 30.3233L97.755 19.4268H94.2071L93.7318 22.4289C93.6021 23.2983 93.3169 24.1072 92.8848 24.8556C92.4526 25.6039 91.9168 26.2571 91.2859 26.8108C90.6549 27.3645 89.9376 27.7971 89.1381 28.1129C88.3343 28.4286 87.5003 28.5887 86.6317 28.5887C85.7631 28.5887 85.0198 28.4286 84.324 28.1129C83.6283 27.7971 83.0492 27.3645 82.5868 26.8108C82.1244 26.2571 81.796 25.6083 81.6015 24.8556C81.4027 24.1072 81.3725 23.2983 81.5021 22.4289C81.6318 21.5594 81.917 20.7505 82.3491 20.0021C82.7813 19.2538 83.3215 18.6006 83.9654 18.0469C84.6093 17.4932 85.3266 17.0606 86.1131 16.7449C86.9039 16.4291 87.7293 16.269 88.5979 16.269H103.256C102.569 16.9698 101.977 17.7528 101.471 18.6179C100.789 19.7902 100.339 21.0576 100.132 22.4289C99.9201 23.7698 99.9676 25.033 100.27 26.2182C100.573 27.4034 101.091 28.4286 101.826 29.2981C102.56 30.1676 103.477 30.8511 104.566 31.3528C105.655 31.8546 106.873 32.1012 108.213 32.1012C109.397 32.1012 110.538 31.9109 111.644 31.5302C112.75 31.1495 113.775 30.6175 114.721 29.9297L114.643 30.3233C114.509 31.1928 114.228 32.0017 113.796 32.75C113.364 33.4984 112.828 34.1516 112.197 34.7053C111.566 35.259 110.858 35.6915 110.067 36.0073C109.276 36.3231 108.451 36.4831 107.582 36.4831C106.242 36.4831 105.123 36.1328 104.229 35.4363C103.334 34.7399 102.755 33.7969 102.491 32.6116H98.7835C98.8613 33.6887 99.1206 34.6836 99.5527 35.592C99.9849 36.5005 100.564 37.2748 101.29 37.9193C102.012 38.5638 102.854 39.0699 103.814 39.4376C104.773 39.8053 105.832 39.9913 106.99 39.9913C108.356 39.9913 109.674 39.7404 110.935 39.243C112.197 38.7412 113.329 38.0577 114.328 37.1882C115.326 36.3188 116.169 35.2936 116.851 34.1083C117.534 32.9231 117.984 31.66 118.191 30.319L119.928 19.4225H116.38L115.905 22.4245C115.775 23.294 115.49 24.1029 115.058 24.8513C114.626 25.5996 114.09 26.2528 113.459 26.8065C112.828 27.3602 112.111 27.7928 111.311 28.1085C110.508 28.4243 109.674 28.5844 108.805 28.5844C107.936 28.5844 107.193 28.4243 106.497 28.1085C105.802 27.7928 105.222 27.3602 104.76 26.8065C104.298 26.2528 103.969 25.6039 103.775 24.8513C103.576 24.1029 103.546 23.294 103.675 22.4245C103.805 21.5551 104.09 20.7462 104.522 19.9978L104.535 20.0065Z" fill="url(#paint5_linear_52_31320)"/>
<path d="M22.5363 16.4248H10.2288C10.0603 16.4248 9.922 16.2864 9.922 16.1177C9.922 15.949 10.0603 15.8105 10.2288 15.8105H18.4309C22.7826 15.8105 26.3261 12.2634 26.3261 7.90743C26.3261 3.55142 22.7869 0 18.4309 0H12.8563L12.3118 3.48654H18.4309C20.8639 3.48654 22.8431 5.46772 22.8431 7.9031C22.8431 10.3385 20.8639 12.3197 18.4309 12.3197H10.2288C8.13725 12.3197 6.43461 14.024 6.43461 16.1177C6.43461 18.2113 8.13725 19.9156 10.2288 19.9156H22.5363C24.9692 19.9156 26.9484 21.8968 26.9484 24.3322C26.9484 26.7676 24.9692 28.7488 22.5363 28.7488H0.5445L0 32.2353H22.5363C26.8879 32.2353 30.4315 28.6882 30.4315 24.3322C30.4315 19.9762 26.8879 16.4291 22.5363 16.4291V16.4248Z" fill="url(#paint6_linear_52_31320)"/>
<defs>
<linearGradient id="paint0_linear_52_31320" x1="-1.17976" y1="8.00265" x2="122.188" y2="8.00265" gradientUnits="userSpaceOnUse">
<stop stop-color="#57F287"/>
<stop offset="0.46" stop-color="#00EEB0"/>
<stop offset="1" stop-color="#00FFFF"/>
</linearGradient>
<linearGradient id="paint1_linear_52_31320" x1="-1.17974" y1="22.2342" x2="122.188" y2="22.2342" gradientUnits="userSpaceOnUse">
<stop stop-color="#57F287"/>
<stop offset="0.46" stop-color="#00EEB0"/>
<stop offset="1" stop-color="#00FFFF"/>
</linearGradient>
<linearGradient id="paint2_linear_52_31320" x1="-1.17975" y1="18.4839" x2="122.188" y2="18.4839" gradientUnits="userSpaceOnUse">
<stop stop-color="#57F287"/>
<stop offset="0.46" stop-color="#00EEB0"/>
<stop offset="1" stop-color="#00FFFF"/>
</linearGradient>
<linearGradient id="paint3_linear_52_31320" x1="-1.17974" y1="18.4839" x2="122.188" y2="18.4839" gradientUnits="userSpaceOnUse">
<stop stop-color="#57F287"/>
<stop offset="0.46" stop-color="#00EEB0"/>
<stop offset="1" stop-color="#00FFFF"/>
</linearGradient>
<linearGradient id="paint4_linear_52_31320" x1="-1.17975" y1="22.2343" x2="122.188" y2="22.2343" gradientUnits="userSpaceOnUse">
<stop stop-color="#57F287"/>
<stop offset="0.46" stop-color="#00EEB0"/>
<stop offset="1" stop-color="#00FFFF"/>
</linearGradient>
<linearGradient id="paint5_linear_52_31320" x1="-1.17976" y1="26.3826" x2="122.188" y2="26.3826" gradientUnits="userSpaceOnUse">
<stop stop-color="#57F287"/>
<stop offset="0.46" stop-color="#00EEB0"/>
<stop offset="1" stop-color="#00FFFF"/>
</linearGradient>
<linearGradient id="paint6_linear_52_31320" x1="-1.17975" y1="16.1133" x2="122.188" y2="16.1133" gradientUnits="userSpaceOnUse">
<stop stop-color="#57F287"/>
<stop offset="0.46" stop-color="#00EEB0"/>
<stop offset="1" stop-color="#00FFFF"/>
</linearGradient>
</defs>
</svg>
