<svg width="31" height="33" viewBox="0 0 31 33" fill="none" xmlns="http://www.w3.org/2000/svg">
<path d="M22.8204 16.4248H10.513C10.3445 16.4248 10.2062 16.2864 10.2062 16.1177C10.2062 15.949 10.3445 15.8105 10.513 15.8105H18.7151C23.0668 15.8105 26.6103 12.2634 26.6103 7.90743C26.6103 3.55142 23.0711 0 18.7151 0H13.1404L12.5959 3.48654H18.7151C21.148 3.48654 23.1273 5.46772 23.1273 7.9031C23.1273 10.3385 21.148 12.3197 18.7151 12.3197H10.513C8.42143 12.3197 6.71879 14.024 6.71879 16.1177C6.71879 18.2113 8.42143 19.9156 10.513 19.9156H22.8204C25.2534 19.9156 27.2326 21.8968 27.2326 24.3322C27.2326 26.7676 25.2534 28.7488 22.8204 28.7488H0.82868L0.28418 32.2353H22.8204C27.1721 32.2353 30.7157 28.6882 30.7157 24.3322C30.7157 19.9762 27.1721 16.4291 22.8204 16.4291V16.4248Z" fill="#1C2925"/>
</svg>
