<svg width="96" height="30" viewBox="0 0 96 30" fill="none" xmlns="http://www.w3.org/2000/svg">
<path d="M91.2537 8.12945C91.2537 7.79206 91.3157 7.47594 91.4399 7.18077C91.5639 6.88559 91.7324 6.62814 91.9451 6.40842C92.1583 6.18842 92.4124 6.01206 92.693 5.8892C92.9789 5.76256 93.2858 5.6994 93.6138 5.6994C93.9462 5.6994 94.2576 5.76256 94.5478 5.8892C94.8318 6.01135 95.0892 6.18772 95.3057 6.40842C95.5208 6.62814 95.6903 6.88559 95.8144 7.18077C95.9386 7.47594 96.0006 7.79223 96.0006 8.12945C96.0006 8.46685 95.9386 8.78313 95.8144 9.07831C95.6903 9.37348 95.5207 9.63093 95.3059 9.85048C95.0894 10.0712 94.832 10.2477 94.548 10.3699C94.2576 10.4963 93.9463 10.5597 93.6139 10.5597C93.2859 10.5597 92.979 10.4965 92.693 10.3699C92.4123 10.247 92.1583 10.0705 91.9451 9.85048C91.7324 9.63093 91.5639 9.37348 91.4399 9.07831C91.3157 8.78313 91.2537 8.46685 91.2537 8.12945ZM91.739 8.12945C91.739 8.40917 91.7866 8.66878 91.882 8.90845C91.9725 9.14052 92.1067 9.35302 92.2775 9.53437C92.4462 9.71206 92.6484 9.85458 92.8725 9.9537C93.1009 10.0559 93.3478 10.1069 93.6138 10.1069C93.8842 10.1069 94.1346 10.0559 94.365 9.9537C94.5911 9.85469 94.7955 9.71221 94.9666 9.53437C95.1395 9.35338 95.2761 9.1409 95.369 8.90845C95.4666 8.66878 95.5153 8.40917 95.5153 8.12945C95.5153 7.8499 95.4666 7.59029 95.369 7.35046C95.2762 7.11808 95.1396 6.90566 94.9668 6.72471C94.7957 6.5468 94.5913 6.40427 94.3652 6.30521C94.1346 6.20316 93.8842 6.15214 93.6139 6.15214C93.348 6.15214 93.1009 6.20316 92.8727 6.30521C92.6485 6.40436 92.4462 6.54694 92.2775 6.72471C92.1067 6.90596 91.9724 7.11842 91.882 7.35046C91.7866 7.59029 91.739 7.8499 91.739 8.12945ZM92.8027 7.0842C92.8027 6.93778 92.8758 6.86448 93.0221 6.86448H93.7733C94.0126 6.86448 94.2033 6.93329 94.345 7.07091C94.487 7.20852 94.5578 7.395 94.5578 7.63018C94.5578 7.72774 94.5435 7.81433 94.5146 7.88979C94.4884 7.96056 94.4514 8.02684 94.4049 8.08624C94.3607 8.14175 94.3118 8.18713 94.2586 8.22269C94.2054 8.25826 94.1523 8.28253 94.0991 8.29582V8.30912C94.1036 8.31377 94.1102 8.32258 94.119 8.33588C94.1303 8.34862 94.1393 8.36325 94.1456 8.37909C94.1546 8.39903 94.1679 8.4223 94.1855 8.44906L94.5312 9.12152C94.5711 9.19698 94.5801 9.25797 94.5578 9.30467C94.5357 9.35121 94.487 9.37448 94.4115 9.37448H94.3317C94.2078 9.37448 94.1213 9.32129 94.0725 9.21476L93.6869 8.40253H93.2747V9.16141C93.2747 9.30351 93.2061 9.37448 93.0686 9.37448H93.0088C92.8714 9.37448 92.8027 9.30351 92.8027 9.16141V7.0842ZM93.6736 8.05632C93.8022 8.05632 93.902 8.0186 93.9728 7.94314C94.0437 7.86768 94.0791 7.76331 94.0791 7.63018C94.0791 7.50137 94.0437 7.40165 93.9728 7.33052C93.902 7.25955 93.8044 7.22415 93.6802 7.22415H93.2747V8.05632H93.6736ZM74.2942 9.64805C75.0457 9.64805 75.6831 9.74395 76.2063 9.93575C76.7295 10.1277 77.1383 10.3047 77.4332 10.4671C77.6836 10.6001 77.8311 10.7771 77.8753 10.9984C77.9195 11.2198 77.8826 11.4558 77.7647 11.7068L77.5437 12.1052C77.4111 12.371 77.2415 12.5259 77.0351 12.5701C76.829 12.6144 76.5857 12.5775 76.3057 12.4594C76.0552 12.3414 75.7531 12.2197 75.3994 12.0942C75.0457 11.9687 74.6332 11.9061 74.1615 11.9061C73.6751 11.9061 73.2993 12.002 73.034 12.1938C72.7688 12.3857 72.6361 12.6587 72.6361 13.0128C72.6361 13.3228 72.7724 13.5738 73.045 13.7656C73.3177 13.9574 73.6641 14.1272 74.0841 14.2748C74.5041 14.4222 74.9536 14.581 75.4326 14.7506C75.9051 14.9173 76.3574 15.1364 76.781 15.4038C77.1963 15.6648 77.5506 16.0121 77.8199 16.422C78.0925 16.8353 78.2289 17.3592 78.2289 17.9938C78.2289 18.4957 78.1296 18.9567 77.9304 19.3774C77.7315 19.7979 77.4441 20.1632 77.0684 20.4732C76.6926 20.7831 76.2394 21.0266 75.7089 21.2038C75.1783 21.3808 74.5888 21.4694 73.9405 21.4694C73.0267 21.4694 72.2567 21.3364 71.6303 21.0708C71.0041 20.8053 70.5214 20.5545 70.1824 20.3183C69.9319 20.1707 69.7918 19.9862 69.7624 19.7648C69.733 19.5434 69.7993 19.3073 69.9613 19.0565L70.2266 18.6579C70.3888 18.4219 70.5693 18.2889 70.7682 18.2595C70.9672 18.2299 71.2067 18.2889 71.4867 18.4365C71.752 18.5841 72.0945 18.7502 72.5146 18.9346C72.9346 19.1191 73.4321 19.2114 74.0068 19.2114C74.4931 19.2114 74.8762 19.108 75.1562 18.9014C75.4363 18.6948 75.5762 18.4144 75.5762 18.0602C75.5762 17.7503 75.4399 17.5031 75.1674 17.3186C74.8946 17.1342 74.5483 16.9645 74.1283 16.8094C73.6787 16.6436 73.2293 16.4775 72.7799 16.3113C72.3083 16.1379 71.8563 15.9153 71.4314 15.6473C71.0161 15.3863 70.6618 15.039 70.3924 14.629C70.1199 14.2156 69.9836 13.6845 69.9836 13.0351C69.9836 12.489 70.0976 12.002 70.326 11.574C70.5487 11.1525 70.8667 10.7886 71.2545 10.5113C71.6451 10.2309 72.102 10.017 72.6252 9.86943C73.1482 9.72184 73.7046 9.64805 74.2942 9.64805ZM41.4349 9.64805C42.1866 9.64805 42.824 9.74395 43.3472 9.93575C43.8702 10.1277 44.2792 10.3047 44.5741 10.4671C44.8245 10.6001 44.972 10.7771 45.0162 10.9984C45.0604 11.2198 45.0235 11.4558 44.9056 11.7068L44.6846 12.1052C44.552 12.371 44.3824 12.5259 44.176 12.5701C43.9698 12.6144 43.7266 12.5775 43.4466 12.4594C43.1961 12.3414 42.8939 12.2197 42.5403 12.0942C42.1866 11.9687 41.7739 11.9061 41.3023 11.9061C40.8159 11.9061 40.4402 12.002 40.1749 12.1938C39.9097 12.3857 39.777 12.6587 39.777 13.0128C39.777 13.3228 39.9133 13.5738 40.1859 13.7656C40.4586 13.9574 40.805 14.1272 41.225 14.2748C41.645 14.4222 42.0945 14.581 42.5734 14.7506C43.0459 14.9173 43.4982 15.1364 43.9219 15.4038C44.3372 15.6648 44.6915 16.0121 44.9608 16.422C45.2334 16.8353 45.3697 17.3592 45.3697 17.9938C45.3697 18.4957 45.2703 18.9567 45.0713 19.3774C44.8724 19.7979 44.585 20.1632 44.2093 20.4732C43.8335 20.7831 43.3803 21.0266 42.8497 21.2038C42.3192 21.3808 41.7296 21.4694 41.0814 21.4694C40.1676 21.4694 39.3976 21.3364 38.7712 21.0708C38.1448 20.8053 37.6623 20.5545 37.3233 20.3183C37.0728 20.1707 36.9327 19.9862 36.9033 19.7648C36.8738 19.5434 36.9402 19.3073 37.1022 19.0565L37.3675 18.6579C37.5295 18.4219 37.7102 18.2889 37.9091 18.2595C38.108 18.2299 38.3475 18.2889 38.6276 18.4365C38.8928 18.5841 39.2354 18.7502 39.6554 18.9346C40.0755 19.1191 40.5728 19.2114 41.1475 19.2114C41.634 19.2114 42.0171 19.108 42.2971 18.9014C42.5772 18.6948 42.7171 18.4144 42.7171 18.0602C42.7171 17.7503 42.5808 17.5031 42.3083 17.3186C42.0355 17.1342 41.6892 16.9645 41.2692 16.8094C40.8492 16.6545 40.3996 16.4885 39.9206 16.3113C39.4491 16.1379 38.9972 15.9153 38.5722 15.6473C38.157 15.3863 37.8026 15.039 37.5333 14.629C37.2608 14.2156 37.1243 13.6845 37.1243 13.0351C37.1243 12.489 37.2385 12.002 37.467 11.574C37.6897 11.1525 38.0076 10.7886 38.3954 10.5113C38.786 10.2309 39.2429 10.017 39.7659 9.86943C40.2891 9.72184 40.8455 9.64805 41.4349 9.64805ZM81.7426 5.48633C82.3615 5.48633 82.6711 5.7963 82.6711 6.41607V10.9763C82.6711 11.1239 82.6673 11.2531 82.66 11.3638C82.6527 11.4745 82.6417 11.5742 82.6268 11.6626C82.6133 11.7506 82.606 11.8394 82.6048 11.9284H82.649C82.7817 11.6626 82.9695 11.3932 83.2126 11.1203C83.4558 10.8472 83.7431 10.6001 84.0749 10.3787C84.4064 10.1573 84.7822 9.98029 85.2022 9.84733C85.6222 9.71453 86.0754 9.64822 86.5617 9.64822C87.8144 9.64822 88.7833 9.9876 89.4686 10.6665C90.154 11.3453 90.4965 12.4374 90.4965 13.9429V20.2741C90.4965 20.894 90.187 21.204 89.5681 21.204H88.6175C87.9985 21.204 87.6891 20.894 87.6891 20.2741V14.5185C87.6891 13.8247 87.5711 13.2676 87.3354 12.847C87.0995 12.4265 86.628 12.2161 85.9207 12.2161C85.4342 12.2161 84.9885 12.3121 84.5833 12.5039C84.1779 12.6957 83.8354 12.9576 83.5553 13.2897C83.2753 13.6218 83.0579 14.0167 82.9032 14.4741C82.7486 14.9316 82.6711 15.4261 82.6711 15.9573V20.2741C82.6711 20.894 82.3615 21.204 81.7426 21.204H80.7919C80.1732 21.204 79.8637 20.894 79.8637 20.2741V6.41607C79.8637 5.79613 80.1732 5.48633 80.7921 5.48633H81.7426ZM67.0551 9.91381C67.6594 9.91381 67.9616 10.2238 67.9616 10.8435V20.2741C67.9616 20.894 67.6594 21.204 67.0551 21.204H66.0825C65.4782 21.204 65.1762 20.894 65.1762 20.2741V10.8437C65.1762 10.2238 65.4782 9.91381 66.0825 9.91381H67.0551ZM48.2986 9.91381C48.8587 9.91381 49.1901 10.1869 49.2933 10.7329L51.1061 17.3298C51.1355 17.4922 51.1612 17.6398 51.1834 17.7725C51.2055 17.9055 51.2312 18.0308 51.2608 18.149C51.2902 18.2818 51.3123 18.4073 51.3271 18.5253H51.3713C51.3861 18.4073 51.4082 18.2818 51.4376 18.149C51.4671 18.031 51.4928 17.9055 51.5149 17.7725C51.537 17.6398 51.5703 17.4922 51.6145 17.3298L53.5156 10.7329C53.6187 10.2017 53.9577 9.93591 54.5325 9.93591H55.3724C55.9177 9.93591 56.2566 10.2017 56.3894 10.7329L58.2683 17.3298C58.3125 17.4922 58.3457 17.6398 58.3679 17.7725C58.39 17.9055 58.4157 18.0308 58.4451 18.149C58.4747 18.2818 58.4967 18.4073 58.5116 18.5253H58.5557C58.5719 18.3989 58.5941 18.2733 58.6221 18.149C58.6516 18.031 58.6773 17.9055 58.6994 17.7725C58.7215 17.6398 58.7546 17.4922 58.7988 17.3298L60.5895 10.7329C60.7221 10.1869 61.061 9.91381 61.6063 9.91381H62.6232C62.9623 9.91381 63.198 10.0097 63.3306 10.2017C63.4632 10.3935 63.4853 10.6443 63.3969 10.9542L60.501 20.4291C60.3536 20.9457 60.0074 21.204 59.4621 21.204H57.9809C57.4208 21.204 57.0746 20.9382 56.942 20.407L55.2398 14.7619C55.196 14.6162 55.1592 14.4684 55.1293 14.3192C55.1029 14.1857 55.0735 14.0528 55.0409 13.9206C55.0129 13.7963 54.9908 13.6707 54.9745 13.5443H54.9303C54.8992 13.6694 54.8697 13.7948 54.8419 13.9206C54.8125 14.0386 54.7829 14.1716 54.7535 14.3192C54.7236 14.4684 54.6867 14.6162 54.643 14.7619L52.9408 20.407C52.8081 20.9382 52.4692 21.204 51.9239 21.204H50.3987C49.868 21.204 49.5292 20.9457 49.3817 20.4291L46.4638 10.9542C46.3753 10.6443 46.4011 10.3935 46.5412 10.2017C46.6812 10.0097 46.9133 9.91381 47.2376 9.91381H48.2986Z" fill="#4A4A49"/>
<path fill-rule="evenodd" clip-rule="evenodd" d="M8.30957 27.7994C14.1796 30.6071 21.4244 29.2176 25.801 24.0025C30.9886 17.8211 30.1829 8.60596 24.0014 3.41992L19.8921 8.3166C24.7212 12.3681 25.3508 19.5675 21.2981 24.3967C18.0662 28.247 12.7455 29.5329 8.30957 27.7994Z" fill="url(#paint0_linear_5923_19958)"/>
<path fill-rule="evenodd" clip-rule="evenodd" d="M8.30957 27.7985C14.1796 30.6062 21.4244 29.2168 25.801 24.0016C26.3283 23.3738 26.8021 22.7029 27.2176 21.9961C27.9089 17.7009 26.3888 13.1609 22.8135 10.1613C21.9277 9.41709 20.9451 8.79648 19.8926 8.31641C24.7214 12.3679 25.3504 19.5668 21.2979 24.3957C18.0664 28.2465 12.7458 29.532 8.30957 27.7985Z" fill="url(#paint1_linear_5923_19958)"/>
<path fill-rule="evenodd" clip-rule="evenodd" d="M20.9109 1.42262C15.0409 -1.38471 7.79625 0.0047456 3.41949 5.21986C-1.76814 11.4013 -0.962426 20.6164 5.21905 25.8024L9.32857 20.9058C4.49926 16.8542 3.86971 9.65482 7.92256 4.82563C11.1541 0.974872 16.4746 -0.310708 20.9107 1.42279" fill="url(#paint2_linear_5923_19958)"/>
<path fill-rule="evenodd" clip-rule="evenodd" d="M20.9115 1.42262C15.0415 -1.38471 7.79688 0.0047456 3.42012 5.21986C2.89283 5.84773 2.41896 6.51859 2.00347 7.22544C1.31226 11.5206 2.83229 16.0605 6.40765 19.0603C7.29341 19.8044 8.27599 20.425 9.32854 20.9051C4.49989 16.8536 3.87068 9.65466 7.92319 4.82563C11.1547 0.974873 16.4753 -0.310708 20.9114 1.42279" fill="url(#paint3_linear_5923_19958)"/>
<defs>
<linearGradient id="paint0_linear_5923_19958" x1="25.2088" y1="18.8077" x2="19.0003" y2="6.44051" gradientUnits="userSpaceOnUse">
<stop stop-color="#EF2131"/>
<stop offset="1" stop-color="#FECF2C"/>
</linearGradient>
<linearGradient id="paint1_linear_5923_19958" x1="19.5266" y1="8.31622" x2="8.64322" y2="27.1564" gradientUnits="userSpaceOnUse">
<stop stop-color="#FBC52C"/>
<stop offset="0.264" stop-color="#F87130"/>
<stop offset="0.561" stop-color="#EF52E2"/>
<stop offset="1" stop-color="#661EEC"/>
</linearGradient>
<linearGradient id="paint2_linear_5923_19958" x1="4.30127" y1="10.5835" x2="10.2516" y2="22.6849" gradientUnits="userSpaceOnUse">
<stop stop-color="#78F6D8"/>
<stop offset="0.266" stop-color="#77D1F6"/>
<stop offset="0.554" stop-color="#70A4F3"/>
<stop offset="1" stop-color="#661EEC"/>
</linearGradient>
<linearGradient id="paint3_linear_5923_19958" x1="9.9346" y1="20.9051" x2="20.7332" y2="2.12951" gradientUnits="userSpaceOnUse">
<stop stop-color="#536EED"/>
<stop offset="0.247" stop-color="#54C3EC"/>
<stop offset="0.564" stop-color="#64D769"/>
<stop offset="1" stop-color="#FECF2C"/>
</linearGradient>
</defs>
</svg>
