<svg width="32" height="32" viewBox="0 0 32 32" fill="none" xmlns="http://www.w3.org/2000/svg">
<path d="M30.8564 28.9696L30.8809 29.0135H0.691406L15.7861 2.869L30.8564 28.9696ZM15.0166 22.6737C14.7973 22.6737 14.566 22.7501 14.3867 22.9256C14.2062 23.1026 14.123 23.3361 14.123 23.5633V25.2167C14.123 25.4413 14.2036 25.676 14.3848 25.8553C14.5648 26.0334 14.7972 26.1102 15.0166 26.1102H16.5566C16.7744 26.1102 17.0097 26.0351 17.1924 25.8524C17.3751 25.6697 17.4502 25.4344 17.4502 25.2167V23.5633C17.4502 23.3429 17.3728 23.1081 17.1904 22.9276C17.0085 22.7476 16.7742 22.6737 16.5566 22.6737H15.0166ZM15.0635 11.2704C14.8388 11.2704 14.6041 11.3499 14.4248 11.5311C14.2468 11.7111 14.17 11.9436 14.1699 12.1629V21.2967C14.1699 21.5145 14.245 21.7498 14.4277 21.9325C14.6105 22.1152 14.8457 22.1903 15.0635 22.1903H16.5098C16.7275 22.1903 16.9638 22.1152 17.1465 21.9325C17.329 21.7498 17.4033 21.5144 17.4033 21.2967V12.1629C17.4032 11.9435 17.3266 11.7111 17.1484 11.5311C16.9691 11.35 16.7344 11.2704 16.5098 11.2704H15.0635Z" fill="#5D5D5D" stroke="#5D5D5D" stroke-width="1.33333"/>
</svg>
