<?xml version="1.0" encoding="utf-8"?>
<!-- Generator: Adobe Illustrator 26.0.3, SVG Export Plug-In . SVG Version: 6.00 Build 0)  -->
<svg version="1.0" id="Layer_1" xmlns="http://www.w3.org/2000/svg" xmlns:xlink="http://www.w3.org/1999/xlink" x="0px" y="0px"
	 viewBox="0 0 351 265" style="enable-background:new 0 0 351 265;" xml:space="preserve">
<style type="text/css">
	.st0{fill:#0A0A0A;}
	.st1{fill:none;}
</style>
<path class="st0" d="M175.6,81.6c3.8,0,12.5,1.6,32.6,9.2c9.2,3.6,17.7,7,21.1,8.7c-1.3,11.8-3.5,23.5-6.4,35
	c-5.6,21.3-18.3,51.7-47.3,76l0,0c-29-24.5-41.6-54.9-47.3-76.2c-3-11.5-5.1-23.2-6.4-35c3.4-1.6,11.9-5,21.1-8.7
	C163.1,83.2,171.8,81.6,175.6,81.6 M175.6,79c-5.8,0-17.1,3.2-33.4,9.3c-9.5,3.6-18.1,7.3-21.3,8.7l-1.8,0.8l0.2,1.8
	c1.4,11.9,3.6,23.8,6.6,35.4c5.6,21.5,18.5,52.5,48.1,77.2l1.6,1.4l1.6-1.4c29.6-24.7,42.4-55.7,48.1-77.2c3-11.6,5.1-23.5,6.4-35.4
	l0.2-1.8l-1.8-0.8c-3.2-1.4-11.9-5-21.3-8.6C192.7,82.2,181.4,79,175.6,79L175.6,79z"/>
<path class="st0" d="M175.6,97.3l22.5-7c-9.7-3.2-18.1-5.8-22.5-5.8c-4.4,0-12.9,2.4-22.5,5.8L175.6,97.3z"/>
<path class="st0" d="M175.6,115.4l31.8-9l16.9,4.8c0.6-3.8,1-7.2,1.4-9.8l0,0l-18.3,5l-31.8-9l-32,9L175.6,115.4z"/>
<path class="st0" d="M125.3,101.3c0.4,2.6,0.8,6,1.4,9.8l16.7-4.6L125.3,101.3z"/>
<path class="st0" d="M128.1,118.8c0.6,3.4,1.4,6.8,2.2,10.5l16.1-4.8l29.2,9l29.2-9l15.9,5c0.8-3.6,1.6-7.2,2.2-10.4l-18.1,5.4
	l-29.2-9l-29.2,9L128.1,118.8z"/>
<path class="st0" d="M132.4,136.7c1,3.2,2,6.8,3.4,10.5l13.5-4.6l26.5,9l26.4-9l13.5,4.6c1.4-3.6,2.4-7,3.4-10.3l-16.9,5.6l-26.6-9
	l-26.3,9L132.4,136.7z"/>
<polygon class="st0" points="175.6,169.5 197.5,160.7 175.6,151.6 153.7,160.7 "/>
<path class="st0" d="M143.4,164.7l10.3-4.2l-15.1-6.3C140,157.6,141.6,161.3,143.4,164.7z"/>
<path class="st0" d="M212.6,154.2l-15.1,6.3l10.3,4.2C209.6,161.3,211.2,157.6,212.6,154.2z"/>
<polygon class="st0" points="175.6,187.6 192.1,178.6 175.6,169.5 159.3,178.6 "/>
<path class="st0" d="M202.4,174.3l-10.3,4.2l5.8,2.8C199.1,179.2,201.1,176.5,202.4,174.3z"/>
<path class="st0" d="M148.9,174.3l10.3,4.2l-5.8,2.8C152.1,179.2,150.3,176.5,148.9,174.3z"/>
<path class="st0" d="M174.8,205.1l0.8,0.4l0.8-0.4c3.9-3.5,7.6-7.2,11.1-11.1l-11.9-6.6l-12.1,6.6C167,198,170.8,201.7,174.8,205.1z
	"/>
<path class="st0" d="M164.5,67.7l-1.8,1.8c1.6,1.5,3.6,2.4,5.8,2.4c2.1,0,4.1-0.8,5.6-2.2v4.8h2.6v-4.8c1.5,1.5,3.5,2.3,5.6,2.2
	c2.2,0,4.3-0.9,5.8-2.4l-1.6-1.8c-2.2,2.2-5.8,2.3-8,0c-2.2-2.2-2.3-5.8,0-8s5.8-2.3,8,0c0,0,0,0,0,0l1.9-1.9
	c-3.1-3.2-8.2-3.3-11.5-0.2v-4.8h-2.7v4.8c-3.2-3.1-8.3-3-11.5,0.2l1.8,1.8c2-2.4,5.6-2.7,8-0.6c2.4,2,2.7,5.6,0.6,8
	c-0.2,0.2-0.4,0.4-0.6,0.6C170.5,69.9,166.8,69.9,164.5,67.7z"/>
<path class="st0" d="M175.8,223h-0.6l-0.2-0.2c-1.2-0.8-2.4-1.8-2.4-1.8c-33.6-26.4-48.1-60.3-54.3-84.1c-7.8-30-7.8-52.5-7.8-52.7
	v-2.4l0.2-0.2c0,0,5.8-5,8-6.8C135.3,61.2,154,50.4,174,42.6l1.6-0.6l1.6,0.6c20,7.8,38.6,18.6,55.3,32.2c2.2,1.8,7.8,6.8,7.8,6.8
	l0.2,0.2v2.4c0,0.2,0,22.7-7.8,52.7c-6,23.7-20.5,57.7-54.1,84.1c0,0-1.2,1-2.4,1.8L175.8,223z M112.5,82.6v1.6
	c0,0.2,0,22.5,7.8,52.1c6,23.7,20.3,57.1,53.5,83.3c0,0,0.8,0.6,1.8,1.4c0.7-0.4,1.3-0.9,1.8-1.4c33.2-26.1,47.5-59.5,53.7-83.1
	c7.6-29.8,7.8-52.1,7.8-52.3v-1.6c-1.2-1-5.8-5-7.6-6.6c-25.5-20.9-54.5-31.6-54.7-31.6l-1-0.4l-1,0.4c-0.2,0-29.2,10.7-54.7,31.8
	C118.1,77.6,113.7,81.6,112.5,82.6z"/>
<rect x="76" y="33" class="st1" width="199" height="199"/>
</svg>
