<?xml version="1.0" encoding="utf-8"?>
<!-- Generator: Adobe Illustrator 25.0.1, SVG Export Plug-In . SVG Version: 6.00 Build 0)  -->
<svg version="1.0" id="katman_1" xmlns="http://www.w3.org/2000/svg" xmlns:xlink="http://www.w3.org/1999/xlink" x="0px" y="0px"
	 viewBox="0 0 880 620" style="enable-background:new 0 0 880 620;" xml:space="preserve">
<style type="text/css">
	.st0{fill-rule:evenodd;clip-rule:evenodd;fill:#1D1D1B;}
	.st1{fill:#1D1D1B;}
</style>
<g>
	<g>
		<path class="st0" d="M255.4,285.6v6.6h10.9l21.2,39.8h26.1l21.2-39.9l10.9-0.1l0-6.5h-32.5v6.5h8.6l-15,28.3l-16.2-28.2l11.8-0.1
			l0-6.6H255.4z M464.9,285.6v6.6h10.9L497,332h26.1l21.2-39.9l10.9-0.1l0-6.5h-32.5v6.5h8.6l-15,28.3l-16.2-28.2l11.8-0.1l0-6.6
			H464.9L464.9,285.6z M411.4,285.6v6.6h10.9l0,32.5h-11.4v7.3l11.4,0.1h54.2v-21.6h-7.1c-0.4,11.4-10.3,14.3-14.5,14.3
			c-3.8,0-11.3,0-11.3,0v-32.5l10.7-0.1l0-6.6H411.4z M374.9,284.2c-18.4,0-33.4,11-33.4,24.5s15,24.5,33.4,24.5s33.4-11,33.4-24.5
			C408.3,295.2,393.4,284.2,374.9,284.2z M374.4,326.1c-6.5,0-11.8-7.8-11.8-17.4c0-9.6,5.3-17.4,11.8-17.4
			c6.5,0,11.8,7.8,11.8,17.4C386.2,318.3,380.9,326.1,374.4,326.1z M584.4,283.4c-18.4,0-33.4,11.2-33.4,24.9
			c0,13.8,15,24.9,33.4,24.9c18.4,0,33.4-11.2,33.4-24.9C617.8,294.6,602.9,283.4,584.4,283.4z M583.9,325.9
			c-6.5,0-11.8-7.9-11.8-17.7c0-9.8,5.3-17.7,11.8-17.7c6.5,0,11.8,7.9,11.8,17.7C595.7,318,590.4,325.9,583.9,325.9z"/>
	</g>
	<path class="st1" d="M560.8,81.2v5c15,7.8,29.2,17.2,42.1,28l-34.4,34.4c12.9,10.2,24.5,21.9,34.6,34.8l34.3-34.3
		c10.6,13.1,19.8,27.4,27.4,42.5h6.4V81.2H560.8z"/>
	<path class="st0" d="M639.3,174.5l-25.7,23.7c20.9,32.3,33.1,70.8,33.1,112.2c0,114-92.4,206.4-206.4,206.4
		s-206.4-92.4-206.4-206.4s92.4-206.4,206.4-206.4c41.5,0,80.2,12.3,112.6,33.4l25.9-24.4C539.4,85.2,491.6,69,440,69
		c-133.1,0-241,107.9-241,241s107.9,241,241,241s241-107.9,241-241C681,259.7,665.6,213.1,639.3,174.5z"/>
</g>
</svg>
