<svg width="117" height="144" viewBox="0 0 117 144" fill="none" xmlns="http://www.w3.org/2000/svg">
<rect width="117" height="144" rx="8" fill="#E2F2FC"/>
<rect x="6" y="120" width="104" height="18" rx="2" fill="white"/>
<rect x="10" y="124" width="29.3333" height="4" rx="2" fill="#E7E7E7"/>
<rect x="43.333" y="124" width="29.3333" height="4" rx="2" fill="#E7E7E7"/>
<rect x="76.667" y="124" width="29.3333" height="4" rx="2" fill="#E7E7E7"/>
<rect x="10" y="130" width="29.3333" height="4" rx="2" fill="#E7E7E7"/>
<rect x="43.333" y="130" width="29.3333" height="4" rx="2" fill="#E7E7E7"/>
<rect x="76.667" y="130" width="29.3333" height="4" rx="2" fill="#E7E7E7"/>
<rect x="6" y="64" width="104" height="40" rx="2" fill="white"/>
<rect x="10" y="68" width="29.3333" height="4" rx="2" fill="#E7E7E7"/>
<rect x="43.333" y="68" width="29.3333" height="4" rx="2" fill="#E7E7E7"/>
<rect x="76.667" y="68" width="29.3333" height="4" rx="2" fill="#E7E7E7"/>
<rect x="10" y="74" width="29.3333" height="4" rx="2" fill="#E7E7E7"/>
<rect x="43.333" y="74" width="29.3333" height="4" rx="2" fill="#E7E7E7"/>
<rect x="76.667" y="74" width="29.3333" height="4" rx="2" fill="#E7E7E7"/>
<rect x="10" y="80" width="29.3333" height="4" rx="2" fill="#E7E7E7"/>
<rect x="43.333" y="80" width="29.3333" height="4" rx="2" fill="#E7E7E7"/>
<rect x="76.667" y="80" width="29.3333" height="4" rx="2" fill="#E7E7E7"/>
<rect x="10" y="92" width="32" height="8" rx="4" fill="#29ABE2"/>
<rect x="74" y="92" width="32" height="8" rx="4" fill="#29ABE2"/>
<rect x="6" y="36" width="63" height="24" rx="2" fill="white"/>
<rect x="10" y="40" width="25.5" height="4" rx="2" fill="#E7E7E7"/>
<rect x="39.5" y="40" width="25.5" height="4" rx="2" fill="#E7E7E7"/>
<rect x="10" y="46" width="25.5" height="4" rx="2" fill="#E7E7E7"/>
<rect x="39.5" y="46" width="25.5" height="4" rx="2" fill="#E7E7E7"/>
<rect x="10" y="52" width="25.5" height="4" rx="2" fill="#E7E7E7"/>
<rect x="39.5" y="52" width="25.5" height="4" rx="2" fill="#E7E7E7"/>
<rect x="73" y="36" width="37" height="24" rx="2" fill="white"/>
<rect x="77" y="40" width="12.5" height="4" rx="2" fill="#E7E7E7"/>
<rect x="93.5" y="40" width="12.5" height="4" rx="2" fill="#E7E7E7"/>
<rect x="77" y="46" width="12.5" height="4" rx="2" fill="#E7E7E7"/>
<rect x="93.5" y="46" width="12.5" height="4" rx="2" fill="#E7E7E7"/>
<rect x="77" y="52" width="12.5" height="4" rx="2" fill="#E7E7E7"/>
<rect x="93.5" y="52" width="12.5" height="4" rx="2" fill="#E7E7E7"/>
</svg>
