<svg width="117" height="144" viewBox="0 0 117 144" fill="none" xmlns="http://www.w3.org/2000/svg">
<rect width="117" height="144" rx="8" fill="#F6F6F6"/>
<rect x="6" y="7" width="104" height="40" rx="4" fill="#29ABE2"/>
<rect x="42" y="102" width="32" height="8" rx="4" fill="#29ABE2"/>
<rect x="6" y="69" width="32" height="4" rx="2" fill="#BFBFBF"/>
<rect x="6" y="127" width="32" height="4" rx="2" fill="#BFBFBF"/>
<rect x="6" y="75" width="32" height="4" rx="2" fill="#BFBFBF"/>
<rect x="6" y="133" width="32" height="4" rx="2" fill="#BFBFBF"/>
<rect x="42" y="69" width="32" height="4" rx="2" fill="#BFBFBF"/>
<rect x="42" y="127" width="32" height="4" rx="2" fill="#BFBFBF"/>
<rect x="42" y="75" width="32" height="4" rx="2" fill="#BFBFBF"/>
<rect x="42" y="133" width="32" height="4" rx="2" fill="#BFBFBF"/>
<rect x="78" y="69" width="32" height="4" rx="2" fill="#BFBFBF"/>
<rect x="78" y="127" width="32" height="4" rx="2" fill="#BFBFBF"/>
<rect x="78" y="75" width="32" height="4" rx="2" fill="#BFBFBF"/>
<rect x="78" y="133" width="32" height="4" rx="2" fill="#BFBFBF"/>
<rect x="78" y="102" width="32" height="8" rx="4" fill="#29ABE2"/>
<rect x="6" y="51" width="104" height="14" rx="4" fill="#E2F2FC"/>
</svg>
