<svg width="117" height="144" viewBox="0 0 117 144" fill="none" xmlns="http://www.w3.org/2000/svg">
<rect width="117" height="144" rx="8" fill="#F6F6F6"/>
<rect x="42" y="102" width="32" height="8" rx="4" fill="#29ABE2"/>
<rect x="6" y="14" width="32" height="8" rx="4" fill="#29ABE2"/>
<rect x="6" y="127" width="32" height="4" rx="2" fill="#E7E7E7"/>
<rect x="6" y="133" width="32" height="4" rx="2" fill="#E7E7E7"/>
<rect x="42" y="127" width="32" height="4" rx="2" fill="#E7E7E7"/>
<rect x="42" y="133" width="32" height="4" rx="2" fill="#E7E7E7"/>
<rect x="78" y="127" width="32" height="4" rx="2" fill="#E7E7E7"/>
<rect x="6" y="48" width="32" height="4" rx="2" fill="#29ABE2"/>
<rect x="42" y="48" width="32" height="4" rx="2" fill="#29ABE2"/>
<rect x="78" y="48" width="32" height="4" rx="2" fill="#29ABE2"/>
<rect x="6" y="54" width="32" height="4" rx="2" fill="#E7E7E7"/>
<rect x="42" y="54" width="32" height="4" rx="2" fill="#E7E7E7"/>
<rect x="78" y="54" width="32" height="4" rx="2" fill="#E7E7E7"/>
<rect x="6" y="60" width="32" height="4" rx="2" fill="#E7E7E7"/>
<rect x="42" y="60" width="32" height="4" rx="2" fill="#E7E7E7"/>
<rect x="78" y="60" width="32" height="4" rx="2" fill="#E7E7E7"/>
<rect x="6" y="66" width="32" height="4" rx="2" fill="#E7E7E7"/>
<rect x="42" y="66" width="32" height="4" rx="2" fill="#E7E7E7"/>
<rect x="78" y="66" width="32" height="4" rx="2" fill="#E7E7E7"/>
<rect x="6" y="72" width="32" height="4" rx="2" fill="#E7E7E7"/>
<rect x="42" y="72" width="32" height="4" rx="2" fill="#E7E7E7"/>
<rect x="78" y="72" width="32" height="4" rx="2" fill="#E7E7E7"/>
<rect x="78" y="133" width="32" height="4" rx="2" fill="#E7E7E7"/>
<rect x="78" y="102" width="32" height="8" rx="4" fill="#29ABE2"/>
</svg>
