<svg width="160" height="160" viewBox="0 0 160 160" fill="none" xmlns="http://www.w3.org/2000/svg">
<path d="M137.5 80C137.5 85.3503 133.163 89.6875 127.813 89.6875H94.375L80 60.6219L95.5158 33.7484C98.1909 29.1152 104.115 27.5276 108.749 30.2024L108.751 30.2034C113.384 32.8784 114.972 38.8032 112.297 43.4368L96.7813 70.3125H127.813C133.163 70.3125 137.5 74.6497 137.5 80Z" fill="#1A73E8"/>
<path d="M108.749 129.797L108.747 129.798C104.114 132.472 98.1896 130.885 95.5145 126.252L79.9987 99.3781L64.4829 126.252C61.8078 130.885 55.8834 132.472 51.25 129.798L51.2481 129.797C46.6145 127.122 45.0267 121.197 47.7017 116.563L63.2174 89.6875L79.9987 89.0625L96.7799 89.6875L112.296 116.563C114.971 121.197 113.383 127.122 108.749 129.797Z" fill="#EA4335"/>
<path d="M79.9987 60.6219L75.6237 72.5L63.2174 70.3125L47.7017 43.4368C45.0267 38.8032 46.6145 32.8784 51.2481 30.2034L51.25 30.2024C55.8834 27.5276 61.8078 29.1152 64.4829 33.7484L79.9987 60.6219Z" fill="#FBBC04"/>
<path d="M77.5 70.3125L66.25 89.6875H32.1875C26.8372 89.6875 22.5 85.3503 22.5 80C22.5 74.6498 26.8372 70.3125 32.1875 70.3125H77.5Z" fill="#34A853"/>
<path d="M96.7813 89.6875H63.2188L80 60.6219L96.7813 89.6875Z" fill="#185DB7"/>
</svg>
