<svg width="80" height="80" viewBox="0 0 80 80" fill="none" xmlns="http://www.w3.org/2000/svg">
<path d="M40 5C20.6597 5 5 20.6814 5 40C5 59.3186 20.6814 75 40 75C59.3186 75 75 59.3186 75 40C75 20.6641 59.3186 5 40 5Z" fill="url(#paint0_linear_8947_11815)"/>
<path d="M55.6992 43.0683L51.6671 34.9997V26.4884C53.7287 24.3877 55.0004 21.5101 55.0004 18.333H36.6671C33.5638 18.333 30.977 20.4641 30.2348 23.333H30.0004C26.3199 23.333 23.3338 26.7445 23.3338 30.9502V48.333C25.2392 48.333 27.0317 47.7992 28.6202 46.8747C28.6072 46.8834 28.5985 46.892 28.5855 46.9007C30.9162 50.7505 35.1654 53.333 40.0004 53.333H51.6671V44.9997H54.5187C55.4996 44.9997 56.1506 43.9493 55.6992 43.0683ZM65.2001 64.2835C58.8329 70.8851 49.8832 74.9997 40.0004 74.9997C30.1176 74.9997 21.168 70.8851 14.8008 64.2835C18.1515 60.6334 22.9692 58.333 28.3338 58.333H51.6671C57.0317 58.333 61.8494 60.6334 65.2001 64.2835Z" fill="url(#paint1_linear_8947_11815)"/>
<defs>
<linearGradient id="paint0_linear_8947_11815" x1="-6.16667" y1="-6.17" x2="153.585" y2="153.582" gradientUnits="userSpaceOnUse">
<stop stop-color="#262626" stop-opacity="0"/>
<stop offset="1" stop-color="#262626" stop-opacity="0.8"/>
</linearGradient>
<linearGradient id="paint1_linear_8947_11815" x1="-2.71457" y1="9.87301" x2="93.2654" y2="90.4097" gradientUnits="userSpaceOnUse">
<stop stop-color="#262626" stop-opacity="0"/>
<stop offset="1" stop-color="#262626" stop-opacity="0.8"/>
</linearGradient>
</defs>
</svg>
