<svg width="24" height="24" viewBox="0 0 24 24" fill="none" xmlns="http://www.w3.org/2000/svg">
<g clip-path="url(#clip0_6522_5008)">
<path d="M23.2076 11.8406C23.2076 14.1956 21.2976 16.1031 18.9451 16.1031C16.5901 16.1031 14.6826 14.1956 14.6826 11.8406C14.6826 9.48562 16.5901 7.57812 18.9451 7.57812C21.2976 7.57812 23.2076 9.48562 23.2076 11.8406Z" stroke="#454545" stroke-miterlimit="10" stroke-linecap="round"/>
<path d="M18.9453 9.47266V14.2077" stroke="#454545" stroke-miterlimit="10"/>
<path d="M21.3127 11.8398H16.5752" stroke="#1C2925" stroke-miterlimit="10"/>
<path d="M18.9454 17.5227V22.2602C18.9454 22.7802 18.5179 23.2077 17.9979 23.2077H5.68285C5.16285 23.2077 4.73535 22.7802 4.73535 22.2602V1.42016C4.73535 0.900156 5.16285 0.472656 5.68285 0.472656H17.9979C18.5179 0.472656 18.9454 0.900156 18.9454 1.42016V6.15766" stroke="#1C2925" stroke-miterlimit="10"/>
</g>
<defs>
<clipPath id="clip0_6522_5008">
<rect width="24" height="24" fill="white"/>
</clipPath>
</defs>
</svg>
