<svg width="24" height="24" viewBox="0 0 24 24" fill="none" xmlns="http://www.w3.org/2000/svg">
<g clip-path="url(#clip0_3906_8963)">
<path d="M10.8926 5.20994V4.26244C10.8926 3.74244 11.3201 3.31494 11.8401 3.31494C12.3601 3.31494 12.7876 3.74244 12.7876 4.26244V5.20994" stroke="currentColor" stroke-miterlimit="10"/>
<path d="M10.0053 17.9974C9.96531 18.1399 9.94531 18.2949 9.94531 18.4699C9.94531 19.5124 10.7978 20.3649 11.8403 20.3649C12.8828 20.3649 13.7353 19.5124 13.7353 18.4699C13.7353 18.2974 13.7153 18.1424 13.6753 17.9999C13.6753 17.9974 13.6753 17.9974 13.6728 17.9949" stroke="currentColor" stroke-miterlimit="10" stroke-linejoin="round"/>
<path d="M16.575 13.735V10.04C16.575 7.20746 14.6725 5.20996 11.84 5.20996C9.00746 5.20996 7.10496 7.14246 7.10496 9.97496V13.67C7.10496 14.7 6.58246 15.85 6.06746 16.71L5.20996 17.9975H18.47L17.6125 16.71C17.0975 15.85 16.575 14.765 16.575 13.735Z" stroke="currentColor" stroke-miterlimit="10" stroke-linejoin="round"/>
<path d="M19.5752 14.84C20.3327 13.5775 20.8377 12.06 20.8377 10.42C20.8377 8.7775 20.3977 7.325 19.5752 6" stroke="currentColor" stroke-miterlimit="10"/>
<path d="M21.6274 16.1024C22.6374 14.4599 23.2074 12.5024 23.2074 10.4199C23.2074 8.33486 22.6374 6.37736 21.6274 4.73486" stroke="currentColor" stroke-miterlimit="10"/>
<path d="M4.10527 14.84C3.34777 13.5775 2.84277 12.06 2.84277 10.42C2.84277 8.7775 3.28277 7.325 4.10527 6" stroke="currentColor" stroke-miterlimit="10"/>
<path d="M2.05266 16.1024C1.04266 14.4599 0.472656 12.5024 0.472656 10.4199C0.472656 8.33486 1.04266 6.37736 2.05266 4.73486" stroke="currentColor" stroke-miterlimit="10"/>
</g>
<defs>
<clipPath id="clip0_3906_8963">
<rect width="24" height="24" fill="white"/>
</clipPath>
</defs>
</svg>
