<svg xmlns="http://www.w3.org/2000/svg" width="24" height="24" viewBox="0 0 24 24" fill="none">
<path d="M10.8925 5.20994V4.26244C10.8925 3.74244 11.32 3.31494 11.84 3.31494C12.36 3.31494 12.7875 3.74244 12.7875 4.26244V5.20994" stroke="currentColor" stroke-miterlimit="10"/>
<path d="M10.005 17.9974C9.965 18.1399 9.945 18.2949 9.945 18.4699C9.945 19.5124 10.7975 20.3649 11.84 20.3649C12.8825 20.3649 13.735 19.5124 13.735 18.4699C13.735 18.2974 13.715 18.1424 13.675 17.9999C13.675 17.9974 13.675 17.9974 13.6725 17.9949" stroke="currentColor" stroke-miterlimit="10" stroke-linejoin="round"/>
<path d="M16.575 13.735V10.04C16.575 7.20746 14.6725 5.20996 11.84 5.20996C9.0075 5.20996 7.105 7.14246 7.105 9.97496V13.67C7.105 14.7 6.5825 15.85 6.0675 16.71L5.21 17.9975H18.47L17.6125 16.71C17.0975 15.85 16.575 14.765 16.575 13.735Z" stroke="currentColor" stroke-miterlimit="10" stroke-linejoin="round"/>
<path d="M19.575 14.84C20.3325 13.5775 20.8375 12.06 20.8375 10.42C20.8375 8.7775 20.3975 7.325 19.575 6" stroke="currentColor" stroke-miterlimit="10"/>
<path d="M21.6275 16.1024C22.6375 14.4599 23.2075 12.5024 23.2075 10.4199C23.2075 8.33486 22.6375 6.37736 21.6275 4.73486" stroke="currentColor" stroke-miterlimit="10"/>
<path d="M4.105 14.84C3.3475 13.5775 2.8425 12.06 2.8425 10.42C2.8425 8.7775 3.2825 7.325 4.105 6" stroke="currentColor" stroke-miterlimit="10"/>
<path d="M2.0525 16.1024C1.0425 14.4599 0.472496 12.5024 0.472496 10.4199C0.472496 8.33486 1.0425 6.37736 2.0525 4.73486" stroke="currentColor" stroke-miterlimit="10"/>
</svg>