<svg width="14" height="13" viewBox="0 0 14 13" fill="none" xmlns="http://www.w3.org/2000/svg">
<path d="M5.33462 1.58582C5.47328 1.37782 5.66828 1.20882 5.91962 1.07882C6.17095 0.948816 6.43962 0.892483 6.72562 0.909816C7.03762 0.918483 7.32362 1.02248 7.58362 1.22182C7.64428 1.27382 7.70928 1.33448 7.77862 1.40382C7.84795 1.47315 7.89995 1.53382 7.93462 1.58582C7.98662 1.66382 8.74495 2.92915 10.2096 5.38182C11.6743 7.83448 12.4196 9.08682 12.4456 9.13882C12.5756 9.39882 12.6189 9.68698 12.5756 10.0033C12.5323 10.3196 12.4066 10.5991 12.1986 10.8418C11.9733 11.1018 11.6829 11.2708 11.3276 11.3488C11.2929 11.3575 11.1976 11.3618 11.0416 11.3618H2.03262C1.57328 11.2578 1.22662 11.0541 0.992616 10.7508C0.793283 10.4995 0.689283 10.2048 0.680616 9.86682C0.671949 9.57215 0.723949 9.31648 0.836616 9.09982C0.853949 9.05648 1.59712 7.81065 3.06612 5.36232C4.53512 2.91398 5.29128 1.65515 5.33462 1.58582ZM11.1586 10.2698C11.3406 10.2005 11.4489 10.0835 11.4836 9.91882C11.5183 9.79748 11.5096 9.68482 11.4576 9.58082C11.4316 9.52882 10.6863 8.28082 9.22162 5.83682C7.75695 3.39282 7.01162 2.15782 6.98562 2.13182C6.90762 2.03648 6.79928 1.98882 6.66062 1.98882C6.49595 1.98882 6.37028 2.04082 6.28362 2.14482C6.25762 2.17082 5.51228 3.40365 4.04762 5.84332C2.58295 8.28298 1.83328 9.53748 1.79862 9.60682C1.75528 9.70215 1.74662 9.81048 1.77262 9.93182C1.81595 10.0878 1.92862 10.2005 2.11062 10.2698H11.1586ZM6.10162 4.77082C6.13628 4.58015 6.23162 4.45015 6.38762 4.38082C6.54362 4.31148 6.70178 4.31365 6.86212 4.38732C7.02245 4.46098 7.12428 4.58882 7.16762 4.77082C7.17628 4.80548 7.18062 5.20415 7.18062 5.96682V6.81182C7.18062 6.98515 7.17628 7.09782 7.16762 7.14982C7.15895 7.20182 7.14162 7.24948 7.11562 7.29282L7.10262 7.30582C7.08528 7.34048 7.05278 7.38165 7.00512 7.42932C6.95745 7.47698 6.91195 7.51165 6.86862 7.53332C6.82528 7.55498 6.77328 7.56582 6.71262 7.56582H6.55662C6.49595 7.56582 6.44612 7.55498 6.40712 7.53332C6.36812 7.51165 6.32262 7.47698 6.27062 7.42932C6.21862 7.38165 6.18395 7.34048 6.16662 7.30582L6.15362 7.29282C6.12762 7.24948 6.11028 7.20182 6.10162 7.14982C6.09295 7.09782 6.08862 6.98515 6.08862 6.81182V5.96682C6.08862 5.20415 6.09295 4.80548 6.10162 4.77082ZM6.50462 8.13782C6.35728 8.16382 6.25112 8.23965 6.18612 8.36532C6.12112 8.49098 6.09945 8.62748 6.12112 8.77482C6.14278 8.92215 6.21212 9.03915 6.32912 9.12582C6.44612 9.21248 6.59995 9.23415 6.79062 9.19082C6.90328 9.15615 6.99645 9.08898 7.07012 8.98932C7.14378 8.88965 7.18062 8.78348 7.18062 8.67082C7.18062 8.49748 7.11128 8.35665 6.97262 8.24832C6.83395 8.13998 6.67795 8.10315 6.50462 8.13782Z" fill="#9B191B"/>
</svg>
