<svg width="216" height="216" viewBox="0 0 216 216" fill="none" xmlns="http://www.w3.org/2000/svg">
<path d="M14.4002 75.5984C14.406 71.0237 17.2887 66.9472 21.6002 65.4176V122.398H28.8002V32.3984C28.807 26.4364 33.6382 21.6052 39.6002 21.5984H136.8V14.3984H39.6002C29.6638 14.4097 21.6114 22.462 21.6002 32.3984V57.9607C13.2252 59.6819 7.211 67.0484 7.2002 75.5984V118.798H14.4002V75.5984Z" fill="currentColor"/>
<path d="M212.4 187.201H208.8V111.602H201.6V187.201H138.291C134.074 187.19 130.028 188.866 127.054 191.856C125.428 193.491 123.215 194.408 120.909 194.401H95.0909C92.7846 194.408 90.5719 193.491 88.9456 191.856C85.972 188.866 81.9261 187.19 77.7091 187.201H14.4V172.802H7.2V187.201H3.6C1.6119 187.201 0 188.813 0 190.801V201.601C0.009 209.551 6.45075 215.992 14.4 216.001H201.6C209.549 215.992 215.991 209.551 216 201.601V190.801C216 188.813 214.388 187.201 212.4 187.201ZM208.8 201.601C208.796 205.576 205.574 208.797 201.6 208.801H14.4C10.4256 208.797 7.2045 205.576 7.2 201.601V194.401H77.7091C80.0154 194.395 82.2281 195.312 83.8543 196.947C86.8243 199.933 90.8644 201.609 95.076 201.601H120.924C125.136 201.609 129.176 199.934 132.146 196.948C133.772 195.312 135.985 194.396 138.291 194.401H208.8V201.601Z" fill="currentColor"/>
<path d="M187.2 111.602H194.4V180.002H187.2V111.602Z" fill="currentColor"/>
<path d="M21.6001 172.801H28.8001V180.001H21.6001V172.801Z" fill="currentColor"/>
<path d="M39.5977 28.8008H46.7977V36.0008H39.5977V28.8008Z" fill="currentColor"/>
<path d="M53.9976 28.8008H61.1976V36.0008H53.9976V28.8008Z" fill="currentColor"/>
<path d="M68.3979 28.8008H75.598V36.0008H68.3979V28.8008Z" fill="currentColor"/>
<path d="M39.6001 43.1992H129.6V50.3992H39.6001V43.1992Z" fill="currentColor"/>
<path d="M95.0056 68.5021C106.647 63.1736 120.242 64.4192 130.721 71.7745L134.867 65.8871C119.966 55.3918 100.077 55.3918 85.1758 65.8871L89.3207 71.7745C91.1122 70.5131 93.0152 69.4178 95.0056 68.5021Z" fill="currentColor"/>
<path d="M131.73 181.596C139.697 173.337 146.003 163.623 150.305 152.985L143.632 150.281C139.673 160.069 133.872 169.005 126.542 176.604L131.73 181.596Z" fill="currentColor"/>
<path d="M212.4 43.2H208.8V32.4C208.8 14.5058 194.294 0 176.4 0C158.506 0 144 14.5058 144 32.4C144 34.3881 145.612 36 147.6 36H162C163.988 36 165.6 34.3881 165.6 32.4C165.6 26.4353 170.435 21.6 176.4 21.6C182.365 21.6 187.2 26.4353 187.2 32.4V43.2H140.4C138.412 43.2 136.8 44.8119 136.8 46.8V79.5357C127.723 74.8359 117.645 72.3987 107.424 72.432H106.92C94.9086 72.4244 83.1748 76.0419 73.2523 82.8108L77.2996 88.7652C86.0287 82.8086 96.3522 79.6248 106.92 79.6302H107.424C117.783 79.583 127.953 82.4112 136.8 87.8V96.48C128.315 90.1643 118.006 86.778 107.428 86.8316H106.924C91.8571 86.8932 77.7699 94.311 69.1937 106.7L67.4648 109.184L73.3756 113.296L75.1013 110.815C82.3306 100.358 94.212 94.0914 106.924 94.0302H107.428C120.856 94.0302 133.228 100.19 140.522 110.505C143.072 114.111 144.979 118.13 146.16 122.385C148.074 129.107 148.072 136.229 146.156 142.95L153.086 144.906C155.365 136.906 155.367 128.429 153.09 120.429C151.688 115.387 149.426 110.626 146.405 106.353C145.933 105.687 145.441 105.037 144.935 104.4H212.4C214.388 104.4 216 102.788 216 100.8V46.8C216 44.8119 214.388 43.2 212.4 43.2ZM176.4 14.4C167.85 14.4108 160.482 20.4246 158.76 28.8H151.456C153.437 15.0242 166.21 5.4621 179.986 7.443C192.396 9.22725 201.607 19.863 201.6 32.4V43.2H194.4V32.4C194.389 22.4636 186.336 14.4113 176.4 14.4ZM208.8 97.2H144V50.4H208.8V97.2Z" fill="currentColor"/>
<path d="M186.69 71.6416C187.027 70.5949 187.199 69.5014 187.2 68.4016C187.2 62.4368 182.365 57.6016 176.4 57.6016C170.435 57.6016 165.6 62.4368 165.6 68.4016C165.6 69.5014 165.773 70.5949 166.11 71.6416C161.27 74.995 158.387 80.5133 158.4 86.4016C158.4 88.3897 160.012 90.0016 162 90.0016H190.8C192.788 90.0016 194.4 88.3897 194.4 86.4016C194.413 80.5133 191.53 74.995 186.69 71.6416ZM166.215 82.8016C167.244 79.895 169.47 77.5685 172.328 76.4116C174.169 75.6601 175.052 73.5586 174.301 71.7181C174.154 71.3576 173.949 71.0233 173.695 70.7281C173.125 70.0859 172.808 69.2597 172.8 68.4016C172.8 66.4135 174.412 64.8016 176.4 64.8016C178.388 64.8016 180 66.4135 180 68.4016C179.992 69.2597 179.675 70.0868 179.105 70.729C177.807 72.2351 177.976 74.5081 179.482 75.8063C179.777 76.0606 180.111 76.2653 180.472 76.4125C183.33 77.5694 185.555 79.895 186.585 82.8016H166.215Z" fill="currentColor"/>
<path d="M3.6 165.602H76.5567L76.1143 166.044L81.2056 171.137L86.7406 165.602H96.8985L86.805 175.692L91.8963 180.784L109.997 162.682C116.984 155.721 122.193 147.18 125.183 137.781C126.826 132.643 125.892 127.028 122.674 122.699C119.444 118.239 114.262 115.608 108.755 115.634H106.92C99.6543 115.634 93.1086 120.41 90.6246 127.54C90.3816 128.253 90.1143 128.935 89.82 129.602H81.585C82.5309 128.243 83.2855 126.761 83.8269 125.196C87.2838 115.17 96.5641 108.434 106.92 108.434H108.756C116.533 108.446 123.844 112.147 128.457 118.408C133.051 124.586 134.383 132.602 132.034 139.933C128.702 150.436 122.895 159.984 115.102 167.773L101.818 181.057L106.909 186.148L120.193 172.864C128.803 164.258 135.218 153.708 138.898 142.105C141.952 132.585 140.227 122.178 134.266 114.153C128.293 106.044 118.827 101.251 108.756 101.234H106.92C93.4942 101.234 81.4788 109.919 77.0206 122.849C76.4658 124.43 75.5658 125.867 74.3863 127.057L71.8407 129.602H3.6C1.6119 129.602 0 131.214 0 133.202V162.002C0 163.99 1.6119 165.602 3.6 165.602ZM106.92 122.834H108.756C111.965 122.82 114.985 124.353 116.867 126.953C118.717 129.435 119.259 132.656 118.32 135.606C116.168 142.451 112.658 148.791 108 154.248V141.496C109.652 138.443 110.956 135.213 111.886 131.869C112.014 131.389 111.729 130.896 111.248 130.768C111.221 130.761 111.194 130.755 111.166 130.75L104.4 129.602H97.542C99.0985 125.482 102.745 122.834 106.92 122.834ZM7.2 136.802H100.8V158.402H7.2V136.802Z" fill="currentColor"/>
<path d="M14.3999 144H21.5999V151.2H14.3999V144Z" fill="currentColor"/>
<path d="M28.7998 144H35.9998V151.2H28.7998V144Z" fill="currentColor"/>
<path d="M43.2002 144H50.4002V151.2H43.2002V144Z" fill="currentColor"/>
<path d="M57.6001 144H64.8001V151.2H57.6001V144Z" fill="currentColor"/>
</svg>
