<svg width="24" height="24" viewBox="0 0 24 24" fill="none" xmlns="http://www.w3.org/2000/svg">
<g clip-path="url(#clip0_3998_4063)">
<path d="M5.27988 18.2399C6.60537 18.2399 7.67988 17.1654 7.67988 15.8399C7.67988 14.5145 6.60537 13.4399 5.27988 13.4399C3.9544 13.4399 2.87988 14.5145 2.87988 15.8399C2.87988 17.1654 3.9544 18.2399 5.27988 18.2399Z" stroke="currentColor" stroke-miterlimit="10"/>
<path d="M18.7203 18.2399C20.0458 18.2399 21.1203 17.1654 21.1203 15.8399C21.1203 14.5145 20.0458 13.4399 18.7203 13.4399C17.3948 13.4399 16.3203 14.5145 16.3203 15.8399C16.3203 17.1654 17.3948 18.2399 18.7203 18.2399Z" stroke="currentColor" stroke-miterlimit="10"/>
<path d="M7.68555 15.8188L16.3942 15.8304" stroke="currentColor" stroke-miterlimit="10"/>
<path d="M21.1742 15.8372L22.5959 15.8391C23.1062 15.8396 23.5204 15.4259 23.5204 14.9156V12.1979C23.5204 11.2532 22.8374 10.4468 21.9052 10.2913L17.7604 9.6001H4.32039L2.05959 9.88282C1.15575 9.99562 0.475595 10.7607 0.468875 11.6718L0.446315 14.8566C0.442475 15.3822 0.867275 15.8103 1.39239 15.8108L2.85975 15.8127" stroke="#1C2925" stroke-miterlimit="10"/>
<path d="M17.4902 9.48793L15.3806 6.47401C15.0672 6.02617 14.555 5.75977 14.0083 5.75977H6.25819C5.63611 5.75977 5.04379 6.02569 4.63051 6.49081L1.44043 10.0798" stroke="#1C2925" stroke-miterlimit="10"/>
<path d="M10.5596 6.24023V9.60023" stroke="#1C2925" stroke-miterlimit="10"/>
</g>
<defs>
<clipPath id="clip0_3998_4063">
<rect width="24" height="24" fill="white"/>
</clipPath>
</defs>
</svg>
