<svg width="24" height="24" viewBox="0 0 24 24" fill="none" xmlns="http://www.w3.org/2000/svg">
<path d="M20.3955 9.17041C20.498 9.19307 20.6197 9.22456 20.7393 9.25928C20.8414 9.28896 20.9377 9.32053 21.0156 9.34717C21.0235 9.37607 21.0339 9.40753 21.042 9.44189C21.052 9.48455 21.0592 9.52834 21.0674 9.56982C20.9571 9.56995 20.5826 9.57226 20.2344 9.57471C20.1479 9.57531 20.0627 9.57609 19.9834 9.57666C20.0101 9.42554 20.0778 9.31855 20.1475 9.24463C20.192 9.19731 20.2366 9.16488 20.2695 9.146C20.3028 9.1512 20.3452 9.15928 20.3955 9.17041Z" fill="currentColor" stroke="currentColor"/>
<path d="M3.72998 9.146C3.763 9.16482 3.80815 9.19699 3.85303 9.24463C3.9226 9.31852 3.98944 9.42565 4.01611 9.57666C3.93703 9.57609 3.85225 9.57531 3.76611 9.57471C3.41699 9.57226 3.04135 9.56994 2.93213 9.56982C2.94033 9.52828 2.94843 9.48462 2.9585 9.44189C2.96657 9.40762 2.97606 9.37601 2.98389 9.34717C3.06201 9.32046 3.15868 9.28906 3.26123 9.25928C3.38078 9.22456 3.50253 9.19307 3.60498 9.17041C3.65485 9.15939 3.69684 9.1512 3.72998 9.146Z" fill="currentColor" stroke="currentColor"/>
<path d="M18.7197 19.5245V20.64C18.7197 20.905 18.9348 21.12 19.1997 21.12H21.1197C21.3847 21.12 21.5997 20.905 21.5997 20.64V15" stroke="currentColor" stroke-miterlimit="10"/>
<path d="M5.2799 19.5245V20.64C5.2799 20.905 5.06486 21.12 4.7999 21.12H2.8799C2.61494 21.12 2.3999 20.905 2.3999 20.64V15" stroke="currentColor" stroke-miterlimit="10"/>
<path d="M4.7998 10.0801C5.7598 10.5601 8.03596 13.4401 8.03596 13.4401C8.30956 13.7526 8.7046 13.9316 9.1198 13.9316H11.9998H14.8798C15.295 13.9316 15.69 13.7526 15.9636 13.4401C15.9636 13.4401 18.2398 10.5601 19.1998 10.0801" stroke="currentColor" stroke-miterlimit="10" stroke-linecap="round"/>
<path d="M21.1329 11.9422C20.6207 11.1742 19.8119 10.6534 19.6026 10.2185C19.0338 9.03721 18.2817 6.62953 17.2348 6.08185C16.7649 5.83657 11.9999 5.75977 11.9999 5.75977C11.9999 5.75977 7.23494 5.83657 6.76502 6.08185C5.71814 6.62953 4.96598 9.03721 4.39718 10.2185C4.1879 10.6534 3.3791 11.1742 2.86694 11.9422C2.6735 12.2321 2.3999 12.9502 2.3999 14.3998C2.3999 15.3866 2.58662 17.4463 2.70566 18.3545C2.76134 18.7798 3.08822 19.1143 3.51254 19.1767C4.7375 19.3567 7.55222 19.6798 11.9999 19.6798C16.4476 19.6798 19.2623 19.3567 20.4873 19.1767C20.9116 19.1143 21.2385 18.7798 21.2941 18.3545C21.4132 17.4463 21.5999 15.3866 21.5999 14.3998C21.5999 12.9502 21.3263 12.2321 21.1329 11.9422Z" stroke="currentColor" stroke-miterlimit="10"/>
<path d="M19.1389 9.6001H4.86084" stroke="currentColor" stroke-miterlimit="10"/>
<path d="M16.9077 18.2398L16.4978 17.7713C16.2242 17.4588 15.8292 17.2798 15.414 17.2798H12.054H8.69396C8.27876 17.2798 7.88372 17.4588 7.61012 17.7713L7.2002 18.2398H16.9077Z" fill="currentColor"/>
<path d="M5.53714 12.721C5.1469 12.5635 4.81474 11.9976 4.33474 12C3.37474 12.0053 3.35986 13.5518 3.35986 13.5518C3.35986 13.5518 3.35602 13.9589 5.41954 13.9277C5.41954 13.9277 6.7165 13.921 6.72034 13.5341C6.7237 13.1779 5.92738 12.8779 5.53714 12.721Z" fill="currentColor"/>
<path d="M19.6649 12C19.1849 11.9976 18.8523 12.5635 18.4625 12.721C18.0723 12.8784 17.2759 13.1784 17.2793 13.5341C17.2831 13.921 18.5801 13.9277 18.5801 13.9277C20.6436 13.9589 20.6398 13.5518 20.6398 13.5518C20.6398 13.5518 20.6249 12.0053 19.6649 12Z" fill="currentColor"/>
<path d="M7.19982 15.8398C6.56862 16.1557 5.87214 16.3198 5.16654 16.3198H4.31982C4.31982 16.3198 4.31982 17.2798 4.79982 17.7598" stroke="currentColor" stroke-miterlimit="10" stroke-linecap="round"/>
<path d="M19.1998 17.7598C19.6798 17.2798 19.6798 16.3198 19.6798 16.3198H18.8331C18.127 16.3198 17.431 16.1557 16.7998 15.8398" stroke="currentColor" stroke-miterlimit="10" stroke-linecap="round"/>
</svg>
