<svg width="24" height="24" viewBox="0 0 24 24" fill="none" xmlns="http://www.w3.org/2000/svg">
<g clip-path="url(#clip0_5139_8680)">
<path d="M21.3127 16.1025C21.3127 17.41 20.2527 18.47 18.9452 18.47C17.6352 18.47 16.5752 17.41 16.5752 16.1025" stroke="#454545" stroke-miterlimit="10" stroke-linecap="round"/>
<path d="M7.10518 16.1025C7.10518 17.41 6.04518 18.47 4.73518 18.47C3.42768 18.47 2.36768 17.41 2.36768 16.1025" stroke="#454545" stroke-miterlimit="10" stroke-linecap="round"/>
<path d="M21.3127 16.1027H22.2602C22.7827 16.1027 23.2077 15.6777 23.2077 15.1552V12.4977C23.2077 11.5727 22.5377 10.7827 21.6227 10.6302L17.5227 9.94522L15.2502 6.91521C14.8927 6.43771 14.3302 6.15771 13.7352 6.15771H7.20766C6.55266 6.15771 5.94766 6.49271 5.60016 7.04771L3.79016 9.94522L2.10016 10.1877C1.16766 10.3202 0.472656 11.1202 0.472656 12.0627V15.1552C0.472656 15.6777 0.897656 16.1027 1.42016 16.1027H2.36766" stroke="#454545" stroke-miterlimit="10"/>
<path d="M4.05016 9.51795L2.93266 8.23045C2.31266 7.51795 1.26516 7.37045 0.472656 7.88045" stroke="#454545" stroke-miterlimit="10" stroke-linecap="round"/>
<path d="M7.10498 16.1025H16.575" stroke="#454545" stroke-miterlimit="10"/>
<path d="M17.9998 3.3999L20.3998 0.999902L22.7998 3.3999" stroke="#454545" stroke-miterlimit="10" stroke-linecap="round"/>
<path d="M20.3999 7.6001L20.3999 2.1601" stroke="#454545" stroke-miterlimit="10" stroke-linecap="round"/>
</g>
<defs>
<clipPath id="clip0_5139_8680">
<rect width="24" height="24" fill="white"/>
</clipPath>
</defs>
</svg>
