<svg width="24" height="24" viewBox="0 0 24 24" fill="none" xmlns="http://www.w3.org/2000/svg">
<path d="M16.4152 14.1697C16.457 14.1491 16.4978 14.126 16.5381 14.1011C17.4252 13.5572 17.6311 12.2176 16.9648 11.1587C16.3005 10.0672 15.0391 9.63516 14.152 10.179C13.9149 10.3144 13.7301 10.5025 13.5967 10.7276" stroke="#454545" stroke-miterlimit="10" stroke-linecap="round"/>
<path d="M18.9941 9.48633C19.1036 9.41982 19.2463 9.45462 19.3125 9.56348C19.3787 9.67285 19.3431 9.81478 19.2344 9.88086L19.2275 9.88477C19.119 9.94603 18.9818 9.91041 18.917 9.80371C18.8588 9.70788 18.8782 9.5876 18.957 9.51465L18.9941 9.48633Z" fill="#454545" stroke="#454545"/>
<path d="M17.3752 15.179L22.8808 11.8051L19.0077 5.5166L12.5752 9.45308" stroke="#454545" stroke-miterlimit="10" stroke-linecap="round"/>
<path d="M7.5494 19.2031L8.75996 20.6772C9.15884 21.1629 9.863 21.2628 10.3814 20.9076C10.967 20.5053 11.0832 19.6884 10.6324 19.1393L10.4587 18.9281M0.959961 11.178L2.27804 12.7831M9.215 6.40822C6.815 7.36822 4.89644 6.1543 4.89644 6.1543M12.095 9.28774L13.055 10.4925L16.9065 15.3257C17.3625 15.8815 17.2377 16.709 16.6377 17.1055C16.1198 17.4477 15.4281 17.3431 15.034 16.8636L14.7048 16.4628L14.8128 16.5948C15.2692 17.1511 15.143 17.9801 14.542 18.3756C14.0246 18.7159 13.3334 18.6113 12.9403 18.1322L12.6124 17.7329M10.5206 19.0029L10.8494 19.4033C11.244 19.8837 11.939 19.9874 12.4564 19.6433C13.0536 19.2458 13.1769 18.4197 12.7219 17.8658L12.6129 17.7333" stroke="#454545" stroke-miterlimit="10" stroke-linecap="round" stroke-linejoin="round"/>
<path d="M3.59586 14.3878C3.15234 14.7516 2.4981 14.6873 2.13426 14.2443C1.77042 13.8008 1.83474 13.1465 2.27778 12.7827L2.81298 12.3435C3.2565 11.9796 3.91074 12.044 4.27458 12.487C4.63842 12.9305 4.5741 13.5848 4.13106 13.9486M3.59586 14.3878L4.13106 13.9486M3.59586 14.3878C3.15282 14.7516 3.0885 15.4059 3.45234 15.8494C3.81618 16.2924 4.47042 16.3568 4.91394 15.9929L5.44914 15.5537C5.89218 15.1894 5.9565 14.5352 5.59266 14.0921C5.22882 13.6491 4.57458 13.5848 4.13106 13.9486M6.23154 17.598C5.78802 17.9619 5.13378 17.8976 4.76994 17.4545C4.4061 17.011 4.47042 16.3568 4.91346 15.9929L5.44866 15.5537C5.89218 15.1899 6.54642 15.2542 6.91026 15.6972C7.27458 16.1403 7.21026 16.7945 6.76674 17.1588M6.23154 17.598L6.76674 17.1588M6.23154 17.598C5.7885 17.9619 5.72418 18.6161 6.08802 19.0596C6.45186 19.5027 7.1061 19.567 7.54962 19.2032L8.08482 18.764C8.52786 18.3996 8.59218 17.7454 8.22834 17.3024C7.8645 16.8593 7.21026 16.795 6.76674 17.1588M15.9352 4.48828L14.0339 5.62492C13.7051 5.75212 13.3408 5.74876 13.0144 5.61628L12.9232 5.57932C11.8912 5.16028 10.7133 5.32492 9.83538 6.01036L6.6861 8.46796C6.08322 8.93836 5.97618 9.8086 6.44658 10.4115C6.91698 11.0144 7.78722 11.1214 8.3901 10.651L10.8928 8.69692C10.8928 8.69692 11.3301 8.97772 12.0127 9.20188" stroke="#454545" stroke-miterlimit="10" stroke-linecap="round" stroke-linejoin="round"/>
</svg>
