<svg xmlns="http://www.w3.org/2000/svg" width="24" height="24" viewBox="0 0 24 24" fill="none">
<path d="M8.16016 4.31994C8.16016 2.72922 9.81328 1.43994 12.0002 1.43994C14.187 1.43994 15.8402 2.72922 15.8402 4.31994" stroke="currentColor" stroke-miterlimit="10" stroke-linecap="round" stroke-linejoin="round"/>
<path d="M23.5205 21.6001C23.5205 22.1305 23.0909 22.5601 22.5605 22.5601H1.44047C0.910069 22.5601 0.480469 22.1305 0.480469 21.6001V5.28007C0.480469 4.74967 0.910069 4.32007 1.44047 4.32007H22.5605C23.0909 4.32007 23.5205 4.74967 23.5205 5.28007V21.6001Z" stroke="currentColor" stroke-miterlimit="10" stroke-linecap="round" stroke-linejoin="round"/>
<path d="M10.0805 14.3999H1.44047C0.910069 14.3999 0.480469 13.9703 0.480469 13.4399" stroke="currentColor" stroke-miterlimit="10" stroke-linecap="round" stroke-linejoin="round"/>
<path d="M23.5199 13.4399C23.5199 13.9703 23.0903 14.3999 22.5599 14.3999H13.9199" stroke="currentColor" stroke-miterlimit="10" stroke-linecap="round" stroke-linejoin="round"/>
<path d="M13.9201 14.88C13.9201 15.4104 13.4905 15.84 12.9601 15.84H11.0401C10.5097 15.84 10.0801 15.4104 10.0801 14.88V13.92C10.0801 13.3896 10.5097 12.96 11.0401 12.96H12.9601C13.4905 12.96 13.9201 13.3896 13.9201 13.92V14.88Z" stroke="currentColor" stroke-miterlimit="10" stroke-linecap="round" stroke-linejoin="round"/>
</svg>