<svg width="24" height="24" viewBox="0 0 24 24" fill="none" xmlns="http://www.w3.org/2000/svg">
<g clip-path="url(#clip0_9226_11440)">
<path d="M8.15991 4.31994C8.15991 2.72922 9.81303 1.43994 11.9999 1.43994C14.1868 1.43994 15.8399 2.72922 15.8399 4.31994" stroke="currentColor" stroke-miterlimit="10" stroke-linecap="round" stroke-linejoin="round"/>
<path d="M23.52 21.5998C23.52 22.1302 23.0904 22.5598 22.56 22.5598H1.43998C0.90958 22.5598 0.47998 22.1302 0.47998 21.5998V5.27982C0.47998 4.74942 0.90958 4.31982 1.43998 4.31982H22.56C23.0904 4.31982 23.52 4.74942 23.52 5.27982V21.5998Z" stroke="currentColor" stroke-miterlimit="10" stroke-linecap="round" stroke-linejoin="round"/>
<path d="M10.08 14.3999H1.43998C0.90958 14.3999 0.47998 13.9703 0.47998 13.4399" stroke="currentColor" stroke-miterlimit="10" stroke-linecap="round" stroke-linejoin="round"/>
<path d="M23.5199 13.4399C23.5199 13.9703 23.0903 14.3999 22.5599 14.3999H13.9199" stroke="currentColor" stroke-miterlimit="10" stroke-linecap="round" stroke-linejoin="round"/>
<path d="M13.9201 14.88C13.9201 15.4104 13.4905 15.84 12.9601 15.84H11.0401C10.5097 15.84 10.0801 15.4104 10.0801 14.88V13.92C10.0801 13.3896 10.5097 12.96 11.0401 12.96H12.9601C13.4905 12.96 13.9201 13.3896 13.9201 13.92V14.88Z" stroke="currentColor" stroke-miterlimit="10" stroke-linecap="round" stroke-linejoin="round"/>
</g>
<defs>
<clipPath id="clip0_9226_11440">
<rect width="24" height="24" fill="white"/>
</clipPath>
</defs>
</svg>
