<svg width="24" height="24" viewBox="0 0 24 24" fill="none" xmlns="http://www.w3.org/2000/svg">
<g clip-path="url(#clip0_6522_8955)">
<path d="M8.52539 14.2074L11.4704 16.8724L15.6304 10.4199" stroke="#454545" stroke-miterlimit="10" stroke-linecap="square"/>
<path d="M5.20992 2.36719H1.89492C1.65492 2.36719 1.41992 2.56969 1.41992 2.82219V21.8847C1.41992 22.1347 1.65492 22.2597 1.89492 22.2597H21.7849C22.0249 22.2597 22.2599 22.1347 22.2599 21.8847V2.82219C22.2599 2.56969 22.0649 2.36719 21.8249 2.36719H18.3524" stroke="#454545" stroke-miterlimit="10" stroke-linejoin="round"/>
<path d="M16.6545 2.36719H7.10449" stroke="#454545" stroke-miterlimit="10" stroke-linejoin="round"/>
<path d="M1.41992 6.62988H22.2599" stroke="#454545" stroke-miterlimit="10" stroke-linejoin="round"/>
<path d="M17.9977 4.26266H17.0502C16.7877 4.26266 16.5752 4.05016 16.5752 3.79016V0.947656C16.5752 0.685156 16.7877 0.472656 17.0502 0.472656H17.9977C18.2577 0.472656 18.4702 0.685156 18.4702 0.947656V3.79016C18.4702 4.05016 18.2577 4.26266 17.9977 4.26266Z" stroke="#454545" stroke-miterlimit="10" stroke-linejoin="round"/>
<path d="M6.62996 4.26266H5.68246C5.42246 4.26266 5.20996 4.05016 5.20996 3.79016V0.947656C5.20996 0.685156 5.42246 0.472656 5.68246 0.472656H6.62996C6.89246 0.472656 7.10496 0.685156 7.10496 0.947656V3.79016C7.10496 4.05016 6.89246 4.26266 6.62996 4.26266Z" stroke="#454545" stroke-miterlimit="10" stroke-linejoin="round"/>
</g>
<defs>
<clipPath id="clip0_6522_8955">
<rect width="24" height="24" fill="white"/>
</clipPath>
</defs>
</svg>
