<svg width="40" height="40" viewBox="0 0 40 40" fill="none" xmlns="http://www.w3.org/2000/svg">
<path d="M11.05 3.94531C7.12497 3.94531 3.9458 7.12448 3.9458 11.0495V28.4161C3.9458 32.3411 7.12497 35.5203 11.05 35.5203H28.4166C32.3416 35.5203 35.5208 32.3411 35.5208 28.4161V11.0495C35.5208 7.12448 32.3416 3.94531 28.4166 3.94531H11.05Z" stroke="#1C2925" stroke-linejoin="round"/>
<path d="M30.7833 14.2076H26.9416C26.3874 14.2076 25.8708 13.9159 25.5874 13.4409L24.1374 11.0284C23.8541 10.5534 23.3416 10.2617 22.7874 10.2617H16.6791C16.1249 10.2617 15.6124 10.5534 15.3291 11.0284L13.8791 13.4409C13.5916 13.9159 13.0791 14.2076 12.5249 14.2076H8.68327C8.24577 14.2076 7.8916 14.5617 7.8916 14.9951V27.6242C7.8916 28.0617 8.24577 28.4159 8.68327 28.4159H30.7833C31.2208 28.4159 31.5749 28.0617 31.5749 27.6242V14.9951C31.5749 14.5617 31.2208 14.2076 30.7833 14.2076Z" stroke="#1C2925" stroke-linejoin="round"/>
<path d="M24.4706 21.3117C24.4706 23.9284 22.3498 26.0492 19.7331 26.0492C17.1164 26.0492 14.9956 23.9284 14.9956 21.3117C14.9956 18.6951 17.1164 16.5742 19.7331 16.5742C22.3498 16.5742 24.4706 18.6951 24.4706 21.3117Z" stroke="#1C2925" stroke-linejoin="round"/>
<path d="M11.8414 12.628H8.68311V11.8405C8.68311 11.403 9.03727 11.0488 9.47061 11.0488H11.0498C11.4873 11.0488 11.8414 11.403 11.8414 11.8405V12.628Z" fill="#1C2925"/>
<path d="M27.6248 16.5746C27.6248 17.0121 27.2748 17.3663 26.8373 17.3663C26.3998 17.3663 26.0498 17.0121 26.0498 16.5746C26.0498 16.1413 26.3998 15.7871 26.8373 15.7871C27.2748 15.7871 27.6248 16.1413 27.6248 16.5746Z" fill="#1C2925"/>
</svg>
