<svg width="24" height="24" viewBox="0 0 24 24" fill="none" xmlns="http://www.w3.org/2000/svg">
<path d="M6.24023 5.75977H13.4402" stroke="#454545" stroke-miterlimit="10" stroke-linecap="round" stroke-linejoin="round"/>
<path d="M16.3198 5.75977H17.7598" stroke="#454545" stroke-miterlimit="10" stroke-linecap="round" stroke-linejoin="round"/>
<path d="M6.24023 8.64014H11.5202" stroke="#454545" stroke-miterlimit="10" stroke-linecap="round" stroke-linejoin="round"/>
<path d="M16.3198 8.64014H17.7598" stroke="#454545" stroke-miterlimit="10" stroke-linecap="round" stroke-linejoin="round"/>
<path d="M6.24023 11.52H13.4402" stroke="#454545" stroke-miterlimit="10" stroke-linecap="round" stroke-linejoin="round"/>
<path d="M16.3198 11.52H17.7598" stroke="#454545" stroke-miterlimit="10" stroke-linecap="round" stroke-linejoin="round"/>
<path d="M6.24023 14.3999H11.5202" stroke="#454545" stroke-miterlimit="10" stroke-linecap="round" stroke-linejoin="round"/>
<path d="M6.23977 17.7598C6.50486 17.7598 6.71977 17.5449 6.71977 17.2798C6.71977 17.0147 6.50486 16.7998 6.23977 16.7998C5.97467 16.7998 5.75977 17.0147 5.75977 17.2798C5.75977 17.5449 5.97467 17.7598 6.23977 17.7598Z" fill="#454545"/>
<path d="M7.6802 17.7598C7.94529 17.7598 8.1602 17.5449 8.1602 17.2798C8.1602 17.0147 7.94529 16.7998 7.6802 16.7998C7.4151 16.7998 7.2002 17.0147 7.2002 17.2798C7.2002 17.5449 7.4151 17.7598 7.6802 17.7598Z" fill="#454545"/>
<path d="M9.12014 17.7598C9.38523 17.7598 9.60014 17.5449 9.60014 17.2798C9.60014 17.0147 9.38523 16.7998 9.12014 16.7998C8.85504 16.7998 8.64014 17.0147 8.64014 17.2798C8.64014 17.5449 8.85504 17.7598 9.12014 17.7598Z" fill="#454545"/>
<path d="M10.5601 17.7598C10.8252 17.7598 11.0401 17.5449 11.0401 17.2798C11.0401 17.0147 10.8252 16.7998 10.5601 16.7998C10.295 16.7998 10.0801 17.0147 10.0801 17.2798C10.0801 17.5449 10.295 17.7598 10.5601 17.7598Z" fill="#454545"/>
<path d="M12 17.7598C12.2651 17.7598 12.48 17.5449 12.48 17.2798C12.48 17.0147 12.2651 16.7998 12 16.7998C11.7349 16.7998 11.52 17.0147 11.52 17.2798C11.52 17.5449 11.7349 17.7598 12 17.7598Z" fill="#454545"/>
<path d="M13.44 17.7598C13.7051 17.7598 13.92 17.5449 13.92 17.2798C13.92 17.0147 13.7051 16.7998 13.44 16.7998C13.1749 16.7998 12.96 17.0147 12.96 17.2798C12.96 17.5449 13.1749 17.7598 13.44 17.7598Z" fill="#454545"/>
<path d="M14.2165 22.0801H3.83988V2.21677L4.10532 2.34925C4.2402 2.41693 4.39956 2.41693 4.53492 2.34925L5.27988 1.97677L6.02532 2.34925C6.1602 2.41693 6.31956 2.41693 6.45492 2.34925L7.19988 1.97677L7.94532 2.34925C8.0802 2.41693 8.23956 2.41693 8.37492 2.34925L9.11988 1.97677L9.86532 2.34925C10.0002 2.41693 10.1596 2.41693 10.2949 2.34925L11.0399 1.97677L11.7853 2.34925C11.9202 2.41693 12.0796 2.41693 12.2149 2.34925L12.9599 1.97677L13.7053 2.34925C13.8402 2.41693 13.9996 2.41693 14.1349 2.34925L14.8799 1.97677L15.6253 2.34925C15.7602 2.41693 15.9196 2.41693 16.0549 2.34925L16.7999 1.97677L17.5453 2.34925C17.6802 2.41693 17.8396 2.41693 17.9749 2.34925L18.7199 1.97677L19.4653 2.34925C19.6002 2.41693 19.7596 2.41693 19.8949 2.34925L20.1599 2.21677V13.5265C20.4906 13.5822 20.8108 13.6657 21.1199 13.7752V1.44013C21.1199 1.27357 21.0335 1.11949 20.8924 1.03165C20.7503 0.943806 20.5736 0.936606 20.4253 1.01053L19.6799 1.38349L18.9344 1.01101C18.7996 0.943326 18.6402 0.943326 18.5048 1.01101L17.7599 1.38349L17.0144 1.01101C16.8796 0.943326 16.7202 0.943326 16.5848 1.01101L15.8399 1.38349L15.0944 1.01101C14.9596 0.943326 14.8002 0.943326 14.6648 1.01101L13.9199 1.38349L13.1744 1.01101C13.0396 0.943326 12.8802 0.943326 12.7448 1.01101L11.9999 1.38349L11.2544 1.01101C11.1196 0.943326 10.9602 0.943326 10.8248 1.01101L10.0799 1.38349L9.33444 1.01101C9.19956 0.943326 9.0402 0.943326 8.90484 1.01101L8.15988 1.38349L7.41444 1.01101C7.27956 0.943326 7.1202 0.943326 6.98484 1.01101L6.23988 1.38349L5.49444 1.01101C5.35956 0.943326 5.2002 0.943326 5.06484 1.01101L4.31988 1.38349L3.57444 1.01053C3.42564 0.936606 3.24948 0.944286 3.1074 1.03165C2.96628 1.11949 2.87988 1.27357 2.87988 1.44013V22.5601C2.87988 22.8256 3.09492 23.0401 3.35988 23.0401H14.9154C14.6509 22.7454 14.4162 22.4248 14.2165 22.0801Z" fill="#454545"/>
<path d="M21.2159 17.8559L19.8719 19.1999L21.2159 20.5439C21.4079 20.7359 21.4079 21.0239 21.2159 21.2159C21.1199 21.3119 20.9759 21.3599 20.8799 21.3599C20.7839 21.3599 20.6399 21.3119 20.5439 21.2159L19.1999 19.8719L17.8559 21.2159C17.7599 21.3119 17.6159 21.3599 17.5199 21.3599C17.4239 21.3599 17.2799 21.3119 17.1839 21.2159C16.9919 21.0239 16.9919 20.7359 17.1839 20.5439L18.5279 19.1999L17.1839 17.8559C16.9919 17.6639 16.9919 17.3759 17.1839 17.1839C17.3759 16.9919 17.6639 16.9919 17.8559 17.1839L19.1999 18.5279L20.5439 17.1839C20.7359 16.9919 21.0239 16.9919 21.2159 17.1839C21.4079 17.3759 21.4079 17.6639 21.2159 17.8559ZM23.9999 19.1999C23.9999 21.8399 21.8399 23.9999 19.1999 23.9999C16.5599 23.9999 14.3999 21.8399 14.3999 19.1999C14.3999 16.5599 16.5599 14.3999 19.1999 14.3999C21.8399 14.3999 23.9999 16.5599 23.9999 19.1999ZM23.0399 19.1999C23.0399 17.0879 21.3119 15.3599 19.1999 15.3599C17.0879 15.3599 15.3599 17.0879 15.3599 19.1999C15.3599 21.3119 17.0879 23.0399 19.1999 23.0399C21.3119 23.0399 23.0399 21.3119 23.0399 19.1999Z" fill="#454545"/>
</svg>
