
<svg width="24" height="24" viewBox="0 0 24 24" fill="none" xmlns="http://www.w3.org/2000/svg">
<path d="M6.24023 5.76001H13.4402" stroke="currentColor" stroke-miterlimit="10" stroke-linecap="round" stroke-linejoin="round"/>
<path d="M16.3198 5.76001H17.7598" stroke="currentColor" stroke-miterlimit="10" stroke-linecap="round" stroke-linejoin="round"/>
<path d="M6.24023 8.63989H11.5202" stroke="currentColor" stroke-miterlimit="10" stroke-linecap="round" stroke-linejoin="round"/>
<path d="M16.3198 8.63989H17.7598" stroke="currentColor" stroke-miterlimit="10" stroke-linecap="round" stroke-linejoin="round"/>
<path d="M6.24023 11.52H13.4402" stroke="currentColor" stroke-miterlimit="10" stroke-linecap="round" stroke-linejoin="round"/>
<path d="M16.3198 11.52H17.7598" stroke="currentColor" stroke-miterlimit="10" stroke-linecap="round" stroke-linejoin="round"/>
<path d="M6.24023 14.3999H11.5202" stroke="currentColor" stroke-miterlimit="10" stroke-linecap="round" stroke-linejoin="round"/>
<path d="M6.23977 17.76C6.50486 17.76 6.71977 17.5451 6.71977 17.28C6.71977 17.015 6.50486 16.8 6.23977 16.8C5.97467 16.8 5.75977 17.015 5.75977 17.28C5.75977 17.5451 5.97467 17.76 6.23977 17.76Z" fill="currentColor"/>
<path d="M7.6802 17.76C7.94529 17.76 8.1602 17.5451 8.1602 17.28C8.1602 17.015 7.94529 16.8 7.6802 16.8C7.4151 16.8 7.2002 17.015 7.2002 17.28C7.2002 17.5451 7.4151 17.76 7.6802 17.76Z" fill="currentColor"/>
<path d="M9.12014 17.76C9.38523 17.76 9.60014 17.5451 9.60014 17.28C9.60014 17.015 9.38523 16.8 9.12014 16.8C8.85504 16.8 8.64014 17.015 8.64014 17.28C8.64014 17.5451 8.85504 17.76 9.12014 17.76Z" fill="currentColor"/>
<path d="M10.5601 17.76C10.8252 17.76 11.0401 17.5451 11.0401 17.28C11.0401 17.015 10.8252 16.8 10.5601 16.8C10.295 16.8 10.0801 17.015 10.0801 17.28C10.0801 17.5451 10.295 17.76 10.5601 17.76Z" fill="currentColor"/>
<path d="M12 17.76C12.2651 17.76 12.48 17.5451 12.48 17.28C12.48 17.015 12.2651 16.8 12 16.8C11.7349 16.8 11.52 17.015 11.52 17.28C11.52 17.5451 11.7349 17.76 12 17.76Z" fill="currentColor"/>
<path d="M13.44 17.76C13.7051 17.76 13.92 17.5451 13.92 17.28C13.92 17.015 13.7051 16.8 13.44 16.8C13.1749 16.8 12.96 17.015 12.96 17.28C12.96 17.5451 13.1749 17.76 13.44 17.76Z" fill="currentColor"/>
<path d="M14.2165 22.0799H3.83988V2.21652L4.10532 2.349C4.2402 2.41668 4.39956 2.41668 4.53492 2.349L5.27988 1.97652L6.02532 2.349C6.1602 2.41668 6.31956 2.41668 6.45492 2.349L7.19988 1.97652L7.94532 2.349C8.0802 2.41668 8.23956 2.41668 8.37492 2.349L9.11988 1.97652L9.86532 2.349C10.0002 2.41668 10.1596 2.41668 10.2949 2.349L11.0399 1.97652L11.7853 2.349C11.9202 2.41668 12.0796 2.41668 12.2149 2.349L12.9599 1.97652L13.7053 2.349C13.8402 2.41668 13.9996 2.41668 14.1349 2.349L14.8799 1.97652L15.6253 2.349C15.7602 2.41668 15.9196 2.41668 16.0549 2.349L16.7999 1.97652L17.5453 2.349C17.6802 2.41668 17.8396 2.41668 17.9749 2.349L18.7199 1.97652L19.4653 2.349C19.6002 2.41668 19.7596 2.41668 19.8949 2.349L20.1599 2.21652V13.5263C20.4906 13.582 20.8108 13.6655 21.1199 13.7749V1.43988C21.1199 1.27332 21.0335 1.11924 20.8924 1.0314C20.7503 0.943562 20.5736 0.936362 20.4253 1.01028L19.6799 1.38324L18.9344 1.01076C18.7996 0.943082 18.6402 0.943082 18.5048 1.01076L17.7599 1.38324L17.0144 1.01076C16.8796 0.943082 16.7202 0.943082 16.5848 1.01076L15.8399 1.38324L15.0944 1.01076C14.9596 0.943082 14.8002 0.943082 14.6648 1.01076L13.9199 1.38324L13.1744 1.01076C13.0396 0.943082 12.8802 0.943082 12.7448 1.01076L11.9999 1.38324L11.2544 1.01076C11.1196 0.943082 10.9602 0.943082 10.8248 1.01076L10.0799 1.38324L9.33444 1.01076C9.19956 0.943082 9.0402 0.943082 8.90484 1.01076L8.15988 1.38324L7.41444 1.01076C7.27956 0.943082 7.1202 0.943082 6.98484 1.01076L6.23988 1.38324L5.49444 1.01076C5.35956 0.943082 5.2002 0.943082 5.06484 1.01076L4.31988 1.38324L3.57444 1.01028C3.42564 0.936362 3.24948 0.944042 3.1074 1.0314C2.96628 1.11924 2.87988 1.27332 2.87988 1.43988V22.5599C2.87988 22.8253 3.09492 23.0399 3.35988 23.0399H14.9154C14.6509 22.7452 14.4162 22.4245 14.2165 22.0799Z" fill="currentColor"/>
<path d="M21.2159 17.8559L19.8719 19.1999L21.2159 20.5439C21.4079 20.7359 21.4079 21.0239 21.2159 21.2159C21.1199 21.3119 20.9759 21.3599 20.8799 21.3599C20.7839 21.3599 20.6399 21.3119 20.5439 21.2159L19.1999 19.8719L17.8559 21.2159C17.7599 21.3119 17.6159 21.3599 17.5199 21.3599C17.4239 21.3599 17.2799 21.3119 17.1839 21.2159C16.9919 21.0239 16.9919 20.7359 17.1839 20.5439L18.5279 19.1999L17.1839 17.8559C16.9919 17.6639 16.9919 17.3759 17.1839 17.1839C17.3759 16.9919 17.6639 16.9919 17.8559 17.1839L19.1999 18.5279L20.5439 17.1839C20.7359 16.9919 21.0239 16.9919 21.2159 17.1839C21.4079 17.3759 21.4079 17.6639 21.2159 17.8559ZM23.9999 19.1999C23.9999 21.8399 21.8399 23.9999 19.1999 23.9999C16.5599 23.9999 14.3999 21.8399 14.3999 19.1999C14.3999 16.5599 16.5599 14.3999 19.1999 14.3999C21.8399 14.3999 23.9999 16.5599 23.9999 19.1999ZM23.0399 19.1999C23.0399 17.0879 21.3119 15.3599 19.1999 15.3599C17.0879 15.3599 15.3599 17.0879 15.3599 19.1999C15.3599 21.3119 17.0879 23.0399 19.1999 23.0399C21.3119 23.0399 23.0399 21.3119 23.0399 19.1999Z" fill="currentColor"/>
</svg>
