<svg width="24" height="24" viewBox="0 0 24 24" fill="none" xmlns="http://www.w3.org/2000/svg">
<path d="M21.3125 16.1025C21.3125 17.41 20.2524 18.47 18.9449 18.47C17.6349 18.47 16.575 17.41 16.575 16.1025" stroke="currentColor" stroke-miterlimit="10" stroke-linecap="round"/>
<path d="M7.10499 16.1025C7.10499 17.41 6.04499 18.47 4.73499 18.47C3.42749 18.47 2.36749 17.41 2.36749 16.1025" stroke="currentColor" stroke-miterlimit="10" stroke-linecap="round"/>
<path d="M21.3125 16.1025H22.26C22.7825 16.1025 23.2075 15.6775 23.2075 15.155V12.4975C23.2075 11.5725 22.5375 10.7825 21.6225 10.63L17.5225 9.94497L15.25 6.91497C14.8925 6.43747 14.33 6.15747 13.735 6.15747H7.20747C6.55247 6.15747 5.94747 6.49247 5.59997 7.04747L3.78997 9.94497L2.09997 10.1875C1.16747 10.32 0.472473 11.12 0.472473 12.0625V15.155C0.472473 15.6775 0.897473 16.1025 1.41997 16.1025H2.36747" stroke="currentColor" stroke-miterlimit="10"/>
<path d="M4.04997 9.51746L2.93247 8.22996C2.31247 7.51746 1.26497 7.36996 0.472473 7.87996" stroke="currentColor" stroke-miterlimit="10" stroke-linecap="round"/>
<path d="M7.10498 16.1025H16.575" stroke="currentColor" stroke-miterlimit="10"/>
<path d="M18 3.3999L20.4 0.999902L22.8 3.3999" stroke="currentColor" stroke-miterlimit="10" stroke-linecap="round"/>
<path d="M20.4 7.59985L20.4 2.15985" stroke="currentColor" stroke-miterlimit="10" stroke-linecap="round"/>
</svg>
