<svg xmlns="http://www.w3.org/2000/svg" width="24" height="24" viewBox="0 0 24 24" fill="none">
<path d="M19.5432 10.0799C19.5432 10.0799 20.8834 10.0698 21.0754 10.0698C21.2674 10.0698 21.6 9.92773 21.6 9.76549C21.6 9.60325 21.4752 9.02533 21.3998 8.96437C21.3245 8.90341 20.4749 8.63989 20.2248 8.63989C20.0515 8.63989 19.4712 8.97781 19.4712 9.71797L19.5432 10.0799Z" fill="currentColor"/>
<path d="M4.45679 10.0799C4.45679 10.0799 3.11663 10.0698 2.92463 10.0698C2.73263 10.0698 2.39999 9.92773 2.39999 9.76549C2.39999 9.60325 2.52479 9.02533 2.60015 8.96437C2.67551 8.90341 3.52511 8.63989 3.77519 8.63989C3.94847 8.63989 4.52879 8.97781 4.52879 9.71797L4.45679 10.0799Z" fill="currentColor"/>
<path d="M18.72 19.5245V20.64C18.72 20.905 18.935 21.12 19.2 21.12H21.12C21.385 21.12 21.6 20.905 21.6 20.64V15" stroke="currentColor" stroke-miterlimit="10"/>
<path d="M5.27999 19.5245V20.64C5.27999 20.905 5.06495 21.12 4.79999 21.12H2.87999C2.61503 21.12 2.39999 20.905 2.39999 20.64V15" stroke="currentColor" stroke-miterlimit="10"/>
<path d="M4.79999 10.0801C5.75999 10.5601 8.03615 13.4401 8.03615 13.4401C8.30975 13.7526 8.70479 13.9316 9.11999 13.9316H12H14.88C15.2952 13.9316 15.6902 13.7526 15.9638 13.4401C15.9638 13.4401 18.24 10.5601 19.2 10.0801" stroke="currentColor" stroke-miterlimit="10" stroke-linecap="round"/>
<path d="M21.133 11.9424C20.6208 11.1744 19.812 10.6536 19.6027 10.2187C19.0339 9.03745 18.2818 6.62977 17.2349 6.08209C16.765 5.83681 12 5.76001 12 5.76001C12 5.76001 7.23503 5.83681 6.76511 6.08209C5.71823 6.62977 4.96607 9.03745 4.39727 10.2187C4.18799 10.6536 3.37919 11.1744 2.86703 11.9424C2.67359 12.2323 2.39999 12.9504 2.39999 14.4C2.39999 15.3869 2.58671 17.4466 2.70575 18.3547C2.76143 18.78 3.08831 19.1146 3.51263 19.177C4.73759 19.357 7.55231 19.68 12 19.68C16.4477 19.68 19.2624 19.357 20.4874 19.177C20.9117 19.1146 21.2386 18.78 21.2942 18.3547C21.4133 17.4466 21.6 15.3869 21.6 14.4C21.6 12.9504 21.3264 12.2323 21.133 11.9424Z" stroke="currentColor" stroke-miterlimit="10"/>
<path d="M19.139 9.6001H4.86096" stroke="currentColor" stroke-miterlimit="10"/>
<path d="M16.9075 18.24L16.4976 17.7715C16.224 17.4591 15.829 17.28 15.4138 17.28H12.0538H8.69377C8.27857 17.28 7.88353 17.4591 7.60993 17.7715L7.20001 18.24H16.9075Z" fill="currentColor"/>
<path d="M5.53727 12.721C5.14703 12.5635 4.81487 11.9976 4.33487 12C3.37487 12.0053 3.35999 13.5518 3.35999 13.5518C3.35999 13.5518 3.35615 13.9589 5.41967 13.9277C5.41967 13.9277 6.71663 13.921 6.72047 13.5341C6.72383 13.1779 5.92751 12.8779 5.53727 12.721Z" fill="currentColor"/>
<path d="M19.6651 12C19.1851 11.9976 18.8525 12.5635 18.4627 12.721C18.0725 12.8784 17.2762 13.1784 17.2795 13.5341C17.2834 13.921 18.5803 13.9277 18.5803 13.9277C20.6438 13.9589 20.64 13.5518 20.64 13.5518C20.64 13.5518 20.6251 12.0053 19.6651 12Z" fill="currentColor"/>
<path d="M7.20001 15.8401C6.56881 16.1559 5.87233 16.3201 5.16673 16.3201H4.32001C4.32001 16.3201 4.32001 17.2801 4.80001 17.7601" stroke="currentColor" stroke-miterlimit="10" stroke-linecap="round"/>
<path d="M19.2 17.7601C19.68 17.2801 19.68 16.3201 19.68 16.3201H18.8333C18.1272 16.3201 17.4312 16.1559 16.8 15.8401" stroke="currentColor" stroke-miterlimit="10" stroke-linecap="round"/>
</svg>