<svg width="24" height="24" viewBox="0 0 24 24" fill="none" xmlns="http://www.w3.org/2000/svg">
<g clip-path="url(#clip0_4135_8469)">
<path d="M13.1175 11.3675C12.3125 10.325 12.125 8.99753 12.7875 8.05003C13.64 6.82003 15.5825 6.63003 17.05 7.67253C18.565 8.71503 19.085 10.5625 18.2325 11.7925C17.7125 12.5975 16.765 12.93 15.7225 12.835" stroke="currentColor" stroke-miterlimit="10" stroke-linecap="round"/>
<path d="M18.1899 5.75586C18.2855 5.61676 18.4742 5.5798 18.6147 5.67383V5.6748C18.7542 5.77084 18.7891 5.95958 18.6929 6.09961L18.6919 6.10156C18.5986 6.23852 18.4093 6.27374 18.272 6.17871L18.269 6.17676L18.2212 6.13672C18.1227 6.03501 18.1072 5.87497 18.189 5.75684L18.1899 5.75586Z" fill="currentColor" stroke="currentColor"/>
<path d="M3.55273 14.965L3.97773 14.8225L7.29273 9.71005C7.53023 9.37755 7.81523 9.14005 8.19273 8.99755L11.9827 7.86255L9.04523 12.5025L10.5627 13.4025L13.3552 11.13C13.9252 10.655 14.7777 10.7025 15.2977 11.225C15.8652 11.745 15.9127 12.5975 15.4402 13.2125L11.8402 17.76C11.1777 18.6125 10.2302 19.1801 9.18773 19.4176L5.11523 20.3175" stroke="currentColor" stroke-miterlimit="10" stroke-linecap="round"/>
<path d="M0.615234 15.3924L3.26773 14.5874L5.40023 21.7374L2.74773 22.5424L0.615234 15.3924Z" stroke="currentColor" stroke-miterlimit="10" stroke-linecap="round"/>
<path d="M11.9829 7.95747L16.3404 1.65747L23.0179 6.29997L14.4454 18.7075L12.3604 17.24" stroke="currentColor" stroke-miterlimit="10" stroke-linecap="round"/>
</g>
<defs>
<clipPath id="clip0_4135_8469">
<rect width="24" height="24" fill="white"/>
</clipPath>
</defs>
</svg>
