<svg width="24" height="24" viewBox="0 0 24 24" fill="none" xmlns="http://www.w3.org/2000/svg">
<g clip-path="url(#clip0_2654_2272)">
<path d="M3.02026 20.281L4.3153 19.4362C5.03146 18.9787 5.4289 18.8995 6.35482 19.3781C7.25098 19.8408 10.0067 21.2803 10.6955 21.6159C12.8127 22.6464 13.7209 21.7239 14.7438 21.1311C15.6164 20.6261 21.7955 16.5154 22.4449 16.0546C23.4587 15.336 23.7692 14.6059 23.3079 14.0026C22.959 13.5466 22.179 13.2687 20.5863 14.2138C20.7337 13.5495 20.5743 13.0963 19.9662 12.9759C19.4271 12.8693 18.6059 13.0747 17.8916 13.573C18.2415 12.0999 16.3412 12.42 15.5012 12.9202C14.7567 13.3632 12.1412 15.0202 12.1412 15.0202" stroke="#6E9383" stroke-miterlimit="10" stroke-linecap="round" stroke-linejoin="round"/>
<path d="M8.63998 17.28C8.63998 17.28 10.3214 17.76 11.6155 17.76C11.6155 17.76 13.7285 17.76 14.4 17.76C15.6019 17.76 16.32 17.3942 16.32 16.56C16.32 15.7963 15.635 15.36 14.4 15.36C13.2701 15.36 11.0712 14.8008 10.4381 14.4211C9.66622 13.9579 9.32398 12.48 6.4627 12.48C5.17102 12.48 4.69294 12.7627 3.97774 13.0454C2.71678 13.5451 0.47998 14.6193 0.47998 14.6193" stroke="#6E9383" stroke-miterlimit="10" stroke-linecap="round" stroke-linejoin="round"/>
<path d="M20.5834 14.2152L16.2476 17.1317" stroke="#6E9383" stroke-miterlimit="10" stroke-linecap="round" stroke-linejoin="round"/>
<path d="M17.8902 13.5806L15.217 15.4233" stroke="#6E9383" stroke-miterlimit="10" stroke-linecap="round" stroke-linejoin="round"/>
<path d="M12 11.52C14.6509 11.52 16.8 9.37095 16.8 6.71998C16.8 4.06902 14.6509 1.91998 12 1.91998C9.34898 1.91998 7.19995 4.06902 7.19995 6.71998C7.19995 9.37095 9.34898 11.52 12 11.52Z" stroke="#6E9383" stroke-miterlimit="10"/>
<path d="M13.9199 7.98815C13.9204 6.84047 12.958 6.61967 12.1852 6.44207C11.4911 6.28271 11.099 6.17087 11.099 5.73167C11.099 5.20607 11.3899 4.96127 12.0143 4.96127C12.694 4.96127 12.8726 5.37935 12.8971 5.75999H13.7875C13.7879 5.38751 13.6367 4.98719 13.3703 4.69535C13.1371 4.44047 12.8313 4.27631 12.4795 4.21055V3.35999H12.4401H11.566H11.5199V4.20959C10.2489 4.42271 10.2086 5.55167 10.2086 5.68559C10.2086 6.87407 11.1705 7.08911 11.9438 7.26191C12.6379 7.41743 13.03 7.52831 13.03 7.99487C13.03 8.27471 12.8961 8.74463 12.0004 8.74463C11.9807 8.74463 11.5156 8.74127 11.2238 8.44943C11.0515 8.27711 10.9684 8.02847 10.9766 7.71023L10.9771 7.67999H10.0857L10.0867 7.7107C10.1155 8.7187 10.5863 9.29519 11.5204 9.47279V10.08H11.5665H12.4406H12.4799V9.48719C13.846 9.26542 13.9199 8.20655 13.9199 7.98815Z" fill="#6E9383"/>
</g>
<defs>
<clipPath id="clip0_2654_2272">
<rect width="24" height="24" fill="white"/>
</clipPath>
</defs>
</svg>
