<svg xmlns="http://www.w3.org/2000/svg" width="24" height="24" viewBox="0 0 24 24" fill="none">
<path d="M12 0.959961C5.9126 0.959961 0.959961 5.9126 0.959961 12C0.959961 18.0878 5.9126 23.04 12 23.04C18.0878 23.04 23.04 18.0878 23.04 12C23.04 5.9126 18.0878 0.959961 12 0.959961ZM17.1969 7.94972L11.6716 16.092L7.35308 12.0844C7.15868 11.9044 7.14716 11.6006 7.32764 11.4062C7.50764 11.2113 7.81196 11.2008 8.00588 11.3808L11.5051 14.6275L16.4025 7.4102C16.5518 7.19084 16.8504 7.1342 17.0692 7.28252C17.2891 7.43132 17.3462 7.72988 17.1969 7.94972Z" fill="currentColor"/>
</svg>