<svg width="24" height="24" viewBox="0 0 24 24" fill="none" xmlns="http://www.w3.org/2000/svg">
<mask id="path-1-inside-1_3118_10030" fill="white">
<path d="M7.19436 1.91626C6.99936 1.91626 6.82498 2.03438 6.74998 2.21438C6.67686 2.39626 6.71998 2.60251 6.86061 2.73938L16.1212 12L6.86061 21.2606C6.73498 21.3806 6.68436 21.5606 6.72936 21.7275C6.77248 21.8963 6.90373 22.0275 7.07248 22.0706C7.23936 22.1156 7.41936 22.065 7.53936 21.9394L17.1394 12.3394C17.3269 12.1519 17.3269 11.8481 17.1394 11.6606L7.53936 2.06063C7.44936 1.96688 7.32561 1.91626 7.19436 1.91626Z"/>
</mask>
<path d="M7.19436 1.91626C6.99936 1.91626 6.82498 2.03438 6.74998 2.21438C6.67686 2.39626 6.71998 2.60251 6.86061 2.73938L16.1212 12L6.86061 21.2606C6.73498 21.3806 6.68436 21.5606 6.72936 21.7275C6.77248 21.8963 6.90373 22.0275 7.07248 22.0706C7.23936 22.1156 7.41936 22.065 7.53936 21.9394L17.1394 12.3394C17.3269 12.1519 17.3269 11.8481 17.1394 11.6606L7.53936 2.06063C7.44936 1.96688 7.32561 1.91626 7.19436 1.91626Z" fill="#1C2925"/>
<path d="M6.74998 2.21438L5.82683 1.82974L5.82217 1.84135L6.74998 2.21438ZM6.86061 2.73938L7.56778 2.03221L7.55809 2.02279L6.86061 2.73938ZM16.1212 12L16.8283 12.7071L17.5354 12L16.8283 11.2929L16.1212 12ZM6.86061 21.2606L7.55134 21.9837L7.55962 21.9758L7.56771 21.9677L6.86061 21.2606ZM6.72936 21.7275L7.6983 21.4799L7.69487 21.4671L6.72936 21.7275ZM7.07248 22.0706L7.33287 21.105L7.32008 21.1018L7.07248 22.0706ZM7.53936 21.9394L6.83225 21.2323L6.82416 21.2404L6.81625 21.2487L7.53936 21.9394ZM7.53936 2.06063L6.81797 2.75317L6.82504 2.76053L6.83225 2.76774L7.53936 2.06063ZM7.19436 1.91626V0.91626C6.58897 0.91626 6.05459 1.28333 5.82691 1.82977L6.74998 2.21438L7.67306 2.599C7.59538 2.78544 7.40974 2.91626 7.19436 2.91626V1.91626ZM6.74998 2.21438L5.82217 1.84135C5.59839 2.39793 5.73061 3.03501 6.16312 3.45598L6.86061 2.73938L7.55809 2.02279C7.70935 2.17001 7.75533 2.39459 7.6778 2.58742L6.74998 2.21438ZM6.86061 2.73938L6.1535 3.44649L15.4141 12.7071L16.1212 12L16.8283 11.2929L7.56771 2.03228L6.86061 2.73938ZM16.1212 12L15.4141 11.2929L6.1535 20.5535L6.86061 21.2606L7.56771 21.9677L16.8283 12.7071L16.1212 12ZM6.86061 21.2606L6.16988 20.5375C5.7814 20.9086 5.62289 21.4651 5.76385 21.9879L6.72936 21.7275L7.69487 21.4671C7.74583 21.6561 7.68856 21.8527 7.55134 21.9837L6.86061 21.2606ZM6.72936 21.7275L5.76049 21.9751C5.89413 22.498 6.30195 22.9059 6.82488 23.0395L7.07248 22.0706L7.32008 21.1018C7.50551 21.1492 7.65083 21.2945 7.69822 21.4799L6.72936 21.7275ZM7.07248 22.0706L6.81212 23.0361C7.33485 23.1771 7.89139 23.0186 8.26247 22.6301L7.53936 21.9394L6.81625 21.2487C6.94732 21.1114 7.14387 21.0542 7.33285 21.1051L7.07248 22.0706ZM7.53936 21.9394L8.24646 22.6465L17.8465 13.0465L17.1394 12.3394L16.4323 11.6323L6.83225 21.2323L7.53936 21.9394ZM17.1394 12.3394L17.8465 13.0465C18.4245 12.4685 18.4245 11.5316 17.8465 10.9535L17.1394 11.6606L16.4323 12.3677C16.2292 12.1647 16.2292 11.8353 16.4323 11.6323L17.1394 12.3394ZM17.1394 11.6606L17.8465 10.9535L8.24646 1.35353L7.53936 2.06063L6.83225 2.76774L16.4323 12.3677L17.1394 11.6606ZM7.53936 2.06063L8.26075 1.3681C7.97355 1.06894 7.58519 0.91626 7.19436 0.91626V1.91626V2.91626C7.06602 2.91626 6.92517 2.86483 6.81797 2.75317L7.53936 2.06063Z" fill="currentColor" mask="url(#path-1-inside-1_3118_10030)"/>
</svg>
