<svg width="24" height="24" viewBox="0 0 24 24" fill="none" xmlns="http://www.w3.org/2000/svg">
<g clip-path="url(#clip0_3243_17515)">
<path d="M22.5599 12.0004C22.5599 17.8329 17.8324 22.5604 11.9999 22.5604C6.16744 22.5604 1.43994 17.8329 1.43994 12.0004C1.43994 6.16793 6.16744 1.44043 11.9999 1.44043C17.8324 1.44043 22.5599 6.16793 22.5599 12.0004Z" stroke="#454545" stroke-miterlimit="10" stroke-linecap="round"/>
<path d="M11.2961 14.5952V13.8902C11.2961 13.2002 11.4498 12.8402 11.8111 12.3402L12.9661 10.7564C13.5673 9.93016 13.7736 9.53391 13.7736 8.94891C13.7736 7.96766 13.0861 7.34766 12.1036 7.34766C11.1398 7.34766 10.5211 7.93266 10.3136 8.98266C10.2973 9.08641 10.2286 9.13766 10.1248 9.12016L9.0398 8.93141C8.93605 8.91391 8.8848 8.84516 8.9023 8.74141C9.16105 7.08891 10.3486 6.00391 12.1386 6.00391C13.9973 6.00391 15.2548 7.22641 15.2548 8.93016C15.2548 9.75766 14.9623 10.3589 14.3773 11.1689L13.2236 12.7527C12.8786 13.2177 12.7761 13.4589 12.7761 14.0439V14.5939C12.7761 14.6977 12.7073 14.7664 12.6036 14.7664H11.4673C11.3648 14.7677 11.2961 14.6989 11.2961 14.5952ZM11.2098 16.2489C11.2098 16.1452 11.2786 16.0764 11.3823 16.0764H12.6911C12.7936 16.0764 12.8623 16.1464 12.8623 16.2489V17.7289C12.8623 17.8327 12.7936 17.9014 12.6911 17.9014H11.3823C11.2773 17.9014 11.2098 17.8327 11.2098 17.7289V16.2489Z" fill="#454545"/>
</g>
<defs>
<clipPath id="clip0_3243_17515">
<rect width="24" height="24" fill="white"/>
</clipPath>
</defs>
</svg>
