
<svg width="16" height="16" viewBox="0 0 16 16" fill="none" xmlns="http://www.w3.org/2000/svg">
<path d="M15.04 7.99996C15.04 11.8883 11.8883 15.04 7.99996 15.04C4.11163 15.04 0.959961 11.8883 0.959961 7.99996C0.959961 4.11163 4.11163 0.959961 7.99996 0.959961C11.8883 0.959961 15.04 4.11163 15.04 7.99996Z" stroke="currentColor" stroke-miterlimit="10" stroke-linecap="round"/>
<path d="M7.53082 9.72994V9.25994C7.53082 8.79994 7.63332 8.55994 7.87416 8.22661L8.64416 7.17077C9.04499 6.61994 9.18249 6.35577 9.18249 5.96577C9.18249 5.31161 8.72416 4.89827 8.06916 4.89827C7.42666 4.89827 7.01416 5.28827 6.87582 5.98827C6.86499 6.05744 6.81916 6.09161 6.74999 6.07994L6.02666 5.95411C5.95749 5.94244 5.92332 5.89661 5.93499 5.82744C6.10749 4.72577 6.89916 4.00244 8.09249 4.00244C9.33166 4.00244 10.17 4.81744 10.17 5.95327C10.17 6.50494 9.97499 6.90577 9.58499 7.44577L8.81582 8.50161C8.58582 8.81161 8.51749 8.97244 8.51749 9.36244V9.72911C8.51749 9.79827 8.47166 9.84411 8.40249 9.84411H7.64499C7.57666 9.84494 7.53082 9.79911 7.53082 9.72994ZM7.47332 10.8324C7.47332 10.7633 7.51916 10.7174 7.58832 10.7174H8.46082C8.52916 10.7174 8.57499 10.7641 8.57499 10.8324V11.8191C8.57499 11.8883 8.52916 11.9341 8.46082 11.9341H7.58832C7.51832 11.9341 7.47332 11.8883 7.47332 11.8191V10.8324Z" fill="currentColor"/>
</svg>
