<svg width="24" height="24" viewBox="0 0 24 24" fill="none" xmlns="http://www.w3.org/2000/svg">
<g clip-path="url(#clip0_8912_19562)">
<path d="M20.6399 10.32C20.3039 10.176 17.3759 8.83201 17.0399 8.73601C15.2159 8.01601 13.8239 8.73601 13.1519 10.224C13.1519 10.224 14.0159 11.232 15.0239 11.136C15.0719 11.616 16.6559 12.384 17.2799 12.144C17.3759 12.72 18.7199 13.536 19.4879 13.152C19.8719 14.304 22.0799 14.256 22.0799 14.256C22.7999 12.72 22.1279 10.992 20.6399 10.32Z" stroke="currentColor" stroke-miterlimit="10" stroke-linecap="round" stroke-linejoin="round"/>
<path d="M20.4001 10.2239L23.5201 1.58394C23.6161 1.24794 23.3281 0.81594 22.8481 0.62394C22.3681 0.38394 21.8401 0.47994 21.6481 0.76794L17.3281 8.87994" stroke="currentColor" stroke-miterlimit="10" stroke-linecap="round"/>
<path d="M22.1279 14.208C20.1599 21.216 16.5119 23.52 16.5119 23.52C16.5119 23.52 8.68786 23.28 3.35986 16.704C4.46386 16.8 10.7519 16.32 13.1519 10.224" stroke="currentColor" stroke-miterlimit="10" stroke-linecap="round" stroke-linejoin="round"/>
<path d="M12.0479 17.328C9.64794 20.016 7.43994 20.16 7.43994 20.16" stroke="currentColor" stroke-miterlimit="10" stroke-linecap="round" stroke-linejoin="round"/>
<path d="M16.1282 18.7679C14.1602 21.6959 12.0962 22.5119 12.0962 22.5119" stroke="currentColor" stroke-miterlimit="10" stroke-linecap="round" stroke-linejoin="round"/>
<path d="M1.91998 7.19995C2.71527 7.19995 3.35998 6.55524 3.35998 5.75995C3.35998 4.96466 2.71527 4.31995 1.91998 4.31995C1.12469 4.31995 0.47998 4.96466 0.47998 5.75995C0.47998 6.55524 1.12469 7.19995 1.91998 7.19995Z" stroke="currentColor" stroke-miterlimit="10" stroke-linecap="round"/>
<path d="M6.23979 7.20003C6.76998 7.20003 7.19979 6.77022 7.19979 6.24003C7.19979 5.70984 6.76998 5.28003 6.23979 5.28003C5.70959 5.28003 5.27979 5.70984 5.27979 6.24003C5.27979 6.77022 5.70959 7.20003 6.23979 7.20003Z" fill="currentColor"/>
<path d="M5.51986 13.44C6.7128 13.44 7.67986 12.4729 7.67986 11.28C7.67986 10.0871 6.7128 9.12 5.51986 9.12C4.32693 9.12 3.35986 10.0871 3.35986 11.28C3.35986 12.4729 4.32693 13.44 5.51986 13.44Z" stroke="currentColor" stroke-miterlimit="10" stroke-linecap="round"/>
<path d="M12.0962 12.24C12.0962 12.24 12.9122 13.488 14.1602 13.152C14.3042 13.968 15.7442 14.544 16.4162 14.256C16.6562 15.072 17.9522 15.648 18.7682 15.36C19.3922 16.56 21.4562 16.416 21.4562 16.416" stroke="currentColor" stroke-miterlimit="10" stroke-linecap="round" stroke-linejoin="round"/>
</g>
<defs>
<clipPath id="clip0_8912_19562">
<rect width="24" height="24" fill="white"/>
</clipPath>
</defs>
</svg>
