<svg width="24" height="24" viewBox="0 0 24 24" fill="none" xmlns="http://www.w3.org/2000/svg">
<path d="M11.9679 16.0934C11.8978 15.3196 11.9247 14.7796 11.9247 14.0726C12.2751 13.8888 12.9029 12.7166 13.009 11.7264C13.2845 11.7038 13.7189 11.435 13.8461 10.3737C13.9147 9.80397 13.6421 9.48333 13.476 9.38253C13.9243 8.03421 14.8555 3.86301 11.7538 3.43197C11.4346 2.87133 10.6171 2.58765 9.55489 2.58765C5.30497 2.66589 4.79233 5.79693 5.72401 9.38253C5.55841 9.48333 5.28577 9.80397 5.35393 10.3737C5.48161 11.435 5.91553 11.7038 6.19105 11.7264C6.29665 12.7161 6.94945 13.8888 7.30081 14.0726C7.30081 14.7796 7.32721 15.3196 7.25713 16.0934C6.41617 18.3542 0.742091 17.7196 0.480011 22.08H18.72C18.4584 17.7196 12.8088 18.3542 11.9679 16.0934Z" stroke="currentColor" fill="transparent" stroke-miterlimit="10" stroke-linecap="round"/>
<path d="M17.4826 19.4817H23.52C23.3006 15.8102 18.5424 16.3454 17.8334 14.4417C17.7749 13.7894 17.7974 13.3348 17.7974 12.7392C18.0931 12.5841 18.6216 11.5977 18.7109 10.764C18.9418 10.7443 19.3085 10.5187 19.4165 9.62492C19.4736 9.14492 19.2437 8.87516 19.1035 8.78972C19.4808 7.65356 20.2661 4.14188 17.6534 3.77852C17.3846 3.30668 16.6968 3.06812 15.8016 3.06812C14.6722 3.08876 13.8566 3.36572 13.2926 3.82988" stroke="currentColor" fill="transparent" stroke-miterlimit="10" stroke-linecap="round"/>
</svg>
