<svg width="16" height="16" viewBox="0 0 16 16" fill="none" xmlns="http://www.w3.org/2000/svg">
<g clip-path="url(#clip0_5745_16766)">
<path d="M14.84 7.89393C14.84 11.7306 11.73 14.8406 7.89332 14.8406C4.05666 14.8406 0.946655 11.7306 0.946655 7.89393C0.946655 4.05727 4.05666 0.947266 7.89332 0.947266C11.73 0.947266 14.84 4.05727 14.84 7.89393Z" stroke="#878787" stroke-miterlimit="10" stroke-linecap="round"/>
<path d="M8.83999 7.89393C8.83999 8.41727 8.41666 8.8406 7.89332 8.8406C7.36999 8.8406 6.94666 8.41727 6.94666 7.89393C6.94666 7.3706 7.36999 6.94727 7.89332 6.94727C8.41666 6.94727 8.83999 7.3706 8.83999 7.89393Z" fill="#878787"/>
<path d="M9.47164 10.7357L7.89331 7.89406L11.6816 3.78906" stroke="#878787" stroke-miterlimit="10" stroke-linecap="round"/>
</g>
<defs>
<clipPath id="clip0_5745_16766">
<rect width="16" height="16" fill="white"/>
</clipPath>
</defs>
</svg>
