<svg width="80" height="80" viewBox="0 0 80 80" fill="none" xmlns="http://www.w3.org/2000/svg">
<g clip-path="url(#clip0_8839_18126)">
<path d="M68.333 71.6663H11.6663C7.08301 71.6663 3.33301 67.9163 3.33301 63.333H76.6663C76.6663 67.9163 72.9163 71.6663 68.333 71.6663Z" fill="url(#paint0_linear_8839_18126)"/>
<path d="M68.3327 28.333V36.6663C68.3327 47.4997 62.265 56.9007 53.35 61.6663L50.2294 63.333H29.7693L26.6487 61.6663C17.7337 56.9007 11.666 47.4997 11.666 36.6663V28.333H68.3327Z" fill="url(#paint1_linear_8839_18126)"/>
<path d="M79.9998 45C79.9998 47.7648 78.8843 50.2648 77.0658 52.066C75.2645 53.8845 72.7645 55 69.9998 55H61.584C65.7984 50.0651 68.3331 43.6675 68.3331 36.6667V35H69.9998C75.5163 35 79.9998 39.4835 79.9998 45Z" fill="url(#paint2_linear_8839_18126)"/>
<path d="M48.333 9.99967C48.333 11.9398 47.5084 13.6846 46.1846 14.8998C43.3504 17.517 41.6663 21.1412 41.6663 24.9997C37.9858 24.9997 34.9997 22.0136 34.9997 18.333C34.9997 16.3929 35.8243 14.6481 37.1481 13.4328C39.9823 10.8156 41.6663 7.19151 41.6663 3.33301C45.3469 3.33301 48.333 6.31912 48.333 9.99967ZM24.9997 3.33301C24.9997 7.19151 23.3156 10.8156 20.4814 13.4328C19.1577 14.6481 18.333 16.3929 18.333 18.333C18.333 22.0136 21.3191 24.9997 24.9997 24.9997C24.9997 21.1412 26.6837 17.517 29.5179 14.8998C30.8417 13.6846 31.6663 11.9398 31.6663 9.99967C31.6663 6.31912 28.6802 3.33301 24.9997 3.33301ZM58.333 3.33301C58.333 7.19151 56.649 10.8156 53.8148 13.4328C52.491 14.6481 51.6663 16.3929 51.6663 18.333C51.6663 22.0136 54.6525 24.9997 58.333 24.9997C58.333 21.1412 60.017 17.517 62.8512 14.8998C64.175 13.6846 64.9997 11.9398 64.9997 9.99967C64.9997 6.31912 62.0136 3.33301 58.333 3.33301Z" fill="url(#paint3_linear_8839_18126)"/>
</g>
<defs>
<linearGradient id="paint0_linear_8839_18126" x1="32.4747" y1="91.9647" x2="44.5247" y2="46.993" gradientUnits="userSpaceOnUse">
<stop stop-color="#262626" stop-opacity="0"/>
<stop offset="1" stop-color="#262626" stop-opacity="0.8"/>
</linearGradient>
<linearGradient id="paint1_linear_8839_18126" x1="56.1627" y1="79.4197" x2="28.061" y2="2.20967" gradientUnits="userSpaceOnUse">
<stop stop-color="#262626" stop-opacity="0"/>
<stop offset="1" stop-color="#262626" stop-opacity="0.8"/>
</linearGradient>
<linearGradient id="paint2_linear_8839_18126" x1="92.9014" y1="52.0867" x2="61.6881" y2="43.7233" gradientUnits="userSpaceOnUse">
<stop stop-color="#262626" stop-opacity="0"/>
<stop offset="1" stop-color="#262626" stop-opacity="0.8"/>
</linearGradient>
<linearGradient id="paint3_linear_8839_18126" x1="39.0997" y1="28.7263" x2="46.2113" y2="-11.6087" gradientUnits="userSpaceOnUse">
<stop stop-color="#262626" stop-opacity="0"/>
<stop offset="1" stop-color="#262626" stop-opacity="0.8"/>
</linearGradient>
<clipPath id="clip0_8839_18126">
<rect width="80" height="80" fill="white"/>
</clipPath>
</defs>
</svg>
