<svg width="23" height="21" viewBox="0 0 23 21" fill="none" xmlns="http://www.w3.org/2000/svg">
<path d="M21.4336 18.5C21.2095 19.3592 20.4262 20 19.5 20H2.5C1.57381 20 0.790465 19.3592 0.566406 18.5H21.4336Z" stroke="currentColor"/>
<path d="M19 8V10C19 12.9629 17.3927 15.5463 15.0029 16.9287L14.7695 17.0586L13.9424 17.5H8.05762L7.23047 17.0586C4.71246 15.7124 3 13.0583 3 10V8H19Z" stroke="currentColor"/>
<path d="M19.9998 10C21.3786 10 22.4998 11.1212 22.4998 12.5C22.4998 13.1921 22.2218 13.8155 21.7683 14.2646L21.7644 14.2676C21.3152 14.7211 20.6919 15 19.9998 15H18.4792C19.4397 13.5709 19.9998 11.8518 19.9998 10Z" stroke="currentColor"/>
<path d="M6.96094 0.572266C7.56366 0.766889 8 1.33277 8 2C8 2.43709 7.81503 2.82838 7.51758 3.10156L7.5166 3.10254C6.71041 3.847 6.17827 4.84144 6.03809 5.92676C5.43597 5.73178 5 5.1668 5 4.5C5 4.06291 5.18497 3.67162 5.48242 3.39844L5.4834 3.39746C6.2898 2.6528 6.82092 1.65791 6.96094 0.572266ZM11.9609 0.572266C12.5637 0.766889 13 1.33277 13 2C13 2.43709 12.815 2.82838 12.5176 3.10156L12.5166 3.10254C11.7104 3.847 11.1783 4.84144 11.0381 5.92676C10.436 5.73178 10 5.1668 10 4.5C10 4.06291 10.185 3.67162 10.4824 3.39844L10.4834 3.39746C11.2898 2.6528 11.8209 1.65791 11.9609 0.572266ZM16.9609 0.572266C17.5637 0.766889 18 1.33277 18 2C18 2.43709 17.815 2.82838 17.5176 3.10156L17.5166 3.10254C16.7104 3.847 16.1783 4.84144 16.0381 5.92676C15.436 5.73178 15 5.1668 15 4.5C15 4.06291 15.185 3.67162 15.4824 3.39844L15.4834 3.39746C16.2898 2.6528 16.8209 1.65791 16.9609 0.572266Z" stroke="currentColor"/>
</svg>
