<svg xmlns="http://www.w3.org/2000/svg" width="24" height="24" viewBox="0 0 24 24" fill="none">
    <path d="M23.2078 2.84241C23.2078 4.14991 20.2378 5.20991 16.5753 5.20991C12.9153 5.20991 9.94531 4.14991 9.94531 2.84241C9.94531 1.53491 12.9153 0.472412 16.5753 0.472412C20.2378 0.472412 23.2078 1.53491 23.2078 2.84241Z" stroke="currentColor" stroke-miterlimit="10" stroke-linecap="round" stroke-linejoin="round"/>
    <path d="M9.94531 3.31494C9.94531 3.74744 9.94531 5.72494 9.94531 6.15744C9.94531 7.46494 12.9128 8.52494 16.5753 8.52494C20.2403 8.52494 23.2078 7.46494 23.2078 6.15744C23.2078 5.72494 23.2078 3.74744 23.2078 3.31494" stroke="currentColor" stroke-miterlimit="10" stroke-linecap="round" stroke-linejoin="round"/>
    <path d="M13.5225 11.5749C14.435 11.7449 15.475 11.8399 16.575 11.8399C20.24 11.8399 23.2075 10.7799 23.2075 9.47238C23.2075 9.03988 23.2075 7.06238 23.2075 6.62988" stroke="currentColor" stroke-miterlimit="10" stroke-linecap="round" stroke-linejoin="round"/>
    <path d="M9.94531 6.62988C9.94531 7.06238 9.94531 8.65238 9.94531 8.65238" stroke="currentColor" stroke-miterlimit="10" stroke-linecap="round" stroke-linejoin="round"/>
    <path d="M13.7451 14.9298C14.6051 15.0748 15.5626 15.1548 16.5751 15.1548C20.2401 15.1548 23.2076 14.0948 23.2076 12.7873C23.2076 12.3548 23.2076 10.3773 23.2076 9.94482" stroke="currentColor" stroke-miterlimit="10" stroke-linecap="round" stroke-linejoin="round"/>
    <path d="M13.71 18.2375C14.5775 18.3875 15.55 18.47 16.575 18.47C20.24 18.47 23.2075 17.41 23.2075 16.1025C23.2075 15.67 23.2075 13.6925 23.2075 13.26" stroke="currentColor" stroke-miterlimit="10" stroke-linecap="round" stroke-linejoin="round"/>
    <path d="M13.7352 10.8924C13.7352 12.1999 10.7652 13.2599 7.10516 13.2599C3.44266 13.2599 0.472656 12.1999 0.472656 10.8924C0.472656 9.5849 3.44266 8.5249 7.10516 8.5249C10.7652 8.5249 13.7352 9.5849 13.7352 10.8924Z" stroke="currentColor" stroke-miterlimit="10" stroke-linecap="round" stroke-linejoin="round"/>
    <path d="M0.472656 11.3674C0.472656 11.7974 0.472656 13.7749 0.472656 14.2074C0.472656 15.5149 3.44016 16.5749 7.10516 16.5749C10.7677 16.5749 13.7352 15.5149 13.7352 14.2074C13.7352 13.7749 13.7352 11.7974 13.7352 11.3674" stroke="currentColor" stroke-miterlimit="10" stroke-linecap="round" stroke-linejoin="round"/>
    <path d="M0.472656 14.6824C0.472656 15.1124 0.472656 17.0924 0.472656 17.5224C0.472656 18.8324 3.44016 19.8899 7.10516 19.8899C10.7677 19.8899 13.7352 18.8324 13.7352 17.5224C13.7352 17.0924 13.7352 15.1124 13.7352 14.6824" stroke="currentColor" stroke-miterlimit="10" stroke-linecap="round" stroke-linejoin="round"/>
    <path d="M0.472656 17.9973C0.472656 18.4273 0.472656 20.4073 0.472656 20.8373C0.472656 22.1473 3.44016 23.2073 7.10516 23.2073C10.7677 23.2073 13.7352 22.1473 13.7352 20.8373C13.7352 20.4073 13.7352 18.4273 13.7352 17.9973" stroke="currentColor" stroke-miterlimit="10" stroke-linecap="round" stroke-linejoin="round"/>
</svg>