<svg width="16" height="16" viewBox="0 0 16 16" fill="none" xmlns="http://www.w3.org/2000/svg">
<path d="M5.57959 12.3398V12.6201H4.02002V12.3398H5.57959Z" fill="#878787" stroke="#878787"/>
<path d="M8.77954 12.3398V12.6201H7.21997V12.3398H8.77954Z" fill="#878787" stroke="#878787"/>
<path d="M12.1599 13.1198H10.2399C10.0633 13.1198 9.91992 12.9765 9.91992 12.7998V12.1598C9.91992 11.9832 10.0633 11.8398 10.2399 11.8398H12.1599C12.3366 11.8398 12.4799 11.9832 12.4799 12.1598V12.7998C12.4799 12.9765 12.3366 13.1198 12.1599 13.1198Z" fill="#878787"/>
<path d="M5.76002 15.0398H3.84002C3.66338 15.0398 3.52002 14.8964 3.52002 14.7198V14.0798C3.52002 13.9031 3.66338 13.7598 3.84002 13.7598H5.76002C5.93666 13.7598 6.08002 13.9031 6.08002 14.0798V14.7198C6.08002 14.8964 5.93666 15.0398 5.76002 15.0398Z" fill="#878787"/>
<path d="M8.95997 15.0398H7.03997C6.86333 15.0398 6.71997 14.8964 6.71997 14.7198V14.0798C6.71997 13.9031 6.86333 13.7598 7.03997 13.7598H8.95997C9.13661 13.7598 9.27997 13.9031 9.27997 14.0798V14.7198C9.27997 14.8964 9.13661 15.0398 8.95997 15.0398Z" fill="#878787"/>
<path d="M12.1599 15.0398H10.2399C10.0633 15.0398 9.91992 14.8964 9.91992 14.7198V14.0798C9.91992 13.9031 10.0633 13.7598 10.2399 13.7598H12.1599C12.3366 13.7598 12.4799 13.9031 12.4799 14.0798V14.7198C12.4799 14.8964 12.3366 15.0398 12.1599 15.0398Z" fill="#878787"/>
<path d="M2.23999 14.7201V9.60014C2.23999 9.07214 2.67199 8.64014 3.19999 8.64014H4.15999" stroke="#878787" stroke-miterlimit="10" stroke-linecap="round" stroke-linejoin="round"/>
<path d="M11.8401 8.64014H12.8001C13.3281 8.64014 13.7601 9.07214 13.7601 9.60014V14.7201" stroke="#878787" stroke-miterlimit="10" stroke-linecap="round" stroke-linejoin="round"/>
<path d="M12.8 10.2401C12.8 9.8865 12.5136 9.6001 12.16 9.6001H11.52V10.5601H4.47995V9.6001H3.83995C3.48635 9.6001 3.19995 9.8865 3.19995 10.2401C3.19995 10.5937 3.48635 10.8801 3.83995 10.8801H12.16C12.5136 10.8801 12.8 10.5937 12.8 10.2401Z" fill="#878787"/>
<path d="M4.15991 10.56V1.28003L4.79991 1.60003L5.43991 1.28003L6.07991 1.60003L6.71991 1.28003L7.35991 1.60003L7.99991 1.28003L8.63991 1.60003L9.27991 1.28003L9.91991 1.60003L10.5599 1.28003L11.1999 1.60003L11.8399 1.28003V10.56H4.15991Z" stroke="#878787" stroke-miterlimit="10" stroke-linecap="round" stroke-linejoin="round"/>
<path d="M9.2799 4.79984C9.2799 4.79984 9.2799 3.83984 7.9999 3.83984C6.7199 3.83984 6.7199 4.81648 6.7199 4.81648C6.7199 6.2024 9.5999 5.68592 9.5999 7.21392C9.5999 7.21392 9.5999 8.31984 7.9999 8.31984C6.3999 8.31984 6.3999 7.03984 6.3999 7.03984" stroke="#878787" stroke-miterlimit="10" stroke-linejoin="round"/>
<path d="M8 2.87988V3.83988" stroke="#878787" stroke-miterlimit="10" stroke-linejoin="round"/>
<path d="M8 9.27982V8.31982" stroke="#878787" stroke-miterlimit="10" stroke-linejoin="round"/>
</svg>
