<svg width="16" height="16" viewBox="0 0 16 16" fill="none" xmlns="http://www.w3.org/2000/svg">
<path d="M5.57959 12.3401V12.6204H4.02002V12.3401H5.57959Z" fill="currentColor" stroke="currentColor"/>
<path d="M8.77954 12.3401V12.6204H7.21997V12.3401H8.77954Z" fill="currentColor" stroke="currentColor"/>
<path d="M12.1599 13.1201H10.2399C10.0633 13.1201 9.91992 12.9767 9.91992 12.8001V12.1601C9.91992 11.9834 10.0633 11.8401 10.2399 11.8401H12.1599C12.3366 11.8401 12.4799 11.9834 12.4799 12.1601V12.8001C12.4799 12.9767 12.3366 13.1201 12.1599 13.1201Z" fill="currentColor"/>
<path d="M5.76002 15.04H3.84002C3.66338 15.04 3.52002 14.8966 3.52002 14.72V14.08C3.52002 13.9034 3.66338 13.76 3.84002 13.76H5.76002C5.93666 13.76 6.08002 13.9034 6.08002 14.08V14.72C6.08002 14.8966 5.93666 15.04 5.76002 15.04Z" fill="currentColor"/>
<path d="M8.95997 15.04H7.03997C6.86333 15.04 6.71997 14.8966 6.71997 14.72V14.08C6.71997 13.9034 6.86333 13.76 7.03997 13.76H8.95997C9.13661 13.76 9.27997 13.9034 9.27997 14.08V14.72C9.27997 14.8966 9.13661 15.04 8.95997 15.04Z" fill="currentColor"/>
<path d="M12.1599 15.04H10.2399C10.0633 15.04 9.91992 14.8966 9.91992 14.72V14.08C9.91992 13.9034 10.0633 13.76 10.2399 13.76H12.1599C12.3366 13.76 12.4799 13.9034 12.4799 14.08V14.72C12.4799 14.8966 12.3366 15.04 12.1599 15.04Z" fill="currentColor"/>
<path d="M2.23999 14.7199V9.59989C2.23999 9.07189 2.67199 8.63989 3.19999 8.63989H4.15999" stroke="currentColor" stroke-miterlimit="10" stroke-linecap="round" stroke-linejoin="round"/>
<path d="M11.8401 8.63989H12.8001C13.3281 8.63989 13.7601 9.07189 13.7601 9.59989V14.7199" stroke="currentColor" stroke-miterlimit="10" stroke-linecap="round" stroke-linejoin="round"/>
<path d="M12.8 10.2401C12.8 9.8865 12.5136 9.6001 12.16 9.6001H11.52V10.5601H4.47995V9.6001H3.83995C3.48635 9.6001 3.19995 9.8865 3.19995 10.2401C3.19995 10.5937 3.48635 10.8801 3.83995 10.8801H12.16C12.5136 10.8801 12.8 10.5937 12.8 10.2401Z" fill="currentColor"/>
<path d="M4.15991 10.56V1.28003L4.79991 1.60003L5.43991 1.28003L6.07991 1.60003L6.71991 1.28003L7.35991 1.60003L7.99991 1.28003L8.63991 1.60003L9.27991 1.28003L9.91991 1.60003L10.5599 1.28003L11.1999 1.60003L11.8399 1.28003V10.56H4.15991Z" stroke="currentColor" stroke-miterlimit="10" stroke-linecap="round" stroke-linejoin="round"/>
<path d="M9.2799 4.80009C9.2799 4.80009 9.2799 3.84009 7.9999 3.84009C6.7199 3.84009 6.7199 4.81673 6.7199 4.81673C6.7199 6.20265 9.5999 5.68617 9.5999 7.21417C9.5999 7.21417 9.5999 8.32009 7.9999 8.32009C6.3999 8.32009 6.3999 7.04009 6.3999 7.04009" stroke="currentColor" stroke-miterlimit="10" stroke-linejoin="round"/>
<path d="M8 2.87988V3.83988" stroke="currentColor" stroke-miterlimit="10" stroke-linejoin="round"/>
<path d="M8 9.28007V8.32007" stroke="currentColor" stroke-miterlimit="10" stroke-linejoin="round"/>
</svg>
