<svg width="24" height="24" viewBox="0 0 24 24" fill="none" xmlns="http://www.w3.org/2000/svg">
<path d="M20.7525 11.6375C20.5975 11.8625 20.44 12.0675 20.275 12.2575C19.8625 12.2275 19.47 12.185 19.105 12.1425C19.4025 11.84 19.6925 11.5025 19.9775 11.0975C20.1225 10.8825 20.4175 10.8275 20.635 10.9775C20.8475 11.125 20.905 11.4225 20.7525 11.6375Z" fill="currentColor"/>
<path d="M12.55 17.8974C10.685 19.0949 9.41499 20.2124 8.48749 22.4399C8.42999 22.5774 8.31249 22.6799 8.16999 22.7174C8.13248 22.7274 8.08999 22.7324 8.04999 22.7324C7.94749 22.7324 7.84248 22.6999 7.75749 22.6324L1.12749 17.4224C0.922485 17.2624 0.884985 16.9649 1.04749 16.7549C1.20749 16.5524 1.50498 16.5149 1.71499 16.6749L7.86749 21.5099C8.95998 19.2474 10.495 18.0624 12.1675 17.0124C12.28 17.3349 12.4075 17.6324 12.55 17.8974Z" fill="currentColor"/>
<path d="M23.1125 20.365C22.6475 18.1175 21.785 13.735 21.785 13.735C19.215 13.735 16.9075 13.2825 16.4925 13.1975L13.2975 15.2075C13.3325 18.88 16.1675 18.125 16.1675 18.125C16.1675 18.125 16.85 21.1325 19.67 20.1825C21.785 22.3825 23.315 21.345 23.1125 20.365Z" fill="currentColor"/>
<path d="M22.0049 21.955C21.4099 21.955 20.5599 21.7075 19.5349 20.7175C18.7049 20.9375 17.9574 20.8675 17.3149 20.505C16.4674 20.03 16.0324 19.17 15.8374 18.6525C15.3674 18.69 14.6199 18.645 13.9724 18.1525C13.2224 17.58 12.8349 16.5925 12.8224 15.21C12.8199 14.95 13.0299 14.735 13.2924 14.7325C13.5724 14.74 13.7674 14.94 13.7699 15.2025C13.7799 16.27 14.0399 17.01 14.5399 17.395C15.1749 17.8825 16.0374 17.67 16.0474 17.6675C16.1724 17.6375 16.3049 17.6575 16.4124 17.7225C16.5224 17.79 16.5999 17.8975 16.6299 18.0225C16.6324 18.0325 16.9124 19.2 17.7824 19.6825C18.2549 19.945 18.8399 19.9625 19.5174 19.7325C19.6924 19.675 19.8824 19.7225 20.0099 19.855C21.1074 20.995 21.9824 21.145 22.3974 20.925C22.5874 20.825 22.6849 20.6425 22.6474 20.46C22.2674 18.62 21.6149 15.3175 21.3949 14.205C18.9424 14.1625 16.8149 13.745 16.3949 13.66C16.1399 13.6075 15.9749 13.355 16.0274 13.1C16.0799 12.8425 16.3324 12.68 16.5874 12.7325C17.0124 12.82 19.2649 13.26 21.7849 13.26C22.0124 13.26 22.2074 13.42 22.2499 13.6425C22.2574 13.6875 23.1149 18.0475 23.5749 20.2675C23.6999 20.8675 23.4024 21.4675 22.8399 21.765C22.6999 21.8375 22.4124 21.955 22.0049 21.955Z" fill="currentColor"/>
<path d="M8.45746 6.80502C7.87996 7.10752 7.28496 7.38252 6.68246 7.65752C5.65496 8.12752 4.61246 8.60002 3.60496 9.25002C3.48996 9.17252 3.39496 9.08252 3.31496 8.98502C3.01746 8.61502 3.02246 8.21252 3.06996 7.91502C2.37246 7.76752 1.71996 7.55502 1.42496 6.99502C1.23496 6.64002 1.22746 6.20502 1.39246 5.65502C0.202457 5.30002 0.0424569 4.65502 0.0624569 4.27252C0.0949572 3.63752 0.729957 3.05502 1.44496 3.00752C3.69996 2.84752 5.86746 2.42002 5.88746 2.41502C6.10996 2.37252 6.32746 2.48752 6.41746 2.69502C7.25496 4.66502 7.96496 5.98752 8.45746 6.80502Z" fill="currentColor"/>
<path d="M19.8899 9.28247C16.1024 15.77 9.90492 15.0675 7.57742 19.89L1.41992 15.155" stroke="currentColor" stroke-miterlimit="10" stroke-linecap="round" stroke-linejoin="round"/>
<path d="M19.8875 7.04504C19.84 6.92004 19.7425 6.82004 19.62 6.77004L13.4375 4.29754C13.2425 4.22004 13.0225 4.27754 12.89 4.44004C11.8725 5.71254 10.775 6.56254 9.64998 7.22504C9.59248 7.24504 9.53998 7.27754 9.49498 7.31754C8.68998 7.77754 7.87748 8.15254 7.07498 8.51754C4.96998 9.48004 2.79248 10.475 1.03248 12.99C0.884981 13.2 0.932481 13.485 1.13748 13.64L6.81998 17.9025C6.90248 17.965 7.00248 17.9975 7.10498 17.9975C7.13248 17.9975 7.15748 17.995 7.18498 17.99C7.31248 17.9675 7.42748 17.895 7.49748 17.785C8.62748 16.0925 10.235 15.3125 12.095 14.41C12.4725 14.2275 12.855 14.04 13.24 13.845C14.905 13.1075 16.3825 11.8425 16.4725 11.7625C16.475 11.7625 16.475 11.76 16.4775 11.76C17.8325 10.6125 18.94 9.19754 19.8625 7.43004C19.925 7.31004 19.9325 7.17254 19.8875 7.04504ZM12.8525 12.98C12.8475 12.98 12.845 12.985 12.8425 12.9875C12.8375 12.99 12.8325 12.9875 12.83 12.99C12.7025 13.055 12.5775 13.115 12.4525 13.1775C10.1625 11.295 7.74998 9.96004 7.03498 9.57754C7.17748 9.51254 7.32248 9.44504 7.46748 9.38004C8.25248 9.02004 9.04748 8.65754 9.83748 8.21254C10.6675 8.61254 13.57 10.045 15.405 11.4075C14.8575 11.83 13.88 12.525 12.8525 12.98ZM15.4675 7.58004C15.565 7.90754 15.29 8.27504 14.8575 8.40504C14.4225 8.53254 13.9925 8.37254 13.895 8.04754C13.8 7.72254 14.0725 7.35254 14.5075 7.22504C14.94 7.09504 15.37 7.25504 15.4675 7.58004ZM7.86248 12.55C7.86248 12.9425 7.43748 13.26 6.91498 13.26C6.38998 13.26 5.96748 12.9425 5.96748 12.55C5.96748 12.1575 6.38998 11.84 6.91498 11.84C7.43748 11.84 7.86248 12.1575 7.86248 12.55Z" fill="currentColor"/>
</svg>
