<svg width="24" height="24" viewBox="0 0 24 24" fill="none" xmlns="http://www.w3.org/2000/svg">
<g clip-path="url(#clip0_3998_1707)">
<path d="M2.36716 21.3125H19.6497C20.3372 21.3125 20.9272 20.8175 21.0472 20.14L23.2072 8.04998C23.2072 7.52748 22.7822 7.10498 22.2597 7.10498H4.73466C4.21216 7.10498 3.78966 7.52748 3.78966 8.04998L1.43466 20.1975C1.33216 20.7775 1.77716 21.3125 2.36716 21.3125Z" stroke="#454545" stroke-miterlimit="10"/>
<path d="M20.8374 5.68268V5.21018C20.8374 4.68768 20.4149 4.26268 19.8899 4.26268H8.52492C7.82992 4.26268 7.34742 2.36768 6.62992 2.36768H2.36742C1.84492 2.36768 1.41992 2.79268 1.41992 3.31518V20.3652" stroke="#454545" stroke-miterlimit="10"/>
</g>
<defs>
<clipPath id="clip0_3998_1707">
<rect width="24" height="24" fill="white"/>
</clipPath>
</defs>
</svg>
