<svg
                          xmlns="http://www.w3.org/2000/svg"
                          width="6"
                          height="22"
                          viewBox="0 0 6 22"
                          fill="none"
                        >
                          <path
                            d="M3.00012 0.440002C1.41574 0.440002 0.120117 1.73563 0.120117 3.32C0.120117 4.90438 1.41574 6.2 3.00012 6.2C4.58449 6.2 5.88012 4.90438 5.88012 3.32C5.88012 1.73563 4.58449 0.440002 3.00012 0.440002ZM3.00012 8.12C1.41574 8.12 0.120117 9.41563 0.120117 11C0.120117 12.5844 1.41574 13.88 3.00012 13.88C4.58449 13.88 5.88012 12.5844 5.88012 11C5.88012 9.41563 4.58449 8.12 3.00012 8.12ZM3.00012 15.8C1.41574 15.8 0.120117 17.0956 0.120117 18.68C0.120117 20.2644 1.41574 21.56 3.00012 21.56C4.58449 21.56 5.88012 20.2644 5.88012 18.68C5.88012 17.0956 4.58449 15.8 3.00012 15.8Z"
                            fill="currentColor"
                          />
                        </svg>