<svg width="24" height="24" viewBox="0 0 24 24" fill="none" xmlns="http://www.w3.org/2000/svg">
<path d="M22.5599 15.8398V21.5998C22.5599 22.1302 22.1303 22.5598 21.5999 22.5598H2.39994C1.86954 22.5598 1.43994 22.1302 1.43994 21.5998V15.8398" stroke="currentColor" stroke-miterlimit="10"/>
<path d="M12 7.68018V19.2002" stroke="currentColor" stroke-miterlimit="10" stroke-linecap="round" stroke-linejoin="round"/>
<path d="M15.8402 15.3599L12.0002 19.1999L8.16016 15.3599" stroke="currentColor" stroke-miterlimit="10" stroke-linecap="round" stroke-linejoin="round"/>
<path d="M12 2.39994C12.2651 2.39994 12.48 2.18504 12.48 1.91994C12.48 1.65484 12.2651 1.43994 12 1.43994C11.7349 1.43994 11.52 1.65484 11.52 1.91994C11.52 2.18504 11.7349 2.39994 12 2.39994Z" fill="#1C2925"/>
<path d="M12 4.31986C12.2651 4.31986 12.48 4.10496 12.48 3.83986C12.48 3.57477 12.2651 3.35986 12 3.35986C11.7349 3.35986 11.52 3.57477 11.52 3.83986C11.52 4.10496 11.7349 4.31986 12 4.31986Z" fill="#1C2925"/>
<path d="M12 6.23979C12.2651 6.23979 12.48 6.02488 12.48 5.75979C12.48 5.49469 12.2651 5.27979 12 5.27979C11.7349 5.27979 11.52 5.49469 11.52 5.75979C11.52 6.02488 11.7349 6.23979 12 6.23979Z" fill="#1C2925"/>
</svg>
