<svg width="16" height="16" viewBox="0 0 16 16" fill="none" xmlns="http://www.w3.org/2000/svg">
<path d="M15.7868 3.92773C14.8235 4.76607 12.5835 6.7144 11.0151 8.08107L15.7868 11.8361V3.92773Z" fill="#878787"/>
<path d="M6.84 9.04427C7.285 9.43094 7.725 9.4726 7.89333 9.4726C8.06167 9.4726 8.50167 9.43094 8.94667 9.04427C9.39333 8.65427 15.17 3.6276 15.7867 3.09094V2.21094H0V3.08927C0.951667 3.9176 6.40833 8.6676 6.84 9.04427Z" fill="#878787"/>
<path d="M10.53 8.50195C9.91833 9.03529 9.47333 9.42195 9.36167 9.52029C8.755 10.047 8.13333 10.1036 7.89333 10.1036C7.65333 10.1036 7.03167 10.047 6.425 9.51862C6.315 9.42195 5.87 9.03529 5.25667 8.50195L0 12.6536V13.577H15.7867V12.6386L10.53 8.50195Z" fill="#878787"/>
<path d="M4.77167 8.08078C3.225 6.73245 1.02 4.81411 0 3.92578V11.8491L4.77167 8.08078Z" fill="#878787"/>
</svg>
