
<svg width="32" height="32" viewBox="0 0 32 32" fill="none" xmlns="http://www.w3.org/2000/svg">
<path d="M30.8564 28.9695L30.8809 29.0134H0.691406L15.7861 2.8689L30.8564 28.9695ZM15.0166 22.6736C14.7973 22.6736 14.566 22.75 14.3867 22.9255C14.2062 23.1025 14.123 23.336 14.123 23.5632V25.2166C14.123 25.4412 14.2036 25.6759 14.3848 25.8552C14.5648 26.0333 14.7972 26.1101 15.0166 26.1101H16.5566C16.7744 26.1101 17.0097 26.035 17.1924 25.8523C17.3751 25.6696 17.4502 25.4343 17.4502 25.2166V23.5632C17.4502 23.3428 17.3728 23.108 17.1904 22.9275C17.0085 22.7475 16.7742 22.6736 16.5566 22.6736H15.0166ZM15.0635 11.2703C14.8388 11.2703 14.6041 11.3498 14.4248 11.531C14.2468 11.711 14.17 11.9435 14.1699 12.1628V21.2966C14.1699 21.5144 14.245 21.7497 14.4277 21.9324C14.6105 22.1151 14.8457 22.1902 15.0635 22.1902H16.5098C16.7275 22.1902 16.9638 22.1151 17.1465 21.9324C17.329 21.7497 17.4033 21.5143 17.4033 21.2966V12.1628C17.4032 11.9434 17.3266 11.711 17.1484 11.531C16.9691 11.3499 16.7344 11.2703 16.5098 11.2703H15.0635Z" fill="currentColor" stroke="currentColor" stroke-width="1.33333"/>
</svg>
