<svg width="24" height="24" viewBox="0 0 24 24" fill="none" xmlns="http://www.w3.org/2000/svg">
<path d="M0.375003 -0.0150098C0.144378 0.0374902 -0.0187471 0.24374 -0.0149971 0.47999V23.52C-0.0131221 23.7919 0.208128 24.0131 0.480003 24.015H14.88C15.1519 24.0131 15.3731 23.7919 15.375 23.52V18.72H14.385V23.025H0.975003V0.97499H14.385V5.27999H15.375V0.47999C15.3731 0.208115 15.1519 -0.0131348 14.88 -0.0150098H0.480003C0.444378 -0.0187598 0.410628 -0.0187598 0.375003 -0.0150098ZM18.675 7.24499C18.495 7.27687 18.3506 7.40812 18.3 7.58249C18.2494 7.75874 18.3019 7.94624 18.435 8.06999L21.87 11.52H7.68C7.665 11.52 7.65 11.52 7.635 11.52C7.37063 11.5331 7.16438 11.7581 7.1775 12.0225C7.19063 12.2869 7.41563 12.4931 7.68 12.48H21.87L18.435 15.93C18.2925 16.0462 18.2269 16.2319 18.2681 16.4119C18.3094 16.59 18.45 16.7306 18.6281 16.7719C18.8081 16.8131 18.9938 16.7475 19.11 16.605L23.385 12.345L23.715 12L23.385 11.655L19.11 7.39499C19.0106 7.28812 18.8663 7.23374 18.72 7.24499C18.705 7.24499 18.69 7.24499 18.675 7.24499Z" fill="currentColor"/>
</svg>
