<svg width="24" height="24" viewBox="0 0 24 24" fill="none" xmlns="http://www.w3.org/2000/svg">
<path d="M1.89502 1.89502L21.785 21.785" stroke="#1C2925" stroke-miterlimit="10" stroke-linecap="round" stroke-linejoin="round"/>
<path d="M16.1026 17.9975C14.7776 18.565 13.3551 18.945 11.8401 18.945C6.91507 18.945 2.70007 14.9175 1.61007 13.735C2.32007 13.025 4.21507 11.1775 6.72507 9.89745C6.34507 10.6075 6.15757 11.46 6.15757 12.3125C6.15757 15.44 8.71507 17.9975 11.8401 17.9975C13.0251 17.9975 14.1601 17.6175 15.0601 17.0025L14.3976 16.34C13.6401 16.765 12.7876 17.05 11.8401 17.05C9.23507 17.05 7.10507 14.9175 7.10507 12.3125C7.10507 11.415 7.38757 10.515 7.86257 9.75495L6.86757 8.76245C3.22007 10.42 0.710069 13.26 0.567569 13.4025C0.425068 13.5925 0.425068 13.83 0.567569 14.0175C0.805068 14.3025 5.68257 19.89 11.8401 19.89C13.6401 19.89 15.3451 19.4175 16.8126 18.755L16.1026 17.9975Z" fill="#1C2925"/>
<path d="M11.84 9.94507C11.1775 9.94507 10.5625 10.2301 10.135 10.7026L13.45 14.0176C13.925 13.5926 14.2075 12.9776 14.2075 12.3126C14.2075 10.9876 13.165 9.94507 11.84 9.94507Z" fill="#1C2925"/>
<path d="M23.1126 13.4026C22.8751 13.1651 17.9976 7.57764 11.8401 7.57764C10.4201 7.57764 9.04508 7.86264 7.76758 8.33514L8.52508 9.09264C9.56758 8.76264 10.6551 8.52514 11.8401 8.52514C13.0726 8.52514 14.3026 8.76264 15.3926 9.18764C16.1501 10.0401 16.5751 11.1776 16.5751 12.3126C16.5751 13.6401 16.0076 14.8701 15.1551 15.7226L15.8176 16.3876C16.8601 15.3451 17.5226 13.9251 17.5226 12.3126C17.5226 11.4601 17.3351 10.6076 16.9551 9.89764C19.4651 11.1776 21.3601 13.0251 22.0701 13.7351C21.3601 14.4451 19.5126 16.2926 17.0026 17.5701L17.7126 18.2801C20.8376 16.6226 22.9701 14.2076 23.1126 14.0176C23.2551 13.8776 23.2551 13.5926 23.1126 13.4026Z" fill="#1C2925"/>
<path d="M11.8402 14.6826C12.1252 14.6826 12.3602 14.6351 12.6452 14.5401L9.61516 11.5076C9.52016 11.7926 9.47266 12.0301 9.47266 12.3126C9.47266 13.6401 10.5152 14.6826 11.8402 14.6826Z" fill="#1C2925"/>
</svg>
