<svg width="24" height="24" viewBox="0 0 24 24" fill="none" xmlns="http://www.w3.org/2000/svg">
<path d="M23.04 12C23.04 12 18.0974 17.76 12 17.76C5.90252 17.76 0.959961 12 0.959961 12C0.959961 12 5.90252 6.23999 12 6.23999C18.0974 6.23999 23.04 12 23.04 12Z" stroke="#1C2925" stroke-miterlimit="10" stroke-linecap="round" stroke-linejoin="round"/>
<path d="M15.9139 7.01514C16.763 7.9521 17.28 9.1953 17.28 10.5599C17.28 13.4764 14.9165 15.8399 12 15.8399C9.08349 15.8399 6.71997 13.4764 6.71997 10.5599C6.71997 9.2001 7.23357 7.96026 8.07789 7.02474" stroke="#1C2925" stroke-miterlimit="10" stroke-linecap="round" stroke-linejoin="round"/>
<path d="M12.0001 12.9599C13.3256 12.9599 14.4001 11.8854 14.4001 10.5599C14.4001 9.23443 13.3256 8.15991 12.0001 8.15991C10.6746 8.15991 9.6001 9.23443 9.6001 10.5599C9.6001 11.8854 10.6746 12.9599 12.0001 12.9599Z" fill="#1C2925"/>
</svg>
