<svg xmlns="http://www.w3.org/2000/svg" width="24" height="24" viewBox="0 0 24 24" fill="none">
<path d="M23.04 12C23.04 12 18.0974 17.76 12 17.76C5.90255 17.76 0.959991 12 0.959991 12C0.959991 12 5.90255 6.23999 12 6.23999C18.0974 6.23999 23.04 12 23.04 12Z" stroke="currentColor" stroke-miterlimit="10" stroke-linecap="round" stroke-linejoin="round"/>
<path d="M15.9139 7.01514C16.763 7.9521 17.28 9.1953 17.28 10.5599C17.28 13.4764 14.9165 15.8399 12 15.8399C9.08352 15.8399 6.72 13.4764 6.72 10.5599C6.72 9.2001 7.2336 7.96026 8.07792 7.02474" stroke="currentColor" stroke-miterlimit="10" stroke-linecap="round" stroke-linejoin="round"/>
<path d="M12 12.9599C13.3255 12.9599 14.4 11.8854 14.4 10.5599C14.4 9.23443 13.3255 8.15991 12 8.15991C10.6745 8.15991 9.60001 9.23443 9.60001 10.5599C9.60001 11.8854 10.6745 12.9599 12 12.9599Z" fill="currentColor"/>
</svg>