<svg width="80" height="80" viewBox="0 0 80 80" fill="none" xmlns="http://www.w3.org/2000/svg">
<path d="M39.9998 6.66602C31.2151 6.66602 23.2464 10.0905 17.2915 15.646L12.7212 10.7415L10.7854 23.9533C8.1639 28.7146 6.6665 34.179 6.6665 39.9993C6.6665 58.4065 21.5927 73.3327 39.9998 73.3327C58.407 73.3327 73.3332 58.4065 73.3332 39.9993C73.3332 21.5922 58.407 6.66602 39.9998 6.66602Z" fill="url(#paint0_linear_11649_18127)"/>
<path d="M39.9998 6.66602C31.2151 6.66602 23.216 10.0645 17.2655 15.633L21.8184 20.5158C27.4608 15.2467 35.3991 12.3822 43.9365 13.6191C55.8028 15.3335 65.2082 25.1122 66.5059 37.0306C68.2464 53.0506 55.6769 66.666 39.9998 66.666C26.7576 66.666 15.7333 56.9525 13.6761 44.2789C13.2811 41.8309 11.2195 39.9993 8.73682 39.9993H6.6665C6.6665 58.3978 21.584 73.3327 39.9998 73.3327C58.4156 73.3327 73.3332 58.3978 73.3332 39.9993C73.3332 21.6009 58.4156 6.66602 39.9998 6.66602Z" fill="url(#paint1_linear_11649_18127)"/>
<path d="M43.3332 36.2834C42.4478 35.4805 41.2846 34.9987 39.9998 34.9987C38.7151 34.9987 37.5519 35.4805 36.6665 36.2834V18.332H38.3332C41.0936 18.332 43.3332 20.5716 43.3332 23.332V36.2834Z" fill="url(#paint2_linear_11649_18127)"/>
<path d="M45 40C45 42.7604 42.7604 45 40 45C37.2396 45 35 42.7604 35 40C35 37.2396 37.2396 35 40 35C42.7604 35 45 37.2396 45 40Z" fill="url(#paint3_linear_11649_18127)"/>
<path d="M12.721 10.7422L26.3625 25.3733L10.3989 26.5842L12.721 10.7422Z" fill="url(#paint4_linear_11649_18127)"/>
<path d="M44.9825 40.2637L54.8827 50.1812L53.7152 51.3487C51.762 53.3019 48.598 53.3019 46.6449 51.3531L40.2646 44.9816C42.8167 44.8644 44.8653 42.8158 44.9825 40.2637Z" fill="url(#paint5_linear_11649_18127)"/>
<defs>
<linearGradient id="paint0_linear_11649_18127" x1="1.23651" y1="7.47268" x2="125.663" y2="111.879" gradientUnits="userSpaceOnUse">
<stop stop-color="#262626" stop-opacity="0"/>
<stop offset="1" stop-color="#262626" stop-opacity="0.8"/>
</linearGradient>
<linearGradient id="paint1_linear_11649_18127" x1="-7.82516" y1="97.1943" x2="92.8898" y2="-22.834" gradientUnits="userSpaceOnUse">
<stop stop-color="#262626" stop-opacity="0"/>
<stop offset="1" stop-color="#262626" stop-opacity="0.8"/>
</linearGradient>
<linearGradient id="paint2_linear_11649_18127" x1="28.4932" y1="41.0187" x2="53.3215" y2="11.4304" gradientUnits="userSpaceOnUse">
<stop stop-color="#262626" stop-opacity="0"/>
<stop offset="1" stop-color="#262626" stop-opacity="0.8"/>
</linearGradient>
<linearGradient id="paint3_linear_11649_18127" x1="37.3383" y1="55.095" x2="42.7417" y2="24.4567" gradientUnits="userSpaceOnUse">
<stop stop-color="#262626" stop-opacity="0"/>
<stop offset="1" stop-color="#262626" stop-opacity="0.8"/>
</linearGradient>
<linearGradient id="paint4_linear_11649_18127" x1="3.23242" y1="46.4244" x2="27.6402" y2="4.15193" gradientUnits="userSpaceOnUse">
<stop stop-color="#262626" stop-opacity="0"/>
<stop offset="1" stop-color="#262626" stop-opacity="0.8"/>
</linearGradient>
<linearGradient id="paint5_linear_11649_18127" x1="45.2632" y1="60.6922" x2="50.0032" y2="33.8072" gradientUnits="userSpaceOnUse">
<stop stop-color="#262626" stop-opacity="0"/>
<stop offset="1" stop-color="#262626" stop-opacity="0.8"/>
</linearGradient>
</defs>
</svg>
