<svg width="80" height="80" viewBox="0 0 80 80" fill="none" xmlns="http://www.w3.org/2000/svg">
<path d="M46.667 6.66699V20.0003C46.667 23.6809 49.6531 26.667 53.3337 26.667H66.667L46.667 6.66699Z" fill="url(#paint0_linear_5931_12499)"/>
<path d="M66.6668 26.667V65.0003C66.6668 69.601 62.9342 73.3337 58.3335 73.3337H13.3335V15.0003C13.3335 10.3996 17.0661 6.66699 21.6668 6.66699H46.6668L66.6668 26.667Z" fill="url(#paint1_linear_5931_12499)"/>
<path d="M52.3959 63.3337C47.2483 63.3337 45.9549 59.7573 45.382 57.6913C44.2448 59.7139 42.3785 63.3337 37.1962 63.3337C34.6442 63.3337 32.3785 62.5524 30.4601 61.233C28.1337 62.5264 25.382 63.3337 22.231 63.3337V61.3111C22.231 59.7139 23.3768 58.3857 24.9393 58.0472C25.573 57.9083 26.1806 57.7173 26.7448 57.4916C24.5487 54.3319 23.3334 50.2868 23.3334 46.3892C23.3334 39.7052 27.5608 36.667 31.4931 36.667C35.7205 36.667 40.0001 40.009 40.0001 46.3892C40.0001 49.5837 38.2205 54.2712 34.7483 57.8996C35.4948 58.1774 36.3108 58.3337 37.1962 58.3337C39.2014 58.3337 39.8525 57.3354 40.9115 55.4344C41.7448 53.9326 43.0122 51.667 45.7379 51.667C48.915 51.667 49.7136 54.5923 50.0955 55.9986C50.6164 57.9257 50.79 58.3337 52.3959 58.3337C52.5348 58.3337 52.8039 58.1861 53.0816 57.8649C53.1771 57.7521 53.2639 57.6305 53.3421 57.5003C54.0799 56.259 55.4514 55.5385 56.8751 55.3128L58.6632 55.0264C58.9931 57.1357 58.3334 59.4187 56.8837 61.1114C55.6598 62.5437 54.0626 63.3337 52.3959 63.3337ZM31.4931 41.667C29.5487 41.667 28.3334 43.4812 28.3334 46.3892C28.3334 49.0021 29.158 52.292 30.8855 54.7573C33.6893 51.9795 35.0001 48.2903 35.0001 46.3892C35.0001 43.1253 33.2379 41.667 31.4931 41.667Z" fill="url(#paint2_linear_5931_12499)"/>
<defs>
<linearGradient id="paint0_linear_5931_12499" x1="61.8787" y1="11.4553" x2="43.1133" y2="30.2207" gradientUnits="userSpaceOnUse">
<stop stop-color="#262626" stop-opacity="0"/>
<stop offset="0.9135" stop-color="#262626" stop-opacity="0.8"/>
</linearGradient>
<linearGradient id="paint1_linear_5931_12499" x1="-13.9963" y1="85.3088" x2="124.552" y2="-30.9467" gradientUnits="userSpaceOnUse">
<stop stop-color="#262626" stop-opacity="0"/>
<stop offset="1" stop-color="#262626" stop-opacity="0.8"/>
</linearGradient>
<linearGradient id="paint2_linear_5931_12499" x1="17.7946" y1="90.8553" x2="51.5857" y2="32.3272" gradientUnits="userSpaceOnUse">
<stop stop-color="#262626" stop-opacity="0"/>
<stop offset="1" stop-color="#262626" stop-opacity="0.8"/>
</linearGradient>
</defs>
</svg>
