
<svg width="72" height="72" viewBox="0 0 72 72" fill="none" xmlns="http://www.w3.org/2000/svg">
<path d="M36 66C52.5685 66 66 52.5685 66 36C66 19.4315 52.5685 6 36 6C19.4315 6 6 19.4315 6 36C6 52.5685 19.4315 66 36 66Z" fill="url(#paint0_linear_3430_9298)"/>
<path d="M49.7879 28.5749L28.5749 49.7879L22.2119 43.4249L29.6354 35.9999L22.2119 28.5749L28.5749 22.2119L35.9999 29.6354L43.4249 22.2119L49.7879 28.5749Z" fill="url(#paint1_linear_3430_9298)"/>
<path d="M49.788 43.425L43.425 49.788L36 42.3645L42.3645 36L49.788 43.425Z" fill="url(#paint2_linear_3430_9298)"/>
<defs>
<linearGradient id="paint0_linear_3430_9298" x1="2.93415" y1="2.93415" x2="82.2435" y2="82.2435" gradientUnits="userSpaceOnUse">
<stop stop-color="#262626" stop-opacity="0"/>
<stop offset="1" stop-color="#262626" stop-opacity="0.8"/>
</linearGradient>
<linearGradient id="paint1_linear_3430_9298" x1="-5.05344" y1="45.0107" x2="66.1837" y2="25.9228" gradientUnits="userSpaceOnUse">
<stop stop-color="#262626" stop-opacity="0"/>
<stop offset="1" stop-color="#262626" stop-opacity="0.8"/>
</linearGradient>
<linearGradient id="paint2_linear_3430_9298" x1="52.1343" y1="56.0903" x2="35.8868" y2="32.8861" gradientUnits="userSpaceOnUse">
<stop stop-color="#262626" stop-opacity="0"/>
<stop offset="1" stop-color="#262626" stop-opacity="0.8"/>
</linearGradient>
</defs>
</svg>
