
<svg width="72" height="72" viewBox="0 0 72 72" fill="none" xmlns="http://www.w3.org/2000/svg">
<path d="M65.9999 36C65.9999 53.1045 51.6614 66.8805 34.3574 65.9565C19.2224 65.148 6.83093 52.743 6.04193 37.6065C5.14043 20.3175 18.8924 6 35.9999 6C44.8649 6 52.8449 9.855 58.3349 15.975L30.2549 44.04L33.8834 47.6685C35.6414 49.4265 38.4899 49.4265 40.2479 47.6685L63.6299 24.285C65.1599 27.885 65.9999 31.845 65.9999 36Z" fill="url(#paint0_linear_3539_12100)"/>
<path d="M30.2581 44.0461L60.2986 14.0041C62.6416 11.6611 66.4411 11.6611 68.7841 14.0041L71.3446 16.5646L40.2421 47.6671C38.4841 49.4251 35.6356 49.4251 33.8776 47.6671L30.2581 44.0461Z" fill="url(#paint1_linear_3539_12100)"/>
<path d="M16.6516 30.4395L30.2581 44.046L37.0621 37.242L27.6991 27.879C25.3561 25.536 21.5581 25.536 19.2151 27.8775L16.6516 30.4395Z" fill="url(#paint2_linear_3539_12100)"/>
<defs>
<linearGradient id="paint0_linear_3539_12100" x1="2.95763" y1="2.91345" x2="85.4251" y2="85.3807" gradientUnits="userSpaceOnUse">
<stop stop-color="#262626" stop-opacity="0"/>
<stop offset="1" stop-color="#262626" stop-opacity="0.8"/>
</linearGradient>
<linearGradient id="paint1_linear_3539_12100" x1="28.3583" y1="13.466" x2="58.8487" y2="36.4421" gradientUnits="userSpaceOnUse">
<stop stop-color="#262626" stop-opacity="0"/>
<stop offset="1" stop-color="#262626" stop-opacity="0.8"/>
</linearGradient>
<linearGradient id="paint2_linear_3539_12100" x1="11.3805" y1="15.3397" x2="45.0221" y2="55.4318" gradientUnits="userSpaceOnUse">
<stop stop-color="#262626" stop-opacity="0"/>
<stop offset="1" stop-color="#262626" stop-opacity="0.8"/>
</linearGradient>
</defs>
</svg>
