
<svg width="72" height="72" viewBox="0 0 72 72" fill="none" xmlns="http://www.w3.org/2000/svg">
<g clip-path="url(#clip0_3430_9189)">
<path d="M60 7.5V42.69C58.575 42.24 57.06 42 55.5 42C47.25 42 40.5 48.75 40.5 57C40.5 60.375 41.625 63.495 43.515 66H12V7.5L18 3L24 7.5L30 3L36 7.5L42 3L48 7.5L54 3L60 7.5Z" fill="url(#paint0_linear_3430_9189)"/>
<path d="M47.25 30C46.005 30 45 31.005 45 32.25V36H48.75C49.995 36 51 34.995 51 33.75V30H47.25ZM25.5 30C23.01 30 21 32.01 21 34.5V36H36C38.49 36 40.5 33.99 40.5 31.5V30H25.5ZM47.25 40.5C46.005 40.5 45 41.505 45 42.75V46.32C46.665 44.67 48.72 43.41 51 42.69V40.5H47.25ZM25.5 51C23.01 51 21 53.01 21 55.5V57H33C35.49 57 37.5 54.99 37.5 52.5V51H25.5ZM25.5 16.5C23.01 16.5 21 18.51 21 21V22.5H46.5C48.99 22.5 51 20.49 51 18V16.5H25.5ZM25.5 40.5C23.01 40.5 21 42.51 21 45V46.5H36C38.49 46.5 40.5 44.49 40.5 42V40.5H25.5Z" fill="url(#paint1_linear_3430_9189)"/>
<circle cx="55.5" cy="57" r="15" fill="white"/>
<path d="M53.5998 65.2367L46.1943 57.6317L49.9563 53.9702L53.6508 57.7637L61.0698 50.3447L64.7808 54.0557L53.5998 65.2367Z" fill="url(#paint2_linear_3430_9189)"/>
<path d="M70.5 57C70.5 65.25 63.75 72 55.5 72C47.25 72 40.5 65.25 40.5 57C40.5 48.75 47.25 42 55.5 42C63.75 42 70.5 48.75 70.5 57ZM64.7805 54.0555L61.068 50.343L53.649 57.762L49.9545 53.9685L46.1925 57.63L53.5995 65.235L64.7805 54.0555Z" fill="url(#paint3_linear_3430_9189)"/>
</g>
<defs>
<linearGradient id="paint0_linear_3430_9189" x1="69.0652" y1="76.1557" x2="-28.4883" y2="-40.1041" gradientUnits="userSpaceOnUse">
<stop stop-color="#262626" stop-opacity="0"/>
<stop offset="1" stop-color="#262626" stop-opacity="0.8"/>
</linearGradient>
<linearGradient id="paint1_linear_3430_9189" x1="62.0935" y1="67.8471" x2="10.9658" y2="6.9153" gradientUnits="userSpaceOnUse">
<stop stop-color="#262626" stop-opacity="0"/>
<stop offset="1" stop-color="#262626" stop-opacity="0.8"/>
</linearGradient>
<linearGradient id="paint2_linear_3430_9189" x1="45.6899" y1="65.6422" x2="77.7408" y2="33.5912" gradientUnits="userSpaceOnUse">
<stop stop-color="#262626" stop-opacity="0"/>
<stop offset="1" stop-color="#262626" stop-opacity="0.8"/>
</linearGradient>
<linearGradient id="paint3_linear_3430_9189" x1="16.7452" y1="95.7552" x2="69.3765" y2="43.1238" gradientUnits="userSpaceOnUse">
<stop stop-color="#262626" stop-opacity="0"/>
<stop offset="1" stop-color="#262626" stop-opacity="0.8"/>
</linearGradient>
<clipPath id="clip0_3430_9189">
<rect width="72" height="72" fill="white"/>
</clipPath>
</defs>
</svg>
