<svg xmlns="http://www.w3.org/2000/svg" width="120" height="120" viewBox="0 0 120 120" fill="none">
<path d="M105 97.5C105 105.75 98.25 112.5 90 112.5H15V67.5C15 59.25 21.75 52.5 30 52.5H105V97.5Z" fill="url(#paint0_linear_497_3030)"/>
<path d="M60 90C64.1421 90 67.5 86.6421 67.5 82.5C67.5 78.3579 64.1421 75 60 75C55.8579 75 52.5 78.3579 52.5 82.5C52.5 86.6421 55.8579 90 60 90Z" fill="url(#paint1_linear_497_3030)"/>
<path d="M37.5 90C41.6421 90 45 86.6421 45 82.5C45 78.3579 41.6421 75 37.5 75C33.3579 75 30 78.3579 30 82.5C30 86.6421 33.3579 90 37.5 90Z" fill="url(#paint2_linear_497_3030)"/>
<path d="M82.5 90C86.6421 90 90 86.6421 90 82.5C90 78.3579 86.6421 75 82.5 75C78.3579 75 75 78.3579 75 82.5C75 86.6421 78.3579 90 82.5 90Z" fill="url(#paint3_linear_497_3030)"/>
<path d="M92.5 37.5V52.5H77.5V37.5C77.5 27.85 69.65 20 60 20C50.35 20 42.5 27.85 42.5 37.5V52.5H30C29.15 52.5 28.325 52.575 27.5 52.725V37.5C27.5 19.575 42.075 5 60 5C77.925 5 92.5 19.575 92.5 37.5Z" fill="url(#paint4_linear_497_3030)"/>
<defs>
<linearGradient id="paint0_linear_497_3030" x1="-6.394" y1="120.833" x2="145.923" y2="32.8922" gradientUnits="userSpaceOnUse">
<stop stop-color="#262626" stop-opacity="0"/>
<stop offset="1" stop-color="#262626" stop-opacity="0.8"/>
</linearGradient>
<linearGradient id="paint1_linear_497_3030" x1="45.6555" y1="90.7818" x2="72.3643" y2="75.3615" gradientUnits="userSpaceOnUse">
<stop stop-color="#262626" stop-opacity="0"/>
<stop offset="1" stop-color="#262626" stop-opacity="0.8"/>
</linearGradient>
<linearGradient id="paint2_linear_497_3030" x1="23.1555" y1="90.7818" x2="49.8643" y2="75.3615" gradientUnits="userSpaceOnUse">
<stop stop-color="#262626" stop-opacity="0"/>
<stop offset="1" stop-color="#262626" stop-opacity="0.8"/>
</linearGradient>
<linearGradient id="paint3_linear_497_3030" x1="68.1555" y1="90.7818" x2="94.8643" y2="75.3615" gradientUnits="userSpaceOnUse">
<stop stop-color="#262626" stop-opacity="0"/>
<stop offset="1" stop-color="#262626" stop-opacity="0.8"/>
</linearGradient>
<linearGradient id="paint4_linear_497_3030" x1="95.5138" y1="-55.4425" x2="47.851" y2="75.5093" gradientUnits="userSpaceOnUse">
<stop stop-color="#262626" stop-opacity="0"/>
<stop offset="1" stop-color="#262626" stop-opacity="0.8"/>
</linearGradient>
</defs>
</svg>