<svg width="80" height="80" viewBox="0 0 80 80" fill="none" xmlns="http://www.w3.org/2000/svg">
<g clip-path="url(#clip0_7788_3610)">
<path d="M71.6663 60H16.6663C12.0656 60 8.33301 63.7326 8.33301 68.3333V70H63.333C67.9337 70 71.6663 66.2674 71.6663 61.6667V60Z" fill="url(#paint0_linear_7788_3610)"/>
<path d="M65 60H15C15 60 15 46.6667 15 38.3333V35C15 21.1936 26.1936 10 40 10C53.8064 10 65 21.1936 65 35V38.3333C65 46.6667 65 60 65 60Z" fill="url(#paint1_linear_7788_3610)"/>
<path d="M50 70C50 75.5252 45.5252 80 40 80C34.4748 80 30 75.5252 30 70H50Z" fill="url(#paint2_linear_7788_3610)"/>
<path d="M48.3327 10C48.3327 10.4688 48.298 10.9332 48.1981 11.3846C45.633 10.4818 42.8639 10 39.9993 10C37.1348 10 34.3657 10.4818 31.8006 11.3846C31.7007 10.9332 31.666 10.4688 31.666 10C31.666 5.39933 35.3987 1.66669 39.9993 1.66669C44.6 1.66669 48.3327 5.39933 48.3327 10Z" fill="url(#paint3_linear_7788_3610)"/>
</g>
<defs>
<linearGradient id="paint0_linear_7788_3610" x1="-14.437" y1="33.5702" x2="80.6713" y2="88.4818" gradientUnits="userSpaceOnUse">
<stop stop-color="#262626" stop-opacity="0"/>
<stop offset="1" stop-color="#262626" stop-opacity="0.8"/>
</linearGradient>
<linearGradient id="paint1_linear_7788_3610" x1="-6.35" y1="67.04" x2="98.4067" y2="6.56" gradientUnits="userSpaceOnUse">
<stop stop-color="#262626" stop-opacity="0"/>
<stop offset="1" stop-color="#262626" stop-opacity="0.8"/>
</linearGradient>
<linearGradient id="paint2_linear_7788_3610" x1="40" y1="89.605" x2="40" y2="64.97" gradientUnits="userSpaceOnUse">
<stop stop-color="#262626" stop-opacity="0"/>
<stop offset="1" stop-color="#262626" stop-opacity="0.8"/>
</linearGradient>
<linearGradient id="paint3_linear_7788_3610" x1="30.3693" y1="-2.37998" x2="46.2027" y2="16.49" gradientUnits="userSpaceOnUse">
<stop stop-color="#262626" stop-opacity="0"/>
<stop offset="1" stop-color="#262626" stop-opacity="0.8"/>
</linearGradient>
<clipPath id="clip0_7788_3610">
<rect width="80" height="80" fill="white"/>
</clipPath>
</defs>
</svg>
