<svg width="120" height="120" viewBox="0 0 120 120" fill="none" xmlns="http://www.w3.org/2000/svg">
<path d="M100 33.6V92.5C100 100.775 93.275 107.5 85 107.5H12.5V35C12.5 26.725 19.225 20 27.5 20H86.4L60.575 45.825L52.5 67.5L74.175 59.425L100 33.6Z" fill="url(#paint0_linear_5639_10823)"/>
<path d="M95.8575 10.54L60.5625 45.835L74.165 59.4375L109.46 24.1425L95.8575 10.54Z" fill="url(#paint1_linear_5639_10823)"/>
<path d="M101.08 5.31715L95.8574 10.5396L109.46 24.1421L114.682 18.9196C118.44 15.1621 118.44 9.07215 114.682 5.31715C110.925 1.55965 104.835 1.55965 101.08 5.31715Z" fill="url(#paint2_linear_5639_10823)"/>
<path d="M60.5625 45.832L52.5 67.4995L74.165 59.437L60.5625 45.832Z" fill="url(#paint3_linear_5639_10823)"/>
<defs>
<linearGradient id="paint0_linear_5639_10823" x1="-33.1437" y1="96.2867" x2="163.089" y2="24.8637" gradientUnits="userSpaceOnUse">
<stop stop-color="#262626" stop-opacity="0"/>
<stop offset="1" stop-color="#262626" stop-opacity="0.8"/>
</linearGradient>
<linearGradient id="paint1_linear_5639_10823" x1="62.0128" y1="15.6898" x2="118.902" y2="63.4255" gradientUnits="userSpaceOnUse">
<stop stop-color="#262626" stop-opacity="0"/>
<stop offset="1" stop-color="#262626" stop-opacity="0.8"/>
</linearGradient>
<linearGradient id="paint2_linear_5639_10823" x1="99.7087" y1="-28.6218" x2="109.214" y2="25.2861" gradientUnits="userSpaceOnUse">
<stop stop-color="#262626" stop-opacity="0"/>
<stop offset="1" stop-color="#262626" stop-opacity="0.8"/>
</linearGradient>
<linearGradient id="paint3_linear_5639_10823" x1="54.3465" y1="55.871" x2="112.61" y2="77.0773" gradientUnits="userSpaceOnUse">
<stop stop-color="#262626" stop-opacity="0"/>
<stop offset="1" stop-color="#262626" stop-opacity="0.8"/>
</linearGradient>
</defs>
</svg>
