<svg xmlns="http://www.w3.org/2000/svg" width="120" height="120" viewBox="0 0 120 120" fill="none">
<path d="M117.5 25V52.5C117.5 59.4 111.9 65 105 65H57.225L57.45 60.1L33.275 63.375L35.05 65H2.5V37.5C2.5 30.6 8.1 25 15 25H117.5Z" fill="url(#paint0_linear_497_3061)"/>
<path d="M85.0001 85.0001C85.0001 100.05 71.6251 112.05 56.1251 109.7C46.2501 108.2 38.0251 100.7 35.7001 91.0001C33.9001 83.3751 35.6251 75.6501 40.2001 69.7251L47.6251 76.5251C45.1001 80.2001 44.3001 84.8751 45.6501 89.4501C47.2251 94.7251 51.8001 98.7501 57.2001 99.7501C66.7001 101.475 75.0001 94.2001 75.0001 85.0001C75.0001 83.3751 74.7501 81.8001 74.2501 80.3001C73.2751 77.3751 74.5251 74.1501 77.0001 72.3251L80.025 70.0501C83.275 74.3751 85.0001 79.5501 85.0001 85.0001Z" fill="url(#paint1_linear_497_3061)"/>
<path d="M57.44 60.1001L56.2625 84.4626L33.27 63.3751L57.44 60.1001Z" fill="url(#paint2_linear_497_3061)"/>
<path d="M55 45C55 49.1425 51.6425 52.5 47.5 52.5C43.3575 52.5 40 49.1425 40 45C40 40.8575 43.3575 37.5 47.5 37.5C51.6425 37.5 55 40.8575 55 45ZM22.5 37.5C18.3575 37.5 15 40.8575 15 45C15 49.1425 18.3575 52.5 22.5 52.5C26.6425 52.5 30 49.1425 30 45C30 40.8575 26.6425 37.5 22.5 37.5ZM97.5 37.5C93.3575 37.5 90 40.8575 90 45C90 49.1425 93.3575 52.5 97.5 52.5C101.643 52.5 105 49.1425 105 45C105 40.8575 101.643 37.5 97.5 37.5ZM72.5 37.5C68.3575 37.5 65 40.8575 65 45C65 49.1425 68.3575 52.5 72.5 52.5C76.6425 52.5 80 49.1425 80 45C80 40.8575 76.6425 37.5 72.5 37.5Z" fill="url(#paint3_linear_497_3061)"/>
<defs>
<linearGradient id="paint0_linear_497_3061" x1="26.2432" y1="103.468" x2="124.342" y2="-66.4437" gradientUnits="userSpaceOnUse">
<stop stop-color="#262626" stop-opacity="0"/>
<stop offset="1" stop-color="#262626" stop-opacity="0.8"/>
</linearGradient>
<linearGradient id="paint1_linear_497_3061" x1="15.3748" y1="48.0038" x2="92.9171" y2="113.07" gradientUnits="userSpaceOnUse">
<stop stop-color="#262626" stop-opacity="0"/>
<stop offset="1" stop-color="#262626" stop-opacity="0.8"/>
</linearGradient>
<linearGradient id="paint2_linear_497_3061" x1="21.2599" y1="31.3864" x2="66.2683" y2="88.0278" gradientUnits="userSpaceOnUse">
<stop stop-color="#262626" stop-opacity="0"/>
<stop offset="1" stop-color="#262626" stop-opacity="0.8"/>
</linearGradient>
<linearGradient id="paint3_linear_497_3061" x1="50.6787" y1="97.8632" x2="68.377" y2="-2.50875" gradientUnits="userSpaceOnUse">
<stop stop-color="#262626" stop-opacity="0"/>
<stop offset="1" stop-color="#262626" stop-opacity="0.8"/>
</linearGradient>
</defs>
</svg>