<svg xmlns="http://www.w3.org/2000/svg" width="88" height="88" viewBox="0 0 88 88" fill="none">
<path d="M16.5003 29.3334H9.16699V9.16675H29.3337V16.5001H16.5003V29.3334ZM16.5003 71.5001V58.6667H9.16699V78.8334H29.3337V71.5001H16.5003ZM71.5003 71.5001H58.667V78.8334H78.8336V58.6667H71.5003V71.5001ZM71.5003 16.5001V29.3334H78.8336V9.16675H58.667V16.5001H71.5003Z" fill="url(#paint0_linear_456_957)"/>
<path d="M44 45.8333C34.8865 45.8333 27.5 53.2198 27.5 62.3333V64.1666H60.5V62.3333C60.5 53.2198 53.1135 45.8333 44 45.8333Z" fill="url(#paint1_linear_456_957)"/>
<path d="M45.833 42.1666H34.833V31.1666C34.833 27.1168 38.1165 23.8333 42.1663 23.8333H53.1663V34.8333C53.1663 38.8831 49.8828 42.1666 45.833 42.1666Z" fill="url(#paint2_linear_456_957)"/>
<defs>
<linearGradient id="paint0_linear_456_957" x1="5.58796" y1="149.537" x2="73.2396" y2="-36.334" gradientUnits="userSpaceOnUse">
<stop stop-color="#262626" stop-opacity="0"/>
<stop offset="1" stop-color="#262626" stop-opacity="0.8"/>
</linearGradient>
<linearGradient id="paint1_linear_456_957" x1="53.0781" y1="86.7307" x2="31.851" y2="28.41" gradientUnits="userSpaceOnUse">
<stop offset="0.0046" stop-color="#262626" stop-opacity="0"/>
<stop offset="1" stop-color="#262626" stop-opacity="0.8"/>
</linearGradient>
<linearGradient id="paint2_linear_456_957" x1="53.252" y1="58.4204" x2="36.0269" y2="11.0947" gradientUnits="userSpaceOnUse">
<stop stop-color="#262626" stop-opacity="0"/>
<stop offset="1" stop-color="#262626" stop-opacity="0.8"/>
</linearGradient>
</defs>
</svg>