<svg xmlns="http://www.w3.org/2000/svg" width="120" height="120" viewBox="0 0 120 120" fill="none">
<path d="M105 15H92.5V37.5H105V15Z" fill="url(#paint0_linear_2318_12322)"/>
<path d="M105 37.5H92.5V60H105V37.5Z" fill="url(#paint1_linear_2318_12322)"/>
<path d="M105 60H92.5V82.5H105V60Z" fill="url(#paint2_linear_2318_12322)"/>
<path d="M92.5 104.265C99.7275 102.112 105 95.425 105 87.5V82.5H92.5V104.265Z" fill="url(#paint3_linear_2318_12322)"/>
<path d="M53.75 90C69.6282 90 82.5 77.1282 82.5 61.25C82.5 45.3718 69.6282 32.5 53.75 32.5C37.8718 32.5 25 45.3718 25 61.25C25 77.1282 37.8718 90 53.75 90Z" fill="url(#paint4_linear_2318_12322)"/>
<path d="M32.5 15C22.835 15 15 22.835 15 32.5V105H87.5C97.165 105 105 97.165 105 87.5V15H32.5ZM53.75 90C37.8725 90 25 77.1275 25 61.25C25 45.3725 37.8725 32.5 53.75 32.5C69.6275 32.5 82.5 45.3725 82.5 61.25C82.5 77.1275 69.6275 90 53.75 90Z" fill="url(#paint5_linear_2318_12322)"/>
<path d="M33.75 81.8775C38.925 86.8975 45.97 90 53.75 90C62.295 90 69.9475 86.25 75.2125 80.33C70.67 74.08 63.32 70 55 70C46.0125 70 38.155 74.76 33.75 81.8775Z" fill="url(#paint6_linear_2318_12322)"/>
<path d="M53.75 65C59.2728 65 63.75 59.9632 63.75 53.75C63.75 47.5368 59.2728 42.5 53.75 42.5C48.2272 42.5 43.75 47.5368 43.75 53.75C43.75 59.9632 48.2272 65 53.75 65Z" fill="url(#paint7_linear_2318_12322)"/>
<circle cx="92.5" cy="95" r="25" fill="white"/>
<path d="M117.5 95C117.5 108.75 106.25 120 92.5 120C78.75 120 67.5 108.75 67.5 95C67.5 81.25 78.75 70 92.5 70C106.25 70 117.5 81.25 117.5 95ZM107.5 90H97.5V80H87.5V90H77.5V100H87.5V110H97.5V100H107.5V90Z" fill="url(#paint8_linear_2318_12322)"/>
<path d="M107.5 90H97.5V80H87.5V90H77.5V100H87.5V110H97.5V100H107.5V90Z" fill="url(#paint9_linear_2318_12322)"/>
<defs>
<linearGradient id="paint0_linear_2318_12322" x1="88.3715" y1="-2.2645" x2="112.502" y2="64.0338" gradientUnits="userSpaceOnUse">
<stop stop-color="#262626" stop-opacity="0"/>
<stop offset="1" stop-color="#262626" stop-opacity="0.8"/>
</linearGradient>
<linearGradient id="paint1_linear_2318_12322" x1="88.3715" y1="20.2355" x2="112.502" y2="86.5338" gradientUnits="userSpaceOnUse">
<stop stop-color="#262626" stop-opacity="0"/>
<stop offset="1" stop-color="#262626" stop-opacity="0.8"/>
</linearGradient>
<linearGradient id="paint2_linear_2318_12322" x1="88.3715" y1="42.7355" x2="112.502" y2="109.034" gradientUnits="userSpaceOnUse">
<stop stop-color="#262626" stop-opacity="0"/>
<stop offset="1" stop-color="#262626" stop-opacity="0.8"/>
</linearGradient>
<linearGradient id="paint3_linear_2318_12322" x1="89.6605" y1="68.4095" x2="109.107" y2="121.838" gradientUnits="userSpaceOnUse">
<stop stop-color="#262626" stop-opacity="0"/>
<stop offset="1" stop-color="#262626" stop-opacity="0.8"/>
</linearGradient>
<linearGradient id="paint4_linear_2318_12322" x1="25.4378" y1="32.9378" x2="173.258" y2="180.758" gradientUnits="userSpaceOnUse">
<stop stop-color="#262626" stop-opacity="0"/>
<stop offset="1" stop-color="#262626" stop-opacity="0.8"/>
</linearGradient>
<linearGradient id="paint5_linear_2318_12322" x1="-9.24825" y1="20.0195" x2="166.689" y2="121.597" gradientUnits="userSpaceOnUse">
<stop stop-color="#262626" stop-opacity="0"/>
<stop offset="1" stop-color="#262626" stop-opacity="0.8"/>
</linearGradient>
<linearGradient id="paint6_linear_2318_12322" x1="29.7845" y1="56.1882" x2="72.7288" y2="99.1325" gradientUnits="userSpaceOnUse">
<stop stop-color="#262626" stop-opacity="0"/>
<stop offset="1" stop-color="#262626" stop-opacity="0.8"/>
</linearGradient>
<linearGradient id="paint7_linear_2318_12322" x1="35.6688" y1="35.6687" x2="67.2498" y2="67.2497" gradientUnits="userSpaceOnUse">
<stop stop-color="#262626" stop-opacity="0"/>
<stop offset="1" stop-color="#262626" stop-opacity="0.8"/>
</linearGradient>
<linearGradient id="paint8_linear_2318_12322" x1="148.666" y1="192.282" x2="65.5905" y2="48.3915" gradientUnits="userSpaceOnUse">
<stop stop-color="#262626" stop-opacity="0"/>
<stop offset="1" stop-color="#262626" stop-opacity="0.8"/>
</linearGradient>
<linearGradient id="paint9_linear_2318_12322" x1="106.741" y1="111.972" x2="54.5825" y2="49.8117" gradientUnits="userSpaceOnUse">
<stop stop-color="#262626" stop-opacity="0"/>
<stop offset="1" stop-color="#262626" stop-opacity="0.8"/>
</linearGradient>
</defs>
</svg>