<svg width="32" height="32" viewBox="0 0 32 32" fill="none" xmlns="http://www.w3.org/2000/svg">
<path d="M3.82324 1.27441V30.5833H28.0344V1.27441H3.82324ZM10.831 22.3H8.28324V20.3889H10.831V22.3ZM10.831 19.1144H8.28324V16.5655H10.831V19.1144ZM10.831 15.2922H8.28324V13.38H10.831V15.2922ZM19.1144 16.5655V19.1144H12.1055V16.5655H19.1144ZM12.1055 15.2922V13.38H19.1144V15.2922H12.1055ZM19.1144 20.3889V22.3H12.1055V20.3889H19.1144ZM23.5744 26.76H15.9288V25.4866H23.5744V26.76ZM23.5744 22.3H20.3888V20.3889H23.5744V22.3ZM23.5744 19.1144H20.3888V16.5655H23.5744V19.1144ZM23.5744 15.2922H20.3888V13.38H23.5744V15.2922ZM23.5744 8.2833H8.28324V7.00886H23.5744V8.2833Z" fill="#5D5D5D"/>
</svg>
