<svg xmlns="http://www.w3.org/2000/svg" width="32" height="32" viewBox="0 0 32 32" fill="none">
<path d="M12.1602 3.20001V1.92001C12.1602 1.21601 12.7362 0.640015 13.4402 0.640015H18.5602C19.2642 0.640015 19.8402 1.21601 19.8402 1.92001V3.20001" fill="currentColor"/>
<path d="M12.1602 3.20001V1.92001C12.1602 1.21601 12.7362 0.640015 13.4402 0.640015H18.5602C19.2642 0.640015 19.8402 1.21601 19.8402 1.92001V3.20001" stroke="currentColor" stroke-width="2" stroke-miterlimit="10" stroke-linecap="round" stroke-linejoin="round"/>
<path d="M29.4399 7.04H2.55992C2.20664 7.04 1.91992 6.75328 1.91992 6.4V6.528C1.91992 5.07392 3.05272 3.88608 4.462 3.84128C4.72248 3.10336 5.41688 2.56 6.20792 2.56H25.7919C26.583 2.56 27.2774 3.10336 27.5385 3.84128C28.9465 3.88608 30.0799 5.07392 30.0799 6.528V6.4C30.0799 6.75328 29.7938 7.04 29.4399 7.04Z" fill="currentColor"/>
<path d="M3.38037 8.32001L6.53493 29.9142C6.70645 31.1226 7.72661 32 8.95989 32H23.0399C24.2245 32 25.1961 31.1795 25.4649 29.9162L28.6194 8.32001H3.38037ZM10.1324 27.6422C10.1042 27.6461 10.0754 27.648 10.0473 27.648C9.73109 27.648 9.45653 27.4144 9.41365 27.0925L7.30165 11.1558C7.25493 10.8058 7.50197 10.4838 7.85205 10.4371C8.20085 10.3949 8.52405 10.6374 8.57077 10.9875L10.6828 26.9235C10.7289 27.2742 10.4825 27.5962 10.1324 27.6422ZM14.0441 27.6474C14.0345 27.648 14.0249 27.648 14.0153 27.648C13.6748 27.648 13.3919 27.3798 13.3765 27.0362L12.6725 11.1002C12.6572 10.7469 12.9305 10.448 13.2837 10.4326C13.621 10.4147 13.9353 10.6899 13.9513 11.0438L14.6553 26.9798C14.6706 27.3331 14.3973 27.632 14.0441 27.6474ZM18.6233 27.0362C18.6085 27.3798 18.3244 27.648 17.9845 27.648C17.9749 27.648 17.9653 27.648 17.9557 27.6474C17.6025 27.632 17.3292 27.3331 17.3445 26.9798L18.0492 11.0438C18.0645 10.6906 18.3685 10.4256 18.7167 10.4326C19.07 10.448 19.3433 10.7469 19.3279 11.1002L18.6233 27.0362ZM22.5861 27.0925C22.5439 27.4144 22.2687 27.648 21.9525 27.648C21.9244 27.648 21.8962 27.6461 21.8674 27.6422C21.5173 27.5962 21.2709 27.2742 21.3176 26.9235L23.4297 10.9875C23.4757 10.6368 23.7957 10.391 24.1484 10.4371C24.4984 10.4832 24.7449 10.8051 24.6981 11.1558L22.5861 27.0925Z" fill="currentColor"/>
</svg>