<svg width="24" height="24" viewBox="0 0 24 24" fill="none" xmlns="http://www.w3.org/2000/svg">
<g clip-path="url(#clip0_6760_8732)">
<path d="M18.9452 2.36719V3.81719C18.2502 3.89219 17.6902 4.13969 17.2902 4.50719C16.8052 4.95469 16.5752 5.56469 16.5752 6.15719C16.5752 6.99719 16.9677 7.63969 17.5052 8.02469C18.0402 8.41219 18.6852 8.59219 19.3027 8.74719C19.7577 8.86219 20.3002 9.03219 20.6877 9.29969C21.0777 9.56719 21.3127 9.86719 21.3127 10.4197C21.3127 10.7747 21.1852 11.1122 20.9027 11.3747C20.6177 11.6347 20.1552 11.8397 19.4177 11.8397C18.3452 11.8397 17.9677 11.5197 17.7527 11.1547C17.5402 10.7922 17.5227 10.2997 17.5227 9.94469H16.5752C16.5752 10.2997 16.5602 10.9922 16.9377 11.6372C17.2677 12.1972 17.9252 12.6547 18.9452 12.7622V14.2072H19.8902V12.7597C20.5852 12.6822 21.1452 12.4372 21.5452 12.0697C22.0302 11.6197 22.2602 11.0097 22.2602 10.4197C22.2602 9.54969 21.7852 8.90219 21.2252 8.51969C20.6652 8.13469 20.0252 7.94969 19.5327 7.82719C18.9427 7.67969 18.4052 7.50719 18.0577 7.25719C17.7127 7.00719 17.5227 6.73719 17.5227 6.15719C17.5227 5.80219 17.6502 5.46469 17.9327 5.20219C18.2177 4.93969 18.6802 4.73469 19.4177 4.73469C20.4902 4.73469 20.8677 5.05719 21.0827 5.41969C21.2952 5.78469 21.3127 6.27469 21.3127 6.62969H22.2602C22.2602 6.27469 22.2752 5.58219 21.8977 4.93969C21.5677 4.37969 20.9127 3.92219 19.8902 3.81469V2.36719H18.9452ZM3.31516 4.73469V5.71969C2.77766 5.79719 2.33516 5.99969 2.01766 6.29969C1.61016 6.68719 1.42016 7.21219 1.42016 7.71719C1.42016 8.42719 1.75016 8.98969 2.19766 9.31969C2.64516 9.65219 3.17266 9.80219 3.67016 9.92969C4.03016 10.0222 4.45266 10.1622 4.74516 10.3697C5.04016 10.5772 5.21016 10.7947 5.21016 11.2272C5.21016 11.5022 5.11516 11.7572 4.90766 11.9572C4.70016 12.1547 4.36016 12.3122 3.79016 12.3122C2.96016 12.3122 2.70266 12.0622 2.54266 11.7822C2.38266 11.5022 2.36766 11.1297 2.36766 10.8922H1.42016C1.42016 11.1297 1.40516 11.7022 1.72016 12.2522C1.98516 12.7147 2.51766 13.1097 3.31516 13.2247V14.2072H4.26266V13.2247C4.80016 13.1472 5.24266 12.9447 5.56016 12.6422C5.96766 12.2547 6.15766 11.7322 6.15766 11.2272C6.15766 10.4872 5.75766 9.92469 5.29516 9.59719C4.83016 9.26719 4.30516 9.11469 3.90766 9.01219C3.44016 8.89219 3.02016 8.74969 2.76266 8.55969C2.50516 8.36969 2.36766 8.17719 2.36766 7.71719C2.36766 7.44219 2.46266 7.18469 2.67016 6.98719C2.87766 6.78969 3.21766 6.62969 3.79016 6.62969C4.61766 6.62969 4.87516 6.88219 5.03516 7.16219C5.19516 7.43969 5.21016 7.81469 5.21016 8.04969H6.15766C6.15766 7.81469 6.17266 7.23969 5.85766 6.69219C5.59266 6.22969 5.06016 5.83219 4.26266 5.71969V4.73469H3.31516ZM10.8927 4.73469V5.71969C10.3552 5.79719 9.91516 5.99969 9.59516 6.29969C9.18766 6.68719 8.99766 7.21219 8.99766 7.71719C8.99766 8.42719 9.32766 8.98969 9.77516 9.31969C10.2227 9.65219 10.7502 9.80219 11.2477 9.92969C11.6077 10.0222 12.0302 10.1622 12.3252 10.3697C12.6177 10.5772 12.7877 10.7947 12.7877 11.2272C12.7877 11.5022 12.6927 11.7572 12.4852 11.9572C12.2777 12.1547 11.9377 12.3122 11.3677 12.3122C10.5377 12.3122 10.2802 12.0622 10.1202 11.7822C9.96016 11.5022 9.94516 11.1297 9.94516 10.8922H8.99766C8.99766 11.1297 8.98266 11.7022 9.29766 12.2522C9.56266 12.7147 10.0952 13.1097 10.8927 13.2247V14.2072H11.8402V13.2247C12.3777 13.1472 12.8202 12.9447 13.1377 12.6422C13.5452 12.2547 13.7352 11.7322 13.7352 11.2272C13.7352 10.4872 13.3352 9.92469 12.8727 9.59719C12.4077 9.26719 11.8827 9.11469 11.4852 9.01219C11.0177 8.89219 10.5977 8.74969 10.3402 8.55969C10.0827 8.36969 9.94516 8.17719 9.94516 7.71719C9.94516 7.44219 10.0402 7.18469 10.2477 6.98719C10.4577 6.78969 10.7952 6.62969 11.3677 6.62969C12.1952 6.62969 12.4527 6.88219 12.6127 7.16219C12.7727 7.43969 12.7877 7.81469 12.7877 8.04969H13.7352C13.7352 7.81469 13.7502 7.23969 13.4352 6.69219C13.1727 6.22969 12.6377 5.83219 11.8402 5.71969V4.73469H10.8927ZM19.4177 16.0647V18.4697H14.5527C14.3852 18.1772 14.0727 17.9972 13.7352 17.9972C13.3977 17.9972 13.0852 18.1772 12.9152 18.4697H8.39766C8.22766 18.1772 7.91516 17.9972 7.57766 17.9972C7.24016 17.9972 6.92766 18.1772 6.76016 18.4697H2.24016C2.07266 18.1772 1.76016 17.9972 1.42016 17.9972C0.897657 17.9972 0.472656 18.4197 0.472656 18.9447C0.472656 19.4672 0.897657 19.8897 1.42016 19.8897C1.75766 19.8897 2.07016 19.7097 2.24016 19.4172H6.75766C6.92766 19.7097 7.24016 19.8897 7.57766 19.8897C7.91516 19.8897 8.22766 19.7097 8.39516 19.4172H12.9152C13.0852 19.7097 13.3977 19.8897 13.7352 19.8897C14.0727 19.8897 14.3852 19.7097 14.5552 19.4172H19.4177V21.8222L23.0177 18.9447L19.4177 16.0647ZM20.3652 18.0347L21.5002 18.9447L20.3652 19.8522V18.0347Z" fill="currentColor"/>
</g>
<defs>
<clipPath id="clip0_6760_8732">
<rect width="24" height="24" fill="white"/>
</clipPath>
</defs>
</svg>
