
<svg width="24" height="24" viewBox="0 0 24 24" fill="none" xmlns="http://www.w3.org/2000/svg">
<path d="M22.5604 8.15991H1.44043" stroke="currentColor" stroke-miterlimit="10"/>
<path d="M22.5604 12H1.44043" stroke="currentColor" stroke-miterlimit="10"/>
<path d="M15.0608 3.99692L12.0085 0.959961L12.0008 0.967641L11.9931 0.959961L8.94077 3.99692C8.75021 4.18748 8.75021 4.4966 8.94077 4.68716C9.13133 4.87772 9.44045 4.87772 9.63101 4.68716L11.5208 2.80508V7.19996C11.5208 7.20428 11.5126 7.20908 11.5131 7.2134C11.5169 7.47836 11.7349 7.69052 11.9998 7.68668H12.0008H12.0017C12.2667 7.69052 12.4846 7.47836 12.4885 7.2134C12.4889 7.20908 12.4808 7.20428 12.4808 7.19996V2.80508L14.371 4.68716C14.5616 4.87772 14.8707 4.87772 15.0613 4.68716C15.2518 4.4966 15.2513 4.18748 15.0608 3.99692Z" fill="currentColor"/>
<path d="M1.44043 15.8398H22.5604" stroke="currentColor" stroke-miterlimit="10"/>
<path d="M15.0608 20.0096L12.0085 23.0466L12.0008 23.0389L11.9931 23.0466L8.94077 20.0096C8.75021 19.8191 8.75021 19.51 8.94077 19.3194C9.13133 19.1288 9.44045 19.1288 9.63101 19.3194L11.5208 21.202V16.8071C11.5208 16.8028 11.5126 16.798 11.5131 16.7936C11.5169 16.5287 11.7349 16.3165 11.9998 16.3204H12.0008H12.0017C12.2667 16.3165 12.4846 16.5287 12.4885 16.7936C12.4885 16.798 12.4808 16.8028 12.4808 16.8071V21.202L14.371 19.3199C14.5616 19.1293 14.8707 19.1293 15.0613 19.3199C15.2518 19.5104 15.2513 19.8191 15.0608 20.0096Z" fill="currentColor"/>
</svg>
