<svg xmlns="http://www.w3.org/2000/svg" width="24" height="24" viewBox="0 0 24 24" fill="none">
<path d="M12 2.87992C17.5579 2.87992 22.08 6.75448 22.08 11.517C22.08 16.2796 17.5579 20.1542 12 20.1542C11.1499 20.1542 10.3229 20.0572 9.47231 19.858L8.90351 19.7246L8.52383 20.1681C8.19503 20.5521 7.09247 21.6801 5.27375 21.9969C5.62127 21.371 5.88335 20.7345 6.05567 20.0956C6.18959 19.5993 6.21359 19.3382 6.22031 19.1111L6.24287 18.5754L5.79887 18.2754C3.33359 16.6089 1.91999 14.1455 1.91999 11.517C1.91999 6.75448 6.44207 2.87992 12 2.87992ZM12 1.91992C5.91791 1.91992 0.959991 6.18232 0.959991 11.517C0.959991 14.6145 2.65583 17.3092 5.26127 19.0703C5.25695 19.174 5.26463 19.342 5.12879 19.845C4.96031 20.4686 4.62047 21.3465 3.92975 22.3367L3.43919 23.0399H4.29647C7.26767 23.0399 8.98703 21.1031 9.25295 20.7921C10.1386 20.9994 11.0486 21.1137 11.9995 21.1137C18.0816 21.1137 23.0395 16.8518 23.0395 11.5166C23.04 6.18184 18.0821 1.91992 12 1.91992Z" fill="currentColor"/>
<path d="M9.744 7.39208C10.272 6.81608 11.04 6.52808 12 6.52808C12.864 6.52808 13.584 6.76808 14.112 7.29608C14.64 7.77608 14.928 8.44808 14.928 9.21608C14.928 9.69608 14.832 10.0801 14.64 10.3681C14.448 10.6561 14.064 11.0881 13.44 11.6641C13.008 12.0961 12.72 12.4321 12.576 12.7201C12.432 12.9601 12.384 13.3441 12.384 13.9201H11.184C11.184 13.2961 11.28 12.7681 11.424 12.3841C11.568 12.0001 11.904 11.5681 12.432 11.0401L12.96 10.5121C13.104 10.3681 13.248 10.2241 13.344 10.0321C13.536 9.74408 13.632 9.45608 13.632 9.12008C13.632 8.68808 13.488 8.30408 13.248 8.01608C13.008 7.68008 12.528 7.53608 11.952 7.53608C11.184 7.53608 10.656 7.82408 10.368 8.35208C10.224 8.64008 10.128 9.12008 10.08 9.64808H8.88C8.928 8.73608 9.168 7.96808 9.744 7.39208ZM11.184 15.0241H12.48V16.4161H11.184V15.0241Z" fill="currentColor"/>
</svg>