<svg width="32" height="32" viewBox="0 0 32 32" fill="none" xmlns="http://www.w3.org/2000/svg">
<g clip-path="url(#clip0_4082_18782)">
<path d="M11.126 17.2617C10.9706 17.2617 10.8346 17.2811 10.7407 17.3135V19.7547C10.8249 19.7741 10.8961 19.7741 11.0127 19.7741C11.7411 19.7741 12.1491 19.2755 12.1491 18.4693C12.1491 17.8154 11.8771 17.2617 11.126 17.2617Z" fill="#5D5D5D"/>
<path d="M18.3523 1.33398H4V32.0007H27.3043V10.2892L18.3523 1.33398ZM12.7416 19.9503C12.3271 20.4424 11.6472 20.682 11.0548 20.682C10.9382 20.682 10.8443 20.682 10.7407 20.669V23.4145H9.63668V16.4925C9.98958 16.4083 10.4493 16.3565 10.9382 16.3565C11.6796 16.3565 12.2851 16.4925 12.7027 16.8875C13.0783 17.2436 13.266 17.7843 13.266 18.3897C13.266 19.0988 13.0653 19.5779 12.7416 19.9503ZM17.2159 22.7573C16.7497 23.2364 16.0601 23.4663 15.1536 23.4663C14.7683 23.4663 14.383 23.4339 14.1305 23.3918V16.4925C14.4543 16.4083 14.901 16.3565 15.3802 16.3565C16.1961 16.3565 16.7789 16.554 17.1965 16.9393C17.7696 17.4508 18.1257 18.3671 18.1257 19.7754C18.1257 21.2874 17.7501 22.236 17.2159 22.7573ZM21.9202 17.3569H20.146V19.4517H21.8036V20.3809H20.146V23.4145H19.029V16.3856H21.9202V17.3569ZM18.1063 10.5353V2.8071L25.8345 10.5353H18.1063Z" fill="#5D5D5D"/>
<path d="M15.5581 17.252C15.4448 17.252 15.3283 17.2617 15.2344 17.2811V22.526C15.3283 22.5487 15.4319 22.5487 15.5063 22.5487C16.2769 22.5487 16.9762 21.9012 16.9762 19.7643C16.9762 18.1682 16.5294 17.252 15.5581 17.252Z" fill="#5D5D5D"/>
</g>
<defs>
<clipPath id="clip0_4082_18782">
<rect width="32" height="32" fill="white"/>
</clipPath>
</defs>
</svg>
