<svg width="24" height="24" viewBox="0 0 24 24" fill="none" xmlns="http://www.w3.org/2000/svg">
<mask id="path-1-inside-1_11436_2080" fill="white">
<path d="M2.3999 4V7.2H5.5999V4H2.3999ZM9.5999 4.8C9.49389 4.7985 9.38864 4.81809 9.29027 4.85762C9.19189 4.89715 9.10236 4.95584 9.02686 5.03027C8.95136 5.10471 8.89142 5.19341 8.8505 5.29121C8.80958 5.38902 8.78851 5.49398 8.78851 5.6C8.78851 5.70602 8.80958 5.81098 8.8505 5.90879C8.89142 6.00659 8.95136 6.09529 9.02686 6.16973C9.10236 6.24416 9.19189 6.30285 9.29027 6.34238C9.38864 6.38191 9.49389 6.4015 9.5999 6.4H20.7999C20.9059 6.4015 21.0112 6.38191 21.1095 6.34238C21.2079 6.30285 21.2974 6.24416 21.3729 6.16973C21.4484 6.09529 21.5084 6.00659 21.5493 5.90879C21.5902 5.81098 21.6113 5.70602 21.6113 5.6C21.6113 5.49398 21.5902 5.38902 21.5493 5.29121C21.5084 5.19341 21.4484 5.10471 21.3729 5.03027C21.2974 4.95584 21.2079 4.89715 21.1095 4.85762C21.0112 4.81809 20.9059 4.7985 20.7999 4.8H9.5999ZM2.3999 10.4V13.6H5.5999V10.4H2.3999ZM9.5999 11.2C9.49389 11.1985 9.38864 11.2181 9.29027 11.2576C9.19189 11.2971 9.10236 11.3558 9.02686 11.4303C8.95136 11.5047 8.89142 11.5934 8.8505 11.6912C8.80958 11.789 8.78851 11.894 8.78851 12C8.78851 12.106 8.80958 12.211 8.8505 12.3088C8.89142 12.4066 8.95136 12.4953 9.02686 12.5697C9.10236 12.6442 9.19189 12.7029 9.29027 12.7424C9.38864 12.7819 9.49389 12.8015 9.5999 12.8H20.7999C20.9059 12.8015 21.0112 12.7819 21.1095 12.7424C21.2079 12.7029 21.2974 12.6442 21.3729 12.5697C21.4484 12.4953 21.5084 12.4066 21.5493 12.3088C21.5902 12.211 21.6113 12.106 21.6113 12C21.6113 11.894 21.5902 11.789 21.5493 11.6912C21.5084 11.5934 21.4484 11.5047 21.3729 11.4303C21.2974 11.3558 21.2079 11.2971 21.1095 11.2576C21.0112 11.2181 20.9059 11.1985 20.7999 11.2H9.5999ZM2.3999 16.8V20H5.5999V16.8H2.3999ZM9.5999 17.6C9.49389 17.5985 9.38864 17.6181 9.29027 17.6576C9.19189 17.6971 9.10236 17.7558 9.02686 17.8303C8.95136 17.9047 8.89142 17.9934 8.8505 18.0912C8.80958 18.189 8.78851 18.294 8.78851 18.4C8.78851 18.506 8.80958 18.611 8.8505 18.7088C8.89142 18.8066 8.95136 18.8953 9.02686 18.9697C9.10236 19.0442 9.19189 19.1029 9.29027 19.1424C9.38864 19.1819 9.49389 19.2015 9.5999 19.2H20.7999C20.9059 19.2015 21.0112 19.1819 21.1095 19.1424C21.2079 19.1029 21.2974 19.0442 21.3729 18.9697C21.4484 18.8953 21.5084 18.8066 21.5493 18.7088C21.5902 18.611 21.6113 18.506 21.6113 18.4C21.6113 18.294 21.5902 18.189 21.5493 18.0912C21.5084 17.9934 21.4484 17.9047 21.3729 17.8303C21.2974 17.7558 21.2079 17.6971 21.1095 17.6576C21.0112 17.6181 20.9059 17.5985 20.7999 17.6H9.5999Z"/>
</mask>
<path d="M2.3999 4V7.2H5.5999V4H2.3999ZM9.5999 4.8C9.49389 4.7985 9.38864 4.81809 9.29027 4.85762C9.19189 4.89715 9.10236 4.95584 9.02686 5.03027C8.95136 5.10471 8.89142 5.19341 8.8505 5.29121C8.80958 5.38902 8.78851 5.49398 8.78851 5.6C8.78851 5.70602 8.80958 5.81098 8.8505 5.90879C8.89142 6.00659 8.95136 6.09529 9.02686 6.16973C9.10236 6.24416 9.19189 6.30285 9.29027 6.34238C9.38864 6.38191 9.49389 6.4015 9.5999 6.4H20.7999C20.9059 6.4015 21.0112 6.38191 21.1095 6.34238C21.2079 6.30285 21.2974 6.24416 21.3729 6.16973C21.4484 6.09529 21.5084 6.00659 21.5493 5.90879C21.5902 5.81098 21.6113 5.70602 21.6113 5.6C21.6113 5.49398 21.5902 5.38902 21.5493 5.29121C21.5084 5.19341 21.4484 5.10471 21.3729 5.03027C21.2974 4.95584 21.2079 4.89715 21.1095 4.85762C21.0112 4.81809 20.9059 4.7985 20.7999 4.8H9.5999ZM2.3999 10.4V13.6H5.5999V10.4H2.3999ZM9.5999 11.2C9.49389 11.1985 9.38864 11.2181 9.29027 11.2576C9.19189 11.2971 9.10236 11.3558 9.02686 11.4303C8.95136 11.5047 8.89142 11.5934 8.8505 11.6912C8.80958 11.789 8.78851 11.894 8.78851 12C8.78851 12.106 8.80958 12.211 8.8505 12.3088C8.89142 12.4066 8.95136 12.4953 9.02686 12.5697C9.10236 12.6442 9.19189 12.7029 9.29027 12.7424C9.38864 12.7819 9.49389 12.8015 9.5999 12.8H20.7999C20.9059 12.8015 21.0112 12.7819 21.1095 12.7424C21.2079 12.7029 21.2974 12.6442 21.3729 12.5697C21.4484 12.4953 21.5084 12.4066 21.5493 12.3088C21.5902 12.211 21.6113 12.106 21.6113 12C21.6113 11.894 21.5902 11.789 21.5493 11.6912C21.5084 11.5934 21.4484 11.5047 21.3729 11.4303C21.2974 11.3558 21.2079 11.2971 21.1095 11.2576C21.0112 11.2181 20.9059 11.1985 20.7999 11.2H9.5999ZM2.3999 16.8V20H5.5999V16.8H2.3999ZM9.5999 17.6C9.49389 17.5985 9.38864 17.6181 9.29027 17.6576C9.19189 17.6971 9.10236 17.7558 9.02686 17.8303C8.95136 17.9047 8.89142 17.9934 8.8505 18.0912C8.80958 18.189 8.78851 18.294 8.78851 18.4C8.78851 18.506 8.80958 18.611 8.8505 18.7088C8.89142 18.8066 8.95136 18.8953 9.02686 18.9697C9.10236 19.0442 9.19189 19.1029 9.29027 19.1424C9.38864 19.1819 9.49389 19.2015 9.5999 19.2H20.7999C20.9059 19.2015 21.0112 19.1819 21.1095 19.1424C21.2079 19.1029 21.2974 19.0442 21.3729 18.9697C21.4484 18.8953 21.5084 18.8066 21.5493 18.7088C21.5902 18.611 21.6113 18.506 21.6113 18.4C21.6113 18.294 21.5902 18.189 21.5493 18.0912C21.5084 17.9934 21.4484 17.9047 21.3729 17.8303C21.2974 17.7558 21.2079 17.6971 21.1095 17.6576C21.0112 17.6181 20.9059 17.5985 20.7999 17.6H9.5999Z" fill="black"/>
<path d="M2.3999 4V0H-1.6001V4H2.3999ZM2.3999 7.2H-1.6001V11.2H2.3999V7.2ZM5.5999 7.2V11.2H9.5999V7.2H5.5999ZM5.5999 4H9.5999V0H5.5999V4ZM9.5999 4.8L9.54334 8.7996L9.57162 8.8H9.5999V4.8ZM8.78851 5.6H4.78851H8.78851ZM9.5999 6.4V2.4H9.57162L9.54334 2.4004L9.5999 6.4ZM20.7999 6.4L20.8565 2.4004L20.8282 2.4H20.7999V6.4ZM20.7999 4.8V8.8H20.8282L20.8565 8.7996L20.7999 4.8ZM2.3999 10.4V6.4H-1.6001V10.4H2.3999ZM2.3999 13.6H-1.6001V17.6H2.3999V13.6ZM5.5999 13.6V17.6H9.5999V13.6H5.5999ZM5.5999 10.4H9.5999V6.4H5.5999V10.4ZM9.5999 11.2L9.54334 15.1996L9.57162 15.2H9.5999V11.2ZM8.78851 12H4.78851H8.78851ZM9.5999 12.8V8.8H9.57162L9.54334 8.8004L9.5999 12.8ZM20.7999 12.8L20.8565 8.8004L20.8282 8.8H20.7999V12.8ZM20.7999 11.2V15.2H20.8282L20.8565 15.1996L20.7999 11.2ZM2.3999 16.8V12.8H-1.6001V16.8H2.3999ZM2.3999 20H-1.6001V24H2.3999V20ZM5.5999 20V24H9.5999V20H5.5999ZM5.5999 16.8H9.5999V12.8H5.5999V16.8ZM9.5999 17.6L9.54334 21.5996L9.57162 21.6H9.5999V17.6ZM9.5999 19.2V15.2H9.57162L9.54334 15.2004L9.5999 19.2ZM20.7999 19.2L20.8565 15.2004L20.8282 15.2H20.7999V19.2ZM20.7999 17.6V21.6H20.8282L20.8565 21.5996L20.7999 17.6ZM2.3999 4H-1.6001V7.2H2.3999H6.3999V4H2.3999ZM2.3999 7.2V11.2H5.5999V7.2V3.2H2.3999V7.2ZM5.5999 7.2H9.5999V4H5.5999H1.5999V7.2H5.5999ZM5.5999 4V0H2.3999V4V8H5.5999V4ZM9.5999 4.8L9.65647 0.8004C9.02046 0.791405 8.38901 0.908906 7.79881 1.14607L9.29027 4.85762L10.7817 8.56916C10.3883 8.72727 9.96733 8.8056 9.54334 8.7996L9.5999 4.8ZM9.29027 4.85762L7.79881 1.14607C7.20862 1.38324 6.67144 1.73534 6.2185 2.18192L9.02686 5.03027L11.8352 7.87863C11.5333 8.17633 11.1752 8.41106 10.7817 8.56916L9.29027 4.85762ZM9.02686 5.03027L6.2185 2.18192C5.76556 2.6285 5.4059 3.16064 5.16041 3.74742L8.8505 5.29121L12.5406 6.835C12.3769 7.22617 12.1372 7.58092 11.8352 7.87863L9.02686 5.03027ZM8.8505 5.29121L5.16041 3.74742C4.91493 4.33421 4.78851 4.96393 4.78851 5.6H8.78851H12.7885C12.7885 6.02403 12.7042 6.44383 12.5406 6.835L8.8505 5.29121ZM8.78851 5.6H4.78851C4.78851 6.23607 4.91493 6.86579 5.16041 7.45258L8.8505 5.90879L12.5406 4.365C12.7042 4.75617 12.7885 5.17597 12.7885 5.6H8.78851ZM8.8505 5.90879L5.16041 7.45258C5.4059 8.03936 5.76556 8.5715 6.2185 9.01808L9.02686 6.16973L11.8352 3.32137C12.1372 3.61908 12.3769 3.97383 12.5406 4.365L8.8505 5.90879ZM9.02686 6.16973L6.2185 9.01808C6.67144 9.46466 7.20862 9.81676 7.79881 10.0539L9.29027 6.34238L10.7817 2.63084C11.1752 2.78894 11.5333 3.02367 11.8352 3.32137L9.02686 6.16973ZM9.29027 6.34238L7.79881 10.0539C8.38901 10.2911 9.02046 10.4086 9.65647 10.3996L9.5999 6.4L9.54334 2.4004C9.96733 2.3944 10.3883 2.47273 10.7817 2.63084L9.29027 6.34238ZM9.5999 6.4V10.4H20.7999V6.4V2.4H9.5999V6.4ZM20.7999 6.4L20.7433 10.3996C21.3793 10.4086 22.0108 10.2911 22.601 10.0539L21.1095 6.34238L19.6181 2.63084C20.0115 2.47273 20.4325 2.3944 20.8565 2.4004L20.7999 6.4ZM21.1095 6.34238L22.601 10.0539C23.1912 9.81677 23.7284 9.46467 24.1813 9.01808L21.3729 6.16973L18.5646 3.32137C18.8665 3.02366 19.2246 2.78894 19.6181 2.63084L21.1095 6.34238ZM21.3729 6.16973L24.1813 9.01808C24.6342 8.5715 24.9939 8.03936 25.2394 7.45258L21.5493 5.90879L17.8592 4.365C18.0229 3.97383 18.2626 3.61908 18.5646 3.32137L21.3729 6.16973ZM21.5493 5.90879L25.2394 7.45258C25.4849 6.86578 25.6113 6.23605 25.6113 5.6H21.6113H17.6113C17.6113 5.17599 17.6956 4.75619 17.8592 4.365L21.5493 5.90879ZM21.6113 5.6H25.6113C25.6113 4.96395 25.4849 4.33422 25.2394 3.74742L21.5493 5.29121L17.8592 6.835C17.6956 6.44381 17.6113 6.02401 17.6113 5.6H21.6113ZM21.5493 5.29121L25.2394 3.74742C24.9939 3.16064 24.6342 2.6285 24.1813 2.18192L21.3729 5.03027L18.5646 7.87863C18.2626 7.58092 18.0229 7.22617 17.8592 6.835L21.5493 5.29121ZM21.3729 5.03027L24.1813 2.18192C23.7284 1.73533 23.1912 1.38323 22.601 1.14607L21.1095 4.85762L19.6181 8.56916C19.2246 8.41106 18.8665 8.17634 18.5646 7.87863L21.3729 5.03027ZM21.1095 4.85762L22.601 1.14607C22.0108 0.908906 21.3793 0.791405 20.7433 0.8004L20.7999 4.8L20.8565 8.7996C20.4325 8.8056 20.0115 8.72727 19.6181 8.56916L21.1095 4.85762ZM20.7999 4.8V0.8H9.5999V4.8V8.8H20.7999V4.8ZM2.3999 10.4H-1.6001V13.6H2.3999H6.3999V10.4H2.3999ZM2.3999 13.6V17.6H5.5999V13.6V9.6H2.3999V13.6ZM5.5999 13.6H9.5999V10.4H5.5999H1.5999V13.6H5.5999ZM5.5999 10.4V6.4H2.3999V10.4V14.4H5.5999V10.4ZM9.5999 11.2L9.65647 7.2004C9.02047 7.19141 8.38902 7.3089 7.79881 7.54607L9.29027 11.2576L10.7817 14.9692C10.3883 15.1273 9.96732 15.2056 9.54334 15.1996L9.5999 11.2ZM9.29027 11.2576L7.79881 7.54607C7.20861 7.78324 6.67144 8.13534 6.2185 8.58192L9.02686 11.4303L11.8352 14.2786C11.5333 14.5763 11.1752 14.8111 10.7817 14.9692L9.29027 11.2576ZM9.02686 11.4303L6.2185 8.58192C5.76557 9.02849 5.4059 9.56064 5.16041 10.1474L8.8505 11.6912L12.5406 13.235C12.3769 13.6262 12.1372 13.9809 11.8352 14.2786L9.02686 11.4303ZM8.8505 11.6912L5.16041 10.1474C4.91493 10.7342 4.78851 11.3639 4.78851 12H8.78851H12.7885C12.7885 12.424 12.7042 12.8438 12.5406 13.235L8.8505 11.6912ZM8.78851 12H4.78851C4.78851 12.6361 4.91493 13.2658 5.16041 13.8526L8.8505 12.3088L12.5406 10.765C12.7042 11.1562 12.7885 11.576 12.7885 12H8.78851ZM8.8505 12.3088L5.16041 13.8526C5.4059 14.4394 5.76557 14.9715 6.2185 15.4181L9.02686 12.5697L11.8352 9.72137C12.1372 10.0191 12.3769 10.3738 12.5406 10.765L8.8505 12.3088ZM9.02686 12.5697L6.2185 15.4181C6.67144 15.8647 7.20861 16.2168 7.79881 16.4539L9.29027 12.7424L10.7817 9.03084C11.1752 9.18895 11.5333 9.42367 11.8352 9.72137L9.02686 12.5697ZM9.29027 12.7424L7.79881 16.4539C8.38902 16.6911 9.02047 16.8086 9.65647 16.7996L9.5999 12.8L9.54334 8.8004C9.96732 8.7944 10.3883 8.87273 10.7817 9.03084L9.29027 12.7424ZM9.5999 12.8V16.8H20.7999V12.8V8.8H9.5999V12.8ZM20.7999 12.8L20.7433 16.7996C21.3793 16.8086 22.0108 16.6911 22.601 16.4539L21.1095 12.7424L19.6181 9.03084C20.0115 8.87273 20.4325 8.7944 20.8565 8.8004L20.7999 12.8ZM21.1095 12.7424L22.601 16.4539C23.1912 16.2168 23.7284 15.8647 24.1813 15.4181L21.3729 12.5697L18.5646 9.72137C18.8665 9.42367 19.2246 9.18894 19.6181 9.03084L21.1095 12.7424ZM21.3729 12.5697L24.1813 15.4181C24.6342 14.9715 24.9939 14.4394 25.2394 13.8526L21.5493 12.3088L17.8592 10.765C18.0229 10.3738 18.2626 10.0191 18.5646 9.72137L21.3729 12.5697ZM21.5493 12.3088L25.2394 13.8526C25.4849 13.2658 25.6113 12.636 25.6113 12H21.6113H17.6113C17.6113 11.576 17.6956 11.1562 17.8592 10.765L21.5493 12.3088ZM21.6113 12H25.6113C25.6113 11.364 25.4849 10.7342 25.2394 10.1474L21.5493 11.6912L17.8592 13.235C17.6956 12.8438 17.6113 12.424 17.6113 12H21.6113ZM21.5493 11.6912L25.2394 10.1474C24.9939 9.56064 24.6342 9.02849 24.1813 8.58192L21.3729 11.4303L18.5646 14.2786C18.2626 13.9809 18.0229 13.6262 17.8592 13.235L21.5493 11.6912ZM21.3729 11.4303L24.1813 8.58192C23.7284 8.13534 23.1912 7.78324 22.601 7.54607L21.1095 11.2576L19.6181 14.9692C19.2246 14.8111 18.8665 14.5763 18.5646 14.2786L21.3729 11.4303ZM21.1095 11.2576L22.601 7.54607C22.0108 7.3089 21.3793 7.19141 20.7433 7.2004L20.7999 11.2L20.8565 15.1996C20.4325 15.2056 20.0115 15.1273 19.6181 14.9692L21.1095 11.2576ZM20.7999 11.2V7.2H9.5999V11.2V15.2H20.7999V11.2ZM2.3999 16.8H-1.6001V20H2.3999H6.3999V16.8H2.3999ZM2.3999 20V24H5.5999V20V16H2.3999V20ZM5.5999 20H9.5999V16.8H5.5999H1.5999V20H5.5999ZM5.5999 16.8V12.8H2.3999V16.8V20.8H5.5999V16.8ZM9.5999 17.6L9.65647 13.6004C9.02045 13.5914 8.389 13.7089 7.79881 13.9461L9.29027 17.6576L10.7817 21.3692C10.3883 21.5273 9.96733 21.6056 9.54334 21.5996L9.5999 17.6ZM9.29027 17.6576L7.79881 13.9461C7.20863 14.1832 6.67145 14.5353 6.2185 14.9819L9.02686 17.8303L11.8352 20.6786C11.5333 20.9763 11.1752 21.2111 10.7817 21.3692L9.29027 17.6576ZM9.02686 17.8303L6.2185 14.9819C5.76557 15.4285 5.4059 15.9606 5.16041 16.5474L8.8505 18.0912L12.5406 19.635C12.3769 20.0262 12.1372 20.3809 11.8352 20.6786L9.02686 17.8303ZM8.8505 18.0912L5.16041 16.5474C4.91493 17.1342 4.78851 17.7639 4.78851 18.4H8.78851H12.7885C12.7885 18.824 12.7042 19.2438 12.5406 19.635L8.8505 18.0912ZM8.78851 18.4H4.78851C4.78851 19.0361 4.91493 19.6658 5.16041 20.2526L8.8505 18.7088L12.5406 17.165C12.7042 17.5562 12.7885 17.976 12.7885 18.4H8.78851ZM8.8505 18.7088L5.16041 20.2526C5.4059 20.8394 5.76557 21.3715 6.2185 21.8181L9.02686 18.9697L11.8352 16.1214C12.1372 16.4191 12.3769 16.7738 12.5406 17.165L8.8505 18.7088ZM9.02686 18.9697L6.2185 21.8181C6.67145 22.2647 7.20863 22.6168 7.79881 22.8539L9.29027 19.1424L10.7817 15.4308C11.1752 15.5889 11.5333 15.8237 11.8352 16.1214L9.02686 18.9697ZM9.29027 19.1424L7.79881 22.8539C8.389 23.0911 9.02045 23.2086 9.65647 23.1996L9.5999 19.2L9.54334 15.2004C9.96733 15.1944 10.3883 15.2727 10.7817 15.4308L9.29027 19.1424ZM9.5999 19.2V23.2H20.7999V19.2V15.2H9.5999V19.2ZM20.7999 19.2L20.7433 23.1996C21.3794 23.2086 22.0108 23.0911 22.601 22.8539L21.1095 19.1424L19.6181 15.4308C20.0115 15.2727 20.4325 15.1944 20.8565 15.2004L20.7999 19.2ZM21.1095 19.1424L22.601 22.8539C23.1912 22.6168 23.7284 22.2647 24.1813 21.8181L21.3729 18.9697L18.5646 16.1214C18.8665 15.8237 19.2247 15.5889 19.6181 15.4308L21.1095 19.1424ZM21.3729 18.9697L24.1813 21.8181C24.6342 21.3715 24.9939 20.8394 25.2394 20.2526L21.5493 18.7088L17.8592 17.165C18.0229 16.7738 18.2626 16.4191 18.5646 16.1214L21.3729 18.9697ZM21.5493 18.7088L25.2394 20.2526C25.4849 19.6658 25.6113 19.036 25.6113 18.4H21.6113H17.6113C17.6113 17.976 17.6956 17.5562 17.8592 17.165L21.5493 18.7088ZM21.6113 18.4H25.6113C25.6113 17.764 25.4849 17.1342 25.2394 16.5474L21.5493 18.0912L17.8592 19.635C17.6956 19.2438 17.6113 18.824 17.6113 18.4H21.6113ZM21.5493 18.0912L25.2394 16.5474C24.9939 15.9606 24.6342 15.4285 24.1813 14.9819L21.3729 17.8303L18.5646 20.6786C18.2626 20.3809 18.0229 20.0262 17.8592 19.635L21.5493 18.0912ZM21.3729 17.8303L24.1813 14.9819C23.7284 14.5353 23.1912 14.1832 22.601 13.9461L21.1095 17.6576L19.6181 21.3692C19.2247 21.2111 18.8665 20.9763 18.5646 20.6786L21.3729 17.8303ZM21.1095 17.6576L22.601 13.9461C22.0108 13.7089 21.3794 13.5914 20.7433 13.6004L20.7999 17.6L20.8565 21.5996C20.4325 21.6056 20.0115 21.5273 19.6181 21.3692L21.1095 17.6576ZM20.7999 17.6V13.6H9.5999V17.6V21.6H20.7999V17.6Z" fill="#454545" mask="url(#path-1-inside-1_11436_2080)"/>
</svg>
