<svg width="16" height="16" viewBox="0 0 16 16" fill="none" xmlns="http://www.w3.org/2000/svg">
<path d="M7.82205 1.04102C4.65538 1.04102 2.08594 3.61046 2.08594 6.7799C2.08594 10.5521 5.81649 12.3577 6.28316 12.7771C6.76094 13.2077 7.15538 14.1688 7.31372 14.7132C7.39149 14.9799 7.60816 15.1132 7.82205 15.1188C8.03872 15.1132 8.2526 14.9771 8.33038 14.7132C8.48872 14.1688 8.88316 13.2077 9.36094 12.7771C9.8276 12.3577 13.5582 10.5521 13.5582 6.7799C13.5582 3.61046 10.9887 1.04102 7.82205 1.04102ZM7.82205 8.34379C6.95816 8.34379 6.25816 7.64379 6.25816 6.7799C6.25816 5.91324 6.95816 5.21324 7.82205 5.21324C8.68594 5.21324 9.38594 5.91324 9.38594 6.7799C9.38594 7.64379 8.68594 8.34379 7.82205 8.34379Z" fill="#878787"/>
</svg>
