<svg width="24" height="24" viewBox="0 0 24 24" fill="none" xmlns="http://www.w3.org/2000/svg">
<g clip-path="url(#clip0_11271_17288)">
<path d="M23.8611 15.4659L23.1786 16.1484L21.8211 14.7897L22.5024 14.1084L23.8611 15.4659ZM18.2399 16.3209V18.9609L16.5124 20.2572L17.0874 21.0247L19.1999 19.4409V16.3209H18.2399ZM23.5199 19.2009C23.5199 21.8459 21.3649 24.0009 18.7199 24.0009C17.6399 24.0009 16.6411 23.6409 15.8399 23.0409H3.35986V0.960938H15.5561L20.6399 6.04469V14.8047C22.3349 15.5434 23.5199 17.2372 23.5199 19.2009ZM15.3599 6.24094H19.4836L15.3599 2.11719V6.24094ZM10.5599 10.5609H17.2799V9.60094H10.5599V10.5609ZM10.5599 14.4009H16.7999V13.4409H10.5599V14.4009ZM9.59986 16.3209H6.71986V19.2009H9.59986V16.3209ZM9.59986 12.4809H6.71986V15.3609H9.59986V12.4809ZM9.59986 8.64094H6.71986V11.5209H9.59986V8.64094ZM14.3236 17.2809H10.5599V18.2409H14.0161C14.0836 17.9047 14.1886 17.5834 14.3236 17.2809ZM22.5599 19.2009C22.5599 17.2472 21.0911 15.6297 19.1999 15.3897V14.4009H19.6799V13.4409H17.7599V14.4009H18.2399V15.3947C18.0761 15.4134 17.9186 15.4422 17.7599 15.4859C16.7524 15.7447 15.9074 16.4022 15.3986 17.2809C15.2249 17.5784 15.0911 17.8997 14.9999 18.2409C14.9236 18.5484 14.8799 18.8697 14.8799 19.2009C14.8799 21.3172 16.6036 23.0409 18.7199 23.0409C20.8361 23.0409 22.5599 21.3172 22.5599 19.2009ZM8.63986 9.60094H7.67986V10.5609H8.63986V9.60094ZM8.63986 13.4409H7.67986V14.4009H8.63986V13.4409ZM8.63986 17.2809H7.67986V18.2409H8.63986V17.2809Z" fill="currentColor"/>
</g>
<defs>
<clipPath id="clip0_11271_17288">
<rect width="24" height="24" fill="white"/>
</clipPath>
</defs>
</svg>
