<svg width="24" height="24" viewBox="0 0 24 24" fill="none" xmlns="http://www.w3.org/2000/svg">
<path d="M15.3499 0.94751H3.31494V22.7325H14.2074V22.685C13.9624 22.41 13.7399 22.1075 13.5549 21.785H4.26244V1.89501H14.6824V6.63001H19.4174V11.84H20.3649V5.96251L15.3499 0.94751ZM15.6299 5.68251V2.56251L18.7499 5.68251H15.6299ZM9.47244 11.3675H6.62994V8.52501H9.47244V11.3675ZM7.57744 10.42H8.52494V9.47251H7.57744V10.42ZM9.47244 15.155H6.62994V12.3125H9.47244V15.155ZM7.57744 14.2075H8.52494V13.26H7.57744V14.2075ZM9.47244 18.945H6.62994V16.1025H9.47244V18.945ZM7.57744 17.9975H8.52494V17.05H7.57744V17.9975ZM17.0499 10.42H10.4199V9.47251H17.0499V10.42ZM10.4199 17.05H13.1149C13.0049 17.3525 12.9199 17.67 12.8674 17.9975H10.4199V17.05ZM16.5749 13.26V13.5925C16.1399 13.745 15.7274 13.9525 15.3449 14.2075H10.4199V13.26H16.5749ZM18.9449 14.2325V13.735H19.4174V12.7875H17.5224V13.735H17.9974V14.2325C15.6099 14.4675 13.7349 16.495 13.7349 18.945C13.7349 21.5525 15.8599 23.68 18.4699 23.68C21.0799 23.68 23.2074 21.5525 23.2074 18.945C23.2074 16.495 21.3299 14.4675 18.9449 14.2325ZM18.4699 22.7325C16.3824 22.7325 14.6824 21.0325 14.6824 18.945C14.6824 16.855 16.3824 15.155 18.4699 15.155C20.5599 15.155 22.2599 16.855 22.2599 18.945C22.2599 21.0325 20.5599 22.7325 18.4699 22.7325ZM22.8724 15.93L21.5324 14.59L22.2024 13.92L23.5399 15.26L22.8724 15.93ZM16.8599 20.7425L16.2924 19.985L17.9974 18.7075V16.1025H18.9449V19.18L16.8599 20.7425Z" fill="#1C2925"/>
</svg>
