<svg xmlns="http://www.w3.org/2000/svg" width="24" height="24" viewBox="0 0 24 24" fill="none">
<path d="M14.2076 8.99761V6.15761H16.5751L12.7876 1.92261L8.99756 6.15761H11.3676V8.99761" stroke="currentColor" stroke-miterlimit="10" stroke-linecap="round"/>
<path d="M2.84229 20.3651H22.7323V8.99756H2.84229V20.3651Z" stroke="currentColor" stroke-miterlimit="10"/>
<path d="M5.94479 8.99756C4.77729 8.99756 4.71729 10.2201 4.39479 10.5426C4.07478 10.8626 2.84229 10.9451 2.84229 11.7176" stroke="currentColor" stroke-miterlimit="10"/>
<path d="M19.6299 8.99756C20.7974 8.99756 20.8574 10.2201 21.1799 10.5426C21.4999 10.8626 22.7324 10.9451 22.7324 11.7176" stroke="currentColor" stroke-miterlimit="10"/>
<path d="M6.62996 14.4451C6.62996 14.8376 6.31246 15.1551 5.91996 15.1551C5.52746 15.1551 5.20996 14.8376 5.20996 14.4451C5.20996 14.0526 5.52746 13.7351 5.91996 13.7351C6.31246 13.7351 6.62996 14.0526 6.62996 14.4451Z" stroke="currentColor" stroke-miterlimit="10"/>
<path d="M20.3648 14.4451C20.3648 14.8376 20.0473 15.1551 19.6548 15.1551C19.2623 15.1551 18.9448 14.8376 18.9448 14.4451C18.9448 14.0526 19.2623 13.7351 19.6548 13.7351C20.0473 13.7351 20.3648 14.0526 20.3648 14.4451Z" stroke="currentColor" stroke-miterlimit="10"/>
<path d="M16.5751 14.6827C16.5751 17.0352 14.8801 18.9452 12.7876 18.9452C10.6951 18.9452 8.99756 17.0352 8.99756 14.6827C8.99756 12.3277 10.6951 10.4202 12.7876 10.4202C14.8801 10.4202 16.5751 12.3277 16.5751 14.6827Z" stroke="currentColor" stroke-miterlimit="10"/>
<path d="M2.84229 17.645C2.84229 18.4175 4.07478 18.5 4.39479 18.82C4.71729 19.1425 4.77729 20.365 5.94479 20.365" stroke="currentColor" stroke-miterlimit="10"/>
<path d="M22.7324 17.645C22.7324 18.4175 21.4999 18.5 21.1799 18.82C20.8574 19.1425 20.7974 20.365 19.6299 20.365" stroke="currentColor" stroke-miterlimit="10"/>
<path d="M2.84229 17.645C2.84229 18.4175 4.07478 18.5 4.39479 18.82C4.71729 19.1425 4.77729 20.365 5.94479 20.365" stroke="currentColor" stroke-miterlimit="10"/>
<path d="M22.7324 17.645C22.7324 18.4175 21.4999 18.5 21.1799 18.82C20.8574 19.1425 20.7974 20.365 19.6299 20.365" stroke="currentColor" stroke-miterlimit="10"/>
<path d="M2.84242 21.7852H20.8374V20.3652H2.84242V10.4202H1.41992V21.7852H2.84242Z" stroke="currentColor" stroke-miterlimit="10"/>
</svg>