<svg width="32" height="32" viewBox="0 0 32 32" fill="none" xmlns="http://www.w3.org/2000/svg">
<path d="M5.7602 28.8H26.2402C27.6482 28.8 28.8002 27.648 28.8002 26.24V5.75995C28.8002 4.35195 27.6482 3.19995 26.2402 3.19995H5.7602C4.3522 3.19995 3.2002 4.35195 3.2002 5.75995V26.24C3.2002 27.648 4.3522 28.8 5.7602 28.8Z" stroke="#5D5D5D" stroke-miterlimit="10"/>
<path d="M26.2398 28.8C25.9524 23.9328 19.6241 24.6196 18.6462 22.1005C18.5886 21.2416 18.5886 20.6119 18.5886 19.8676C18.9911 19.6384 19.6817 18.3789 19.7969 17.2333C20.0842 17.2333 20.602 16.8896 20.7172 15.7447C20.7748 15.1149 20.4868 14.7712 20.3146 14.6567C20.8324 13.168 21.8679 8.47236 18.3588 8.01412C18.0708 7.38372 17.1505 7.04004 15.9422 7.04004C11.1671 7.1546 10.5918 10.6477 11.6273 14.5991C11.4545 14.7136 11.1095 15.0573 11.2247 15.6871C11.3399 16.8896 11.8577 17.1757 12.145 17.1757C12.2602 18.2637 13.0078 19.5808 13.411 19.81C13.411 20.6119 13.4686 21.184 13.3534 22.0429C12.433 24.6196 6.04713 23.9328 5.75977 28.8" stroke="#5D5D5D" stroke-miterlimit="10"/>
</svg>
