<svg width="26" height="31" viewBox="0 0 26 31" fill="none" xmlns="http://www.w3.org/2000/svg">
<path d="M23.5744 12.1056H1.91222C0.857778 12.1056 0 12.9633 0 14.0178V28.6722C0 29.7256 0.857778 30.5833 1.91222 30.5833H23.5744C24.6289 30.5833 25.4867 29.7256 25.4867 28.6722V14.0178C25.4867 12.9633 24.6289 12.1056 23.5744 12.1056ZM5.09778 22.9378C4.39333 22.9378 3.82333 22.3667 3.82333 21.6633C3.82333 20.9589 4.39333 20.3889 5.09778 20.3889C5.80111 20.3889 6.37222 20.9589 6.37222 21.6633C6.37222 22.3667 5.80111 22.9378 5.09778 22.9378ZM10.1944 22.9378C9.49111 22.9378 8.92 22.3667 8.92 21.6633C8.92 20.9589 9.49111 20.3889 10.1944 20.3889C10.8989 20.3889 11.4689 20.9589 11.4689 21.6633C11.4689 22.3667 10.8989 22.9378 10.1944 22.9378ZM15.2922 22.9378C14.5878 22.9378 14.0178 22.3667 14.0178 21.6633C14.0178 20.9589 14.5878 20.3889 15.2922 20.3889C15.9956 20.3889 16.5667 20.9589 16.5667 21.6633C16.5667 22.3667 15.9956 22.9378 15.2922 22.9378ZM20.3889 22.9378C19.6856 22.9378 19.1144 22.3667 19.1144 21.6633C19.1144 20.9589 19.6856 20.3889 20.3889 20.3889C21.0933 20.3889 21.6633 20.9589 21.6633 21.6633C21.6633 22.3667 21.0933 22.9378 20.3889 22.9378ZM4.46 10.8311V8.27667C4.46 3.71222 8.17333 0 12.7367 0H12.75C17.3133 0 21.0267 3.71222 21.0267 8.27667V10.8311H19.7522V8.27667C19.7522 4.41556 16.61 1.27444 12.75 1.27444H12.7367C8.87667 1.27444 5.73444 4.41556 5.73444 8.27667V10.8311H4.46Z" fill="#5D5D5D"/>
</svg>
