<svg width="24" height="24" viewBox="0 0 24 24" fill="none" xmlns="http://www.w3.org/2000/svg">
<path d="M8.34462 12.9468C8.22807 12.9468 8.12608 12.9613 8.05566 12.9856V14.8165C8.1188 14.8311 8.17222 14.8311 8.25963 14.8311C8.80598 14.8311 9.11194 14.4571 9.11194 13.8525C9.11194 13.362 8.90797 12.9468 8.34462 12.9468Z" fill="#008C91"/>
<path d="M13.7643 1H3V24H20.4783V7.71643L13.7643 1ZM9.55617 14.9622C9.24536 15.3313 8.73543 15.511 8.29107 15.511C8.20365 15.511 8.13323 15.511 8.05553 15.5013V17.5604H7.22751V12.3689C7.49219 12.3057 7.83699 12.2669 8.20365 12.2669C8.75971 12.2669 9.21379 12.3689 9.52703 12.6651C9.8087 12.9322 9.94954 13.3377 9.94954 13.7918C9.94954 14.3236 9.79899 14.683 9.55617 14.9622ZM12.912 17.0675C12.5623 17.4268 12.0451 17.5992 11.3652 17.5992C11.0762 17.5992 10.7873 17.575 10.5979 17.5434V12.3689C10.8407 12.3057 11.1758 12.2669 11.5352 12.2669C12.1471 12.2669 12.5841 12.415 12.8974 12.704C13.3272 13.0876 13.5943 13.7748 13.5943 14.8311C13.5943 15.9651 13.3126 16.6765 12.912 17.0675ZM16.4401 13.0172H15.1095V14.5883H16.3527V15.2852H15.1095V17.5604H14.2717V12.2887H16.4401V13.0172ZM13.5797 7.90097V2.10484L19.3758 7.90097H13.5797Z" fill="#008C91"/>
<path d="M11.6686 12.9395C11.5836 12.9395 11.4962 12.9467 11.4258 12.9613V16.895C11.4962 16.912 11.5739 16.912 11.6298 16.912C12.2077 16.912 12.7322 16.4264 12.7322 14.8237C12.7322 13.6266 12.3971 12.9395 11.6686 12.9395Z" fill="#008C91"/>
</svg>
