<svg width="16" height="16" viewBox="0 0 16 16" fill="none" xmlns="http://www.w3.org/2000/svg">
<g clip-path="url(#clip0_3266_10648)">
<path d="M5.56275 8.63086C5.48505 8.63086 5.41706 8.64057 5.37012 8.65676V9.87734C5.41221 9.88705 5.44782 9.88705 5.5061 9.88705C5.87033 9.88705 6.0743 9.63776 6.0743 9.23467C6.0743 8.90768 5.93832 8.63086 5.56275 8.63086Z" fill="#454545"/>
<path d="M9.17617 0.666992H2V16.0003H13.6522V5.14461L9.17617 0.666992ZM6.37078 9.97513C6.16357 10.2212 5.82362 10.341 5.52738 10.341C5.4691 10.341 5.42216 10.341 5.37035 10.3345V11.7073H4.81834V8.24624C4.99479 8.20415 5.22466 8.17825 5.4691 8.17825C5.83981 8.17825 6.14253 8.24624 6.35135 8.44374C6.53913 8.62181 6.63302 8.89215 6.63302 9.19486C6.63302 9.54938 6.53266 9.78897 6.37078 9.97513ZM8.60797 11.3786C8.37486 11.6182 8.03005 11.7332 7.57679 11.7332C7.38415 11.7332 7.19151 11.717 7.06525 11.6959V8.24624C7.22713 8.20415 7.45052 8.17825 7.6901 8.17825C8.09804 8.17825 8.38943 8.277 8.59825 8.46964C8.88478 8.72541 9.06285 9.18353 9.06285 9.88771C9.06285 10.6437 8.87507 11.118 8.60797 11.3786ZM10.9601 8.67846H10.073V9.72583H10.9018V10.1904H10.073V11.7073H9.5145V8.19282H10.9601V8.67846ZM9.05314 5.26764V1.40355L12.9172 5.26764H9.05314Z" fill="#454545"/>
<path d="M7.77907 8.62598C7.72241 8.62598 7.66413 8.63083 7.61719 8.64055V11.263C7.66413 11.2743 7.71593 11.2743 7.75317 11.2743C8.13844 11.2743 8.48811 10.9506 8.48811 9.88217C8.48811 9.0841 8.26471 8.62598 7.77907 8.62598Z" fill="#454545"/>
</g>
<defs>
<clipPath id="clip0_3266_10648">
<rect width="16" height="16" fill="white"/>
</clipPath>
</defs>
</svg>
