<svg width="24" height="24" viewBox="0 0 24 24" fill="none" xmlns="http://www.w3.org/2000/svg">
<g clip-path="url(#clip0_3906_9187)">
<path d="M19.8899 7.10501H13.7349V0.94751" stroke="#454545" stroke-miterlimit="10" stroke-linecap="round"/>
<path d="M20.3649 23.2074H3.31494V0.472412H13.7349L20.3649 7.10491V23.2074Z" stroke="#454545" stroke-miterlimit="10" stroke-linecap="round"/>
<mask id="path-3-inside-1_3906_9187" fill="white">
<path d="M7.19482 11.7049C7.46732 11.6399 7.82232 11.5999 8.19982 11.5999C8.77232 11.5999 9.23982 11.7049 9.56232 12.0099C9.85232 12.2849 9.99732 12.7024 9.99732 13.1699C9.99732 13.7174 9.84232 14.0874 9.59232 14.3774C9.27232 14.7549 8.74732 14.9399 8.28982 14.9399C8.19982 14.9399 8.12732 14.9399 8.04732 14.9324V17.0499H7.19482V11.7049ZM8.04732 14.2224C8.11232 14.2399 8.16732 14.2399 8.25732 14.2399C8.81982 14.2399 9.13482 13.8524 9.13482 13.2324C9.13482 12.7274 8.92482 12.2999 8.34482 12.2999C8.22482 12.2999 8.11982 12.3149 8.04732 12.3399V14.2224Z"/>
</mask>
<path d="M7.19482 11.7049C7.46732 11.6399 7.82232 11.5999 8.19982 11.5999C8.77232 11.5999 9.23982 11.7049 9.56232 12.0099C9.85232 12.2849 9.99732 12.7024 9.99732 13.1699C9.99732 13.7174 9.84232 14.0874 9.59232 14.3774C9.27232 14.7549 8.74732 14.9399 8.28982 14.9399C8.19982 14.9399 8.12732 14.9399 8.04732 14.9324V17.0499H7.19482V11.7049ZM8.04732 14.2224C8.11232 14.2399 8.16732 14.2399 8.25732 14.2399C8.81982 14.2399 9.13482 13.8524 9.13482 13.2324C9.13482 12.7274 8.92482 12.2999 8.34482 12.2999C8.22482 12.2999 8.11982 12.3149 8.04732 12.3399V14.2224Z" fill="#1C2925"/>
<path d="M7.19482 11.7049L6.9628 10.7321L6.19482 10.9153V11.7049H7.19482ZM9.56232 12.0099L10.2504 11.2842L10.2494 11.2833L9.56232 12.0099ZM9.59232 14.3774L8.83489 13.7244L8.82951 13.7307L9.59232 14.3774ZM8.04732 14.9324L8.14067 13.9367L7.04732 13.8342V14.9324H8.04732ZM8.04732 17.0499V18.0499H9.04732V17.0499H8.04732ZM7.19482 17.0499H6.19482V18.0499H7.19482V17.0499ZM8.04732 14.2224H7.04732V14.9887L7.78735 15.188L8.04732 14.2224ZM8.04732 12.3399L7.72134 11.3945L7.04732 11.6269V12.3399H8.04732ZM7.19482 11.7049L7.42685 12.6776C7.60981 12.6339 7.88521 12.5999 8.19982 12.5999V11.5999V10.5999C7.75944 10.5999 7.32484 10.6458 6.9628 10.7321L7.19482 11.7049ZM8.19982 11.5999V12.5999C8.68599 12.5999 8.8328 12.6963 8.8752 12.7364L9.56232 12.0099L10.2494 11.2833C9.64685 10.7134 8.85865 10.5999 8.19982 10.5999V11.5999ZM9.56232 12.0099L8.87423 12.7355C8.91216 12.7714 8.99732 12.8941 8.99732 13.1699H9.99732H10.9973C10.9973 12.5106 10.7925 11.7983 10.2504 11.2842L9.56232 12.0099ZM9.99732 13.1699H8.99732C8.99732 13.3482 8.97231 13.4621 8.94619 13.5356C8.92105 13.6064 8.88608 13.6651 8.83491 13.7244L9.59232 14.3774L10.3497 15.0303C10.7695 14.5433 10.9973 13.9358 10.9973 13.1699H9.99732ZM9.59232 14.3774L8.82951 13.7307C8.74066 13.8355 8.5237 13.9399 8.28982 13.9399V14.9399V15.9399C8.97095 15.9399 9.80399 15.6742 10.3551 15.024L9.59232 14.3774ZM8.28982 14.9399V13.9399C8.19287 13.9399 8.16663 13.9392 8.14067 13.9367L8.04732 14.9324L7.95398 15.928C8.08801 15.9406 8.20677 15.9399 8.28982 15.9399V14.9399ZM8.04732 14.9324H7.04732V17.0499H8.04732H9.04732V14.9324H8.04732ZM8.04732 17.0499V16.0499H7.19482V17.0499V18.0499H8.04732V17.0499ZM7.19482 17.0499H8.19482V11.7049H7.19482H6.19482V17.0499H7.19482ZM8.04732 14.2224L7.78735 15.188C8.00111 15.2455 8.18948 15.2399 8.25732 15.2399V14.2399V13.2399C8.23302 13.2399 8.22037 13.2398 8.2102 13.2397C8.20099 13.2396 8.20216 13.2394 8.20884 13.2398C8.21648 13.2403 8.23091 13.2416 8.24973 13.2445C8.26902 13.2476 8.28851 13.2517 8.3073 13.2567L8.04732 14.2224ZM8.25732 14.2399V15.2399C8.78381 15.2399 9.29944 15.0485 9.66713 14.6184C10.0163 14.21 10.1348 13.7002 10.1348 13.2324H9.13482H8.13482C8.13482 13.3043 8.12552 13.3428 8.12173 13.355C8.11837 13.3658 8.12212 13.3478 8.14689 13.3188C8.17339 13.2878 8.20811 13.263 8.2417 13.2488C8.27278 13.2357 8.28288 13.2399 8.25732 13.2399V14.2399ZM9.13482 13.2324H10.1348C10.1348 12.8649 10.0621 12.3911 9.76297 11.9843C9.42716 11.5276 8.91316 11.2999 8.34482 11.2999V12.2999V13.2999C8.36607 13.2999 8.33775 13.3033 8.2848 13.2783C8.2288 13.2517 8.1822 13.2106 8.15167 13.1691C8.12454 13.1322 8.12137 13.1107 8.12484 13.1241C8.12839 13.1379 8.13482 13.1729 8.13482 13.2324H9.13482ZM8.34482 12.2999V11.2999C8.15842 11.2999 7.93385 11.3212 7.72134 11.3945L8.04732 12.3399L8.37331 13.2852C8.35111 13.2929 8.33498 13.2969 8.32666 13.2988C8.32216 13.2998 8.31886 13.3004 8.31683 13.3008C8.31479 13.3011 8.31371 13.3013 8.31365 13.3013C8.31358 13.3013 8.3143 13.3012 8.31582 13.301C8.31733 13.3009 8.3195 13.3007 8.32229 13.3005C8.32797 13.3001 8.33554 13.2999 8.34482 13.2999V12.2999ZM8.04732 12.3399H7.04732V14.2224H8.04732H9.04732V12.3399H8.04732Z" fill="#454545" mask="url(#path-3-inside-1_3906_9187)"/>
<path d="M10.665 11.7049C10.915 11.6399 11.26 11.5999 11.63 11.5999C12.26 11.5999 12.71 11.7524 13.0325 12.0499C13.475 12.4449 13.75 13.1524 13.75 14.2399C13.75 15.4074 13.46 16.1399 13.0475 16.5424C12.6875 16.9124 12.155 17.0899 11.455 17.0899C11.1575 17.0899 10.86 17.0649 10.665 17.0324V11.7049ZM11.5175 16.3649C11.59 16.3824 11.67 16.3824 11.7275 16.3824C12.3225 16.3824 12.8625 15.8824 12.8625 14.2324C12.8625 12.9999 12.5175 12.2924 11.7675 12.2924C11.68 12.2924 11.59 12.2999 11.5175 12.3149V16.3649Z" fill="#1C2925"/>
<path d="M14.4473 11.6223H16.6798V12.3723H15.3098V13.9898H16.5898V14.7073H15.3098V17.0498H14.4473V11.6223Z" fill="#1C2925"/>
</g>
<defs>
<clipPath id="clip0_3906_9187">
<rect width="24" height="24" fill="white"/>
</clipPath>
</defs>
</svg>
