<svg xmlns="http://www.w3.org/2000/svg" width="24" height="24" viewBox="0 0 24 24" fill="none">
<path d="M19.89 7.10501H13.735V0.94751" stroke="currentColor" stroke-miterlimit="10" stroke-linecap="round"/>
<path d="M20.365 23.2074H3.315V0.472412H13.735L20.365 7.10491V23.2074Z" stroke="currentColor" stroke-miterlimit="10" stroke-linecap="round"/>
<path d="M7.195 11.7049C7.4675 11.6399 7.8225 11.5999 8.2 11.5999C8.7725 11.5999 9.24 11.7049 9.5625 12.0099C9.8525 12.2849 9.9975 12.7024 9.9975 13.1699C9.9975 13.7174 9.8425 14.0874 9.5925 14.3774C9.2725 14.7549 8.7475 14.9399 8.29 14.9399C8.2 14.9399 8.1275 14.9399 8.0475 14.9324V17.0499H7.195V11.7049ZM8.0475 14.2224C8.1125 14.2399 8.1675 14.2399 8.2575 14.2399C8.82 14.2399 9.135 13.8524 9.135 13.2324C9.135 12.7274 8.925 12.2999 8.345 12.2999C8.225 12.2999 8.12 12.3149 8.0475 12.3399V14.2224Z" fill="currentColor"/>
<path d="M10.665 11.7049C10.915 11.6399 11.26 11.5999 11.63 11.5999C12.26 11.5999 12.71 11.7524 13.0325 12.0499C13.475 12.4449 13.75 13.1524 13.75 14.2399C13.75 15.4074 13.46 16.1399 13.0475 16.5424C12.6875 16.9124 12.155 17.0899 11.455 17.0899C11.1575 17.0899 10.86 17.0649 10.665 17.0324V11.7049ZM11.5175 16.3649C11.59 16.3824 11.67 16.3824 11.7275 16.3824C12.3225 16.3824 12.8625 15.8824 12.8625 14.2324C12.8625 12.9999 12.5175 12.2924 11.7675 12.2924C11.68 12.2924 11.59 12.2999 11.5175 12.3149V16.3649Z" fill="currentColor"/>
<path d="M14.4475 11.6223H16.68V12.3723H15.31V13.9898H16.59V14.7073H15.31V17.0498H14.4475V11.6223Z" fill="currentColor"/>
</svg>