<svg width="16" height="16" viewBox="0 0 16 16" fill="none" xmlns="http://www.w3.org/2000/svg">
<path d="M12.3235 14.8392C12.3185 14.8392 12.3135 14.8392 12.3085 14.8392C9.93517 14.7609 7.15517 12.4609 5.24017 10.5442C3.3235 8.62756 1.0235 5.84756 0.948502 3.48422C0.921836 2.65589 2.95517 1.18256 2.97684 1.16756C3.5035 0.799223 4.09017 0.929224 4.33017 1.26256C4.4935 1.48922 6.03517 3.82589 6.20184 4.09089C6.37684 4.36422 6.35017 4.77422 6.1335 5.18589C6.0135 5.41256 5.61684 6.11256 5.43017 6.43756C5.63017 6.72422 6.1635 7.42422 7.26184 8.52256C8.3585 9.62089 9.06017 10.1526 9.34684 10.3542C9.6735 10.1676 10.3718 9.77089 10.6002 9.65089C11.0035 9.43589 11.4118 9.40922 11.6885 9.57922C11.9718 9.75256 14.3018 11.3026 14.5168 11.4526C14.6968 11.5792 14.8135 11.7959 14.8352 12.0492C14.8585 12.3042 14.7802 12.5742 14.6152 12.8092C14.6018 12.8292 13.1452 14.8392 12.3235 14.8392Z" fill="#878787"/>
</svg>
