<svg width="24" height="24" viewBox="0 0 24 24" fill="none" xmlns="http://www.w3.org/2000/svg">
<path d="M12.0776 19.7025C12.5976 19.7975 13.1651 19.89 13.7351 19.89C18.1851 19.89 21.7851 16.2925 21.7851 11.84C21.7851 7.38754 18.1851 3.79004 13.7351 3.79004C13.1651 3.79004 12.5976 3.83504 12.0776 3.97754" stroke="currentColor" stroke-miterlimit="10" stroke-linecap="round" stroke-linejoin="round"/>
<path d="M10.4202 3.79004C5.96768 3.79004 2.36768 7.38754 2.36768 11.84C2.36768 16.2925 5.96768 19.89 10.4202 19.89C14.8702 19.89 18.4702 16.2925 18.4702 11.84C18.4702 7.38754 14.8702 3.79004 10.4202 3.79004Z" stroke="currentColor" stroke-miterlimit="10" stroke-linecap="round" stroke-linejoin="round"/>
<path d="M13.2601 13.6876C13.2601 12.1251 11.9826 11.6976 10.7501 11.4151C9.75514 11.1776 8.85764 10.9401 8.85764 9.94513C8.85764 9.52013 9.04514 8.57263 10.4676 8.57263C11.4601 8.57263 11.9351 9.18763 12.0776 9.94513H13.0251C12.7401 8.90263 12.2651 7.95763 10.8926 7.72013V6.63013H9.94514V7.67263C9.18764 7.76763 7.81514 8.43013 7.81514 10.0401C7.81514 13.0726 12.2201 11.5076 12.2201 13.7826C12.2201 14.5401 11.8876 15.2501 10.4201 15.2501C8.95014 15.2501 8.52514 14.1126 8.52514 13.4976H7.57764C7.72014 15.5351 9.14014 16.0076 9.94514 16.1501V17.0501H10.8926V16.1501C11.6026 16.1026 13.2601 15.5826 13.2601 13.6876Z" fill="currentColor"/>
</svg>
