<svg width="24" height="24" viewBox="0 0 24 24" fill="none" xmlns="http://www.w3.org/2000/svg">
<path d="M12.0771 19.7025C12.5971 19.7975 13.1646 19.89 13.7346 19.89C18.1846 19.89 21.7846 16.2925 21.7846 11.84C21.7846 7.38754 18.1846 3.79004 13.7346 3.79004C13.1646 3.79004 12.5971 3.83504 12.0771 3.97754" stroke="#454545" stroke-miterlimit="10" stroke-linecap="round" stroke-linejoin="round"/>
<path d="M10.4197 3.79004C5.96719 3.79004 2.36719 7.38754 2.36719 11.84C2.36719 16.2925 5.96719 19.89 10.4197 19.89C14.8697 19.89 18.4697 16.2925 18.4697 11.84C18.4697 7.38754 14.8697 3.79004 10.4197 3.79004Z" stroke="#454545" stroke-miterlimit="10" stroke-linecap="round" stroke-linejoin="round"/>
<path d="M11.9932 12.3633C12.0574 12.3996 12.1192 12.4375 12.1768 12.4785C12.5238 12.726 12.7598 13.0744 12.7598 13.6875C12.7598 13.9827 12.7111 14.2318 12.6309 14.4434C12.6959 14.2191 12.7197 13.9921 12.7197 13.7822C12.7197 13.4126 12.6283 13.0888 12.4463 12.8154C12.3214 12.6279 12.1634 12.4818 11.9932 12.3633ZM8.49805 9.20703C8.38393 9.49093 8.35742 9.76309 8.35742 9.94531C8.35749 10.2724 8.43188 10.5651 8.58398 10.8184C8.73472 11.0692 8.94393 11.2529 9.16895 11.3906C9.19389 11.4059 9.22033 11.4192 9.24609 11.4336C9.08011 11.3632 8.933 11.283 8.80664 11.1865C8.52535 10.9718 8.31449 10.6522 8.31445 10.04C8.31445 9.71098 8.38428 9.43618 8.49805 9.20703Z" fill="#454545" stroke="#454545"/>
</svg>
