<svg xmlns="http://www.w3.org/2000/svg" width="24" height="24" viewBox="0 0 24 24" fill="none">
<path d="M4.32039 21.5999H19.6804C20.7364 21.5999 21.6004 20.7359 21.6004 19.6799V4.3199C21.6004 3.2639 20.7364 2.3999 19.6804 2.3999H4.32039C3.26439 2.3999 2.40039 3.2639 2.40039 4.3199V19.6799C2.40039 20.7359 3.26439 21.5999 4.32039 21.5999Z" stroke="currentColor" stroke-miterlimit="10"/>
<path d="M19.6803 21.6C19.4648 17.9496 14.7186 18.4647 13.9851 16.5754C13.9419 15.9312 13.9419 15.4589 13.9419 14.9007C14.2438 14.7288 14.7618 13.7842 14.8482 12.925C15.0637 12.925 15.452 12.6672 15.5384 11.8085C15.5816 11.3362 15.3656 11.0784 15.2365 10.9925C15.6248 9.87603 16.4014 6.35427 13.7696 6.01059C13.5536 5.53779 12.8634 5.28003 11.9571 5.28003C8.37583 5.36595 7.94431 7.98579 8.72095 10.9493C8.59135 11.0352 8.33263 11.293 8.41903 11.7653C8.50543 12.6672 8.89375 12.8818 9.10927 12.8818C9.19567 13.6978 9.75631 14.6856 10.0587 14.8575C10.0587 15.4589 10.1019 15.888 10.0155 16.5322C9.32527 18.4647 4.53583 17.9496 4.32031 21.6" stroke="currentColor" stroke-miterlimit="10"/>
</svg>