<svg width="24" height="24" viewBox="0 0 24 24" fill="none" xmlns="http://www.w3.org/2000/svg">
<path d="M1.09252 20.1081L11.1519 2.4172C11.5292 1.75384 12.4714 1.75384 12.8487 2.4172L22.9076 20.1076C23.2844 20.771 22.813 21.5999 22.0589 21.5999H1.94116C1.18708 21.5999 0.715717 20.771 1.09252 20.1081Z" stroke="currentColor" stroke-miterlimit="10" stroke-linecap="round" stroke-linejoin="round"/>
<path d="M12.96 17.7599V18.7199C12.96 18.9849 12.746 19.1999 12.481 19.1999C12.1872 19.1999 11.8128 19.1999 11.5196 19.1999C11.2541 19.1999 11.04 18.9849 11.04 18.7199V17.7599C11.04 17.495 11.2541 17.2799 11.5191 17.2799C11.8128 17.2799 12.1872 17.2799 12.4805 17.2799C12.746 17.2799 12.96 17.495 12.96 17.7599ZM12.96 8.63991L12.9591 15.3599C12.9591 15.6249 12.745 15.8399 12.48 15.8399C12.1863 15.8399 11.8119 15.8399 11.5186 15.8399C11.2532 15.8399 11.04 15.6249 11.04 15.3599V8.63991C11.04 8.37495 11.2541 8.15991 11.5191 8.15991C11.8128 8.15991 12.1872 8.15991 12.4805 8.15991C12.746 8.15991 12.96 8.37495 12.96 8.63991Z" fill="currentColor"/>
</svg>
