<svg width="16" height="16" viewBox="0 0 16 16" fill="none" xmlns="http://www.w3.org/2000/svg">
<path d="M0.728507 13.4059L7.43475 1.61195C7.68627 1.16971 8.31443 1.16971 8.56595 1.61195L15.2719 13.4056C15.5231 13.8478 15.2088 14.4004 14.7061 14.4004H1.29427C0.791547 14.4004 0.477307 13.8478 0.728507 13.4059Z" stroke="white" stroke-miterlimit="10" stroke-linecap="round" stroke-linejoin="round"/>
<path d="M8.63986 11.8404V12.4804C8.63986 12.6571 8.49714 12.8004 8.3205 12.8004C8.12466 12.8004 7.87506 12.8004 7.67954 12.8004C7.50258 12.8004 7.35986 12.6571 7.35986 12.4804V11.8404C7.35986 11.6638 7.50258 11.5204 7.67922 11.5204C7.87506 11.5204 8.12466 11.5204 8.32018 11.5204C8.49714 11.5204 8.63986 11.6638 8.63986 11.8404ZM8.63986 5.76043L8.63922 10.2404C8.63922 10.4171 8.4965 10.5604 8.31986 10.5604C8.12402 10.5604 7.87442 10.5604 7.6789 10.5604C7.50194 10.5604 7.35986 10.4171 7.35986 10.2404V5.76043C7.35986 5.58379 7.50258 5.44043 7.67922 5.44043C7.87506 5.44043 8.12466 5.44043 8.32018 5.44043C8.49714 5.44043 8.63986 5.58379 8.63986 5.76043Z" fill="white"/>
</svg>
