<svg width="24" height="24" viewBox="0 0 24 24" fill="none" xmlns="http://www.w3.org/2000/svg">
<path d="M15.1544 7.5777H13.7344V4.2627H15.1544V7.5777Z" stroke="#416054" stroke-miterlimit="10" stroke-linecap="round" stroke-linejoin="round"/>
<path d="M21.3122 20.3652C21.3122 20.8852 20.8847 21.3127 20.3647 21.3127H3.31469C2.79469 21.3127 2.36719 20.8852 2.36719 20.3652V3.31518C2.36719 2.79518 2.79469 2.36768 3.31469 2.36768H17.4272L21.3122 6.25268V20.3652Z" stroke="#416054" stroke-miterlimit="10" stroke-linecap="round" stroke-linejoin="round"/>
<path d="M17.5213 21.2176V13.7351C17.5213 13.2126 17.0963 12.7876 16.5738 12.7876H7.10375C6.58125 12.7876 6.15625 13.2126 6.15625 13.7351V21.2176" stroke="#416054" stroke-miterlimit="10" stroke-linecap="round" stroke-linejoin="round"/>
<path d="M17.0488 8.52518C17.0488 9.04518 16.6212 9.47268 16.1012 9.47268H7.10375C6.58125 9.47268 6.15625 9.04518 6.15625 8.52518V2.84268C6.15625 2.55768 6.34375 2.36768 6.62875 2.36768H16.5738C16.8588 2.36768 17.0488 2.55768 17.0488 2.84268V8.52518Z" stroke="#416054" stroke-miterlimit="10" stroke-linecap="round" stroke-linejoin="round"/>
<path d="M18.9453 18.9453H19.8903V19.8903H18.9453V18.9453Z" fill="#416054"/>
<path d="M3.78906 18.9453H4.73406V19.8903H3.78906V18.9453Z" fill="#416054"/>
</svg>
