<svg width="80" height="80" viewBox="0 0 80 80" fill="none" xmlns="http://www.w3.org/2000/svg">
<path d="M69.0455 32.6002C68.325 29.7833 67.2182 27.1271 65.7686 24.6922L68.5507 17.5784C69.1062 16.1635 68.7677 14.5576 67.6956 13.4856L64.7486 10.5385L55.3041 14.2321C52.8692 12.7824 50.2173 11.6757 47.3962 10.9552L44.3319 3.95866C43.7286 2.56543 42.3528 1.66699 40.8337 1.66699H36.667L32.6002 10.9552C29.7833 11.6757 27.1271 12.7824 24.6922 14.2321L17.5784 11.45C16.1635 10.8944 14.5576 11.233 13.4856 12.305L10.5385 15.2521L14.2321 24.6965C12.7824 27.1314 11.6757 29.7833 10.9552 32.6045L3.95866 35.6687C2.56543 36.272 1.66699 37.6479 1.66699 39.167V43.3337L10.9552 47.4005C11.6757 50.2173 12.7824 52.8736 14.2321 55.3085L11.45 62.4222C10.8944 63.8371 11.233 65.443 12.305 66.5194L15.2521 69.4665L24.6965 65.7686C27.1314 67.2182 29.7833 68.3293 32.6045 69.0455L35.6687 76.0463C36.272 77.4352 37.6479 78.3337 39.167 78.3337H43.3337L47.4005 69.0455C50.2173 68.325 52.8736 67.2182 55.3085 65.7686L62.4222 68.5507C63.8371 69.1062 65.443 68.7677 66.5194 67.6956L69.4665 64.7486L65.7686 55.3041C67.2182 52.8692 68.3293 50.2173 69.0455 47.3962L76.0463 44.3319C77.4352 43.7286 78.3337 42.3528 78.3337 40.8337V36.667L69.0455 32.6002Z" fill="url(#paint0_linear_8947_13256)"/>
<path d="M61.6673 39.9999C61.6673 42.7516 61.1508 45.3992 60.2177 47.8167L48.2993 40.9331C48.2906 41.0112 48.2602 41.0893 48.2515 41.1674C48.3036 40.7855 48.334 40.3992 48.334 39.9999C48.334 36.5841 46.268 33.6501 43.334 32.348V18.585C53.7159 20.1822 61.6673 29.1666 61.6673 39.9999Z" fill="url(#paint1_linear_8947_13256)"/>
<path d="M29.1672 21.2369C31.55 19.861 34.1021 18.9843 36.6628 18.585L36.6585 32.3436C36.7323 32.3133 36.8147 32.3002 36.8885 32.2699C36.5326 32.4131 36.1767 32.5824 35.8338 32.782C32.8738 34.4877 31.3677 37.7473 31.7106 40.9374L19.7878 47.8211C15.9814 38.0294 19.7835 26.6535 29.1672 21.2369Z" fill="url(#paint2_linear_8947_13256)"/>
<path d="M29.1671 58.7635C26.7843 57.3876 24.7487 55.6168 23.1211 53.5985L35.0438 46.7235C34.9787 46.6758 34.9267 46.6107 34.8659 46.5586C35.1654 46.7973 35.4909 47.0187 35.8338 47.2183C38.7938 48.924 42.3659 48.6029 44.957 46.7105L56.8798 53.5942C50.3043 61.7886 38.5508 64.1801 29.1671 58.7635Z" fill="url(#paint3_linear_8947_13256)"/>
<defs>
<linearGradient id="paint0_linear_8947_13256" x1="-19.4097" y1="-19.4097" x2="142.642" y2="142.642" gradientUnits="userSpaceOnUse">
<stop stop-color="#262626" stop-opacity="0"/>
<stop offset="1" stop-color="#262626" stop-opacity="0.8"/>
</linearGradient>
<linearGradient id="paint1_linear_8947_13256" x1="87.284" y1="12.6999" x2="31.314" y2="45.0132" gradientUnits="userSpaceOnUse">
<stop stop-color="#262626" stop-opacity="0"/>
<stop offset="1" stop-color="#262626" stop-opacity="0.8"/>
</linearGradient>
<linearGradient id="paint2_linear_8947_13256" x1="-7.28367" y1="12.7013" x2="48.6855" y2="45.0161" gradientUnits="userSpaceOnUse">
<stop stop-color="#262626" stop-opacity="0"/>
<stop offset="1" stop-color="#262626" stop-opacity="0.8"/>
</linearGradient>
<linearGradient id="paint3_linear_8947_13256" x1="40.0013" y1="94.599" x2="40.0021" y2="29.9709" gradientUnits="userSpaceOnUse">
<stop stop-color="#262626" stop-opacity="0"/>
<stop offset="1" stop-color="#262626" stop-opacity="0.8"/>
</linearGradient>
</defs>
</svg>
