<svg width="24" height="24" viewBox="0 0 24 24" fill="none" xmlns="http://www.w3.org/2000/svg">
<path d="M23.5608 10.0285L20.4775 9.52454C20.297 8.90581 20.0503 8.31107 19.7414 7.74816L21.5413 5.18298C21.6868 4.97586 21.6618 4.69362 21.4828 4.51416L19.454 2.48632C19.2729 2.30581 18.9881 2.28234 18.7805 2.43206L16.2539 4.24809C15.6857 3.93403 15.0858 3.68466 14.4634 3.50363L13.9255 0.432919C13.8817 0.183548 13.6652 0.000953674 13.4117 0.000953674H10.5423C10.2867 0.000953674 10.0686 0.186156 10.0274 0.438658L9.52867 3.49268C8.90263 3.67266 8.30164 3.91942 7.73559 4.22931L5.2158 2.42946C5.00764 2.28077 4.72436 2.30477 4.54333 2.48476L2.51549 4.51259C2.33655 4.69154 2.31151 4.97325 2.45706 5.18037L4.23031 7.71738C3.91468 8.28864 3.66322 8.89329 3.48011 9.52246L0.438092 10.029C0.186634 10.0708 0.00195312 10.2888 0.00195312 10.5434V13.4128C0.00195312 13.6658 0.183504 13.8823 0.432353 13.9266L3.47437 14.4661C3.65644 15.0937 3.9079 15.6983 4.22457 16.2711L2.42941 18.7821C2.28125 18.9892 2.30473 19.2735 2.48471 19.4545L4.51307 21.4845C4.69201 21.6634 4.97425 21.6884 5.18136 21.5429L7.72203 19.7634C8.29224 20.0769 8.89481 20.3258 9.51928 20.5063L10.0285 23.5639C10.0697 23.8149 10.2872 23.999 10.5423 23.999H13.4117C13.6647 23.999 13.8812 23.8175 13.925 23.5686L14.4702 20.4958C15.0957 20.3117 15.6951 20.0613 16.2596 19.7472L18.8185 21.5424C19.0262 21.689 19.3079 21.6634 19.4874 21.4845L21.5157 19.4545C21.6962 19.2735 21.7197 18.9881 21.57 18.7805L19.7451 16.2466C20.0544 15.6832 20.3002 15.0874 20.4791 14.4687L23.5665 13.9266C23.8164 13.8828 23.9979 13.6658 23.9979 13.4128V10.5434C23.9985 10.2878 23.8133 10.0697 23.5608 10.0285ZM11.9999 15.6519C9.98307 15.6519 8.34807 14.0169 8.34807 12C8.34807 9.98312 9.98307 8.34811 11.9999 8.34811C14.0168 8.34811 15.6518 9.98312 15.6518 12C15.6518 14.0169 14.0168 15.6519 11.9999 15.6519Z" fill="currentColor"/>
</svg>
