<svg width="24" height="24" viewBox="0 0 24 24" fill="none" xmlns="http://www.w3.org/2000/svg">
<path d="M22.5604 13.2999V10.6599L19.4179 10.1462C19.2317 9.40244 18.9392 8.70244 18.5554 8.06244L20.3854 5.45244L18.5192 3.58619L15.9417 5.43869C15.3004 5.04994 14.5954 4.75369 13.8467 4.56619L13.2992 1.43994H10.6592L10.1504 4.55619C9.40043 4.73994 8.69293 5.03244 8.04918 5.41994L5.47918 3.58369L3.61293 5.44994L5.42043 8.03369C5.02918 8.68119 4.73168 9.38744 4.54418 10.1424L1.44043 10.6587V13.2987L4.54043 13.8487C4.72793 14.6012 5.02418 15.3087 5.41668 15.9562L3.58543 18.5174L5.45043 20.3849L8.03793 18.5724C8.68418 18.9612 9.39043 19.2562 10.1404 19.4412L10.6592 22.5599H13.2992L13.8542 19.4337C14.6004 19.2449 15.3042 18.9474 15.9442 18.5587L18.5504 20.3862L20.4167 18.5187L18.5567 15.9362C18.9417 15.2962 19.2329 14.5949 19.4179 13.8512L22.5604 13.2999Z" stroke="#454545" stroke-miterlimit="10" stroke-linecap="round" stroke-linejoin="round"/>
<path d="M15.3606 11.9999C15.3606 13.8561 13.8569 15.3599 12.0006 15.3599C10.1444 15.3599 8.64062 13.8561 8.64062 11.9999C8.64062 10.1436 10.1444 8.63989 12.0006 8.63989C13.8569 8.63989 15.3606 10.1436 15.3606 11.9999Z" stroke="#454545" stroke-miterlimit="10" stroke-linecap="round" stroke-linejoin="round"/>
</svg>
