<svg xmlns="http://www.w3.org/2000/svg" width="32" height="32" viewBox="0 0 32 32" fill="none">
<path d="M0 28.8H32" stroke="currentColor" stroke-miterlimit="10" stroke-linejoin="round"/>
<path d="M30.7203 13.4399C26.6883 13.4399 25.3443 18.5599 23.2963 18.5599C22.5923 18.5599 23.8083 13.4399 22.7203 13.4399C21.4403 13.4399 18.8803 19.8399 15.6803 19.8399C13.8883 19.8399 12.7363 17.7279 12.7363 15.2319C12.7363 11.3279 14.9763 8.31992 17.2163 8.31992C21.3763 8.31992 14.7203 22.3999 7.61627 22.3999C3.71227 22.3999 1.28027 17.4079 1.28027 13.7599C1.28027 5.56792 6.33627 1.91992 8.44827 1.91992C11.2643 1.91992 11.5203 4.35192 11.5203 5.24792C11.5203 13.7599 1.28027 24.7679 1.28027 24.7679" stroke="currentColor" stroke-miterlimit="10" stroke-linecap="round" stroke-linejoin="round"/>
</svg>