<svg width="24" height="24" viewBox="0 0 24 24" fill="none" xmlns="http://www.w3.org/2000/svg">
<path d="M0 21.6001H24" stroke="currentColor" stroke-miterlimit="10" stroke-linejoin="round"/>
<path d="M23.04 10.0799C20.016 10.0799 19.008 13.9199 17.472 13.9199C16.944 13.9199 17.856 10.0799 17.04 10.0799C16.08 10.0799 14.16 14.8799 11.76 14.8799C10.416 14.8799 9.55196 13.2959 9.55196 11.4239C9.55196 8.49594 11.232 6.23994 12.912 6.23994C16.032 6.23994 11.04 16.7999 5.71196 16.7999C2.78396 16.7999 0.959961 13.0559 0.959961 10.3199C0.959961 4.17594 4.75196 1.43994 6.33596 1.43994C8.44796 1.43994 8.63996 3.26394 8.63996 3.93594C8.63996 10.3199 0.959961 18.5759 0.959961 18.5759" stroke="currentColor" stroke-miterlimit="10" stroke-linecap="round" stroke-linejoin="round"/>
<path d="M19 1L23 5" stroke="currentColor" stroke-linecap="round"/>
<path d="M23 1L19 5" stroke="currentColor" stroke-linecap="round"/>
</svg>
