<svg width="24" height="24" viewBox="0 0 24 24" fill="none" xmlns="http://www.w3.org/2000/svg">
<g clip-path="url(#clip0_11649_8076)">
<path d="M20.6404 4.31982H3.36043C2.30443 4.31982 1.44043 5.18382 1.44043 6.23982V17.7598C1.44043 18.8158 2.30443 19.6798 3.36043 19.6798H5.76043C6.04843 21.2638 5.76043 22.6558 4.32043 23.5198C6.28843 23.5198 8.54443 22.5598 9.60043 19.6798H20.6404C21.6964 19.6798 22.5604 18.8158 22.5604 17.7598V6.23982C22.5604 5.18382 21.6964 4.31982 20.6404 4.31982Z" stroke="#454545" stroke-miterlimit="10" stroke-linejoin="round"/>
<path d="M12 12.96C12.5302 12.96 12.96 12.5302 12.96 12C12.96 11.4698 12.5302 11.04 12 11.04C11.4698 11.04 11.04 11.4698 11.04 12C11.04 12.5302 11.4698 12.96 12 12.96Z" stroke="#454545" stroke-miterlimit="10" stroke-linecap="round" stroke-linejoin="round"/>
<path d="M16.7998 12.96C17.33 12.96 17.7598 12.5302 17.7598 12C17.7598 11.4698 17.33 11.04 16.7998 11.04C16.2697 11.04 15.8398 11.4698 15.8398 12C15.8398 12.5302 16.2697 12.96 16.7998 12.96Z" stroke="#454545" stroke-miterlimit="10" stroke-linecap="round" stroke-linejoin="round"/>
<path d="M7.20023 12.96C7.73043 12.96 8.16023 12.5302 8.16023 12C8.16023 11.4698 7.73043 11.04 7.20023 11.04C6.67004 11.04 6.24023 11.4698 6.24023 12C6.24023 12.5302 6.67004 12.96 7.20023 12.96Z" stroke="#454545" stroke-miterlimit="10" stroke-linecap="round" stroke-linejoin="round"/>
</g>
<defs>
<clipPath id="clip0_11649_8076">
<rect width="24" height="24" fill="white"/>
</clipPath>
</defs>
</svg>
