<svg width="24" height="24" viewBox="0 0 24 24" fill="none" xmlns="http://www.w3.org/2000/svg">
<g clip-path="url(#clip0_2654_2262)">
<path d="M0.4819 2.88001C0.4819 2.88001 0.7819 2.88001 1.37422 2.88001C2.85934 2.88001 7.52302 0.480011 8.04766 0.480011C8.5723 0.480011 12.9437 2.71345 13.1577 2.94865C13.3718 3.18385 15.743 7.16209 15.743 7.16209C15.96 7.54465 15.8145 8.23297 15.3072 8.41633C14.9697 8.53825 14.3952 8.34721 14.1681 8.06737C14.1681 8.06737 11.5709 4.87009 11.5013 4.77169C11.4307 4.67281 8.97982 3.84001 8.77342 3.84001C8.5675 3.84001 7.19998 3.75745 7.19998 5.04097C7.19998 6.04753 8.49742 6.23665 8.70718 6.23665C8.91694 6.23665 10.3502 6.12145 11.1513 6.27889C11.9525 6.43633 12.9345 7.01473 13.5206 7.42849C14.6371 8.21617 14.2166 9.74641 12.6595 9.58945C12.2409 9.54673 10.2672 9.12001 9.6211 9.12001C8.97502 9.12001 6.84286 9.60001 5.50222 9.60001C3.22894 9.60001 2.91838 7.70113 0.47998 7.70113" stroke="currentColor" stroke-miterlimit="10" stroke-linecap="round" stroke-linejoin="round"/>
<path d="M17.7115 19.656C17.7115 19.656 16.0377 20.16 14.88 20.16C14.88 20.16 13.2945 20.16 12.1977 20.16C11.1009 20.16 10.1016 19.9579 10.1016 19.0425C10.1016 18.3105 10.5436 17.7753 12.1795 17.7753C16.9694 17.7753 17.0625 15.396 20.5132 16.7222C21.6484 17.159 23.52 17.9453 23.52 17.9453" stroke="currentColor" stroke-miterlimit="10" stroke-linecap="round" stroke-linejoin="round"/>
<path d="M22.0009 22.3771C22.0009 22.3771 20.6948 21.3816 19.0047 21.9159C18.1407 22.189 14.7918 23.52 14.1831 23.52C13.3167 23.52 5.46633 20.1816 4.80921 19.8979C4.13289 19.6056 3.84009 19.3599 3.84009 18.6903C3.84009 17.952 4.51017 17.6611 4.88793 17.6611C5.19273 17.6611 5.75433 17.8455 5.75433 17.8455L10.045 19.3157" stroke="currentColor" stroke-miterlimit="10" stroke-linecap="round" stroke-linejoin="round"/>
<path d="M5.76001 17.5752C5.76001 16.8216 6.51409 16.4846 7.05937 16.4846C7.77313 16.4846 11.1043 17.8526 11.1043 17.8526" fill="currentColor"/>
<path d="M5.76001 17.5752C5.76001 16.8216 6.51409 16.4846 7.05937 16.4846C7.77313 16.4846 11.1043 17.8526 11.1043 17.8526" stroke="currentColor" stroke-miterlimit="10" stroke-linecap="round" stroke-linejoin="round"/>
<path d="M11.52 9.59997V11.04L12.48 11.52H12.96V15.36L13.44 15.84H14.4L14.88 15.36V11.52H15.36L16.32 11.04V8.63997L15.84 8.15997" stroke="currentColor" stroke-miterlimit="10" stroke-linecap="round" stroke-linejoin="round"/>
<path d="M13.92 10.32C14.3176 10.32 14.64 9.99765 14.64 9.6C14.64 9.20236 14.3176 8.88 13.92 8.88C13.5223 8.88 13.2 9.20236 13.2 9.6C13.2 9.99765 13.5223 10.32 13.92 10.32Z" fill="currentColor"/>
</g>
<defs>
<clipPath id="clip0_2654_2262">
<rect width="24" height="24" fill="white"/>
</clipPath>
</defs>
</svg>
