<svg width="32" height="28" viewBox="0 0 32 28" fill="none" xmlns="http://www.w3.org/2000/svg">
<path d="M27.5888 12.3093C27.3821 12.6093 27.1721 12.8826 26.9521 13.136C26.4021 13.096 25.8788 13.0393 25.3921 12.9826C25.7888 12.5793 26.1754 12.1293 26.5554 11.5893C26.7488 11.3026 27.1421 11.2293 27.4321 11.4293C27.7154 11.626 27.7921 12.0226 27.5888 12.3093Z" fill="#5D5D5D"/>
<path d="M16.6519 20.6552C14.1653 22.2519 12.4719 23.7419 11.2353 26.7119C11.1586 26.8952 11.0019 27.0319 10.8119 27.0819C10.7619 27.0952 10.7053 27.1019 10.6519 27.1019C10.5153 27.1019 10.3753 27.0586 10.2619 26.9686L1.42193 20.0219C1.1486 19.8086 1.0986 19.4119 1.31527 19.1319C1.5286 18.8619 1.92527 18.8119 2.20527 19.0252L10.4086 25.4719C11.8653 22.4552 13.9119 20.8752 16.1419 19.4752C16.2919 19.9052 16.4619 20.3019 16.6519 20.6552Z" fill="#5D5D5D"/>
<path d="M30.7356 23.9453C30.1156 20.9487 28.9656 15.1053 28.9656 15.1053C25.5389 15.1053 22.4623 14.502 21.9089 14.3887L17.6489 17.0687C17.6956 21.9653 21.4756 20.9587 21.4756 20.9587C21.4756 20.9587 22.3856 24.9687 26.1456 23.702C28.9656 26.6353 31.0056 25.252 30.7356 23.9453Z" fill="#5D5D5D"/>
<path d="M29.2585 26.0657C28.4652 26.0657 27.3318 25.7357 25.9652 24.4157C24.8585 24.709 23.8618 24.6157 23.0052 24.1323C21.8752 23.499 21.2952 22.3523 21.0352 21.6623C20.4085 21.7123 19.4118 21.6523 18.5485 20.9957C17.5485 20.2323 17.0318 18.9157 17.0152 17.0723C17.0118 16.7257 17.2918 16.439 17.6418 16.4357C18.0152 16.4457 18.2752 16.7123 18.2785 17.0623C18.2918 18.4857 18.6385 19.4723 19.3052 19.9857C20.1518 20.6357 21.3018 20.3523 21.3152 20.349C21.4818 20.309 21.6585 20.3357 21.8018 20.4223C21.9485 20.5123 22.0518 20.6557 22.0918 20.8223C22.0952 20.8357 22.4685 22.3923 23.6285 23.0357C24.2585 23.3857 25.0385 23.409 25.9418 23.1023C26.1752 23.0257 26.4285 23.089 26.5985 23.2657C28.0618 24.7857 29.2285 24.9857 29.7818 24.6923C30.0352 24.559 30.1652 24.3157 30.1152 24.0723C29.6085 21.619 28.7385 17.2157 28.4452 15.7323C25.1752 15.6757 22.3385 15.119 21.7785 15.0057C21.4385 14.9357 21.2185 14.599 21.2885 14.259C21.3585 13.9157 21.6952 13.699 22.0352 13.769C22.6018 13.8857 25.6052 14.4723 28.9652 14.4723C29.2685 14.4723 29.5285 14.6857 29.5852 14.9823C29.5952 15.0423 30.7385 20.8557 31.3518 23.8157C31.5185 24.6157 31.1218 25.4157 30.3718 25.8123C30.1852 25.909 29.8018 26.0657 29.2585 26.0657Z" fill="#5D5D5D"/>
<path d="M11.1954 5.86502C10.4254 6.26836 9.63206 6.63502 8.82872 7.00169C7.45873 7.62836 6.06873 8.25836 4.72539 9.12502C4.57206 9.02169 4.44539 8.90169 4.33873 8.77169C3.94206 8.27836 3.94872 7.74169 4.01206 7.34502C3.08206 7.14836 2.21206 6.86502 1.81872 6.11836C1.56539 5.64502 1.55539 5.06502 1.77539 4.33169C0.188725 3.85836 -0.0246083 2.99836 0.0020584 2.48836C0.0453922 1.64169 0.892059 0.865024 1.84539 0.801691C4.85206 0.588357 7.74206 0.018357 7.76872 0.0116907C8.06539 -0.0449766 8.35539 0.108357 8.47539 0.385024C9.59206 3.01169 10.5387 4.77502 11.1954 5.86502Z" fill="#5D5D5D"/>
<path d="M26.4387 9.16797C21.3887 17.818 13.1253 16.8813 10.022 23.3113L1.81201 16.998" stroke="#5D5D5D" stroke-miterlimit="10" stroke-linecap="round" stroke-linejoin="round"/>
<path d="M26.4356 6.18538C26.3723 6.01871 26.2423 5.88538 26.0789 5.81871L17.8356 2.52205C17.5756 2.41871 17.2823 2.49538 17.1056 2.71205C15.7489 4.40871 14.2856 5.54205 12.7856 6.42538C12.7089 6.45205 12.6389 6.49538 12.5789 6.54871C11.5056 7.16205 10.4223 7.66205 9.35226 8.14871C6.54559 9.43205 3.64225 10.7587 1.29559 14.112C1.09892 14.392 1.16225 14.772 1.43559 14.9787L9.01226 20.662C9.12225 20.7454 9.25559 20.7887 9.39225 20.7887C9.42892 20.7887 9.46225 20.7854 9.49892 20.7787C9.66892 20.7487 9.82226 20.652 9.91559 20.5054C11.4223 18.2487 13.5656 17.2087 16.0456 16.0054C16.5489 15.762 17.0589 15.512 17.5723 15.252C19.7923 14.2687 21.7623 12.582 21.8823 12.4754C21.8856 12.4754 21.8856 12.472 21.8889 12.472C23.6956 10.942 25.1723 9.05538 26.4023 6.69871C26.4856 6.53871 26.4956 6.35538 26.4356 6.18538ZM17.0556 14.0987C17.0489 14.0987 17.0456 14.1054 17.0423 14.1087C17.0356 14.112 17.0289 14.1087 17.0256 14.112C16.8556 14.1987 16.6889 14.2787 16.5223 14.362C13.4689 11.852 10.2523 10.072 9.29892 9.56205C9.48892 9.47538 9.68225 9.38538 9.87559 9.29871C10.9223 8.81871 11.9823 8.33538 13.0356 7.74205C14.1423 8.27538 18.0123 10.1854 20.4589 12.002C19.7289 12.5654 18.4256 13.492 17.0556 14.0987ZM20.5423 6.89871C20.6723 7.33538 20.3056 7.82538 19.7289 7.99871C19.1489 8.16871 18.5756 7.95538 18.4456 7.52205C18.3189 7.08871 18.6823 6.59538 19.2623 6.42538C19.8389 6.25205 20.4123 6.46538 20.5423 6.89871ZM10.4023 13.5254C10.4023 14.0487 9.83559 14.472 9.13892 14.472C8.43892 14.472 7.87559 14.0487 7.87559 13.5254C7.87559 13.002 8.43892 12.5787 9.13892 12.5787C9.83559 12.5787 10.4023 13.002 10.4023 13.5254Z" fill="#5D5D5D"/>
</svg>
