<svg width="24" height="24" viewBox="0 0 24 24" fill="none" xmlns="http://www.w3.org/2000/svg">
<path d="M19.7661 3.52222C24.2864 7.65516 24.7838 14.6552 20.8081 19.3923C18.8622 21.7107 16.1956 23.0676 13.4106 23.4119C15.1006 22.8358 16.6602 21.8071 17.8765 20.3582C21.2747 16.3087 20.8669 10.333 17.0337 6.77808L19.7661 3.52222Z" stroke="currentColor"/>
<path d="M18.9312 9.19165C21.333 11.5031 22.3458 14.7732 21.8745 17.8918C21.559 18.4189 21.2042 18.9214 20.8091 19.3918H20.8081C18.8624 21.7101 16.1963 23.0669 13.4116 23.4114C15.1012 22.8352 16.6605 21.8075 17.8765 20.3586C20.589 17.1266 20.8747 12.6678 18.9312 9.19165Z" stroke="currentColor"/>
<mask id="path-3-inside-1_7981_13356" fill="white">
<path fill-rule="evenodd" clip-rule="evenodd" d="M17.1743 1.16837C12.3532 -1.13723 6.40313 0.00389744 2.80846 4.28694C-1.45219 9.36359 -0.790449 16.9317 4.28646 21.1909L7.66164 17.1694C3.69528 13.842 3.17823 7.92926 6.50687 3.96317C9.16093 0.800638 13.5308 -0.255176 17.1742 1.1685"/>
</mask>
<path d="M2.80846 4.28694L2.04248 3.64407L2.04247 3.64408L2.80846 4.28694ZM4.28646 21.1909L3.64375 21.957L4.4097 22.5996L5.05243 21.8338L4.28646 21.1909ZM7.66164 17.1694L8.42762 17.8123L9.07063 17.0461L8.30434 16.4033L7.66164 17.1694ZM6.50687 3.96317L7.27285 4.60603L7.27287 4.60601L6.50687 3.96317ZM17.1743 1.16837L17.6058 0.26622C12.3831 -2.2314 5.93751 -0.996845 2.04248 3.64407L2.80846 4.28694L3.57443 4.92981C6.86875 1.00464 12.3233 -0.043062 16.7429 2.07051L17.1743 1.16837ZM2.80846 4.28694L2.04247 3.64408C-2.5732 9.14375 -1.85641 17.3428 3.64375 21.957L4.28646 21.1909L4.92917 20.4248C0.275509 16.5207 -0.331183 9.58343 3.57444 4.9298L2.80846 4.28694ZM4.28646 21.1909L5.05243 21.8338L8.42762 17.8123L7.66164 17.1694L6.89567 16.5265L3.52048 20.548L4.28646 21.1909ZM7.66164 17.1694L8.30434 16.4033C4.76123 13.4309 4.29925 8.1491 7.27285 4.60603L6.50687 3.96317L5.74089 3.3203C2.05721 7.70943 2.62933 14.253 7.01894 17.9355L7.66164 17.1694ZM6.50687 3.96317L7.27287 4.60601C9.65184 1.77128 13.5674 0.83275 16.8102 2.09992L17.1742 1.1685L17.5381 0.237085C13.4942 -1.3431 8.67003 -0.170001 5.74087 3.32033L6.50687 3.96317Z" fill="currentColor" mask="url(#path-3-inside-1_7981_13356)"/>
<mask id="path-5-inside-2_7981_13356" fill="white">
<path fill-rule="evenodd" clip-rule="evenodd" d="M17.1742 1.16836C12.3531 -1.13723 6.403 0.00389744 2.80832 4.28694C2.37525 4.80259 1.98606 5.35355 1.64481 5.93407C1.07712 9.46159 2.32553 13.19 5.26201 15.6537C5.98949 16.2649 6.7965 16.7746 7.66096 17.1688C3.69515 13.8414 3.17837 7.92913 6.50674 3.96317C9.1608 0.800638 13.5306 -0.255176 17.1741 1.1685"/>
</mask>
<path d="M2.80832 4.28694L3.57408 4.93007L3.5743 4.92981L2.80832 4.28694ZM1.64481 5.93407L0.78273 5.4273L0.687406 5.58947L0.657518 5.77518L1.64481 5.93407ZM5.26201 15.6537L5.90525 14.888L5.90475 14.8876L5.26201 15.6537ZM7.66096 17.1688L7.24599 18.0787L8.30372 16.4028L7.66096 17.1688ZM6.50674 3.96317L7.27273 4.60602L7.27273 4.60601L6.50674 3.96317ZM17.1742 1.16836L17.6056 0.266219C12.383 -2.2314 5.93738 -0.996845 2.04235 3.64407L2.80832 4.28694L3.5743 4.92981C6.86862 1.00464 12.3232 -0.0430619 16.7428 2.07051L17.1742 1.16836ZM2.80832 4.28694L2.04256 3.64382C1.57364 4.20216 1.15223 4.79873 0.78273 5.4273L1.64481 5.93407L2.5069 6.44083C2.8199 5.90838 3.17687 5.40303 3.57408 4.93007L2.80832 4.28694ZM1.64481 5.93407L0.657518 5.77518C0.036219 9.63579 1.40219 13.7207 4.61928 16.4198L5.26201 15.6537L5.90475 14.8876C3.24887 12.6594 2.11802 9.2874 2.63211 6.09296L1.64481 5.93407ZM5.26201 15.6537L4.61877 16.4194C5.41547 17.0887 6.29927 17.6469 7.24599 18.0787L7.66096 17.1688L8.07593 16.259C7.29372 15.9022 6.56351 15.4411 5.90525 14.888L5.26201 15.6537ZM7.66096 17.1688L8.30372 16.4028C4.76113 13.4304 4.29935 8.14899 7.27273 4.60602L6.50674 3.96317L5.74074 3.32032C2.05739 7.70927 2.62918 14.2524 7.01821 17.9349L7.66096 17.1688ZM6.50674 3.96317L7.27273 4.60601C9.65171 1.77128 13.5672 0.83275 16.8101 2.09992L17.1741 1.1685L17.538 0.237085C13.4941 -1.3431 8.6699 -0.170001 5.74074 3.32033L6.50674 3.96317Z" fill="currentColor" mask="url(#path-5-inside-2_7981_13356)"/>
</svg>
