<svg width="24" height="24" viewBox="0 0 24 24" fill="none" xmlns="http://www.w3.org/2000/svg">
<mask id="path-1-inside-1_11436_13669" fill="white">
<path d="M6.75 3.375C5.71613 3.375 4.875 4.21613 4.875 5.25V18.75C4.875 19.7839 5.71613 20.625 6.75 20.625H17.25C18.2839 20.625 19.125 19.7839 19.125 18.75V5.25C19.125 4.21613 18.2839 3.375 17.25 3.375H6.75ZM6.75 4.875H11.25V8.625H6.375V5.25C6.375 5.04338 6.543 4.875 6.75 4.875ZM12.75 4.875H17.25C17.457 4.875 17.625 5.04338 17.625 5.25V8.625H12.75V4.875ZM6.375 10.125H11.25V13.875H6.375V10.125ZM12.75 10.125H17.625V13.875H12.75V10.125ZM6.375 15.375H11.25V19.125H6.75C6.543 19.125 6.375 18.9566 6.375 18.75V15.375ZM12.75 15.375H17.625V18.75C17.625 18.9566 17.457 19.125 17.25 19.125H12.75V15.375Z"/>
</mask>
<path d="M6.75 3.375C5.71613 3.375 4.875 4.21613 4.875 5.25V18.75C4.875 19.7839 5.71613 20.625 6.75 20.625H17.25C18.2839 20.625 19.125 19.7839 19.125 18.75V5.25C19.125 4.21613 18.2839 3.375 17.25 3.375H6.75ZM6.75 4.875H11.25V8.625H6.375V5.25C6.375 5.04338 6.543 4.875 6.75 4.875ZM12.75 4.875H17.25C17.457 4.875 17.625 5.04338 17.625 5.25V8.625H12.75V4.875ZM6.375 10.125H11.25V13.875H6.375V10.125ZM12.75 10.125H17.625V13.875H12.75V10.125ZM6.375 15.375H11.25V19.125H6.75C6.543 19.125 6.375 18.9566 6.375 18.75V15.375ZM12.75 15.375H17.625V18.75C17.625 18.9566 17.457 19.125 17.25 19.125H12.75V15.375Z" fill="black"/>
<path d="M11.25 4.875H14.25V1.875H11.25V4.875ZM11.25 8.625V11.625H14.25V8.625H11.25ZM6.375 8.625H3.375V11.625H6.375V8.625ZM12.75 4.875V1.875H9.75V4.875H12.75ZM17.625 8.625V11.625H20.625V8.625H17.625ZM12.75 8.625H9.75V11.625H12.75V8.625ZM6.375 10.125V7.125H3.375V10.125H6.375ZM11.25 10.125H14.25V7.125H11.25V10.125ZM11.25 13.875V16.875H14.25V13.875H11.25ZM6.375 13.875H3.375V16.875H6.375V13.875ZM12.75 10.125V7.125H9.75V10.125H12.75ZM17.625 10.125H20.625V7.125H17.625V10.125ZM17.625 13.875V16.875H20.625V13.875H17.625ZM12.75 13.875H9.75V16.875H12.75V13.875ZM6.375 15.375V12.375H3.375V15.375H6.375ZM11.25 15.375H14.25V12.375H11.25V15.375ZM11.25 19.125V22.125H14.25V19.125H11.25ZM12.75 15.375V12.375H9.75V15.375H12.75ZM17.625 15.375H20.625V12.375H17.625V15.375ZM12.75 19.125H9.75V22.125H12.75V19.125ZM6.75 3.375V0.375C4.05927 0.375 1.875 2.55927 1.875 5.25H4.875H7.875C7.875 5.87298 7.37298 6.375 6.75 6.375V3.375ZM4.875 5.25H1.875V18.75H4.875H7.875V5.25H4.875ZM4.875 18.75H1.875C1.875 21.4407 4.05927 23.625 6.75 23.625V20.625V17.625C7.37298 17.625 7.875 18.127 7.875 18.75H4.875ZM6.75 20.625V23.625H17.25V20.625V17.625H6.75V20.625ZM17.25 20.625V23.625C19.9407 23.625 22.125 21.4407 22.125 18.75H19.125H16.125C16.125 18.127 16.627 17.625 17.25 17.625V20.625ZM19.125 18.75H22.125V5.25H19.125H16.125V18.75H19.125ZM19.125 5.25H22.125C22.125 2.55927 19.9407 0.375 17.25 0.375V3.375V6.375C16.627 6.375 16.125 5.87298 16.125 5.25H19.125ZM17.25 3.375V0.375H6.75V3.375V6.375H17.25V3.375ZM6.75 4.875V7.875H11.25V4.875V1.875H6.75V4.875ZM11.25 4.875H8.25V8.625H11.25H14.25V4.875H11.25ZM11.25 8.625V5.625H6.375V8.625V11.625H11.25V8.625ZM6.375 8.625H9.375V5.25H6.375H3.375V8.625H6.375ZM6.375 5.25H9.375C9.375 6.69828 8.20181 7.875 6.75 7.875V4.875V1.875C4.88419 1.875 3.375 3.38847 3.375 5.25H6.375ZM12.75 4.875V7.875H17.25V4.875V1.875H12.75V4.875ZM17.25 4.875V7.875C15.7982 7.875 14.625 6.69828 14.625 5.25H17.625H20.625C20.625 3.38847 19.1158 1.875 17.25 1.875V4.875ZM17.625 5.25H14.625V8.625H17.625H20.625V5.25H17.625ZM17.625 8.625V5.625H12.75V8.625V11.625H17.625V8.625ZM12.75 8.625H15.75V4.875H12.75H9.75V8.625H12.75ZM6.375 10.125V13.125H11.25V10.125V7.125H6.375V10.125ZM11.25 10.125H8.25V13.875H11.25H14.25V10.125H11.25ZM11.25 13.875V10.875H6.375V13.875V16.875H11.25V13.875ZM6.375 13.875H9.375V10.125H6.375H3.375V13.875H6.375ZM12.75 10.125V13.125H17.625V10.125V7.125H12.75V10.125ZM17.625 10.125H14.625V13.875H17.625H20.625V10.125H17.625ZM17.625 13.875V10.875H12.75V13.875V16.875H17.625V13.875ZM12.75 13.875H15.75V10.125H12.75H9.75V13.875H12.75ZM6.375 15.375V18.375H11.25V15.375V12.375H6.375V15.375ZM11.25 15.375H8.25V19.125H11.25H14.25V15.375H11.25ZM11.25 19.125V16.125H6.75V19.125V22.125H11.25V19.125ZM6.75 19.125V16.125C8.20181 16.125 9.375 17.3017 9.375 18.75H6.375H3.375C3.375 20.6115 4.88419 22.125 6.75 22.125V19.125ZM6.375 18.75H9.375V15.375H6.375H3.375V18.75H6.375ZM12.75 15.375V18.375H17.625V15.375V12.375H12.75V15.375ZM17.625 15.375H14.625V18.75H17.625H20.625V15.375H17.625ZM17.625 18.75H14.625C14.625 17.3017 15.7982 16.125 17.25 16.125V19.125V22.125C19.1158 22.125 20.625 20.6115 20.625 18.75H17.625ZM17.25 19.125V16.125H12.75V19.125V22.125H17.25V19.125ZM12.75 19.125H15.75V15.375H12.75H9.75V19.125H12.75Z" fill="#454545" mask="url(#path-1-inside-1_11436_13669)"/>
</svg>
