<svg width="24" height="24" viewBox="0 0 24 24" fill="none" xmlns="http://www.w3.org/2000/svg">
<g clip-path="url(#clip0_6095_11343)">
<path d="M11.9999 1.43945C6.17744 1.43945 1.43994 6.17695 1.43994 11.9995C1.43994 17.822 6.17744 22.5595 11.9999 22.5595C17.8224 22.5595 22.5599 17.822 22.5599 11.9995C22.5599 6.17695 17.8224 1.43945 11.9999 1.43945ZM3.35994 11.9995C3.35994 9.9632 4.07244 8.09195 5.25619 6.6132L17.3862 18.7432C15.9074 19.927 14.0362 20.6395 11.9999 20.6395C7.23619 20.6395 3.35994 16.7632 3.35994 11.9995ZM18.7437 17.3857L6.61369 5.2557C8.09244 4.07195 9.96369 3.35945 11.9999 3.35945C16.7637 3.35945 20.6399 7.2357 20.6399 11.9995C20.6399 14.0357 19.9274 15.907 18.7437 17.3857Z" stroke="#454545" stroke-miterlimit="10"/>
</g>
<defs>
<clipPath id="clip0_6095_11343">
<rect width="24" height="24" fill="white"/>
</clipPath>
</defs>
</svg>
