<svg width="24" height="24" viewBox="0 0 24 24" fill="none" xmlns="http://www.w3.org/2000/svg">
<g clip-path="url(#clip0_8548_26567)">
<path d="M14.0932 21.8582C13.4174 22.0017 12.718 22.08 12 22.08C6.44204 22.08 1.91996 17.5584 1.91996 12C1.91996 6.44156 6.44204 1.91996 12 1.91996C17.5579 1.91996 22.08 6.44156 22.08 12C22.08 12.718 22.0017 13.4174 21.8582 14.0932C22.162 14.2516 22.4481 14.4379 22.7174 14.6457C22.9267 13.7976 23.04 12.912 23.04 12C23.04 5.9126 18.0878 0.959961 12 0.959961C5.91212 0.959961 0.959961 5.9126 0.959961 12C0.959961 18.0873 5.91212 23.04 12 23.04C12.912 23.04 13.7976 22.9267 14.6457 22.7174C14.4374 22.4481 14.2516 22.162 14.0932 21.8582Z" fill="currentColor"/>
<path d="M11.52 4.80005V6.14405C8.83198 6.28805 8.37598 8.30405 8.37598 9.21605C8.37598 13.728 14.952 11.328 14.952 14.736C14.952 14.8642 14.9414 15.1244 14.856 15.4253C15.1646 15.0706 15.5141 14.7538 15.9 14.4831C15.6417 10.5082 9.33598 12.5564 9.33598 9.31205C9.33598 8.20805 9.76798 6.91205 12.024 6.91205C14.328 6.91205 14.616 8.73605 14.664 9.55205H15.672C15.768 8.20805 14.808 6.24005 12.504 6.14405V4.80005H11.52Z" fill="currentColor"/>
<path d="M12.0239 17.088C11.9279 17.088 8.99989 17.088 9.09589 14.064H8.08789C8.18389 17.28 10.2239 17.712 11.5199 17.856V19.2H12.4799V17.856C12.9321 17.8224 13.3194 17.7422 13.6612 17.6347C13.7706 17.2473 13.917 16.8758 14.1009 16.5264C13.6665 16.8504 13.0156 17.088 12.0239 17.088Z" fill="currentColor"/>
<g clip-path="url(#clip1_8548_26567)">
<path d="M23.3477 19.44C23.3477 21.5981 21.5983 23.3475 19.4402 23.3475C17.2821 23.3475 15.5327 21.5981 15.5327 19.44C15.5327 17.2818 17.2821 15.5325 19.4402 15.5325C21.5983 15.5325 23.3477 17.2818 23.3477 19.44Z" stroke="currentColor" stroke-miterlimit="10" stroke-linecap="round"/>
<path d="M19.8333 21L19 19.7728L21 18" stroke="currentColor" stroke-miterlimit="10" stroke-linecap="round"/>
</g>
</g>
<defs>
<clipPath id="clip0_8548_26567">
<rect width="24" height="24" fill="white"/>
</clipPath>
<clipPath id="clip1_8548_26567">
<rect width="9" height="9" fill="white" transform="translate(15 15)"/>
</clipPath>
</defs>
</svg>
