<svg width="24" height="24" viewBox="0 0 24 24" fill="none" xmlns="http://www.w3.org/2000/svg">
<g clip-path="url(#clip0_9226_7079)">
<mask id="path-1-inside-1_9226_7079" fill="white">
<path d="M13.9234 2.31702C13.511 1.6527 12.8861 1.23462 12.0643 1.07238C11.6112 0.499744 10.7424 0.187744 9.576 0.187744C7.8096 0.219904 6.51648 0.759904 5.7336 1.7919C4.80528 3.01542 4.63296 4.86918 5.21952 7.30518C5.00304 7.56966 4.8432 7.97766 4.90752 8.51142C5.03424 9.56502 5.45424 9.9951 5.79168 10.1693C5.95536 11.0017 6.40992 11.9401 6.852 12.3807L6.85344 12.6039C6.85776 13.0916 6.86112 13.5149 6.81504 14.0612C6.52128 14.7356 5.54352 15.1205 4.416 15.5641C2.54016 16.3013 0.20592 17.2196 0.03072 20.1317L0 20.6401H12.6149C12.1123 20.1601 11.9246 19.6801 11.9246 19.6801H1.0512C1.41408 17.7754 3.11664 17.1063 4.76688 16.4573C6.0816 15.9404 7.32336 15.4517 7.73664 14.341L7.76496 14.2167C7.8216 13.5893 7.81728 13.1069 7.81296 12.5953L7.81056 12.1527L7.8192 11.8671L7.56192 11.7322C7.35168 11.5897 6.79056 10.6215 6.6984 9.75606L6.65664 9.36054L6.26064 9.32838C6.1992 9.32358 5.95152 9.15078 5.8608 8.39718C5.81424 8.0103 6.00288 7.8735 6.00384 7.87302L6.30864 7.68726L6.21888 7.34214C5.63664 5.09958 5.73312 3.3807 6.49872 2.37222C7.09536 1.58598 8.13696 1.17414 9.5856 1.14726C10.4866 1.14726 11.1528 1.37238 11.3674 1.74918L11.4845 1.95462L11.7187 1.98678C12.36 2.07606 12.815 2.34966 13.1093 2.82342C13.8466 4.01046 13.4198 6.20262 13.0517 7.31094L12.9509 7.66902L13.2571 7.87206C13.259 7.8735 13.4472 8.00934 13.4006 8.3967C13.3099 9.1503 13.0622 9.32358 13.0008 9.3279L12.6048 9.36006L12.5626 9.7551C12.4694 10.6258 11.9251 11.5925 11.7326 11.7269L11.4754 11.8618L11.473 12.5986C11.4686 13.1084 11.4638 13.5903 11.5205 14.2157L11.5488 14.3401C11.6674 14.6588 11.8536 14.9209 12.0725 15.1407C12.2122 14.8969 12.4718 14.4605 12.6206 14.3127C12.5582 14.2311 12.5083 14.1476 12.4704 14.0602C12.4243 13.5159 12.4282 13.0935 12.4325 12.6073L12.4334 12.3769C12.8645 11.9367 13.3075 11.0017 13.4693 10.1684C13.8067 9.99366 14.2267 9.56358 14.353 8.51046C14.4158 7.98678 14.2637 7.58406 14.0534 7.32006C14.3318 6.37014 14.9074 3.90102 13.9234 2.31702Z"/>
</mask>
<path d="M13.9234 2.31702L13.0737 2.84437L13.0739 2.84471L13.9234 2.31702ZM12.0643 1.07238L11.2801 1.6929L11.5089 1.98203L11.8706 2.05345L12.0643 1.07238ZM9.576 0.187744V-0.812256H9.5669L9.5578 -0.81209L9.576 0.187744ZM5.7336 1.7919L6.53025 2.39635L6.5303 2.39628L5.7336 1.7919ZM5.21952 7.30518L5.99335 7.93857L6.30804 7.55411L6.19173 7.07109L5.21952 7.30518ZM4.90752 8.51142L5.90036 8.39201L5.90034 8.39179L4.90752 8.51142ZM5.79168 10.1693L6.77289 9.97638L6.67968 9.50243L6.25048 9.28081L5.79168 10.1693ZM6.852 12.3807L7.85198 12.3743L7.84933 11.9629L7.55795 11.6724L6.852 12.3807ZM6.85344 12.6039L5.85346 12.6104L5.85348 12.6128L6.85344 12.6039ZM6.81504 14.0612L7.73184 14.4605L7.79765 14.3095L7.8115 14.1452L6.81504 14.0612ZM4.416 15.5641L4.7818 16.4948L4.78206 16.4947L4.416 15.5641ZM0.03072 20.1317L1.0289 20.1921L1.02892 20.1918L0.03072 20.1317ZM0 20.6401L-0.998179 20.5797L-1.06226 21.6401H0V20.6401ZM12.6149 20.6401V21.6401H15.1097L13.3056 19.9169L12.6149 20.6401ZM11.9246 19.6801L12.856 19.3159L12.6074 18.6801H11.9246V19.6801ZM1.0512 19.6801L0.0688702 19.4929L-0.157312 20.6801H1.0512V19.6801ZM4.76688 16.4573L4.40094 15.5267L4.40091 15.5267L4.76688 16.4573ZM7.73664 14.341L8.67387 14.6897L8.69696 14.6277L8.71166 14.5631L7.73664 14.341ZM7.76496 14.2167L8.73998 14.4388L8.75488 14.3734L8.76091 14.3066L7.76496 14.2167ZM7.81296 12.5953L6.81297 12.6007L6.813 12.6037L7.81296 12.5953ZM7.81056 12.1527L6.81102 12.1225L6.81048 12.1403L6.81057 12.1581L7.81056 12.1527ZM7.8192 11.8671L8.81874 11.8973L8.83766 11.2719L8.28352 10.9814L7.8192 11.8671ZM7.56192 11.7322L7.0007 12.5599L7.04751 12.5916L7.09761 12.6179L7.56192 11.7322ZM6.6984 9.75606L5.70393 9.86106L5.70402 9.86195L6.6984 9.75606ZM6.65664 9.36054L7.65111 9.25554L7.56405 8.43094L6.73759 8.36382L6.65664 9.36054ZM6.26064 9.32838L6.34159 8.33166L6.33853 8.33142L6.26064 9.32838ZM5.8608 8.39718L4.86796 8.51667L4.86797 8.5167L5.8608 8.39718ZM6.00384 7.87302L6.45105 8.76745L6.4885 8.74873L6.52426 8.72694L6.00384 7.87302ZM6.30864 7.68726L6.82906 8.54118L7.46344 8.15455L7.27644 7.43555L6.30864 7.68726ZM6.21888 7.34214L5.25097 7.59344L5.25108 7.59385L6.21888 7.34214ZM6.49872 2.37222L7.2952 2.97688L7.29532 2.97673L6.49872 2.37222ZM9.5856 1.14726V0.147264H9.57632L9.56705 0.147436L9.5856 1.14726ZM11.3674 1.74918L10.4984 2.24401L10.4986 2.24445L11.3674 1.74918ZM11.4845 1.95462L10.6157 2.44989L10.86 2.87826L11.3485 2.94533L11.4845 1.95462ZM11.7187 1.98678L11.8566 0.996335L11.8547 0.996078L11.7187 1.98678ZM13.1093 2.82342L12.2598 3.35102L12.2598 3.35104L13.1093 2.82342ZM13.0517 7.31094L12.1027 6.9957L12.0954 7.01768L12.0891 7.03998L13.0517 7.31094ZM12.9509 7.66902L11.9883 7.39806L11.7908 8.09969L12.3983 8.50248L12.9509 7.66902ZM13.2571 7.87206L13.8571 7.07206L13.8339 7.05465L13.8097 7.03861L13.2571 7.87206ZM13.4006 8.3967L14.3935 8.51622L14.3935 8.51604L13.4006 8.3967ZM13.0008 9.3279L12.9307 8.33031L12.9199 8.33119L13.0008 9.3279ZM12.6048 9.36006L12.5239 8.36335L11.6985 8.43037L11.6105 9.25374L12.6048 9.36006ZM12.5626 9.7551L13.5569 9.86144L13.5569 9.86142L12.5626 9.7551ZM11.7326 11.7269L12.197 12.6126L12.2531 12.5832L12.3051 12.5468L11.7326 11.7269ZM11.4754 11.8618L11.011 10.9762L10.4773 11.256L10.4754 11.8586L11.4754 11.8618ZM11.473 12.5986L12.4729 12.6071L12.473 12.6019L11.473 12.5986ZM11.5205 14.2157L10.5246 14.3059L10.5306 14.3726L10.5455 14.4379L11.5205 14.2157ZM11.5488 14.3401L10.5738 14.5622L10.5885 14.6267L10.6115 14.6887L11.5488 14.3401ZM12.0725 15.1407L11.3638 15.8463L12.2887 16.7752L12.9402 15.6378L12.0725 15.1407ZM12.6206 14.3127L13.3255 15.0221L13.9486 14.403L13.415 13.7053L12.6206 14.3127ZM12.4704 14.0602L11.474 14.1446L11.4878 14.308L11.5531 14.4584L12.4704 14.0602ZM12.4325 12.6073L13.4325 12.6161L13.4325 12.6114L12.4325 12.6073ZM12.4334 12.3769L11.719 11.6772L11.4351 11.967L11.4334 12.3727L12.4334 12.3769ZM13.4693 10.1684L13.0095 9.28036L12.5798 9.50284L12.4876 9.97782L13.4693 10.1684ZM14.353 8.51046L13.3601 8.39125L13.3601 8.39144L14.353 8.51046ZM14.0534 7.32006L13.0938 7.03882L12.9478 7.53696L13.2712 7.94302L14.0534 7.32006ZM13.9234 2.31702L14.773 1.78968C14.2029 0.871187 13.3298 0.302915 12.258 0.0913215L12.0643 1.07238L11.8706 2.05345C12.4424 2.16633 12.8191 2.43422 13.0737 2.84437L13.9234 2.31702ZM12.0643 1.07238L12.8485 0.451866C12.1175 -0.471947 10.87 -0.812256 9.576 -0.812256V0.187744V1.18774C10.6148 1.18774 11.1049 1.47144 11.2801 1.6929L12.0643 1.07238ZM9.576 0.187744L9.5578 -0.81209C7.60377 -0.776514 5.96653 -0.169736 4.9369 1.18753L5.7336 1.7919L6.5303 2.39628C7.06643 1.68954 8.01544 1.21632 9.5942 1.18758L9.576 0.187744ZM5.7336 1.7919L4.93695 1.18746C3.73838 2.76717 3.63431 4.9935 4.24731 7.53928L5.21952 7.30518L6.19173 7.07109C5.63161 4.74487 5.87218 3.26368 6.53025 2.39635L5.7336 1.7919ZM5.21952 7.30518L4.44569 6.67179C4.05799 7.14545 3.81757 7.82497 3.9147 8.63106L4.90752 8.51142L5.90034 8.39179C5.86883 8.13036 5.94809 7.99388 5.99335 7.93857L5.21952 7.30518ZM4.90752 8.51142L3.91468 8.63084C4.07181 9.93732 4.63881 10.6995 5.33288 11.0579L5.79168 10.1693L6.25048 9.28081C6.23726 9.27398 6.18411 9.24506 6.11873 9.14039C6.04941 9.0294 5.95018 8.80622 5.90036 8.39201L4.90752 8.51142ZM5.79168 10.1693L4.81047 10.3623C4.91083 10.8726 5.0953 11.3959 5.31625 11.8553C5.53194 12.3038 5.81463 12.7586 6.14605 13.089L6.852 12.3807L7.55795 11.6724C7.44729 11.5621 7.28166 11.3275 7.11863 10.9885C6.96086 10.6604 6.83621 10.2984 6.77289 9.97638L5.79168 10.1693ZM6.852 12.3807L5.85202 12.3872L5.85346 12.6104L6.85344 12.6039L7.85342 12.5975L7.85198 12.3743L6.852 12.3807ZM6.85344 12.6039L5.85348 12.6128C5.8578 13.1 5.86035 13.4819 5.81858 13.9771L6.81504 14.0612L7.8115 14.1452C7.86189 13.548 7.85772 13.0832 7.8534 12.595L6.85344 12.6039ZM6.81504 14.0612L5.89824 13.6618C5.88391 13.6947 5.80218 13.824 5.4402 14.0263C5.08929 14.2225 4.63247 14.4043 4.04994 14.6335L4.416 15.5641L4.78206 16.4947C5.32705 16.2803 5.92287 16.0478 6.41616 15.7721C6.89838 15.5025 7.45241 15.102 7.73184 14.4605L6.81504 14.0612ZM4.416 15.5641L4.0502 14.6334C3.13858 14.9917 1.93464 15.4564 0.953202 16.2577C-0.079579 17.1009 -0.861359 18.3078 -0.967475 20.0717L0.03072 20.1317L1.02892 20.1918C1.098 19.0435 1.57094 18.3353 2.21804 17.807C2.91648 17.2367 3.81758 16.8737 4.7818 16.4948L4.416 15.5641ZM0.03072 20.1317L-0.967459 20.0714L-0.998179 20.5797L0 20.6401L0.998179 20.7004L1.0289 20.1921L0.03072 20.1317ZM0 20.6401V21.6401H12.6149V20.6401V19.6401H0V20.6401ZM12.6149 20.6401L13.3056 19.9169C13.129 19.7482 13.0088 19.5804 12.9351 19.4595C12.8986 19.3996 12.8746 19.3531 12.8617 19.3264C12.8553 19.3131 12.8517 19.305 12.8508 19.3029C12.8503 19.3019 12.8505 19.3024 12.8514 19.3045C12.8519 19.3056 12.8525 19.307 12.8532 19.3089C12.8536 19.3099 12.854 19.3109 12.8545 19.3121C12.8547 19.3127 12.8549 19.3133 12.8552 19.3139C12.8553 19.3142 12.8555 19.3146 12.8556 19.3149C12.8556 19.3151 12.8557 19.3153 12.8558 19.3154C12.8559 19.3157 12.856 19.3159 11.9246 19.6801C10.9933 20.0442 10.9934 20.0445 10.9935 20.0447C10.9935 20.0448 10.9936 20.0451 10.9937 20.0453C10.9939 20.0456 10.994 20.046 10.9942 20.0464C10.9944 20.0471 10.9948 20.0479 10.9951 20.0487C10.9957 20.0504 10.9964 20.0521 10.9972 20.054C10.9987 20.0577 11.0004 20.0619 11.0023 20.0666C11.0062 20.076 11.0109 20.0873 11.0166 20.1003C11.0279 20.1264 11.0429 20.1595 11.062 20.1987C11.0999 20.2771 11.1543 20.3805 11.2275 20.5006C11.3733 20.7397 11.5982 21.0519 11.9242 21.3632L12.6149 20.6401ZM11.9246 19.6801V18.6801H1.0512V19.6801V20.6801H11.9246V19.6801ZM1.0512 19.6801L2.03353 19.8672C2.2769 18.5899 3.36009 18.0851 5.13285 17.388L4.76688 16.4573L4.40091 15.5267C2.87319 16.1275 0.551264 16.961 0.0688702 19.4929L1.0512 19.6801ZM4.76688 16.4573L5.13282 17.388C5.76903 17.1378 6.4982 16.8543 7.11584 16.4723C7.75052 16.0797 8.36209 15.5277 8.67387 14.6897L7.73664 14.341L6.79942 13.9923C6.69791 14.2651 6.48196 14.5127 6.06376 14.7714C5.62852 15.0406 5.07945 15.2599 4.40094 15.5267L4.76688 16.4573ZM7.73664 14.341L8.71166 14.5631L8.73998 14.4388L7.76496 14.2167L6.78994 13.9946L6.76162 14.1189L7.73664 14.341ZM7.76496 14.2167L8.76091 14.3066C8.82242 13.6253 8.81725 13.0991 8.81293 12.5868L7.81296 12.5953L6.813 12.6037C6.81731 13.1147 6.82078 13.5534 6.76901 14.1268L7.76496 14.2167ZM7.81296 12.5953L8.81295 12.5898L8.81054 12.1473L7.81056 12.1527L6.81057 12.1581L6.81298 12.6007L7.81296 12.5953ZM7.81056 12.1527L8.8101 12.1829L8.81874 11.8973L7.8192 11.8671L6.81966 11.8369L6.81102 12.1225L7.81056 12.1527ZM7.8192 11.8671L8.28352 10.9814L8.02624 10.8466L7.56192 11.7322L7.09761 12.6179L7.35489 12.7528L7.8192 11.8671ZM7.56192 11.7322L8.12314 10.9046C8.20697 10.9614 8.24363 11.01 8.2292 10.9931C8.22467 10.9878 8.20807 10.9671 8.18109 10.927C8.12757 10.8474 8.05774 10.7278 7.98604 10.5797C7.83755 10.2728 7.72251 9.92935 7.69278 9.65017L6.6984 9.75606L5.70402 9.86195C5.76645 10.4482 5.97805 11.0216 6.18572 11.4508C6.2921 11.6706 6.40774 11.874 6.52143 12.043C6.6061 12.1689 6.77256 12.4052 7.0007 12.5599L7.56192 11.7322ZM6.6984 9.75606L7.69287 9.65106L7.65111 9.25554L6.65664 9.36054L5.66217 9.46554L5.70393 9.86106L6.6984 9.75606ZM6.65664 9.36054L6.73759 8.36382L6.34159 8.33167L6.26064 9.32838L6.1797 10.3251L6.5757 10.3573L6.65664 9.36054ZM6.26064 9.32838L6.33853 8.33142C6.43303 8.3388 6.50862 8.35876 6.55934 8.37544C6.61257 8.39294 6.65634 8.41276 6.69007 8.43026C6.75699 8.46498 6.80552 8.50151 6.83745 8.529C6.90206 8.58462 6.92959 8.62967 6.93428 8.63766C6.94301 8.65255 6.88813 8.56421 6.85363 8.27766L5.8608 8.39718L4.86797 8.5167C4.92419 8.98376 5.03851 9.35861 5.20912 9.6495C5.29475 9.79549 5.40139 9.93174 5.53255 10.0447C5.62612 10.1252 5.85282 10.2996 6.18275 10.3253L6.26064 9.32838ZM5.8608 8.39718L6.85364 8.2777C6.85242 8.26759 6.85999 8.33566 6.80828 8.43872C6.78503 8.48504 6.75423 8.52936 6.71688 8.57074C6.69838 8.59124 6.6782 8.6111 6.65632 8.63037C6.64542 8.63997 6.63367 8.64979 6.62099 8.6598C6.61476 8.66471 6.60747 8.67033 6.59916 8.6765C6.59525 8.67939 6.58942 8.68368 6.5822 8.6888C6.57898 8.69109 6.57253 8.69563 6.56427 8.70122C6.56046 8.7038 6.55256 8.70912 6.5424 8.71561C6.53728 8.71886 6.52488 8.72655 6.51759 8.73096C6.50591 8.73785 6.47273 8.75628 6.45105 8.76745L6.00384 7.87302L5.55663 6.9786C5.53495 6.98977 5.50177 7.0082 5.49007 7.01509C5.48277 7.01951 5.47037 7.0272 5.46525 7.03046C5.45506 7.03697 5.44714 7.0423 5.44329 7.0449C5.43497 7.05053 5.42845 7.05513 5.42512 7.0575C5.41769 7.06276 5.41156 7.06726 5.40727 7.07045C5.39819 7.07718 5.38979 7.08365 5.38214 7.08968C5.36661 7.10194 5.35076 7.11513 5.3347 7.12926C5.3025 7.15761 5.26779 7.19126 5.2322 7.2307C5.16066 7.30996 5.08543 7.41275 5.02072 7.54169C4.88609 7.80999 4.82262 8.1399 4.86796 8.51667L5.8608 8.39718ZM6.00384 7.87302L6.52426 8.72694L6.82906 8.54118L6.30864 7.68726L5.78822 6.83335L5.48342 7.01911L6.00384 7.87302ZM6.30864 7.68726L7.27644 7.43555L7.18668 7.09044L6.21888 7.34214L5.25108 7.59385L5.34084 7.93897L6.30864 7.68726ZM6.21888 7.34214L7.18679 7.09084C6.62136 4.91304 6.82272 3.59925 7.2952 2.97688L6.49872 2.37222L5.70224 1.76756C4.64352 3.16215 4.65192 5.28613 5.25097 7.59344L6.21888 7.34214ZM6.49872 2.37222L7.29532 2.97673C7.63188 2.53322 8.31154 2.17108 9.60415 2.14709L9.5856 1.14726L9.56705 0.147436C7.96238 0.177211 6.55884 0.638746 5.70212 1.76772L6.49872 2.37222ZM9.5856 1.14726V2.14726C9.96141 2.14726 10.239 2.19525 10.4138 2.25432C10.6111 2.32098 10.5643 2.3598 10.4984 2.24401L11.3674 1.74918L12.2364 1.25436C11.9559 0.761765 11.4686 0.499632 11.054 0.35953C10.6168 0.211842 10.1108 0.147264 9.5856 0.147264V1.14726ZM11.3674 1.74918L10.4986 2.24445L10.6157 2.44989L11.4845 1.95462L12.3532 1.45936L12.2361 1.25392L11.3674 1.74918ZM11.4845 1.95462L11.3485 2.94533L11.5827 2.97749L11.7187 1.98678L11.8547 0.996078L11.6205 0.963918L11.4845 1.95462ZM11.7187 1.98678L11.5808 2.97723C11.9811 3.03295 12.1485 3.17183 12.2598 3.35102L13.1093 2.82342L13.9588 2.29583C13.4816 1.52749 12.7389 1.11918 11.8566 0.996337L11.7187 1.98678ZM13.1093 2.82342L12.2598 3.35104C12.4576 3.66947 12.5538 4.24944 12.4976 5.02439C12.4442 5.76181 12.2658 6.50466 12.1027 6.9957L13.0517 7.31094L14.0007 7.62619C14.2057 7.00891 14.4248 6.10152 14.4924 5.16902C14.5573 4.27405 14.4983 3.16442 13.9588 2.2958L13.1093 2.82342ZM13.0517 7.31094L12.0891 7.03998L11.9883 7.39806L12.9509 7.66902L13.9135 7.93999L14.0143 7.58191L13.0517 7.31094ZM12.9509 7.66902L12.3983 8.50248L12.7045 8.70552L13.2571 7.87206L13.8097 7.03861L13.5035 6.83557L12.9509 7.66902ZM13.2571 7.87206L12.6571 8.67206C12.6631 8.67652 12.6499 8.66677 12.6378 8.65718C12.6267 8.64834 12.6158 8.63925 12.6052 8.62988C12.5839 8.61119 12.564 8.59163 12.5454 8.57111C12.5079 8.52973 12.4769 8.4852 12.4534 8.43843C12.4012 8.33453 12.4091 8.26616 12.4078 8.27736L13.4006 8.3967L14.3935 8.51604C14.4387 8.13989 14.3758 7.80992 14.2407 7.54089C14.1758 7.41157 14.1002 7.30859 14.0284 7.22924C13.9927 7.18973 13.9581 7.15629 13.9263 7.12838C13.9105 7.11441 13.8954 7.10187 13.8813 7.09069C13.8662 7.07877 13.8514 7.06779 13.8571 7.07206L13.2571 7.87206ZM13.4006 8.3967L12.4078 8.27718C12.3733 8.56378 12.3184 8.65231 12.3271 8.63753C12.3317 8.62964 12.3593 8.58436 12.4243 8.52847C12.4564 8.50085 12.5054 8.46396 12.5732 8.42899C12.6073 8.41136 12.6518 8.39136 12.7059 8.37381C12.7574 8.35708 12.8344 8.33713 12.9307 8.33037L13.0008 9.3279L13.0709 10.3254C13.406 10.3019 13.6358 10.1244 13.7286 10.0446C13.8601 9.93149 13.9669 9.79499 14.0524 9.64904C14.223 9.35814 14.3373 8.98323 14.3935 8.51622L13.4006 8.3967ZM13.0008 9.3279L12.9199 8.33119L12.5239 8.36335L12.6048 9.36006L12.6857 10.3568L13.0817 10.3246L13.0008 9.3279ZM12.6048 9.36006L11.6105 9.25374L11.5682 9.64878L12.5626 9.7551L13.5569 9.86142L13.5991 9.46638L12.6048 9.36006ZM12.5626 9.7551L11.5682 9.64876C11.5374 9.93703 11.423 10.2857 11.279 10.5935C11.2093 10.7425 11.1418 10.8625 11.0905 10.9419C11.0645 10.9821 11.0489 11.0023 11.0453 11.0067C11.0302 11.0251 11.0701 10.9699 11.1601 10.907L11.7326 11.7269L12.3051 12.5468C12.4433 12.4504 12.5423 12.3355 12.5942 12.2719C12.6575 12.1944 12.7168 12.1102 12.7704 12.0272C12.8782 11.8604 12.9886 11.6591 13.0907 11.4408C13.2903 11.014 13.4946 10.4439 13.5569 9.86144L12.5626 9.7551ZM11.7326 11.7269L11.2683 10.8413L11.011 10.9762L11.4754 11.8618L11.9397 12.7475L12.197 12.6126L11.7326 11.7269ZM11.4754 11.8618L10.4754 11.8586L10.473 12.5954L11.473 12.5986L12.473 12.6019L12.4754 11.8651L11.4754 11.8618ZM11.473 12.5986L10.473 12.5901C10.4687 13.0997 10.463 13.626 10.5246 14.3059L11.5205 14.2157L12.5164 14.1256C12.4647 13.5546 12.4686 13.1171 12.4729 12.6071L11.473 12.5986ZM11.5205 14.2157L10.5455 14.4379L10.5738 14.5622L11.5488 14.3401L12.5238 14.118L12.4955 13.9936L11.5205 14.2157ZM11.5488 14.3401L10.6115 14.6887C10.7887 15.1649 11.0635 15.5446 11.3638 15.8463L12.0725 15.1407L12.7811 14.4351C12.6437 14.2971 12.546 14.1527 12.4861 13.9914L11.5488 14.3401ZM12.0725 15.1407L12.9402 15.6378C13.0063 15.5223 13.0972 15.3679 13.1858 15.2291C13.2302 15.1596 13.2696 15.1011 13.3017 15.0568C13.3397 15.0043 13.3463 15.0014 13.3255 15.0221L12.6206 14.3127L11.9158 13.6033C11.7517 13.7664 11.5949 14.0044 11.5005 14.1523C11.3872 14.3296 11.2783 14.5152 11.2048 14.6436L12.0725 15.1407ZM12.6206 14.3127L13.415 13.7053C13.3968 13.6815 13.3901 13.6676 13.3877 13.6621L12.4704 14.0602L11.5531 14.4584C11.6265 14.6275 11.7196 14.7807 11.8263 14.9202L12.6206 14.3127ZM12.4704 14.0602L13.4668 13.9759C13.4251 13.4832 13.4281 13.1029 13.4324 12.6161L12.4325 12.6073L11.4325 12.5984C11.4282 13.0841 11.4235 13.5486 11.474 14.1446L12.4704 14.0602ZM12.4325 12.6073L13.4325 12.6114L13.4334 12.381L12.4334 12.3769L11.4334 12.3727L11.4325 12.6031L12.4325 12.6073ZM12.4334 12.3769L13.1479 13.0765C13.4717 12.7459 13.7471 12.2924 13.9572 11.8457C14.1726 11.3878 14.3523 10.8669 14.451 10.359L13.4693 10.1684L12.4876 9.97782C12.4245 10.3031 12.3018 10.6664 12.1475 10.9943C11.9879 11.3336 11.8262 11.5677 11.719 11.6772L12.4334 12.3769ZM13.4693 10.1684L13.9291 11.0564C14.622 10.6976 15.1892 9.93623 15.3459 8.62948L14.353 8.51046L13.3601 8.39144C13.3105 8.80525 13.2114 9.02825 13.1421 9.13921C13.0767 9.24387 13.0234 9.27317 13.0095 9.28036L13.4693 10.1684ZM14.353 8.51046L15.3458 8.62968C15.4406 7.84074 15.2128 7.17064 14.8357 6.6971L14.0534 7.32006L13.2712 7.94302C13.3146 7.99749 13.3911 8.13283 13.3601 8.39125L14.353 8.51046ZM14.0534 7.32006L15.0131 7.60131C15.1632 7.08909 15.3981 6.15425 15.46 5.11583C15.5206 4.09949 15.425 2.83919 14.7728 1.78934L13.9234 2.31702L13.0739 2.84471C13.4057 3.37886 13.5143 4.14512 13.4636 4.99682C13.4141 5.82644 13.2221 6.60112 13.0938 7.03882L14.0534 7.32006Z" fill="#454545" mask="url(#path-1-inside-1_9226_7079)"/>
<path d="M17.28 21.6C19.6658 21.6 21.6 19.6658 21.6 17.28C21.6 14.8941 19.6658 12.96 17.28 12.96C14.8941 12.96 12.96 14.8941 12.96 17.28C12.96 19.6658 14.8941 21.6 17.28 21.6Z" stroke="#454545" stroke-miterlimit="10" stroke-linecap="round"/>
<path d="M20.1602 20.1599L23.5202 23.5199" stroke="#1C2925" stroke-miterlimit="10"/>
</g>
<defs>
<clipPath id="clip0_9226_7079">
<rect width="24" height="24" fill="white"/>
</clipPath>
</defs>
</svg>
