<svg width="48" height="48" viewBox="0 0 48 48" fill="none" xmlns="http://www.w3.org/2000/svg">
<g clip-path="url(#clip0_7512_15551)">
<path d="M42 6H37V15H42V6Z" fill="url(#paint0_linear_7512_15551)"/>
<path d="M42 15H37V24H42V15Z" fill="url(#paint1_linear_7512_15551)"/>
<path d="M42 24H37V33H42V24Z" fill="url(#paint2_linear_7512_15551)"/>
<path d="M37 41.706C39.891 40.845 42 38.17 42 35V33H37V41.706Z" fill="url(#paint3_linear_7512_15551)"/>
<path d="M21.5 36C27.8513 36 33 30.8513 33 24.5C33 18.1487 27.8513 13 21.5 13C15.1487 13 10 18.1487 10 24.5C10 30.8513 15.1487 36 21.5 36Z" fill="url(#paint4_linear_7512_15551)"/>
<path d="M13 6C9.134 6 6 9.134 6 13V42H35C38.866 42 42 38.866 42 35V6H13ZM21.5 36C15.149 36 10 30.851 10 24.5C10 18.149 15.149 13 21.5 13C27.851 13 33 18.149 33 24.5C33 30.851 27.851 36 21.5 36Z" fill="url(#paint5_linear_7512_15551)"/>
<path d="M13.5 32.751C15.57 34.759 18.388 36 21.5 36C24.918 36 27.979 34.5 30.085 32.132C28.268 29.632 25.328 28 22 28C18.405 28 15.262 29.904 13.5 32.751Z" fill="url(#paint6_linear_7512_15551)"/>
<path d="M21.5 26C23.7091 26 25.5 23.9853 25.5 21.5C25.5 19.0147 23.7091 17 21.5 17C19.2909 17 17.5 19.0147 17.5 21.5C17.5 23.9853 19.2909 26 21.5 26Z" fill="url(#paint7_linear_7512_15551)"/>
<circle cx="37" cy="38" r="10" fill="white"/>
<path d="M44.0711 45.0711C40.182 48.9602 33.818 48.9602 29.9289 45.0711C26.0398 41.182 26.0398 34.8181 29.9289 30.929C33.818 27.0399 40.182 27.0399 44.0711 30.929C47.9602 34.8181 47.9602 41.182 44.0711 45.0711ZM42.6569 40.8285L39.8284 38L42.6569 35.1716L39.8284 32.3432L37 35.1716L34.1716 32.3432L31.3431 35.1716L34.1716 38L31.3431 40.8285L34.1716 43.6569L37 40.8285L39.8284 43.6569L42.6569 40.8285Z" fill="url(#paint8_linear_7512_15551)"/>
<path d="M42.6569 40.8284L39.8284 37.9999L42.6569 35.1715L39.8284 32.3431L37 35.1715L34.1716 32.3431L31.3431 35.1715L34.1716 37.9999L31.3431 40.8284L34.1716 43.6568L37 40.8284L39.8284 43.6568L42.6569 40.8284Z" fill="url(#paint9_linear_7512_15551)"/>
</g>
<defs>
<linearGradient id="paint0_linear_7512_15551" x1="35.3486" y1="-0.9058" x2="45.0009" y2="25.6135" gradientUnits="userSpaceOnUse">
<stop stop-color="#262626" stop-opacity="0"/>
<stop offset="1" stop-color="#262626" stop-opacity="0.8"/>
</linearGradient>
<linearGradient id="paint1_linear_7512_15551" x1="35.3486" y1="8.0942" x2="45.0009" y2="34.6135" gradientUnits="userSpaceOnUse">
<stop stop-color="#262626" stop-opacity="0"/>
<stop offset="1" stop-color="#262626" stop-opacity="0.8"/>
</linearGradient>
<linearGradient id="paint2_linear_7512_15551" x1="35.3486" y1="17.0942" x2="45.0009" y2="43.6135" gradientUnits="userSpaceOnUse">
<stop stop-color="#262626" stop-opacity="0"/>
<stop offset="1" stop-color="#262626" stop-opacity="0.8"/>
</linearGradient>
<linearGradient id="paint3_linear_7512_15551" x1="35.8642" y1="27.3638" x2="43.6427" y2="48.7351" gradientUnits="userSpaceOnUse">
<stop stop-color="#262626" stop-opacity="0"/>
<stop offset="1" stop-color="#262626" stop-opacity="0.8"/>
</linearGradient>
<linearGradient id="paint4_linear_7512_15551" x1="10.1751" y1="13.1751" x2="69.3033" y2="72.3033" gradientUnits="userSpaceOnUse">
<stop stop-color="#262626" stop-opacity="0"/>
<stop offset="1" stop-color="#262626" stop-opacity="0.8"/>
</linearGradient>
<linearGradient id="paint5_linear_7512_15551" x1="-3.6993" y1="8.0078" x2="66.6755" y2="48.6387" gradientUnits="userSpaceOnUse">
<stop stop-color="#262626" stop-opacity="0"/>
<stop offset="1" stop-color="#262626" stop-opacity="0.8"/>
</linearGradient>
<linearGradient id="paint6_linear_7512_15551" x1="11.9138" y1="22.4753" x2="29.0915" y2="39.653" gradientUnits="userSpaceOnUse">
<stop stop-color="#262626" stop-opacity="0"/>
<stop offset="1" stop-color="#262626" stop-opacity="0.8"/>
</linearGradient>
<linearGradient id="paint7_linear_7512_15551" x1="14.2675" y1="14.2675" x2="26.8999" y2="26.8999" gradientUnits="userSpaceOnUse">
<stop stop-color="#262626" stop-opacity="0"/>
<stop offset="1" stop-color="#262626" stop-opacity="0.8"/>
</linearGradient>
<linearGradient id="paint8_linear_7512_15551" x1="25.3706" y1="81.4016" x2="42.5717" y2="17.206" gradientUnits="userSpaceOnUse">
<stop stop-color="#262626" stop-opacity="0"/>
<stop offset="1" stop-color="#262626" stop-opacity="0.8"/>
</linearGradient>
<linearGradient id="paint9_linear_7512_15551" x1="36.2276" y1="46.8284" x2="39.0565" y2="14.4941" gradientUnits="userSpaceOnUse">
<stop stop-color="#262626" stop-opacity="0"/>
<stop offset="1" stop-color="#262626" stop-opacity="0.8"/>
</linearGradient>
<clipPath id="clip0_7512_15551">
<rect width="48" height="48" fill="white"/>
</clipPath>
</defs>
</svg>
