<svg width="24" height="24" viewBox="0 0 24 24" fill="none" xmlns="http://www.w3.org/2000/svg">
<mask id="path-1-inside-1_6713_1728" fill="white">
<path d="M8.05006 0.947502C6.48756 0.947502 5.21006 2.225 5.21006 3.79C5.21006 4.7275 5.67256 5.565 6.38006 6.0825C6.00006 6.2725 5.65256 6.52 5.35756 6.8225C5.01256 6.7 4.64756 6.63 4.26256 6.63C2.43756 6.63 0.947563 8.12 0.947563 9.945C0.947563 11.105 1.54756 12.135 2.45756 12.7275C1.01006 13.4125 6.26162e-05 14.8775 6.26162e-05 16.575V18.7075C-0.00243738 18.86 0.0700626 19.0025 0.192562 19.0925C0.192562 19.0925 0.527563 19.33 1.17006 19.52C1.81006 19.7125 2.80256 19.89 4.26256 19.89C5.72256 19.89 6.71256 19.7125 7.35506 19.52C7.44006 19.4975 7.50506 19.4725 7.57756 19.4475V21.55C7.57506 21.7 7.64756 21.8425 7.77006 21.9325C7.77006 21.9325 8.10506 22.17 8.74756 22.3625C9.39006 22.555 10.3801 22.7325 11.8401 22.7325C13.3001 22.7325 14.2901 22.555 14.9326 22.3625C15.5751 22.17 15.9101 21.9325 15.9101 21.9325C16.0326 21.8425 16.1051 21.7 16.1026 21.55V19.4475C16.1751 19.4725 16.2401 19.4975 16.3251 19.52C16.9676 19.7125 17.9576 19.89 19.4176 19.89C20.8776 19.89 21.8701 19.7125 22.5101 19.52C23.1526 19.33 23.4876 19.0925 23.4876 19.0925C23.6101 19.0025 23.6826 18.86 23.6801 18.7075V16.575C23.6801 14.8775 22.6701 13.4125 21.2226 12.7275C22.1326 12.135 22.7326 11.105 22.7326 9.945C22.7326 8.12 21.2426 6.63 19.4176 6.63C19.0051 6.63 18.6126 6.7125 18.2476 6.8525C17.9501 6.54 17.6001 6.28 17.2126 6.0825C17.9201 5.565 18.3826 4.7275 18.3826 3.79C18.3826 2.225 17.1026 0.947502 15.5401 0.947502C13.9776 0.947502 12.6976 2.225 12.6976 3.79C12.6976 4.7275 13.1601 5.565 13.8676 6.0825C12.7801 6.62 11.9851 7.6525 11.7951 8.895C11.6076 7.65 10.8126 6.6175 9.72256 6.0825C10.4301 5.565 10.8926 4.7275 10.8926 3.79C10.8926 2.225 9.61506 0.947502 8.05006 0.947502ZM8.05006 1.895C9.10506 1.895 9.94506 2.735 9.94506 3.79C9.94506 4.8425 9.10506 5.6825 8.05006 5.6825C6.99756 5.6825 6.15756 4.8425 6.15756 3.79C6.15756 2.735 6.99756 1.895 8.05006 1.895ZM15.5401 1.895C16.5926 1.895 17.4351 2.735 17.4351 3.79C17.4351 4.8425 16.5926 5.6825 15.5401 5.6825C14.4876 5.6825 13.6451 4.8425 13.6451 3.79C13.6451 2.735 14.4876 1.895 15.5401 1.895ZM8.05006 6.63C9.64756 6.63 10.8926 7.875 10.8926 9.4725V9.62C9.53006 10.0325 8.52506 11.295 8.52506 12.7875C8.52506 13.9475 9.12506 14.9775 10.0351 15.57C9.44006 15.85 8.93256 16.2625 8.52506 16.7675V16.575C8.52506 14.8775 7.51506 13.4125 6.06756 12.7275C6.97756 12.135 7.57756 11.105 7.57756 9.945C7.57756 8.865 7.05006 7.9025 6.24506 7.2975C6.73756 6.8775 7.34756 6.63 8.05006 6.63ZM15.5401 6.63C16.2626 6.63 16.8926 6.885 17.3901 7.325C16.6101 7.9325 16.1026 8.885 16.1026 9.945C16.1026 11.105 16.7026 12.135 17.6126 12.7275C16.1651 13.4125 15.1551 14.8775 15.1551 16.575V16.7675C14.7476 16.2625 14.2401 15.85 13.6451 15.57C14.5551 14.9775 15.1551 13.9475 15.1551 12.7875C15.1551 11.26 14.1076 9.9725 12.6976 9.59V9.4725C12.6976 7.875 13.9426 6.63 15.5401 6.63ZM4.26256 7.5775C4.63006 7.5775 4.97256 7.6675 5.28256 7.815C6.08006 8.195 6.63006 9 6.63006 9.945C6.63006 11.26 5.57506 12.3125 4.26256 12.3125C2.95006 12.3125 1.89506 11.26 1.89506 9.945C1.89506 8.6325 2.95006 7.5775 4.26256 7.5775ZM19.4176 7.5775C20.7301 7.5775 21.7851 8.6325 21.7851 9.945C21.7851 11.26 20.7301 12.3125 19.4176 12.3125C18.1051 12.3125 17.0501 11.26 17.0501 9.945C17.0501 9.07 17.5176 8.315 18.2201 7.9025C18.2226 7.9025 18.2301 7.905 18.2326 7.9025C18.3051 7.8875 18.3676 7.86 18.4251 7.815C18.4426 7.8075 18.4551 7.7925 18.4701 7.785C18.4801 7.78 18.4901 7.775 18.5001 7.77C18.7826 7.65 19.0901 7.5775 19.4176 7.5775ZM11.8401 10.42C13.1526 10.42 14.2076 11.4725 14.2076 12.7875C14.2076 14.1 13.1526 15.155 11.8401 15.155C10.5276 15.155 9.47256 14.1 9.47256 12.7875C9.47256 11.4725 10.5276 10.42 11.8401 10.42ZM4.26256 13.26C6.08756 13.26 7.57756 14.75 7.57756 16.575V18.3975C7.50756 18.44 7.48006 18.4875 7.09006 18.6025C6.54756 18.7675 5.64506 18.945 4.26256 18.945C2.88006 18.945 1.97756 18.7675 1.43506 18.6025C1.04506 18.4875 1.01756 18.44 0.947563 18.3975V16.575C0.947563 14.75 2.43756 13.26 4.26256 13.26ZM19.4176 13.26C21.2426 13.26 22.7326 14.75 22.7326 16.575V18.3975C22.6626 18.44 22.6351 18.4875 22.2451 18.6025C21.7026 18.7675 20.8001 18.945 19.4176 18.945C18.0351 18.945 17.1326 18.7675 16.5901 18.6025C16.2001 18.4875 16.1726 18.44 16.1026 18.3975V16.575C16.1026 14.75 17.5926 13.26 19.4176 13.26ZM11.8401 16.1025C13.6651 16.1025 15.1551 17.5925 15.1551 19.4175V21.2375C15.0851 21.28 15.0576 21.3275 14.6676 21.445C14.1251 21.6075 13.2226 21.785 11.8401 21.785C10.4576 21.785 9.55506 21.6075 9.01256 21.445C8.62256 21.3275 8.59506 21.28 8.52506 21.2375V19.4175C8.52506 17.5925 10.0151 16.1025 11.8401 16.1025Z"/>
</mask>
<path d="M8.05006 0.947502C6.48756 0.947502 5.21006 2.225 5.21006 3.79C5.21006 4.7275 5.67256 5.565 6.38006 6.0825C6.00006 6.2725 5.65256 6.52 5.35756 6.8225C5.01256 6.7 4.64756 6.63 4.26256 6.63C2.43756 6.63 0.947563 8.12 0.947563 9.945C0.947563 11.105 1.54756 12.135 2.45756 12.7275C1.01006 13.4125 6.26162e-05 14.8775 6.26162e-05 16.575V18.7075C-0.00243738 18.86 0.0700626 19.0025 0.192562 19.0925C0.192562 19.0925 0.527563 19.33 1.17006 19.52C1.81006 19.7125 2.80256 19.89 4.26256 19.89C5.72256 19.89 6.71256 19.7125 7.35506 19.52C7.44006 19.4975 7.50506 19.4725 7.57756 19.4475V21.55C7.57506 21.7 7.64756 21.8425 7.77006 21.9325C7.77006 21.9325 8.10506 22.17 8.74756 22.3625C9.39006 22.555 10.3801 22.7325 11.8401 22.7325C13.3001 22.7325 14.2901 22.555 14.9326 22.3625C15.5751 22.17 15.9101 21.9325 15.9101 21.9325C16.0326 21.8425 16.1051 21.7 16.1026 21.55V19.4475C16.1751 19.4725 16.2401 19.4975 16.3251 19.52C16.9676 19.7125 17.9576 19.89 19.4176 19.89C20.8776 19.89 21.8701 19.7125 22.5101 19.52C23.1526 19.33 23.4876 19.0925 23.4876 19.0925C23.6101 19.0025 23.6826 18.86 23.6801 18.7075V16.575C23.6801 14.8775 22.6701 13.4125 21.2226 12.7275C22.1326 12.135 22.7326 11.105 22.7326 9.945C22.7326 8.12 21.2426 6.63 19.4176 6.63C19.0051 6.63 18.6126 6.7125 18.2476 6.8525C17.9501 6.54 17.6001 6.28 17.2126 6.0825C17.9201 5.565 18.3826 4.7275 18.3826 3.79C18.3826 2.225 17.1026 0.947502 15.5401 0.947502C13.9776 0.947502 12.6976 2.225 12.6976 3.79C12.6976 4.7275 13.1601 5.565 13.8676 6.0825C12.7801 6.62 11.9851 7.6525 11.7951 8.895C11.6076 7.65 10.8126 6.6175 9.72256 6.0825C10.4301 5.565 10.8926 4.7275 10.8926 3.79C10.8926 2.225 9.61506 0.947502 8.05006 0.947502ZM8.05006 1.895C9.10506 1.895 9.94506 2.735 9.94506 3.79C9.94506 4.8425 9.10506 5.6825 8.05006 5.6825C6.99756 5.6825 6.15756 4.8425 6.15756 3.79C6.15756 2.735 6.99756 1.895 8.05006 1.895ZM15.5401 1.895C16.5926 1.895 17.4351 2.735 17.4351 3.79C17.4351 4.8425 16.5926 5.6825 15.5401 5.6825C14.4876 5.6825 13.6451 4.8425 13.6451 3.79C13.6451 2.735 14.4876 1.895 15.5401 1.895ZM8.05006 6.63C9.64756 6.63 10.8926 7.875 10.8926 9.4725V9.62C9.53006 10.0325 8.52506 11.295 8.52506 12.7875C8.52506 13.9475 9.12506 14.9775 10.0351 15.57C9.44006 15.85 8.93256 16.2625 8.52506 16.7675V16.575C8.52506 14.8775 7.51506 13.4125 6.06756 12.7275C6.97756 12.135 7.57756 11.105 7.57756 9.945C7.57756 8.865 7.05006 7.9025 6.24506 7.2975C6.73756 6.8775 7.34756 6.63 8.05006 6.63ZM15.5401 6.63C16.2626 6.63 16.8926 6.885 17.3901 7.325C16.6101 7.9325 16.1026 8.885 16.1026 9.945C16.1026 11.105 16.7026 12.135 17.6126 12.7275C16.1651 13.4125 15.1551 14.8775 15.1551 16.575V16.7675C14.7476 16.2625 14.2401 15.85 13.6451 15.57C14.5551 14.9775 15.1551 13.9475 15.1551 12.7875C15.1551 11.26 14.1076 9.9725 12.6976 9.59V9.4725C12.6976 7.875 13.9426 6.63 15.5401 6.63ZM4.26256 7.5775C4.63006 7.5775 4.97256 7.6675 5.28256 7.815C6.08006 8.195 6.63006 9 6.63006 9.945C6.63006 11.26 5.57506 12.3125 4.26256 12.3125C2.95006 12.3125 1.89506 11.26 1.89506 9.945C1.89506 8.6325 2.95006 7.5775 4.26256 7.5775ZM19.4176 7.5775C20.7301 7.5775 21.7851 8.6325 21.7851 9.945C21.7851 11.26 20.7301 12.3125 19.4176 12.3125C18.1051 12.3125 17.0501 11.26 17.0501 9.945C17.0501 9.07 17.5176 8.315 18.2201 7.9025C18.2226 7.9025 18.2301 7.905 18.2326 7.9025C18.3051 7.8875 18.3676 7.86 18.4251 7.815C18.4426 7.8075 18.4551 7.7925 18.4701 7.785C18.4801 7.78 18.4901 7.775 18.5001 7.77C18.7826 7.65 19.0901 7.5775 19.4176 7.5775ZM11.8401 10.42C13.1526 10.42 14.2076 11.4725 14.2076 12.7875C14.2076 14.1 13.1526 15.155 11.8401 15.155C10.5276 15.155 9.47256 14.1 9.47256 12.7875C9.47256 11.4725 10.5276 10.42 11.8401 10.42ZM4.26256 13.26C6.08756 13.26 7.57756 14.75 7.57756 16.575V18.3975C7.50756 18.44 7.48006 18.4875 7.09006 18.6025C6.54756 18.7675 5.64506 18.945 4.26256 18.945C2.88006 18.945 1.97756 18.7675 1.43506 18.6025C1.04506 18.4875 1.01756 18.44 0.947563 18.3975V16.575C0.947563 14.75 2.43756 13.26 4.26256 13.26ZM19.4176 13.26C21.2426 13.26 22.7326 14.75 22.7326 16.575V18.3975C22.6626 18.44 22.6351 18.4875 22.2451 18.6025C21.7026 18.7675 20.8001 18.945 19.4176 18.945C18.0351 18.945 17.1326 18.7675 16.5901 18.6025C16.2001 18.4875 16.1726 18.44 16.1026 18.3975V16.575C16.1026 14.75 17.5926 13.26 19.4176 13.26ZM11.8401 16.1025C13.6651 16.1025 15.1551 17.5925 15.1551 19.4175V21.2375C15.0851 21.28 15.0576 21.3275 14.6676 21.445C14.1251 21.6075 13.2226 21.785 11.8401 21.785C10.4576 21.785 9.55506 21.6075 9.01256 21.445C8.62256 21.3275 8.59506 21.28 8.52506 21.2375V19.4175C8.52506 17.5925 10.0151 16.1025 11.8401 16.1025Z" fill="currentColor" stroke="currentColor" stroke-width="2.66667" mask="url(#path-1-inside-1_6713_1728)"/>
</svg>
