<svg width="80" height="80" viewBox="0 0 80 80" fill="none" xmlns="http://www.w3.org/2000/svg">
<g clip-path="url(#clip0_8947_13333)">
<path d="M24.9997 55C24.9997 59.5967 21.263 63.3333 16.6663 63.3333C12.0697 63.3333 8.33301 59.5967 8.33301 55H24.9997Z" fill="url(#paint0_linear_8947_13333)"/>
<path d="M73.3337 55C73.3337 59.5967 69.597 63.3333 65.0003 63.3333C60.4037 63.3333 56.667 59.5967 56.667 55H73.3337Z" fill="url(#paint1_linear_8947_13333)"/>
<path d="M80 45.0003C80 40.3987 76.2683 36.667 71.6667 36.667H0V46.667C0 51.2687 3.73167 55.0003 8.33333 55.0003H80V45.0003Z" fill="url(#paint2_linear_8947_13333)"/>
<path d="M61.2166 36.6663H12.0166L17.5166 18.333H42.6666C47.3333 18.333 51.7133 20.818 54.0999 24.7997L61.2166 36.6663Z" fill="url(#paint3_linear_8947_13333)"/>
<path d="M53.4501 36.6667H18.9834L20.4834 31.6667L22.4551 25H42.6667C45.0001 25 47.1917 26.2283 48.3834 28.2167L53.4501 36.6667Z" fill="url(#paint4_linear_8947_13333)"/>
<circle cx="61.6663" cy="63.3333" r="16.6667" transform="rotate(-180 61.6663 63.3333)" fill="white"/>
<path d="M61.6663 46.6667C52.4616 46.6667 44.9997 54.1286 44.9997 63.3333C44.9997 72.5381 52.4616 80 61.6663 80C70.8711 80 78.333 72.5381 78.333 63.3333C78.333 54.1286 70.8711 46.6667 61.6663 46.6667Z" fill="url(#paint5_linear_8947_13333)"/>
<path d="M54.3333 65.8333L69 65.8333L61.6667 75L54.3333 65.8333Z" fill="url(#paint6_linear_8947_13333)"/>
<path d="M59.1689 65.835L59.1689 55.835C59.1689 54.4541 60.2881 53.335 61.6689 53.335L64.1689 53.335L64.1689 65.835L59.1689 65.835Z" fill="url(#paint7_linear_8947_13333)"/>
</g>
<defs>
<linearGradient id="paint0_linear_8947_13333" x1="16.6663" y1="83.7685" x2="16.6663" y2="51.6513" gradientUnits="userSpaceOnUse">
<stop stop-color="#262626" stop-opacity="0"/>
<stop offset="1" stop-color="#262626" stop-opacity="0.8"/>
</linearGradient>
<linearGradient id="paint1_linear_8947_13333" x1="65.0003" y1="83.7685" x2="65.0003" y2="51.6513" gradientUnits="userSpaceOnUse">
<stop stop-color="#262626" stop-opacity="0"/>
<stop offset="1" stop-color="#262626" stop-opacity="0.8"/>
</linearGradient>
<linearGradient id="paint2_linear_8947_13333" x1="79.8472" y1="-1.65434" x2="-10.5228" y2="106.044" gradientUnits="userSpaceOnUse">
<stop stop-color="#262626" stop-opacity="0"/>
<stop offset="1" stop-color="#262626" stop-opacity="0.8"/>
</linearGradient>
<linearGradient id="paint3_linear_8947_13333" x1="24.0266" y1="2.07551" x2="46.4451" y2="63.6698" gradientUnits="userSpaceOnUse">
<stop stop-color="#262626" stop-opacity="0"/>
<stop offset="1" stop-color="#262626" stop-opacity="0.8"/>
</linearGradient>
<linearGradient id="paint4_linear_8947_13333" x1="39.2484" y1="53.8598" x2="31.6777" y2="10.9247" gradientUnits="userSpaceOnUse">
<stop stop-color="#262626" stop-opacity="0"/>
<stop offset="1" stop-color="#262626" stop-opacity="0.8"/>
</linearGradient>
<linearGradient id="paint5_linear_8947_13333" x1="82.9175" y1="84.5845" x2="31.8329" y2="33.4999" gradientUnits="userSpaceOnUse">
<stop stop-color="#262626" stop-opacity="0"/>
<stop offset="1" stop-color="#262626" stop-opacity="0.8"/>
</linearGradient>
<linearGradient id="paint6_linear_8947_13333" x1="64.6372" y1="48.9868" x2="58.7685" y2="82.2697" gradientUnits="userSpaceOnUse">
<stop stop-color="#262626" stop-opacity="0"/>
<stop offset="1" stop-color="#262626" stop-opacity="0.8"/>
</linearGradient>
<linearGradient id="paint7_linear_8947_13333" x1="71.24" y1="70.9908" x2="47.264" y2="42.4174" gradientUnits="userSpaceOnUse">
<stop stop-color="#262626" stop-opacity="0"/>
<stop offset="1" stop-color="#262626" stop-opacity="0.8"/>
</linearGradient>
<clipPath id="clip0_8947_13333">
<rect width="80" height="80" fill="white"/>
</clipPath>
</defs>
</svg>
