<svg width="80" height="80" viewBox="0 0 80 80" fill="none" xmlns="http://www.w3.org/2000/svg">
<path d="M70 61.6667C70 67.1918 65.5252 71.6667 60 71.6667H10V28.941C10 25.4601 11.8142 22.2266 14.783 20.408L40 5L70 23.3333V61.6667Z" fill="url(#paint0_linear_8947_13293)"/>
<path d="M20 45.234V59.9997H25C26.8316 59.9997 28.3333 58.4979 28.3333 56.6663V53.333H51.6667V59.9997H56.6667C58.4983 59.9997 60 58.4979 60 56.6663V45.234C60 43.0075 58.8846 40.9242 57.0313 39.6872L55 38.333H25L22.9688 39.6872C21.1155 40.9242 20 43.0031 20 45.234ZM27.5 48.333C26.1241 48.333 25 47.2089 25 45.833C25 44.4571 26.1241 43.333 27.5 43.333C28.8759 43.333 30 44.4571 30 45.833C30 47.2089 28.8759 48.333 27.5 48.333ZM52.5 48.333C51.1241 48.333 50 47.2089 50 45.833C50 44.4571 51.1241 43.333 52.5 43.333C53.8759 43.333 55 44.4571 55 45.833C55 47.2089 53.8759 48.333 52.5 48.333Z" fill="url(#paint1_linear_8947_13293)"/>
<path d="M55 38.3337H25L28.6936 29.7008C29.4835 27.8606 31.2891 26.667 33.2899 26.667H50L55 38.3337Z" fill="url(#paint2_linear_8947_13293)"/>
<defs>
<linearGradient id="paint0_linear_8947_13293" x1="90.725" y1="2.74166" x2="-25.7967" y2="100.513" gradientUnits="userSpaceOnUse">
<stop stop-color="#262626" stop-opacity="0"/>
<stop offset="1" stop-color="#262626" stop-opacity="0.8"/>
</linearGradient>
<linearGradient id="paint1_linear_8947_13293" x1="60.6517" y1="14.7313" x2="23.7067" y2="78.723" gradientUnits="userSpaceOnUse">
<stop stop-color="#262626" stop-opacity="0"/>
<stop offset="1" stop-color="#262626" stop-opacity="0.8"/>
</linearGradient>
<linearGradient id="paint2_linear_8947_13293" x1="43.1317" y1="46.937" x2="30.2417" y2="11.5253" gradientUnits="userSpaceOnUse">
<stop stop-color="#262626" stop-opacity="0"/>
<stop offset="1" stop-color="#262626" stop-opacity="0.8"/>
</linearGradient>
</defs>
</svg>
