<svg xmlns="http://www.w3.org/2000/svg" width="24" height="24" viewBox="0 0 24 24" fill="none">
<path d="M20.256 3.3599C20.256 2.8319 19.824 2.3999 19.344 2.3999H4.65598C4.17598 2.3999 3.74398 2.8319 3.74398 3.3599H3.40798C2.59198 3.3599 1.91998 4.0319 1.91998 4.8959V5.2799H22.08V4.8959C22.08 4.0319 21.408 3.3599 20.592 3.3599H20.256Z" stroke="currentColor" stroke-miterlimit="10" stroke-linecap="round" stroke-linejoin="round"/>
<path d="M9.12 2.39998V1.43998C9.12 0.91198 9.552 0.47998 10.08 0.47998H13.92C14.448 0.47998 14.88 0.91198 14.88 1.43998V2.39998" stroke="currentColor" stroke-miterlimit="10" stroke-linecap="round" stroke-linejoin="round"/>
<path d="M2.88 5.28003L5.376 22.368C5.472 23.04 6.048 23.52 6.72 23.52H17.28C17.952 23.52 18.48 23.04 18.624 22.368L21.12 5.28003" stroke="currentColor" stroke-miterlimit="10" stroke-linecap="round" stroke-linejoin="round"/>
<path d="M7.53603 20.256L5.95203 8.30396" stroke="currentColor" stroke-miterlimit="10" stroke-linecap="round" stroke-linejoin="round"/>
<path d="M10.512 20.256L9.98401 8.30396" stroke="currentColor" stroke-miterlimit="10" stroke-linecap="round" stroke-linejoin="round"/>
<path d="M14.016 8.30396L13.488 20.256" stroke="currentColor" stroke-miterlimit="10" stroke-linecap="round" stroke-linejoin="round"/>
<path d="M18.048 8.30396L16.464 20.256" stroke="currentColor" stroke-miterlimit="10" stroke-linecap="round" stroke-linejoin="round"/>
</svg>