<svg width="567" height="567" viewBox="0 0 567 567" fill="none" xmlns="http://www.w3.org/2000/svg">
<g clip-path="url(#clip0_7563_15530)">
<path d="M566.93 0H0V566.93H566.93V0Z" fill="#E5E5E5"/>
<path d="M461.53 378.3C429.11 443.31 361.95 487.98 284.36 487.98C206.77 487.98 137.1 441.63 105.4 374.64C147.33 357.32 209.68 346.32 279.29 346.32C353.67 346.32 419.77 358.87 461.52 378.3H461.53Z" fill="#CCCCCC"/>
<path d="M352.59 222.661C361.02 224.361 367.69 220.241 368.45 209.851C369.22 199.381 366.23 160.801 359.63 142.571C356.54 134.021 350.72 122.991 340.99 120.421C331.65 117.951 326.72 124.281 326.89 135.311C327.16 152.241 343.23 220.771 352.59 222.661Z" fill="url(#paint0_linear_7563_15530)"/>
<path d="M292.36 447.341C318.03 447.481 335.18 404.141 336.69 388.901C338.52 370.471 337.76 335.731 336.99 315.441C335.49 275.391 218.22 223.751 218.22 254.141C218.22 281.441 217.57 323.981 218.22 343.781C218.88 364.131 227.6 387.981 245.36 413.151C261.04 435.371 278.59 447.261 292.36 447.341Z" fill="white"/>
<path d="M337.54 374.721C303.84 366.741 256.15 333.331 244.42 295.031C238.43 275.491 238.08 260.391 237.81 245.421C271.24 249.741 335.89 285.781 336.99 315.451C337.59 331.281 338.18 355.901 337.54 374.721Z" fill="#1D1D1B"/>
<path d="M233.5 284.81C249.68 322.23 288.49 341.64 331.41 333.52C368.34 326.53 386.13 299.71 367 236.74C355.15 197.73 368.05 179.57 346.04 153.47C317.85 120.04 248.31 132.11 225.82 171.36C202.89 211.36 218.46 250.02 233.5 284.81Z" fill="white"/>
<path d="M237.11 167.47C258.16 172.22 304.85 170.62 332.02 156.44C360.43 141.61 359.98 103.55 353.13 88.3605C345.1 70.5805 269.33 79.1504 225.28 104.39C211.43 112.32 197.06 128.53 201.29 143.4C204.7 155.39 221.74 164 237.11 167.47Z" fill="url(#paint1_linear_7563_15530)"/>
<path d="M214.63 251.2C221.44 249.47 247.01 244.56 247.04 231.12C247.07 217.8 239.91 169.87 232.2 147.03C226.8 131.03 211.47 133.41 195.5 137.98C183.83 141.32 175.07 150.95 175.9 164.89C177.17 186.28 191.31 227.44 199.82 243.93C202.76 249.63 210.78 252.17 214.64 251.19L214.63 251.2Z" fill="url(#paint2_linear_7563_15530)"/>
<path d="M327.62 259.911C326.76 259.911 325.93 259.451 325.49 258.651C324.85 257.481 325.28 256.001 326.45 255.361C335.11 250.621 335.21 247.351 334.17 244.771C332.43 240.441 329.33 234.371 326.33 228.501C324.77 225.441 323.15 222.271 321.71 219.321C321.12 218.121 321.62 216.671 322.82 216.081C324.02 215.491 325.47 215.991 326.06 217.191C327.49 220.111 329.09 223.251 330.64 226.301C333.83 232.541 336.83 238.441 338.66 242.961C342.37 252.161 332.13 257.771 328.77 259.611C328.4 259.811 328 259.911 327.61 259.911H327.62Z" fill="#1D1D1B"/>
<path d="M358.5 201.78C356.29 201.48 354.19 201.28 352.06 201.23C349.94 201.16 347.8 201.21 345.67 201.36C343.53 201.51 341.4 201.76 339.26 202.07C337.11 202.38 335 202.77 332.71 203.16L332.52 203.19C331.15 203.43 329.84 202.51 329.6 201.13C329.46 200.33 329.72 199.54 330.23 198.99C332.15 196.91 334.6 195.48 337.14 194.48C339.7 193.47 342.4 192.93 345.13 192.79C347.86 192.65 350.62 192.89 353.31 193.61C355.98 194.35 358.62 195.54 360.74 197.48C361.76 198.41 361.83 199.99 360.9 201.01C360.33 201.64 359.51 201.9 358.73 201.8L358.49 201.77L358.5 201.78Z" fill="#1D1D1B"/>
<path d="M295.43 212.221C294.79 212.681 294.15 213.081 293.5 213.441C292.86 213.811 292.22 214.181 291.57 214.501C290.29 215.181 289.02 215.801 287.76 216.401C287.13 216.691 286.51 217.011 285.88 217.281C285.26 217.581 284.63 217.851 284.01 218.141C282.76 218.701 281.52 219.251 280.29 219.831C277.83 220.981 275.39 222.201 272.94 223.501L269.22 225.491C268.6 225.841 267.96 226.171 267.31 226.511C266.67 226.861 266.02 227.191 265.33 227.511L265.21 227.561C263.95 228.141 262.45 227.591 261.87 226.331C261.51 225.551 261.59 224.681 261.99 223.991C262.4 223.301 262.83 222.641 263.29 221.981C263.76 221.341 264.25 220.721 264.76 220.101C265.28 219.501 265.82 218.921 266.36 218.331C266.93 217.771 267.5 217.211 268.09 216.671C270.46 214.531 273.13 212.691 275.97 211.191C276.69 210.831 277.4 210.471 278.13 210.131C278.86 209.811 279.6 209.491 280.34 209.201C281.84 208.651 283.37 208.181 284.92 207.851C285.7 207.701 286.48 207.541 287.27 207.441C288.06 207.341 288.85 207.251 289.64 207.221C290.43 207.181 291.23 207.181 292.03 207.201C292.83 207.241 293.63 207.321 294.44 207.461C295.86 207.701 296.81 209.041 296.57 210.451C296.45 211.151 296.06 211.741 295.52 212.131L295.42 212.201L295.43 212.221Z" fill="#1D1D1B"/>
<path d="M276.51 236.81C276.21 236.81 275.91 236.75 275.62 236.64C274.38 236.15 273.77 234.74 274.26 233.49C277.83 224.5 287.25 221.15 294.3 223.1C295.59 223.46 296.35 224.79 295.99 226.08C295.63 227.37 294.3 228.12 293.01 227.77C288.8 226.6 281.59 228.16 278.77 235.27C278.39 236.22 277.48 236.8 276.52 236.8L276.51 236.81Z" fill="#1D1D1B"/>
<path d="M292.91 230.18C293.53 233.49 291.76 236.6 288.97 237.12C286.18 237.64 283.41 235.37 282.8 232.06C282.18 228.75 283.95 225.64 286.74 225.12C289.53 224.6 292.3 226.87 292.91 230.18Z" fill="#1D1D1B"/>
<path d="M336.56 220.96C336.07 220.96 335.58 220.81 335.16 220.51C334.07 219.73 333.82 218.22 334.6 217.13C339.63 210.08 347.77 209.19 353.2 210.57C354.5 210.9 355.28 212.22 354.95 213.51C354.62 214.81 353.3 215.59 352 215.26C348.05 214.25 342.15 214.88 338.54 219.94C338.07 220.6 337.32 220.96 336.57 220.96H336.56Z" fill="#1D1D1B"/>
<path d="M352.04 218.33C352.27 221.69 350.16 224.58 347.33 224.77C344.5 224.97 342.01 222.4 341.78 219.03C341.55 215.67 343.66 212.78 346.49 212.59C349.32 212.39 351.81 214.96 352.04 218.33Z" fill="#1D1D1B"/>
<path d="M324.07 282.32C315.33 282.32 305.38 279.11 296.16 273.14C295.04 272.41 294.72 270.91 295.44 269.79C296.17 268.67 297.67 268.35 298.79 269.07C309.72 276.14 321.57 279 330.49 276.71C336.06 275.28 340.31 271.91 343.13 266.69C343.77 265.51 345.23 265.07 346.41 265.71C347.59 266.34 348.03 267.81 347.39 268.99C343.95 275.36 338.53 279.65 331.69 281.41C329.3 282.02 326.74 282.32 324.07 282.32Z" fill="#1D1D1B"/>
<path d="M218.04 291.42C218.12 278.18 218.22 264.97 218.22 254.15C218.22 247.26 224.25 244.59 233.58 245.04C238.57 258.87 230.06 281.95 218.04 291.42Z" fill="url(#paint3_linear_7563_15530)"/>
<path d="M227.066 274.006C238.064 268.625 241.27 252.592 234.227 238.196C227.183 223.799 212.557 216.49 201.559 221.871C190.56 227.252 187.354 243.285 194.398 257.682C201.441 272.078 216.067 279.387 227.066 274.006Z" fill="white"/>
<path d="M210.93 246.251C210.22 246.251 209.53 245.901 209.12 245.251C208.49 244.251 208.8 242.931 209.79 242.311C214.16 239.571 218.4 238.501 222.5 237.481L222.64 237.441C223.78 237.151 224.94 237.851 225.23 238.991C225.52 240.131 224.82 241.291 223.68 241.581L223.54 241.621C219.59 242.611 215.86 243.541 212.06 245.931C211.71 246.151 211.32 246.261 210.93 246.261V246.251Z" fill="#1D1D1B"/>
<path d="M222.78 265.861C222.26 265.861 221.74 265.671 221.33 265.291C220.46 264.491 220.41 263.141 221.21 262.271C225.35 257.791 226.32 250.391 223.63 243.851C220.98 237.421 215.58 233.551 208.79 233.251C207.61 233.201 206.7 232.201 206.75 231.021C206.8 229.841 207.8 228.941 208.98 228.981C217.37 229.351 224.32 234.301 227.57 242.221C230.88 250.271 229.58 259.491 224.33 265.171C223.91 265.621 223.34 265.851 222.76 265.851L222.78 265.861Z" fill="#1D1D1B"/>
</g>
<defs>
<linearGradient id="paint0_linear_7563_15530" x1="326.88" y1="171.461" x2="368.56" y2="171.461" gradientUnits="userSpaceOnUse">
<stop stop-color="#57F287"/>
<stop offset="0.5" stop-color="#00EEB0"/>
<stop offset="1" stop-color="#00FFFF"/>
</linearGradient>
<linearGradient id="paint1_linear_7563_15530" x1="200.53" y1="124.41" x2="357.02" y2="124.41" gradientUnits="userSpaceOnUse">
<stop stop-color="#57F287"/>
<stop offset="0.5" stop-color="#00EEB0"/>
<stop offset="1" stop-color="#00FFFF"/>
</linearGradient>
<linearGradient id="paint2_linear_7563_15530" x1="175.84" y1="193" x2="247.04" y2="193" gradientUnits="userSpaceOnUse">
<stop stop-color="#57F287"/>
<stop offset="0.5" stop-color="#00EEB0"/>
<stop offset="1" stop-color="#00FFFF"/>
</linearGradient>
<linearGradient id="paint3_linear_7563_15530" x1="218.04" y1="268.2" x2="235.03" y2="268.2" gradientUnits="userSpaceOnUse">
<stop stop-color="#57F287"/>
<stop offset="0.5" stop-color="#00EEB0"/>
<stop offset="1" stop-color="#00FFFF"/>
</linearGradient>
<clipPath id="clip0_7563_15530">
<rect width="566.93" height="566.93" fill="white"/>
</clipPath>
</defs>
</svg>
