<svg width="567" height="567" viewBox="0 0 567 567" fill="none" xmlns="http://www.w3.org/2000/svg">
<g clip-path="url(#clip0_7563_15528)">
<path d="M566.93 0H0V566.93H566.93V0Z" fill="#E5E5E5"/>
<path d="M462.63 387.71C460.92 390.86 459.12 393.95 457.25 396.99C442.16 421.45 421.86 442.36 397.9 458.16C348.7 447.56 308.27 393.31 300.89 327.96C295.4 279.45 313.45 233.69 291.14 201.49C271.67 173.4 262.74 119.29 283.48 97.4499C287.52 93.1799 292.7 90.1499 299.15 88.7799C301.75 88.2299 304.28 87.8699 306.76 87.6799C314.56 87.0799 321.78 88.1999 328.41 90.5999C338.13 94.1099 346.6 100.37 353.81 107.99C364.24 119.02 372 132.93 377.15 145.5C390.58 178.37 418.79 187.98 431.05 226.01C444.25 266.93 418.32 300.53 451.8 363.69C456.44 372.43 460 380.42 462.62 387.71H462.63Z" fill="url(#paint0_linear_7563_15528)"/>
<path d="M311.62 159.58C294.1 192.67 238.73 220.25 252.64 276.13C264.52 323.89 269.25 342.86 279.41 383.71C290.72 429.19 270.68 469.56 243.01 484.92C188.6 471.64 143.07 435.71 116.97 387.69C112.01 378.58 107.76 369.04 104.29 359.13C108.49 305.44 162.44 274.29 165.79 196.76C166.92 170.28 171.78 148.53 179.52 131.16C182.59 124.3 186.09 118.12 190 112.61C203.95 92.9102 222.97 81.6002 244.78 77.6502C264.46 74.0802 280.08 78.4602 291.64 87.0202C295.83 90.1102 299.48 93.7402 302.6 97.7402C317.25 116.51 320.24 143.3 311.62 159.58Z" fill="url(#paint1_linear_7563_15528)"/>
<path d="M457.25 396.99C422.64 453.12 360.59 490.53 289.81 490.53C215.18 490.53 150.25 448.94 116.97 387.68C123.95 376.9 134.65 367.6 151.07 361.14C187.38 346.85 233.21 338.33 283.03 338.33C366.38 338.33 428.2 362.19 457.25 396.99Z" fill="#CCCCCC"/>
<path d="M312.75 421.381C346.1 421.381 330.88 372.791 330.71 356.281C330.47 333.811 330.46 300.211 329.67 287.521C327.11 246.571 231.86 224.531 231.86 251.531C231.86 278.531 231.64 329.271 231.86 349.741C232.07 370.111 272.54 421.381 312.76 421.381H312.75Z" fill="white"/>
<path d="M330.62 346.27C286.72 330.12 248.29 287.2 243.65 240.52C269.23 235.13 327.66 255.57 329.66 287.52C330.35 298.44 330.45 324.81 330.62 346.27Z" fill="#1D1D1B"/>
<path d="M228.81 217.6C234.09 258.06 271.02 315.64 321.73 306.01C357.9 299.14 371.39 258.82 357.46 208.74C345.79 166.76 353.62 163.6 342.7 145.89C331.45 127.65 303.33 107.86 268.79 130.42C241.17 148.46 223.68 178.28 228.81 217.6Z" fill="white"/>
<path d="M227.22 132.331C198.67 165.121 186.74 201.461 200.58 213.521C214.42 225.571 251.18 215.461 279.74 182.671C308.29 149.881 317.82 106.841 303.98 94.7906C290.14 82.7406 255.77 99.5406 227.22 132.331Z" fill="url(#paint2_linear_7563_15528)"/>
<path d="M314.01 239.45C312.92 239.45 311.95 238.68 311.75 237.57C311.52 236.32 312.34 235.12 313.59 234.88C318.27 234.01 321.74 232.28 323.11 230.14C323.84 229 324 227.7 323.61 226.16C322.38 221.31 320.65 216.5 318.82 211.42C317.5 207.76 316.14 203.97 314.8 199.76C314.42 198.55 315.09 197.25 316.3 196.87C317.51 196.48 318.81 197.16 319.19 198.37C320.5 202.5 321.85 206.24 323.15 209.87C325.02 215.07 326.78 219.97 328.07 225.04C328.78 227.84 328.41 230.4 326.98 232.63C324.31 236.8 318.68 238.62 314.42 239.42C314.28 239.45 314.14 239.46 314 239.46L314.01 239.45Z" fill="#1D1D1B"/>
<path d="M352.86 180.751C350.12 179.641 347.36 178.851 344.56 178.461C341.76 178.071 338.92 178.111 336.13 178.511C333.34 178.901 330.6 179.731 327.99 180.881C325.38 182.041 322.92 183.571 320.57 185.371L320.53 185.401C319.51 186.181 318.06 185.991 317.28 184.981C316.63 184.131 316.65 182.971 317.28 182.161C319.38 179.411 322.12 177.111 325.18 175.381C328.24 173.631 331.65 172.491 335.15 171.951C338.66 171.411 342.28 171.561 345.72 172.371C349.17 173.171 352.45 174.671 355.2 176.791C356.22 177.571 356.4 179.031 355.62 180.041C354.97 180.881 353.85 181.161 352.91 180.781L352.85 180.761L352.86 180.751Z" fill="#1D1D1B"/>
<path d="M250.37 201.89C252.23 198.37 254.82 195.23 257.87 192.57C258.66 191.94 259.42 191.26 260.24 190.68C260.65 190.39 261.07 190.1 261.49 189.82C261.91 189.54 262.33 189.25 262.78 189.01L264.11 188.26C264.55 188 264.99 187.76 265.46 187.55L266.85 186.92L267.55 186.61L268.27 186.35C272.07 184.87 276.18 184.1 280.26 184.16C284.34 184.24 288.39 185.06 292.01 186.73C293.18 187.27 293.69 188.65 293.15 189.81C292.71 190.76 291.71 191.28 290.72 191.14H290.66C287.17 190.64 283.78 190.39 280.42 190.65C277.07 190.89 273.79 191.57 270.63 192.69C269.06 193.27 267.53 193.96 266.03 194.74C265.27 195.11 264.58 195.61 263.84 196.01C263.11 196.44 262.44 196.96 261.73 197.43C258.96 199.41 256.46 201.8 254.19 204.46L254.17 204.49C253.34 205.46 251.88 205.58 250.91 204.75C250.07 204.03 249.87 202.84 250.37 201.91V201.89Z" fill="#1D1D1B"/>
<path d="M334.21 247.06C335.34 253.42 327.64 260.94 317.02 262.46C306.4 263.99 294.77 258.85 293.64 252.5C293.11 249.54 304.59 246.66 315.21 245.14C325.83 243.62 333.66 244 334.21 247.06Z" fill="white"/>
<path d="M312.01 260.801C303.35 260.801 295.1 257.671 289.85 252.391C288.93 251.471 288.94 249.981 289.86 249.061C290.78 248.141 292.27 248.151 293.19 249.071C297.65 253.561 304.86 256.191 312.4 256.091C320.31 255.991 327.41 253.031 332.4 247.751C333.29 246.811 334.78 246.761 335.73 247.661C336.67 248.551 336.72 250.041 335.82 250.991C329.95 257.201 321.65 260.691 312.46 260.801C312.31 260.801 312.16 260.801 312.01 260.801Z" fill="#1D1D1B"/>
<path d="M268.61 216.14C268.38 216.14 268.15 216.1 267.92 216.02C266.84 215.64 266.27 214.45 266.65 213.37C269.12 206.41 273.53 203.53 276.79 202.34C282.55 200.24 288.54 201.81 291.92 203.79C292.91 204.37 293.24 205.64 292.66 206.64C292.08 207.63 290.81 207.96 289.81 207.38C287.01 205.73 282.33 204.74 278.21 206.25C274.68 207.54 272.11 210.4 270.56 214.77C270.26 215.62 269.46 216.16 268.6 216.16L268.61 216.14Z" fill="#1D1D1B"/>
<path d="M285.67 209.26C286.39 212.72 284.69 216 281.88 216.58C279.07 217.16 276.2 214.82 275.48 211.36C274.76 207.9 276.46 204.62 279.27 204.04C282.08 203.46 284.95 205.8 285.67 209.26Z" fill="#1D1D1B"/>
<path d="M326.6 202.68C326.37 202.68 326.14 202.64 325.91 202.56C324.83 202.18 324.26 200.99 324.64 199.91C327.11 192.95 331.52 190.07 334.78 188.88C340.54 186.78 346.53 188.35 349.91 190.33C350.9 190.91 351.23 192.18 350.65 193.18C350.07 194.17 348.79 194.5 347.81 193.92C345.01 192.27 340.33 191.29 336.21 192.79C332.68 194.08 330.11 196.94 328.56 201.31C328.26 202.16 327.46 202.7 326.6 202.7V202.68Z" fill="#1D1D1B"/>
<path d="M343.66 195.8C344.38 199.26 342.68 202.54 339.87 203.12C337.06 203.7 334.19 201.36 333.47 197.9C332.75 194.44 334.45 191.16 337.26 190.58C340.07 190 342.94 192.34 343.66 195.8Z" fill="#1D1D1B"/>
<path d="M243.69 240.51C242.9 250.6 237.95 261.84 231.82 268.12C231.83 262.09 231.84 256.46 231.84 251.54C231.84 245.59 236.46 242.02 243.68 240.51H243.69Z" fill="#1D1D1B"/>
<path d="M235.045 254.427C246.43 249.516 250.855 234.395 244.927 220.652C239 206.908 224.966 199.748 213.581 204.658C202.195 209.568 197.771 224.69 203.698 238.433C209.626 252.176 223.66 259.337 235.045 254.427Z" fill="white"/>
<path d="M220.1 228.991C219.45 228.991 218.8 228.711 218.36 228.161C217.59 227.201 217.74 225.801 218.7 225.021C222.9 221.631 227.18 220.001 231.31 218.431L231.45 218.381C232.6 217.941 233.89 218.521 234.33 219.671C234.77 220.821 234.19 222.111 233.04 222.551L232.9 222.601C228.92 224.121 225.16 225.551 221.5 228.501C221.09 228.831 220.59 228.991 220.1 228.991Z" fill="#1D1D1B"/>
<path d="M233.26 245.16C232.76 245.16 232.27 245 231.85 244.66C230.89 243.88 230.75 242.47 231.53 241.52C235.76 236.33 236.28 228.06 232.73 222.29C230.91 219.32 226.49 214.63 217.37 216.62C216.17 216.88 214.98 216.12 214.71 214.91C214.45 213.71 215.21 212.52 216.42 212.25C225.04 210.37 232.37 213.18 236.53 219.95C241.09 227.38 240.44 237.64 234.98 244.34C234.54 244.88 233.9 245.16 233.25 245.16H233.26Z" fill="#1D1D1B"/>
<path d="M362.68 239.29C361.22 239.84 359.63 240.15 357.97 240.15C350.58 240.15 344.59 234.16 344.59 226.76C344.59 219.36 350.58 213.38 357.97 213.38C358.22 213.38 358.46 213.39 358.7 213.39C360.94 222.43 362.26 231.1 362.69 239.29H362.68Z" fill="#DADADA"/>
<path d="M271.81 257.72C279.205 257.72 285.2 251.726 285.2 244.33C285.2 236.935 279.205 230.94 271.81 230.94C264.415 230.94 258.42 236.935 258.42 244.33C258.42 251.726 264.415 257.72 271.81 257.72Z" fill="#DADADA"/>
</g>
<defs>
<linearGradient id="paint0_linear_7563_15528" x1="271.62" y1="272.84" x2="462.63" y2="272.84" gradientUnits="userSpaceOnUse">
<stop stop-color="#57F287"/>
<stop offset="0.5" stop-color="#00EEB0"/>
<stop offset="1" stop-color="#00FFFF"/>
</linearGradient>
<linearGradient id="paint1_linear_7563_15528" x1="104.3" y1="280.66" x2="316.41" y2="280.66" gradientUnits="userSpaceOnUse">
<stop stop-color="#57F287"/>
<stop offset="0.5" stop-color="#00EEB0"/>
<stop offset="1" stop-color="#00FFFF"/>
</linearGradient>
<linearGradient id="paint2_linear_7563_15528" x1="194.82" y1="154.661" x2="310.25" y2="154.661" gradientUnits="userSpaceOnUse">
<stop stop-color="#57F287"/>
<stop offset="0.5" stop-color="#00EEB0"/>
<stop offset="1" stop-color="#00FFFF"/>
</linearGradient>
<clipPath id="clip0_7563_15528">
<rect width="566.93" height="566.93" fill="white"/>
</clipPath>
</defs>
</svg>
