<svg width="567" height="567" viewBox="0 0 567 567" fill="none" xmlns="http://www.w3.org/2000/svg">
<g clip-path="url(#clip0_7563_15526)">
<path d="M566.93 0H0V566.93H566.93V0Z" fill="#E5E5E5"/>
<path d="M460.25 376.24C429.14 440.75 363.11 485.26 286.7 485.26C204.49 485.26 134.31 433.75 106.69 361.23C149.6 345.64 205.48 336.2 266.56 336.2C345.33 336.2 415.43 351.88 460.25 376.25V376.24Z" fill="#CCCCCC"/>
<path d="M294.49 433.02C319.47 433.16 336.16 390.97 337.63 376.15C339.41 358.21 338.67 324.4 337.93 304.66C336.47 265.68 222.34 215.42 222.34 245C222.34 271.57 221.71 312.97 222.34 332.24C222.99 352.04 231.47 375.26 248.75 399.75C264.01 421.38 281.09 432.95 294.49 433.02Z" fill="white"/>
<path d="M338.46 362.351C305.66 354.581 259.25 322.061 247.83 284.791C242 265.781 241.66 251.081 241.39 236.511C273.92 240.711 336.84 275.791 337.92 304.671C338.5 320.081 339.08 344.041 338.46 362.361V362.351Z" fill="#1D1D1B"/>
<path d="M237.21 274.85C252.95 311.27 290.73 330.16 332.51 322.26C368.46 315.46 385.77 289.36 367.15 228.07C355.62 190.1 367.01 165.62 345.59 140.21C318.15 107.68 251.64 126.24 229.74 164.44C207.43 203.37 222.58 241 237.21 274.85Z" fill="white"/>
<path d="M321.36 250.63C321.06 250.63 320.76 250.62 320.46 250.6C319.16 250.51 318.18 249.38 318.28 248.08C318.37 246.78 319.5 245.81 320.8 245.9C324.09 246.14 328.82 244.17 331.36 241.52C332.28 240.55 333.34 239.05 333.14 237.39C332.75 234.14 330.76 231.21 328.23 227.5C326.46 224.9 324.45 221.96 322.72 218.41C322.15 217.24 322.63 215.83 323.8 215.26C324.97 214.69 326.38 215.17 326.95 216.34C328.54 219.59 330.36 222.26 332.12 224.85C334.78 228.76 337.3 232.45 337.82 236.84C338.15 239.6 337.09 242.35 334.77 244.78C331.44 248.27 325.94 250.64 321.36 250.64V250.63Z" fill="#1D1D1B"/>
<path d="M360.148 195.778C357.998 195.488 355.958 195.298 353.878 195.238C351.808 195.168 349.738 195.218 347.658 195.368C345.578 195.518 343.508 195.758 341.428 196.058C339.338 196.358 337.278 196.738 335.058 197.128L334.878 197.158C333.538 197.388 332.268 196.498 332.038 195.158C331.898 194.378 332.158 193.618 332.648 193.068C334.518 191.048 336.898 189.658 339.378 188.678C341.868 187.698 344.498 187.178 347.148 187.038C349.798 186.898 352.488 187.138 355.108 187.838C357.708 188.558 360.268 189.718 362.338 191.608C363.328 192.518 363.398 194.058 362.498 195.048C361.938 195.658 361.148 195.918 360.388 195.818L360.158 195.788L360.148 195.778Z" fill="#1D1D1B"/>
<path d="M302.885 202.054C301.615 202.874 300.365 203.494 299.115 204.134C297.865 204.764 296.625 205.344 295.385 205.924C294.145 206.494 292.905 207.024 291.675 207.574C290.435 208.094 289.205 208.624 287.985 209.164C285.545 210.254 283.145 211.384 280.815 212.614C280.245 212.934 279.665 213.244 279.075 213.564C278.505 213.884 277.945 214.234 277.355 214.544C276.795 214.894 276.235 215.244 275.645 215.584C275.095 215.944 274.535 216.314 273.915 216.674L273.625 216.844C272.475 217.514 270.995 217.124 270.325 215.974C269.915 215.274 269.905 214.434 270.225 213.744C270.565 213.004 270.945 212.264 271.355 211.554C271.795 210.884 272.255 210.194 272.755 209.544C273.265 208.924 273.795 208.294 274.335 207.694C274.905 207.134 275.475 206.554 276.065 206.004C278.455 203.854 281.125 202.114 283.925 200.704C284.625 200.344 285.345 200.044 286.055 199.704C286.765 199.374 287.505 199.124 288.225 198.834C289.695 198.324 291.195 197.874 292.725 197.574C294.255 197.264 295.805 197.074 297.385 197.014C298.955 196.964 300.555 197.044 302.145 197.384C303.505 197.674 304.375 199.014 304.075 200.384C303.925 201.064 303.525 201.614 302.985 201.964L302.855 202.044L302.885 202.054Z" fill="#1D1D1B"/>
<path d="M277.893 226.398C277.609 226.342 277.334 226.237 277.072 226.064C275.977 225.36 275.661 223.902 276.365 222.807C281.452 214.888 291.078 213.451 297.445 216.634C298.604 217.218 299.08 218.636 298.497 219.796C297.913 220.955 296.495 221.431 295.335 220.848C291.531 218.941 284.36 219.085 280.331 225.347C279.789 226.189 278.818 226.569 277.895 226.388L277.893 226.398Z" fill="#1D1D1B"/>
<path d="M295.03 221.681C295.63 224.911 293.91 227.931 291.19 228.431C288.47 228.931 285.78 226.731 285.18 223.501C284.58 220.271 286.3 217.251 289.02 216.751C291.74 216.241 294.43 218.451 295.03 221.681Z" fill="#1D1D1B"/>
<path d="M340.36 211.649C339.89 211.649 339.41 211.509 338.99 211.209C337.93 210.449 337.68 208.979 338.44 207.919C343.34 201.049 351.25 200.189 356.54 201.539C357.8 201.859 358.56 203.139 358.24 204.409C357.92 205.669 356.64 206.429 355.37 206.109C351.53 205.129 345.79 205.739 342.27 210.659C341.81 211.299 341.08 211.649 340.35 211.649H340.36Z" fill="#1D1D1B"/>
<path d="M352.57 210.141C352.8 213.411 350.74 216.221 347.98 216.411C345.22 216.601 342.8 214.101 342.58 210.831C342.35 207.561 344.41 204.751 347.17 204.561C349.93 204.371 352.35 206.871 352.57 210.141Z" fill="#1D1D1B"/>
<path d="M222.16 281.271C222.24 268.381 222.33 255.531 222.33 244.991C222.33 238.291 228.19 235.691 237.28 236.121C242.14 249.581 233.86 272.041 222.16 281.261V281.271Z" fill="url(#paint0_linear_7563_15526)"/>
<path d="M355.83 129.44C335.05 90.7205 285.47 75.9005 252.41 83.6605C213.27 92.8505 184.98 116.29 184.98 153.17C184.98 188.1 198.36 219.18 206.64 235.23C209.5 240.77 215.09 243.08 218.84 242.13C225.47 240.44 244.6 234.28 244.63 221.2C244.64 215.57 240.65 193.34 238.92 178.31C237.1 162.49 250.05 148.86 265.93 149.85C287.84 151.22 313.6 147.94 330.09 141.29C337.75 138.2 345.59 140.78 349.86 147.85C357.47 160.46 358.93 173.4 359.42 179.82C360.52 194.37 361.24 203.33 363.08 212.56C364.27 218.54 367.79 211.98 368.53 201.88C369.28 191.69 372.94 161.34 355.82 129.44H355.83Z" fill="url(#paint1_linear_7563_15526)"/>
<path d="M230.947 264.324C241.653 259.086 244.775 243.483 237.921 229.474C231.067 215.464 216.831 208.353 206.126 213.59C195.42 218.828 192.298 234.431 199.152 248.441C206.006 262.451 220.241 269.562 230.947 264.324Z" fill="white"/>
<path d="M215.24 237.311C214.55 237.311 213.87 236.97 213.48 236.34C212.87 235.37 213.16 234.09 214.14 233.48C218.4 230.81 222.52 229.781 226.51 228.781L226.65 228.751C227.76 228.471 228.89 229.15 229.17 230.26C229.45 231.37 228.77 232.501 227.66 232.781L227.52 232.81C223.67 233.77 220.04 234.681 216.34 237.001C216 237.221 215.62 237.321 215.24 237.321V237.311Z" fill="#1D1D1B"/>
<path d="M226.77 256.401C226.27 256.401 225.76 256.221 225.36 255.851C224.52 255.071 224.47 253.761 225.25 252.911C229.28 248.551 230.23 241.351 227.61 234.981C225.04 228.721 219.77 224.961 213.17 224.661C212.02 224.611 211.14 223.641 211.19 222.491C211.24 221.341 212.22 220.451 213.36 220.511C221.52 220.871 228.29 225.691 231.46 233.401C234.68 241.241 233.41 250.211 228.31 255.731C227.9 256.171 227.34 256.401 226.78 256.401H226.77Z" fill="#1D1D1B"/>
<path d="M347.57 258.231C347.94 264.341 339.34 270.661 328.31 270.511C316.94 270.361 308.07 266.781 307.69 260.681C307.32 254.571 315.68 257.911 326.69 257.231C337.7 256.551 347.19 252.121 347.56 258.231H347.57Z" fill="white"/>
<path d="M304.684 275.561C294.54 272.933 284.588 267.38 278.049 260.49C277.026 259.409 277.189 257.964 278.41 257.268C279.633 256.562 281.45 256.867 282.462 257.945C289.472 265.35 300.986 270.977 311.79 272.277C317.065 272.91 324.554 272.774 330.272 268.491C331.367 267.669 333.188 267.81 334.34 268.801C335.492 269.791 335.534 271.259 334.439 272.08C328.752 276.341 320.855 278.003 311.609 276.89C309.31 276.614 306.99 276.168 304.682 275.57L304.684 275.561Z" fill="#1D1D1B"/>
</g>
<defs>
<linearGradient id="paint0_linear_7563_15526" x1="222.16" y1="258.681" x2="238.7" y2="258.681" gradientUnits="userSpaceOnUse">
<stop stop-color="#57F287"/>
<stop offset="0.5" stop-color="#00EEB0"/>
<stop offset="1" stop-color="#00FFFF"/>
</linearGradient>
<linearGradient id="paint1_linear_7563_15526" x1="184.98" y1="162.01" x2="369.38" y2="162.01" gradientUnits="userSpaceOnUse">
<stop stop-color="#57F287"/>
<stop offset="0.5" stop-color="#00EEB0"/>
<stop offset="1" stop-color="#00FFFF"/>
</linearGradient>
<clipPath id="clip0_7563_15526">
<rect width="566.93" height="566.93" fill="white"/>
</clipPath>
</defs>
</svg>
