<svg width="567" height="567" viewBox="0 0 567 567" fill="none" xmlns="http://www.w3.org/2000/svg">
<g clip-path="url(#clip0_7563_15525)">
<path d="M566.93 0H0V566.93H566.93V0Z" fill="#E5E5E5"/>
<path d="M455.92 393.4C386.52 515.98 186.26 520.82 111.01 401.6C135.45 304.52 415.1 331.85 455.92 393.4Z" fill="#CCCCCC"/>
<path d="M397.6 225.36C397.6 237.33 391.95 246.06 389.08 255.43C386.12 265.06 384.69 273.64 379.74 281.25C374.23 289.7 366.05 294.32 358.39 299.14C350.73 303.96 344.67 311.62 335.13 314.6C325.16 317.72 311.77 308.91 300.09 310.27C289.44 311.51 280.09 320.06 268.31 320.06C258.47 320.06 249.94 312.77 240.45 311.92C228.18 310.82 215.12 315.84 203.98 313.08C195.6 311 186.46 300.7 179.02 297.56C167.16 292.55 157.83 293.83 149.25 285.74C140.95 277.91 144.17 268.41 139.95 257.29C136.39 247.89 128.56 243.54 127.65 231.56C126.9 221.8 132.35 215.44 133.99 207.56C135.8 198.86 131.02 193.41 133.1 185.15C134.8 178.37 141.47 177.57 144.32 170.08C146.62 164.03 145.96 152.22 148.39 147.36C153.38 137.39 158.16 138.47 162.92 131.46C168.29 123.56 165.72 118.25 170.08 112.65C173.56 108.18 179.06 107.71 184.1 104.18C189.32 100.52 189.55 95.41 193.84 91.95C197.45 89.04 205.5 88.89 209.6 85.95C214.44 82.48 215.59 78.05 222.35 74.61C229.8 70.81 238.37 75.29 248.52 72.03C259.89 68.37 259.63 64.46 274.28 64.46C285.8 64.46 290.31 69.91 305.78 75.62C316.66 79.64 321.9 76.91 333.21 84.38C343.65 91.27 343.98 97.88 352.15 105.63C360.09 113.17 365.72 113.01 372.28 123.86C377.44 132.41 377.86 139.47 380.93 148.98C383.61 157.31 389.35 161.47 391.93 173.85C394.52 186.32 392.23 192.6 392.71 200.12C393.31 209.34 397.63 216.49 397.63 225.37L397.6 225.36Z" fill="url(#paint0_linear_7563_15525)"/>
<path d="M303.7 423.11C337.09 423.11 321.86 374.46 321.68 357.93C321.44 335.43 321.43 301.79 320.64 289.08C318.08 248.08 222.7 226.01 222.7 253.04C222.7 280.07 222.48 330.88 222.7 351.37C222.92 371.76 263.44 423.1 303.7 423.1V423.11Z" fill="white"/>
<path d="M321.6 347.91C277.65 331.74 239.17 288.76 234.52 242.02C260.13 236.62 318.64 257.09 320.64 289.08C321.33 300.01 321.43 326.41 321.6 347.91Z" fill="#1D1D1B"/>
<path d="M219.66 219.07C224.94 259.58 261.92 317.23 312.7 307.59C348.92 300.71 362.42 260.34 348.48 210.2C338.7 175.04 344.05 166.38 337.72 155.03C328.76 138.96 310.87 135.55 302.18 136.6C295.6 137.39 292.54 140.28 285.02 141.31C277.36 142.35 271.87 139.35 263.25 144.97C256.95 149.08 256.58 156.03 251.42 160.98C245.69 166.48 236.27 165.44 232.37 172.18C228.38 179.09 231.85 189.85 230.28 198.3C228.71 206.75 218.32 208.86 219.65 219.07H219.66Z" fill="white"/>
<path d="M304.96 240.95C303.87 240.95 302.9 240.18 302.7 239.07C302.47 237.82 303.29 236.61 304.54 236.38C308.57 235.63 313.86 233.33 315.96 230.04C316.77 228.78 316.99 227.52 316.65 226.18C315.63 222.15 313.7 218.46 311.67 214.55C309.58 210.54 307.41 206.39 305.77 201.2C305.38 199.99 306.06 198.69 307.27 198.3C308.48 197.91 309.78 198.59 310.17 199.8C311.69 204.6 313.76 208.57 315.77 212.41C317.94 216.56 319.98 220.48 321.14 225.04C321.79 227.61 321.35 230.19 319.86 232.52C316.81 237.29 310.17 240.02 305.4 240.9C305.26 240.93 305.12 240.94 304.98 240.94L304.96 240.95Z" fill="#1D1D1B"/>
<path d="M343.86 182.17C341.2 180.92 338.44 180.03 335.6 179.59C334.89 179.48 334.18 179.43 333.47 179.34C332.76 179.28 332.04 179.29 331.33 179.25C330.62 179.25 329.9 179.3 329.19 179.32C328.48 179.38 327.77 179.49 327.06 179.56C324.22 179.97 321.45 180.82 318.83 182.05C316.21 183.28 313.77 184.9 311.54 186.81L311.52 186.83C310.55 187.66 309.09 187.55 308.26 186.58C307.51 185.71 307.53 184.44 308.24 183.59C310.46 180.94 313.22 178.73 316.29 177.06C319.35 175.38 322.73 174.26 326.2 173.74C327.07 173.64 327.94 173.53 328.82 173.47C329.7 173.45 330.58 173.41 331.45 173.43C332.33 173.5 333.21 173.53 334.08 173.64C334.95 173.78 335.82 173.89 336.68 174.08C340.11 174.83 343.39 176.23 346.23 178.21C347.28 178.94 347.53 180.38 346.8 181.43C346.15 182.37 344.92 182.67 343.92 182.2L343.88 182.18L343.86 182.17Z" fill="#1D1D1B"/>
<path d="M241.24 203.35C243.2 199.9 245.83 196.8 248.89 194.2C249.68 193.58 250.44 192.92 251.27 192.35L252.52 191.51C252.94 191.23 253.36 190.94 253.8 190.71L255.12 189.97C255.56 189.72 256 189.47 256.47 189.27L257.86 188.65L258.55 188.34L259.26 188.08C263.04 186.63 267.11 185.87 271.17 185.87C275.22 185.89 279.26 186.65 282.93 188.17C284.11 188.66 284.67 190.01 284.19 191.19C283.76 192.22 282.68 192.78 281.63 192.58H281.58C278.13 191.93 274.71 191.6 271.32 191.82C267.94 192 264.6 192.69 261.42 193.84C259.83 194.43 258.29 195.13 256.79 195.94C256.03 196.32 255.34 196.82 254.59 197.24C253.86 197.68 253.19 198.21 252.48 198.7C249.72 200.74 247.25 203.19 245.07 205.92L245.05 205.94C244.25 206.94 242.8 207.1 241.8 206.31C240.9 205.59 240.68 204.33 241.23 203.36L241.24 203.35Z" fill="#1D1D1B"/>
<path d="M259.51 217.61C259.28 217.61 259.04 217.57 258.81 217.49C257.73 217.11 257.16 215.92 257.54 214.83C260.01 207.86 264.43 204.98 267.7 203.78C273.47 201.67 279.46 203.25 282.85 205.23C283.84 205.81 284.17 207.09 283.59 208.08C283.01 209.07 281.73 209.4 280.74 208.82C277.93 207.17 273.25 206.18 269.13 207.69C265.6 208.98 263.02 211.85 261.47 216.22C261.17 217.07 260.37 217.61 259.51 217.61Z" fill="#1D1D1B"/>
<path d="M276.59 210.72C277.31 214.19 275.61 217.47 272.79 218.05C269.97 218.63 267.1 216.29 266.38 212.82C265.66 209.35 267.36 206.07 270.18 205.49C273 204.91 275.87 207.25 276.59 210.72Z" fill="#1D1D1B"/>
<path d="M319.8 202.02C319.57 202.02 319.33 201.98 319.1 201.9C318.02 201.52 317.45 200.33 317.83 199.24C319.86 193.51 323.5 191.14 326.2 190.15C330.95 188.42 335.89 189.71 338.67 191.34C339.66 191.92 339.99 193.2 339.41 194.19C338.83 195.18 337.55 195.51 336.56 194.93C334.4 193.66 330.8 192.9 327.62 194.06C324.92 195.05 322.94 197.26 321.74 200.63C321.44 201.48 320.64 202.02 319.78 202.02H319.8Z" fill="#1D1D1B"/>
<path d="M334.65 197.24C335.37 200.71 333.67 203.99 330.85 204.57C328.03 205.15 325.16 202.81 324.44 199.34C323.72 195.87 325.42 192.59 328.24 192.01C331.06 191.43 333.93 193.77 334.65 197.24Z" fill="#1D1D1B"/>
<path d="M234.56 242.01C233.77 252.12 228.82 263.37 222.68 269.66C222.69 263.62 222.7 257.99 222.7 253.06C222.7 247.11 227.32 243.53 234.56 242.02V242.01Z" fill="#1D1D1B"/>
<path d="M225.896 255.939C237.291 251.025 241.717 235.883 235.781 222.12C229.845 208.356 215.795 201.183 204.4 206.097C193.005 211.012 188.579 226.154 194.515 239.917C200.451 253.681 214.501 260.854 225.896 255.939Z" fill="white"/>
<path d="M210.93 230.48C210.28 230.48 209.63 230.2 209.19 229.65C208.41 228.69 208.57 227.28 209.53 226.51C213.74 223.11 218.02 221.49 222.15 219.91L222.29 219.86C223.44 219.42 224.74 220 225.17 221.15C225.61 222.3 225.03 223.59 223.88 224.03L223.74 224.09C219.75 225.61 215.99 227.04 212.33 229.99C211.92 230.32 211.42 230.49 210.93 230.49V230.48Z" fill="#1D1D1B"/>
<path d="M224.12 246.67C223.62 246.67 223.12 246.51 222.71 246.17C221.75 245.39 221.61 243.98 222.39 243.03C226.63 237.83 227.15 229.56 223.6 223.78C221.77 220.81 217.35 216.11 208.22 218.1C207.01 218.36 205.82 217.6 205.56 216.39C205.3 215.18 206.06 213.99 207.27 213.73C215.9 211.85 223.24 214.66 227.41 221.44C231.98 228.88 231.33 239.15 225.86 245.86C225.42 246.4 224.77 246.68 224.13 246.68L224.12 246.67Z" fill="#1D1D1B"/>
<path d="M327.62 246.1C328.71 252.46 322.33 262.09 310.4 263.89C298.47 265.7 283.15 258.97 282.06 252.61C281.55 249.65 294.48 246.46 306.41 244.65C318.34 242.84 327.1 243.03 327.63 246.1H327.62Z" fill="white"/>
<path d="M305.17 262.69C295.78 262.69 285.56 259.58 276.78 253.82C275.72 253.12 275.42 251.69 276.12 250.63C276.82 249.57 278.25 249.27 279.31 249.97C290.2 257.12 303.38 259.82 313.71 257.01C320.09 255.28 324.83 251.6 327.42 246.37C327.99 245.23 329.37 244.76 330.51 245.33C331.65 245.9 332.12 247.28 331.55 248.42C328.35 254.87 322.6 259.38 314.91 261.47C311.84 262.3 308.55 262.71 305.16 262.71L305.17 262.69Z" fill="#1D1D1B"/>
</g>
<defs>
<linearGradient id="paint0_linear_7563_15525" x1="127.58" y1="192.25" x2="397.6" y2="192.25" gradientUnits="userSpaceOnUse">
<stop stop-color="#57F287"/>
<stop offset="0.5" stop-color="#00EEB0"/>
<stop offset="1" stop-color="#00FFFF"/>
</linearGradient>
<clipPath id="clip0_7563_15525">
<rect width="566.93" height="566.93" fill="white"/>
</clipPath>
</defs>
</svg>
