<svg width="567" height="567" viewBox="0 0 567 567" fill="none" xmlns="http://www.w3.org/2000/svg">
<g clip-path="url(#clip0_7564_15918)">
<path d="M566.93 0H0V566.93H566.93V0Z" fill="#E5E5E5"/>
<path d="M460.94 387.33C427.03 448.51 361.8 489.92 286.91 489.92C206.58 489.92 137.38 442.29 106 373.73C144.82 359.6 202.9 353.66 276.2 353.66C349.5 353.66 414.55 366.59 460.95 387.33H460.94Z" fill="#CCCCCC"/>
<path d="M360.53 219.329C370.75 222.439 376.2 217.349 376.44 205.409C376.66 194.329 376.7 165.449 371.74 146.779C369.28 137.509 362.26 121.969 351.99 119.259C342.13 116.659 337.01 127.479 337.19 139.119C337.47 156.989 348.35 215.619 360.52 219.319L360.53 219.329Z" fill="url(#paint0_linear_7564_15918)"/>
<path d="M296.24 456.399C323.74 456.549 341.43 428.319 343.04 412.249C345 392.799 344.06 338.789 344.06 317.229C344.06 274.939 216.8 220.479 216.8 252.549C216.8 281.359 216.11 326.249 216.8 347.139C217.51 368.609 226.85 393.779 245.88 420.329C262.68 443.779 281.48 456.319 296.24 456.399Z" fill="white"/>
<path d="M343.9 397.5C312.52 385.14 264.45 357.65 232.76 304.21C222.41 286.74 217.92 274.57 216.77 265.71C216.32 262.23 216.38 259.26 216.8 256.68C217.73 251 220.41 247.22 223.18 244.04C248.93 235.01 344.07 280.68 344.07 317.24C344.07 334.61 344.69 373.05 343.91 397.5H343.9Z" fill="black"/>
<path d="M234.87 284.919C251.94 324.409 292.89 344.889 338.19 336.319C377.16 328.939 395.93 300.649 375.75 234.199C363.24 193.039 376.86 173.879 353.63 146.339C323.88 111.069 250.51 123.809 226.77 165.219C202.58 207.429 219 248.219 234.87 284.919Z" fill="white"/>
<path d="M234.74 157.14C256.6 164.73 306.08 168.3 335.95 155.85C367.17 142.84 375.66 94.0797 363.75 83.6797C356.37 77.2397 352.34 81.3497 341.62 77.2497C329.06 72.4497 328.7 66.6597 320.06 64.9197C307.69 62.4397 304.14 69.9597 292.02 74.3597C279.16 79.0197 275.92 72.1896 267.11 74.0196C260.53 75.3796 255.53 82.1897 249.27 84.1097C242.07 86.3197 235.1 85.8897 226.35 88.8497C210.4 94.2397 195.55 109.93 198.83 126.7C201.47 140.22 218.78 151.59 234.75 157.13L234.74 157.14Z" fill="url(#paint1_linear_7564_15918)"/>
<path d="M212.08 250.079C219.18 247.939 248.44 236.989 243.75 223.599C232.8 192.339 241.8 162.169 239.95 142.779C238.26 125.039 203.84 128.979 189.5 133.939C177.4 138.119 173.42 145.049 174.3 159.759C175.64 182.329 187.63 225.489 196.6 242.889C199.7 248.899 206 251.909 212.09 250.079H212.08Z" fill="url(#paint2_linear_7564_15918)"/>
<path d="M334.18 258.639C333.28 258.639 332.4 258.159 331.94 257.309C331.26 256.069 331.72 254.519 332.96 253.839C342.1 248.839 342.21 245.389 341.11 242.669C339.27 238.109 336 231.699 332.84 225.509C331.19 222.279 329.48 218.929 327.96 215.809C327.34 214.539 327.87 213.009 329.13 212.389C330.4 211.769 331.93 212.299 332.55 213.559C334.05 216.639 335.75 219.959 337.39 223.179C340.75 229.759 343.92 235.979 345.85 240.749C349.76 250.459 338.96 256.369 335.41 258.319C335.02 258.529 334.6 258.629 334.19 258.629L334.18 258.639Z" fill="black"/>
<path d="M366.84 196.41C364.49 196.24 362.27 196.18 360.02 196.27C357.78 196.34 355.53 196.54 353.3 196.84C351.06 197.14 348.83 197.56 346.6 198.02C344.36 198.49 342.16 199.05 339.78 199.62L339.59 199.67C338.16 200.01 336.72 199.13 336.38 197.7C336.18 196.87 336.4 196.03 336.9 195.41C338.77 193.09 341.26 191.42 343.87 190.19C346.49 188.96 349.3 188.2 352.17 187.87C355.03 187.53 357.96 187.6 360.84 188.18C363.7 188.77 366.56 189.85 368.93 191.75C370.07 192.66 370.25 194.32 369.34 195.46C368.78 196.16 367.94 196.5 367.11 196.44L366.86 196.42L366.84 196.41Z" fill="black"/>
<path d="M300.56 209.68C299.85 210.11 299.14 210.48 298.43 210.81C297.72 211.15 297.02 211.49 296.32 211.77C295.62 212.07 294.93 212.38 294.23 212.64C293.54 212.92 292.85 213.2 292.16 213.46C291.47 213.72 290.79 214 290.11 214.23C289.43 214.49 288.75 214.73 288.07 214.98C287.39 215.22 286.72 215.48 286.04 215.7L284.02 216.44C281.33 217.45 278.67 218.53 275.99 219.7C275.33 220.01 274.64 220.29 273.97 220.59C273.29 220.9 272.61 221.2 271.92 221.49C271.24 221.81 270.54 222.11 269.83 222.4C269.13 222.71 268.41 223.01 267.67 223.29L267.54 223.34C266.16 223.85 264.64 223.14 264.13 221.77C263.82 220.93 263.97 220.01 264.45 219.32C264.93 218.63 265.45 217.97 265.98 217.32C266.53 216.69 267.1 216.07 267.68 215.47C268.27 214.88 268.89 214.31 269.51 213.74C270.15 213.2 270.8 212.66 271.46 212.14C274.13 210.08 277.09 208.37 280.2 207.02C280.98 206.7 281.77 206.38 282.56 206.08C283.36 205.8 284.16 205.52 284.97 205.29C286.6 204.84 288.24 204.47 289.9 204.25C290.73 204.16 291.56 204.05 292.4 204.01C293.24 203.97 294.07 203.95 294.91 203.97C295.75 204 296.59 204.06 297.42 204.15C298.26 204.26 299.1 204.41 299.93 204.62C301.4 204.99 302.29 206.47 301.93 207.94C301.75 208.67 301.29 209.26 300.69 209.62L300.58 209.69L300.56 209.68Z" fill="black"/>
<path d="M280.25 234.269C279.94 234.269 279.62 234.209 279.31 234.089C278 233.569 277.36 232.079 277.88 230.769C281.64 221.289 291.58 217.749 299.02 219.809C300.38 220.189 301.18 221.589 300.8 222.959C300.42 224.319 299.02 225.119 297.65 224.739C293.21 223.509 285.6 225.149 282.62 232.659C282.22 233.659 281.26 234.269 280.24 234.269H280.25Z" fill="black"/>
<path d="M297.56 227.27C298.21 230.77 296.35 234.05 293.4 234.59C290.45 235.14 287.54 232.75 286.89 229.25C286.24 225.75 288.1 222.47 291.05 221.93C294 221.39 296.91 223.77 297.56 227.27Z" fill="black"/>
<path d="M343.61 217.539C343.1 217.539 342.58 217.389 342.13 217.059C340.98 216.239 340.71 214.639 341.53 213.489C346.84 206.049 355.42 205.109 361.15 206.569C362.52 206.919 363.35 208.309 363 209.679C362.65 211.049 361.26 211.869 359.89 211.529C355.72 210.469 349.5 211.129 345.69 216.469C345.19 217.169 344.41 217.539 343.61 217.539Z" fill="black"/>
<path d="M359.95 214.769C360.19 218.319 357.97 221.359 354.98 221.569C351.99 221.779 349.37 219.069 349.12 215.519C348.88 211.969 351.1 208.929 354.09 208.719C357.08 208.509 359.7 211.219 359.95 214.769Z" fill="black"/>
<path d="M216.61 291.88C216.7 277.91 216.8 263.97 216.8 252.55C216.8 245.28 223.26 242.47 233.26 242.94C238.61 257.53 229.49 281.89 216.61 291.88Z" fill="black"/>
<path d="M383.95 317.92C404.77 284.19 381.15 230.95 376.1 208.56C373.78 198.28 369.73 206.87 371.4 218.07C373.06 229.19 383.64 250.58 372.52 259.86C365.73 265.52 350.03 253.39 334.18 256.09C315.96 259.19 301.31 273.22 287.46 275.44C261.17 279.66 250.55 247.9 242.67 222.4C238.89 210.16 220.08 236.03 222.01 264.26C223.7 288.88 252 342.31 307.3 346.33C335.66 348.39 364.36 349.66 383.95 317.93V317.92Z" fill="url(#paint3_linear_7564_15918)"/>
<path d="M355.91 274.569C357.23 280.309 350.06 287.679 339.56 289.289C328.74 290.939 319.74 288.959 318.42 283.219C317.1 277.479 325.57 279.319 335.92 276.929C346.27 274.539 354.58 268.829 355.9 274.569H355.91Z" fill="#1D1D1B"/>
<path d="M223.967 273.731C236.569 268.436 241.539 251.658 235.067 236.255C228.596 220.853 213.134 212.659 200.532 217.954C187.93 223.249 182.96 240.027 189.432 255.429C195.903 270.832 211.365 279.026 223.967 273.731Z" fill="white"/>
<path d="M208.76 244.12C207.97 244.12 207.2 243.71 206.77 242.98C206.13 241.88 206.5 240.48 207.6 239.84C212.55 236.95 217.26 235.83 221.81 234.75L221.97 234.71C223.2 234.42 224.44 235.18 224.74 236.41C225.03 237.64 224.27 238.88 223.04 239.18L222.88 239.22C218.46 240.27 214.28 241.27 209.92 243.81C209.56 244.02 209.16 244.12 208.76 244.12Z" fill="black"/>
<path d="M220.51 264.91C219.92 264.91 219.32 264.68 218.87 264.22C217.98 263.31 217.99 261.86 218.9 260.97C223.85 256.12 225.37 248.16 222.69 241.18C220.17 234.61 214.55 230.66 207.27 230.34C206 230.29 205.02 229.21 205.07 227.95C205.12 226.68 206.21 225.7 207.46 225.75C216.51 226.14 223.81 231.29 226.97 239.53C230.3 248.2 228.35 258.13 222.11 264.24C221.66 264.68 221.08 264.9 220.5 264.9L220.51 264.91Z" fill="black"/>
</g>
<defs>
<linearGradient id="paint0_linear_7564_15918" x1="337.19" y1="169.549" x2="376.51" y2="169.549" gradientUnits="userSpaceOnUse">
<stop stop-color="#57F287"/>
<stop offset="0.5" stop-color="#00EEB0"/>
<stop offset="1" stop-color="#00FFFF"/>
</linearGradient>
<linearGradient id="paint1_linear_7564_15918" x1="198.36" y1="114.24" x2="368.91" y2="114.24" gradientUnits="userSpaceOnUse">
<stop stop-color="#57F287"/>
<stop offset="0.5" stop-color="#00EEB0"/>
<stop offset="1" stop-color="#00FFFF"/>
</linearGradient>
<linearGradient id="paint2_linear_7564_15918" x1="174.17" y1="190.179" x2="244.25" y2="190.179" gradientUnits="userSpaceOnUse">
<stop stop-color="#57F287"/>
<stop offset="0.5" stop-color="#00EEB0"/>
<stop offset="1" stop-color="#00FFFF"/>
</linearGradient>
<linearGradient id="paint3_linear_7564_15918" x1="221.88" y1="275.59" x2="392.4" y2="275.59" gradientUnits="userSpaceOnUse">
<stop stop-color="#57F287"/>
<stop offset="0.5" stop-color="#00EEB0"/>
<stop offset="1" stop-color="#00FFFF"/>
</linearGradient>
<clipPath id="clip0_7564_15918">
<rect width="566.93" height="566.93" fill="white"/>
</clipPath>
</defs>
</svg>
