<svg width="567" height="567" viewBox="0 0 567 567" fill="none" xmlns="http://www.w3.org/2000/svg">
<g clip-path="url(#clip0_7563_15529)">
<path d="M566.93 0H0V566.93H566.93V0Z" fill="#E5E5E5"/>
<path d="M463.95 397.04C429.63 458.68 363.8 500.37 288.24 500.37C212.68 500.37 142.21 455.66 109.01 390.39C116.85 380.8 127.02 372.46 139.73 365.77C173.31 348.11 225.14 342.63 283.54 342.63C358.28 342.63 424.3 364.15 463.96 397.03L463.95 397.04Z" fill="#CCCCCC"/>
<path d="M418.19 297.4C416.6 272.31 429.74 256.19 407.94 236.31C430.66 252.73 419.34 277.3 420.84 295.69C421.51 303.93 425.96 311.62 428.51 319.6C429.31 322.11 430.68 326.31 430.67 329.68H441.1C441.1 313.87 431.01 302.76 430.38 293.49C429.03 273.59 434.67 267.25 430.38 252.1C425.68 235.49 404.02 229.32 399.75 214.01C395.24 197.86 399.18 173.64 399.18 159.14C399.18 107.28 365.91 66.8598 299.45 87.9098C265.26 98.7398 265.81 160.29 289.6 194.62C312.41 227.53 293.96 274.32 299.57 323.92C299.79 325.85 300.04 327.77 300.32 329.69H426.63C426.44 318.46 418.89 308.54 418.19 297.41V297.4Z" fill="url(#paint0_linear_7563_15529)"/>
<path d="M311.69 419.42C345.79 419.42 330.23 369.75 330.05 352.87C329.81 329.9 329.8 295.55 328.99 282.57C326.37 240.71 228.99 218.17 228.99 245.78C228.99 273.39 228.77 325.25 228.99 346.18C229.21 367 270.58 419.42 311.7 419.42H311.69Z" fill="white"/>
<path d="M329.96 342.63C285.08 326.12 245.79 282.24 241.05 234.51C267.2 229 326.94 249.9 328.98 282.56C329.68 293.72 329.79 320.68 329.96 342.63Z" fill="#1D1D1B"/>
<path d="M225.88 211.08C231.28 252.45 269.03 311.31 320.88 301.47C357.86 294.45 371.65 253.22 357.41 202.03C345.47 159.11 354.54 153.24 344.24 134.64C332.72 113.84 300.29 100.74 264.97 123.81C236.73 142.26 220.64 170.89 225.88 211.08Z" fill="white"/>
<path d="M312.98 233.43C311.87 233.43 310.88 232.64 310.67 231.51C310.43 230.23 311.27 229 312.55 228.76C317.34 227.87 320.89 226.1 322.29 223.91C323.03 222.75 323.2 221.42 322.8 219.84C321.54 214.88 319.78 209.97 317.9 204.76C316.55 201.02 315.16 197.15 313.8 192.84C313.41 191.6 314.09 190.28 315.33 189.88C316.57 189.49 317.89 190.17 318.29 191.41C319.63 195.63 321.01 199.46 322.34 203.16C324.25 208.47 326.05 213.49 327.37 218.67C328.1 221.53 327.72 224.15 326.26 226.43C323.53 230.7 317.77 232.56 313.42 233.37C313.27 233.4 313.13 233.41 312.99 233.41L312.98 233.43Z" fill="#1D1D1B"/>
<path d="M352.7 173.411C349.9 172.281 347.08 171.471 344.21 171.071C341.34 170.671 338.44 170.711 335.59 171.121C332.73 171.521 329.94 172.371 327.27 173.541C324.6 174.731 322.09 176.291 319.69 178.131L319.65 178.161C318.61 178.961 317.12 178.771 316.32 177.731C315.65 176.861 315.68 175.681 316.32 174.841C318.47 172.031 321.27 169.681 324.4 167.911C327.53 166.131 331.01 164.951 334.59 164.401C338.17 163.851 341.87 164.001 345.4 164.831C348.92 165.651 352.28 167.181 355.09 169.351C356.13 170.151 356.32 171.641 355.52 172.681C354.86 173.541 353.72 173.821 352.75 173.431L352.69 173.411H352.7Z" fill="#1D1D1B"/>
<path d="M247.92 195.03C249.83 191.44 252.47 188.22 255.59 185.51C256.4 184.87 257.17 184.17 258.02 183.58C258.44 183.28 258.87 182.99 259.3 182.7C259.73 182.41 260.16 182.11 260.61 181.87L261.97 181.1C262.42 180.84 262.87 180.58 263.35 180.37L264.77 179.72L265.48 179.4L266.22 179.13C270.11 177.61 274.31 176.83 278.48 176.89C282.65 176.97 286.79 177.81 290.49 179.52C291.68 180.07 292.2 181.48 291.66 182.67C291.21 183.65 290.19 184.17 289.17 184.03H289.1C285.53 183.52 282.06 183.26 278.63 183.53C275.21 183.77 271.85 184.47 268.63 185.61C267.03 186.2 265.46 186.91 263.93 187.7C263.15 188.07 262.45 188.59 261.69 189C260.94 189.44 260.26 189.97 259.53 190.45C256.7 192.48 254.14 194.91 251.82 197.63L251.79 197.66C250.94 198.65 249.45 198.77 248.45 197.92C247.59 197.19 247.39 195.97 247.9 195.01L247.92 195.03Z" fill="#1D1D1B"/>
<path d="M266.57 209.59C266.33 209.59 266.09 209.55 265.86 209.47C264.75 209.08 264.17 207.86 264.57 206.76C267.09 199.64 271.6 196.7 274.94 195.48C280.83 193.33 286.95 194.94 290.41 196.96C291.42 197.55 291.76 198.86 291.17 199.87C290.58 200.88 289.27 201.22 288.26 200.63C285.39 198.95 280.61 197.94 276.4 199.47C272.79 200.79 270.16 203.72 268.58 208.18C268.27 209.05 267.45 209.6 266.58 209.6L266.57 209.59Z" fill="#1D1D1B"/>
<path d="M284.01 202.56C284.75 206.1 283.01 209.45 280.13 210.05C277.25 210.64 274.32 208.25 273.59 204.71C272.86 201.17 274.59 197.82 277.47 197.22C280.35 196.63 283.28 199.02 284.01 202.56Z" fill="#1D1D1B"/>
<path d="M325.85 195.83C325.61 195.83 325.38 195.79 325.14 195.71C324.03 195.32 323.45 194.1 323.85 193C326.37 185.88 330.88 182.94 334.22 181.72C340.11 179.57 346.23 181.18 349.69 183.2C350.7 183.79 351.04 185.1 350.45 186.11C349.86 187.12 348.55 187.46 347.54 186.87C344.67 185.19 339.89 184.18 335.68 185.71C332.07 187.03 329.44 189.96 327.86 194.42C327.55 195.29 326.73 195.84 325.86 195.84L325.85 195.83Z" fill="#1D1D1B"/>
<path d="M343.29 188.801C344.03 192.341 342.29 195.691 339.41 196.291C336.53 196.881 333.6 194.491 332.87 190.951C332.13 187.411 333.87 184.061 336.75 183.461C339.63 182.871 342.56 185.261 343.29 188.801Z" fill="#1D1D1B"/>
<path d="M241.09 234.5C240.28 244.82 235.23 256.31 228.96 262.73C228.97 256.56 228.99 250.81 228.99 245.78C228.99 239.7 233.71 236.05 241.1 234.5H241.09Z" fill="#1D1D1B"/>
<path d="M232.249 248.738C243.888 243.718 248.41 228.257 242.349 214.204C236.288 200.152 221.94 192.829 210.302 197.849C198.663 202.868 194.141 218.329 200.202 232.382C206.263 246.434 220.611 253.757 232.249 248.738Z" fill="#FF9F8C"/>
<path d="M216.97 222.731C216.3 222.731 215.64 222.441 215.19 221.881C214.4 220.901 214.55 219.461 215.53 218.671C219.83 215.201 224.19 213.541 228.42 211.931L228.57 211.871C229.75 211.421 231.07 212.011 231.51 213.191C231.96 214.371 231.37 215.691 230.19 216.131L230.04 216.191C225.97 217.741 222.13 219.201 218.39 222.221C217.97 222.561 217.46 222.731 216.96 222.731H216.97Z" fill="#1D1D1B"/>
<path d="M230.43 239.26C229.92 239.26 229.41 239.09 228.99 238.75C228.01 237.95 227.87 236.52 228.66 235.54C232.99 230.24 233.52 221.78 229.89 215.88C228.03 212.84 223.51 208.05 214.19 210.08C212.96 210.35 211.74 209.57 211.47 208.34C211.2 207.11 211.98 205.89 213.21 205.62C222.03 203.7 229.52 206.57 233.77 213.49C238.44 221.09 237.77 231.58 232.19 238.42C231.74 238.97 231.08 239.26 230.42 239.26H230.43Z" fill="#1D1D1B"/>
<path d="M362.73 233.26C361.23 233.83 359.61 234.141 357.91 234.141C350.36 234.141 344.23 228.01 344.23 220.451C344.23 212.891 350.36 206.771 357.91 206.771C358.16 206.771 358.41 206.781 358.65 206.781C360.94 216.021 362.29 224.89 362.73 233.26Z" fill="#DADADA"/>
<path d="M283.154 241.546C284.89 234.187 280.333 226.814 272.974 225.077C265.616 223.34 258.243 227.898 256.506 235.256C254.769 242.615 259.326 249.988 266.685 251.725C274.044 253.462 281.417 248.904 283.154 241.546Z" fill="#DADADA"/>
<path d="M312.98 263.05C319.028 263.05 323.93 258.148 323.93 252.1C323.93 246.053 319.028 241.15 312.98 241.15C306.933 241.15 302.03 246.053 302.03 252.1C302.03 258.148 306.933 263.05 312.98 263.05Z" fill="#DADADA"/>
<path d="M310.91 255.211C305.4 255.211 299.91 253.871 295.14 251.161C294.01 250.521 293.61 249.08 294.25 247.95C294.89 246.82 296.33 246.42 297.46 247.06C306.09 251.96 317.5 251.62 325.86 246.23C326.95 245.53 328.41 245.84 329.12 246.93C329.83 248.02 329.51 249.481 328.42 250.191C323.25 253.531 317.08 255.211 310.91 255.211Z" fill="#1D1D1B"/>
<path d="M255 67.3902C210.41 74.1202 176.36 102.29 166.96 177.66C164.4 198.2 142.74 208.93 135.05 228.95C127.1 249.63 132.09 270.17 125.2 288.13C119.67 302.55 103 317.42 103 329.67H116.75C117.05 327.84 117.59 326.09 118.22 324.42C119.23 321.72 120.61 319.29 121.98 316.88C124.8 312.12 127.93 307.66 130.8 303.11C133.64 298.55 136.35 293.94 137.81 288.92C139.36 283.89 140.05 278.58 140.4 273.22C141.05 262.5 140.56 251.48 142.56 240.59C143.55 235.18 145.07 229.8 147.59 224.82C150.09 219.86 153.38 215.4 156.8 211.16C160.22 206.91 163.82 202.85 166.98 198.49C170.13 194.15 172.82 189.44 174.21 184.3C174.38 183.66 174.57 183.02 174.72 182.37L175.01 180.4C175.23 179.1 175.37 177.74 175.5 176.38C175.78 173.67 176.03 170.96 176.42 168.27L176.96 164.22L177.61 160.19C178.02 157.5 178.56 154.83 179.1 152.16C179.59 149.48 180.32 146.85 180.91 144.2L181.99 140.26C182.34 138.95 182.71 137.64 183.15 136.35C184.71 131.13 186.74 126.06 188.97 121.1C193.52 111.22 199.63 102 207.45 94.4302C199.75 102.12 193.79 111.4 189.4 121.29C187.25 126.26 185.31 131.33 183.83 136.55C183.41 137.84 183.06 139.15 182.73 140.46L181.71 144.39C181.15 147.04 180.47 149.67 180.02 152.34C179.52 155 179.02 157.67 178.66 160.35L178.07 164.37L177.59 168.41C177.24 171.1 177.03 173.8 176.79 176.5C176.68 177.85 176.56 179.19 176.35 180.58L176.07 182.64C175.93 183.32 175.74 183.98 175.57 184.66C174.2 190.05 171.47 194.97 168.32 199.45C165.15 203.94 161.6 208.07 158.27 212.33C154.94 216.58 151.8 220.97 149.48 225.76C147.15 230.52 145.76 235.72 144.87 240.99C143.08 251.57 143.71 262.42 143.21 273.37C142.93 278.85 142.3 284.4 140.73 289.78C139.21 295.24 136.41 300.15 133.59 304.82C130.73 309.51 127.68 313.99 125.03 318.62C123.03 322.17 121.2 325.93 120.53 329.66H144.21C144.31 329.13 144.41 328.61 144.54 328.1C145.1 325.74 145.93 323.5 146.86 321.33C148.72 316.99 150.95 312.92 153.12 308.84C155.29 304.77 157.43 300.71 159.15 296.49C160.91 292.29 161.97 287.88 162.44 283.33C163.43 274.23 162.65 264.97 162.63 255.72C162.62 251.09 162.78 246.45 163.41 241.86C164.04 237.27 165.18 232.75 166.98 228.49C165.3 232.8 164.29 237.33 163.79 241.91C163.3 246.49 163.26 251.11 163.4 255.71C163.67 264.92 164.72 274.15 163.98 283.48C163.63 288.13 162.65 292.82 160.95 297.2C159.3 301.59 157.24 305.77 155.19 309.91C153.14 314.05 151.04 318.15 149.38 322.36C148.45 324.74 147.65 327.21 147.23 329.66H264.9C264.9 309.29 256.49 295.88 250.28 270.9C236.06 213.78 292.12 185.28 310.57 151.75C330.83 114.95 310.06 59.0602 255.03 67.3602L255 67.3902Z" fill="url(#paint1_linear_7563_15529)"/>
</g>
<defs>
<linearGradient id="paint0_linear_7563_15529" x1="272.64" y1="205.95" x2="441.1" y2="205.95" gradientUnits="userSpaceOnUse">
<stop stop-color="#57F287"/>
<stop offset="0.5" stop-color="#00EEB0"/>
<stop offset="1" stop-color="#00FFFF"/>
</linearGradient>
<linearGradient id="paint1_linear_7563_15529" x1="102.98" y1="198.12" x2="318.14" y2="198.12" gradientUnits="userSpaceOnUse">
<stop stop-color="#57F287"/>
<stop offset="0.5" stop-color="#00EEB0"/>
<stop offset="1" stop-color="#00FFFF"/>
</linearGradient>
<clipPath id="clip0_7563_15529">
<rect width="566.93" height="566.93" fill="white"/>
</clipPath>
</defs>
</svg>
