<svg width="117" height="144" viewBox="0 0 117 144" fill="none" xmlns="http://www.w3.org/2000/svg">
<rect width="117" height="144" rx="8" fill="#E2F2FC"/>
<rect x="6" y="16" width="50" height="24" rx="2" fill="white"/>
<rect x="10" y="20" width="19" height="4" rx="2" fill="#E7E7E7"/>
<rect x="33" y="20" width="19" height="4" rx="2" fill="#E7E7E7"/>
<rect x="10" y="26" width="19" height="4" rx="2" fill="#E7E7E7"/>
<rect x="33" y="26" width="19" height="4" rx="2" fill="#E7E7E7"/>
<rect x="10" y="32" width="19" height="4" rx="2" fill="#E7E7E7"/>
<rect x="33" y="32" width="19" height="4" rx="2" fill="#E7E7E7"/>
<rect x="60" y="16" width="50" height="24" rx="2" fill="white"/>
<rect x="64" y="20" width="19" height="4" rx="2" fill="#E7E7E7"/>
<rect x="87" y="20" width="19" height="4" rx="2" fill="#E7E7E7"/>
<rect x="64" y="26" width="19" height="4" rx="2" fill="#E7E7E7"/>
<rect x="87" y="26" width="19" height="4" rx="2" fill="#E7E7E7"/>
<rect x="64" y="32" width="19" height="4" rx="2" fill="#E7E7E7"/>
<rect x="87" y="32" width="19" height="4" rx="2" fill="#E7E7E7"/>
<rect x="6" y="44" width="50" height="24" rx="2" fill="white"/>
<rect x="10" y="48" width="19" height="4" rx="2" fill="#E7E7E7"/>
<rect x="33" y="48" width="19" height="4" rx="2" fill="#E7E7E7"/>
<rect x="10" y="54" width="19" height="4" rx="2" fill="#E7E7E7"/>
<rect x="33" y="54" width="19" height="4" rx="2" fill="#E7E7E7"/>
<rect x="10" y="60" width="19" height="4" rx="2" fill="#E7E7E7"/>
<rect x="33" y="60" width="19" height="4" rx="2" fill="#E7E7E7"/>
<rect x="60" y="44" width="50" height="24" rx="2" fill="white"/>
<rect x="64" y="48" width="19" height="4" rx="2" fill="#E7E7E7"/>
<rect x="87" y="48" width="19" height="4" rx="2" fill="#E7E7E7"/>
<rect x="64" y="54" width="19" height="4" rx="2" fill="#E7E7E7"/>
<rect x="87" y="54" width="19" height="4" rx="2" fill="#E7E7E7"/>
<rect x="64" y="60" width="19" height="4" rx="2" fill="#E7E7E7"/>
<rect x="87" y="60" width="19" height="4" rx="2" fill="#E7E7E7"/>
<rect x="6" y="72" width="104" height="34" rx="2" fill="white"/>
<rect x="10" y="76" width="29.3333" height="4" rx="2" fill="#E7E7E7"/>
<rect x="43.333" y="76" width="29.3333" height="4" rx="2" fill="#E7E7E7"/>
<rect x="76.667" y="76" width="29.3333" height="4" rx="2" fill="#E7E7E7"/>
<rect x="10" y="82" width="29.3333" height="4" rx="2" fill="#E7E7E7"/>
<rect x="43.333" y="82" width="29.3333" height="4" rx="2" fill="#E7E7E7"/>
<rect x="76.667" y="82" width="29.3333" height="4" rx="2" fill="#E7E7E7"/>
<rect x="10" y="94" width="32" height="8" rx="4" fill="#29ABE2"/>
<rect x="74" y="94" width="32" height="8" rx="4" fill="#29ABE2"/>
<rect x="6" y="113" width="50" height="24" rx="2" fill="white"/>
<rect x="60" y="113" width="50" height="24" rx="2" fill="white"/>
</svg>
