<svg width="117" height="144" viewBox="0 0 117 144" fill="none" xmlns="http://www.w3.org/2000/svg">
<rect width="117" height="144" rx="8" fill="#F6F6F6"/>
<rect x="6" y="14" width="32" height="8" rx="4" fill="#29ABE2"/>
<rect x="6" y="33" width="18" height="4" rx="2" fill="#29ABE2"/>
<rect x="6" y="39" width="50" height="4" rx="2" fill="#E7E7E7"/>
<rect x="6" y="45" width="50" height="4" rx="2" fill="#E7E7E7"/>
<rect x="6" y="51" width="50" height="4" rx="2" fill="#E7E7E7"/>
<rect x="6" y="57" width="50" height="4" rx="2" fill="#E7E7E7"/>
<rect x="60" y="33" width="18" height="4" rx="2" fill="#29ABE2"/>
<rect x="60" y="39" width="50" height="4" rx="2" fill="#E7E7E7"/>
<rect x="60" y="45" width="50" height="4" rx="2" fill="#E7E7E7"/>
<rect x="60" y="51" width="50" height="4" rx="2" fill="#E7E7E7"/>
<rect x="60" y="57" width="50" height="4" rx="2" fill="#E7E7E7"/>
<rect x="6" y="66" width="18" height="4" rx="2" fill="#29ABE2"/>
<rect x="6" y="72" width="50" height="4" rx="2" fill="#E7E7E7"/>
<rect x="6" y="78" width="50" height="4" rx="2" fill="#E7E7E7"/>
<rect x="6" y="84" width="50" height="4" rx="2" fill="#E7E7E7"/>
<rect x="6" y="90" width="50" height="4" rx="2" fill="#E7E7E7"/>
<rect x="60" y="66" width="18" height="4" rx="2" fill="#29ABE2"/>
<rect x="60" y="72" width="50" height="4" rx="2" fill="#E7E7E7"/>
<rect x="60" y="78" width="50" height="4" rx="2" fill="#E7E7E7"/>
<rect x="60" y="84" width="50" height="4" rx="2" fill="#E7E7E7"/>
<rect x="60" y="90" width="50" height="4" rx="2" fill="#E7E7E7"/>
<rect x="6" y="99" width="32" height="5" rx="2.5" fill="#29ABE2"/>
<rect x="78" y="99" width="32" height="5" rx="2.5" fill="#29ABE2"/>
<rect x="6" y="113" width="50" height="24" rx="2" fill="white"/>
<rect x="60" y="113" width="50" height="24" rx="2" fill="white"/>
</svg>
