<svg width="121" height="40" viewBox="0 0 121 40" fill="none" xmlns="http://www.w3.org/2000/svg">
<path d="M35.4312 5.63642C34.7484 5.63642 34.1823 5.86136 33.7372 6.30691C33.2878 6.75678 33.0674 7.31913 33.0674 8.00259C33.0674 8.68606 33.2921 9.25273 33.7372 9.69828C34.1823 10.1482 34.7484 10.3688 35.4312 10.3688C36.114 10.3688 36.6801 10.1438 37.1252 9.69828C37.5703 9.25273 37.795 8.68606 37.795 8.00259C37.795 7.31913 37.5703 6.75246 37.1252 6.30691C36.6758 5.86136 36.114 5.63642 35.4312 5.63642Z" fill="#1C2925"/>
<path d="M37.2032 12.7609H33.6553V31.7119H37.2032V12.7609Z" fill="#1C2925"/>
<path d="M44.8433 5.26009H41.2954V31.7119H44.8433V5.26009Z" fill="#1C2925"/>
<path d="M52.4405 5.26009H48.8926V31.7119H52.4405V5.26009Z" fill="#1C2925"/>
<path d="M72.3711 15.2093C71.4766 14.3138 70.4308 13.6174 69.2338 13.1156C68.0367 12.6138 66.7403 12.3673 65.3488 12.3673C63.9573 12.3673 62.6911 12.6181 61.4854 13.1156C60.2754 13.6174 59.2297 14.3138 58.3481 15.2093C57.4665 16.1047 56.7708 17.1515 56.2565 18.3497C55.7423 19.548 55.4873 20.8457 55.4873 22.2386C55.4873 23.6314 55.7423 24.8989 56.2565 26.1058C56.7708 27.317 57.4665 28.3638 58.3481 29.2462C59.2297 30.1287 60.2754 30.8251 61.4854 31.3399C62.6954 31.8547 63.9832 32.1099 65.3488 32.1099C66.7144 32.1099 68.0367 31.8547 69.2338 31.3399C70.4308 30.8251 71.4766 30.1287 72.3711 29.2462C73.2657 28.3638 73.9614 27.317 74.4627 26.1058C74.964 24.8946 75.2103 23.6055 75.2103 22.2386C75.2103 20.8716 74.9597 19.548 74.4627 18.3497C73.9614 17.1515 73.2657 16.1047 72.3711 15.2093ZM71.1871 24.7432C70.8716 25.5218 70.4308 26.1966 69.8647 26.7763C69.2986 27.3559 68.6288 27.8015 67.8552 28.1172C67.0774 28.433 66.2433 28.5931 65.3488 28.5931C64.4543 28.5931 63.6246 28.433 62.864 28.1172C62.0991 27.8015 61.4379 27.3559 60.8718 26.7763C60.3057 26.1966 59.8606 25.5218 59.5322 24.7432C59.2037 23.9689 59.0395 23.1297 59.0395 22.2342C59.0395 21.3388 59.2037 20.4693 59.5322 19.708C59.8606 18.9467 60.3057 18.2719 60.8718 17.6966C61.4379 17.1169 62.0991 16.6714 62.864 16.3556C63.6246 16.0398 64.4543 15.8797 65.3488 15.8797C66.2433 15.8797 67.0774 16.0398 67.8552 16.3556C68.6288 16.6714 69.3029 17.1212 69.8647 17.6966C70.4308 18.2762 70.8716 18.9467 71.1871 19.708C71.5025 20.4737 71.6624 21.3129 71.6624 22.2342C71.6624 23.1556 71.5025 23.9645 71.1871 24.7432Z" fill="#1C2925"/>
<path d="M104.535 20.0065C104.968 19.2581 105.508 18.605 106.152 18.0513C106.796 17.4976 107.513 17.065 108.299 16.7492C109.09 16.4334 109.916 16.2734 110.784 16.2734H120.447L121 12.7609H89.1598C87.7942 12.7609 86.4848 13.0118 85.2359 13.5092C83.987 14.011 82.8548 14.6945 81.8436 15.564C80.8324 16.4334 79.9854 17.4543 79.2983 18.6223C78.6155 19.7945 78.1661 21.062 77.9586 22.4332C77.7469 23.7742 77.7944 25.0373 78.0969 26.2226C78.3994 27.4078 78.918 28.433 79.6526 29.3025C80.3873 30.1719 81.3034 30.8554 82.3924 31.3572C83.4814 31.859 84.7001 32.1055 86.0397 32.1055C87.2238 32.1055 88.3646 31.9152 89.4709 31.5346C90.5772 31.1539 91.6014 30.6218 92.5478 29.934L92.47 30.3277C92.336 31.1971 92.0551 32.0061 91.623 32.7544C91.1909 33.5028 90.655 34.1559 90.0241 34.7096C89.3931 35.2633 88.6844 35.6959 87.8936 36.0117C87.1028 36.3275 86.2774 36.4875 85.4088 36.4875C84.0691 36.4875 82.9499 36.1371 82.0554 35.4407C81.1608 34.7442 80.5817 33.8012 80.3181 32.616H76.6104C76.6881 33.6931 76.9474 34.688 77.3796 35.5964C77.8117 36.5048 78.3908 37.2791 79.1168 37.9236C79.8385 38.5682 80.6811 39.0743 81.6405 39.442C82.5999 39.8097 83.6586 39.9957 84.8167 39.9957C86.1823 39.9957 87.5003 39.7448 88.7622 39.2473C90.0241 38.7455 91.1563 38.0621 92.1545 37.1926C93.1528 36.3231 93.9955 35.2979 94.6782 34.1127C95.361 32.9274 95.8105 31.6643 96.0179 30.3233L97.7551 19.4268H94.2072L93.7318 22.4289C93.6022 23.2984 93.317 24.1073 92.8849 24.8556C92.4527 25.604 91.9169 26.2572 91.2859 26.8109C90.655 27.3645 89.9376 27.7971 89.1382 28.1129C88.3344 28.4287 87.5004 28.5887 86.6317 28.5887C85.7631 28.5887 85.0199 28.4287 84.3241 28.1129C83.6284 27.7971 83.0493 27.3645 82.5869 26.8109C82.1245 26.2572 81.7961 25.6083 81.6016 24.8556C81.4028 24.1073 81.3726 23.2984 81.5022 22.4289C81.6319 21.5594 81.9171 20.7505 82.3492 20.0022C82.7814 19.2538 83.3215 18.6006 83.9654 18.0469C84.6093 17.4932 85.3267 17.0607 86.1132 16.7449C86.904 16.4291 87.7294 16.2691 88.598 16.2691H103.256C102.569 16.9698 101.977 17.7528 101.472 18.6179C100.789 19.7902 100.339 21.0576 100.132 22.4289C99.9201 23.7699 99.9677 25.033 100.27 26.2182C100.573 27.4035 101.091 28.4287 101.826 29.2982C102.561 30.1676 103.477 30.8511 104.566 31.3529C105.655 31.8547 106.873 32.1012 108.213 32.1012C109.397 32.1012 110.538 31.9109 111.644 31.5302C112.75 31.1496 113.775 30.6175 114.721 29.9297L114.643 30.3233C114.509 31.1928 114.228 32.0017 113.796 32.7501C113.364 33.4984 112.828 34.1516 112.197 34.7053C111.566 35.259 110.858 35.6916 110.067 36.0074C109.276 36.3231 108.451 36.4832 107.582 36.4832C106.242 36.4832 105.123 36.1328 104.229 35.4364C103.334 34.7399 102.755 33.7969 102.491 32.6117H98.7836C98.8614 33.6888 99.1207 34.6837 99.5528 35.5921C99.985 36.5005 100.564 37.2748 101.29 37.9193C102.012 38.5639 102.854 39.07 103.814 39.4377C104.773 39.8053 105.832 39.9913 106.99 39.9913C108.356 39.9913 109.674 39.7405 110.935 39.243C112.197 38.7412 113.33 38.0577 114.328 37.1883C115.326 36.3188 116.169 35.2936 116.851 34.1084C117.534 32.9231 117.984 31.66 118.191 30.319L119.928 19.4225H116.38L115.905 22.4246C115.775 23.294 115.49 24.103 115.058 24.8513C114.626 25.5997 114.09 26.2528 113.459 26.8065C112.828 27.3602 112.111 27.7928 111.311 28.1086C110.508 28.4244 109.674 28.5844 108.805 28.5844C107.936 28.5844 107.193 28.4244 106.497 28.1086C105.802 27.7928 105.223 27.3602 104.76 26.8065C104.298 26.2528 103.969 25.604 103.775 24.8513C103.576 24.103 103.546 23.294 103.675 22.4246C103.805 21.5551 104.09 20.7462 104.522 19.9978L104.535 20.0065Z" fill="#1C2925"/>
<path d="M22.5363 16.4248H10.2288C10.0603 16.4248 9.922 16.2864 9.922 16.1177C9.922 15.949 10.0603 15.8105 10.2288 15.8105H18.4309C22.7826 15.8105 26.3261 12.2634 26.3261 7.90743C26.3261 3.55142 22.7869 0 18.4309 0H12.8562L12.3117 3.48654H18.4309C20.8639 3.48654 22.8431 5.46772 22.8431 7.9031C22.8431 10.3385 20.8639 12.3197 18.4309 12.3197H10.2288C8.13725 12.3197 6.43461 14.024 6.43461 16.1177C6.43461 18.2113 8.13725 19.9156 10.2288 19.9156H22.5363C24.9692 19.9156 26.9484 21.8968 26.9484 24.3322C26.9484 26.7676 24.9692 28.7488 22.5363 28.7488H0.5445L0 32.2353H22.5363C26.8879 32.2353 30.4315 28.6882 30.4315 24.3322C30.4315 19.9762 26.8879 16.4291 22.5363 16.4291V16.4248Z" fill="#1C2925"/>
</svg>
