<svg width="27" height="25" viewBox="0 0 27 25" fill="none" xmlns="http://www.w3.org/2000/svg">
<path d="M11.1669 18.5569H3.94813C3.74536 19.4607 3.24861 20.2729 2.53483 20.8674C1.82106 21.4619 0.930098 21.8057 1.73569e-06 21.8454V23.3848C-0.000330582 23.5572 0.0470625 23.7264 0.136986 23.8738C0.226909 24.0212 0.355891 24.1411 0.509793 24.2204C0.663695 24.2997 0.836575 24.3353 1.00948 24.3234C1.18239 24.3114 1.34865 24.2523 1.49004 24.1526L8.12577 19.4481C8.18802 19.4042 8.26118 19.3782 8.33726 19.3729C8.41335 19.3676 8.48943 19.3832 8.55723 19.418C8.62502 19.4527 8.68191 19.5054 8.7217 19.5701C8.76149 19.6348 8.78265 19.7092 8.78287 19.785V23.6241C8.78281 23.7739 8.82423 23.9209 8.90257 24.0488C8.98092 24.1768 9.09317 24.2808 9.22701 24.3494C9.36085 24.4181 9.51112 24.4488 9.66133 24.4381C9.81154 24.4274 9.95589 24.3758 10.0785 24.2889L13.8693 21.6024C13.1975 21.3622 12.5976 20.9571 12.1251 20.4247C11.6527 19.8923 11.3231 19.2498 11.1669 18.5569Z" fill="#A2E5F4"/>
<path d="M15.7666 15.3143C15.2622 15.2147 14.7389 15.2792 14.2742 15.4984C13.8095 15.7175 13.428 16.0796 13.1862 16.5311C12.9445 16.9827 12.8552 17.4996 12.9316 18.0055C13.0081 18.5114 13.2462 18.9794 13.6107 19.3403C13.9753 19.7011 14.4469 19.9357 14.9558 20.0092C15.4648 20.0828 15.984 19.9914 16.4367 19.7487C16.8894 19.5059 17.2515 19.1247 17.4695 18.6613C17.6875 18.198 17.7498 17.6771 17.6472 17.1758C17.5528 16.7158 17.3239 16.2938 16.9894 15.9627C16.6548 15.6315 16.2295 15.4059 15.7666 15.3143Z" fill="#A2E5F4"/>
<path d="M17.0641 11.3243C16.4944 11.2613 15.9215 11.23 15.3483 11.2303H0V13.4399C0.928714 13.4803 1.81817 13.824 2.53083 14.4178C3.24348 15.0116 3.73964 15.8223 3.94257 16.7248H11.1614C11.3873 15.7169 11.9776 14.8268 12.8201 14.2236C13.6626 13.6204 14.6985 13.3461 15.731 13.4529C16.7634 13.5597 17.7204 14.0402 18.4201 14.803C19.1198 15.5658 19.5133 16.5577 19.5259 17.5902L22.643 15.3806V15.1965C22.6485 13.6572 20.916 11.7625 17.0641 11.3243Z" fill="#A2E5F4"/>
<path d="M26.1746 11.5562L10.0711 0.153043C9.94859 0.0654392 9.80412 0.0132357 9.65367 0.00220259C9.50321 -0.00883054 9.35261 0.0217364 9.21853 0.0905247C9.08444 0.159313 8.97209 0.263644 8.89389 0.391984C8.81568 0.520325 8.77468 0.667676 8.7754 0.817752V3.44529L9.31403 3.83564L17.1122 9.49212C20.4273 9.83828 23.7757 11.2045 24.3847 14.1525L26.1746 12.8838C26.2811 12.8086 26.3681 12.7091 26.428 12.5936C26.488 12.4781 26.5193 12.35 26.5193 12.22C26.5193 12.09 26.488 11.9619 26.428 11.8464C26.3681 11.7309 26.2811 11.6314 26.1746 11.5562Z" fill="#A2E5F4"/>
<path d="M2.20636 17.6417C2.2063 17.0427 1.97907 16.4658 1.57006 16.0261C1.16105 15.5865 0.600367 15.3165 0 15.2701L0 20.0133C0.600367 19.967 1.16105 19.697 1.57006 19.2574C1.97907 18.8177 2.2063 18.2408 2.20636 17.6417Z" fill="#A2E5F4"/>
<path d="M1.49003 0.291084C1.3489 0.191532 1.18299 0.132476 1.0104 0.120369C0.837822 0.108261 0.665214 0.143567 0.511436 0.22243C0.357657 0.301293 0.228623 0.420679 0.138428 0.567548C0.048233 0.714416 0.000346737 0.883117 0 1.05522L0 3.57596H6.12672L1.49003 0.291084Z" fill="#A2E5F4"/>
<path d="M8.50152 5.40808C8.49041 5.40808 0 5.40808 0 5.40808V9.39818H14.345" fill="#A2E5F4"/>
</svg>
