<svg width="24" height="24" viewBox="0 0 24 24" fill="none" xmlns="http://www.w3.org/2000/svg">
<path d="M20.395 9.17029C20.4975 9.19295 20.6192 9.22444 20.7388 9.25916C20.8409 9.28883 20.9372 9.32041 21.0151 9.34705C21.023 9.37594 21.0334 9.40741 21.0415 9.44177C21.0516 9.48443 21.0587 9.52822 21.0669 9.5697C20.9566 9.56983 20.5821 9.57214 20.2339 9.57458C20.1474 9.57519 20.0622 9.57597 19.9829 9.57654C20.0096 9.42541 20.0774 9.31843 20.147 9.24451C20.1916 9.19719 20.2361 9.16476 20.269 9.14587C20.3023 9.15108 20.3447 9.15916 20.395 9.17029Z" fill="#6E9383" stroke="#6E9383"/>
<path d="M3.72998 9.14587C3.763 9.1647 3.80815 9.19687 3.85303 9.24451C3.9226 9.3184 3.98944 9.42553 4.01611 9.57654C3.93703 9.57597 3.85225 9.57519 3.76611 9.57458C3.41699 9.57213 3.04135 9.56982 2.93213 9.5697C2.94033 9.52816 2.94843 9.48449 2.9585 9.44177C2.96657 9.4075 2.97606 9.37589 2.98389 9.34705C3.06201 9.32033 3.15868 9.28894 3.26123 9.25916C3.38078 9.22444 3.50253 9.19295 3.60498 9.17029C3.65485 9.15926 3.69684 9.15108 3.72998 9.14587Z" fill="#6E9383" stroke="#6E9383"/>
<path d="M18.7202 19.5245V20.64C18.7202 20.905 18.9353 21.12 19.2002 21.12H21.1202C21.3852 21.12 21.6002 20.905 21.6002 20.64V15" stroke="#6E9383" stroke-miterlimit="10"/>
<path d="M5.2799 19.5245V20.64C5.2799 20.905 5.06486 21.12 4.7999 21.12H2.8799C2.61494 21.12 2.3999 20.905 2.3999 20.64V15" stroke="#6E9383" stroke-miterlimit="10"/>
<path d="M4.7998 10.08C5.7598 10.56 8.03596 13.44 8.03596 13.44C8.30956 13.7525 8.7046 13.9315 9.1198 13.9315H11.9998H14.8798C15.295 13.9315 15.69 13.7525 15.9636 13.44C15.9636 13.44 18.2398 10.56 19.1998 10.08" stroke="#6E9383" stroke-miterlimit="10" stroke-linecap="round"/>
<path d="M21.1329 11.9424C20.6207 11.1744 19.8119 10.6536 19.6026 10.2187C19.0338 9.03745 18.2817 6.62977 17.2348 6.08209C16.7649 5.83681 11.9999 5.76001 11.9999 5.76001C11.9999 5.76001 7.23494 5.83681 6.76502 6.08209C5.71814 6.62977 4.96598 9.03745 4.39718 10.2187C4.1879 10.6536 3.3791 11.1744 2.86694 11.9424C2.6735 12.2323 2.3999 12.9504 2.3999 14.4C2.3999 15.3869 2.58662 17.4466 2.70566 18.3547C2.76134 18.78 3.08822 19.1146 3.51254 19.177C4.7375 19.357 7.55222 19.68 11.9999 19.68C16.4476 19.68 19.2623 19.357 20.4873 19.177C20.9116 19.1146 21.2385 18.78 21.2941 18.3547C21.4132 17.4466 21.5999 15.3869 21.5999 14.4C21.5999 12.9504 21.3263 12.2323 21.1329 11.9424Z" stroke="#6E9383" stroke-miterlimit="10"/>
<path d="M19.1389 9.60001H4.86084" stroke="#6E9383" stroke-miterlimit="10"/>
<path d="M16.9077 18.24L16.4978 17.7715C16.2242 17.459 15.8292 17.28 15.414 17.28H12.054H8.69396C8.27876 17.28 7.88372 17.459 7.61012 17.7715L7.2002 18.24H16.9077Z" fill="#6E9383"/>
<path d="M5.53714 12.721C5.1469 12.5635 4.81474 11.9976 4.33474 12C3.37474 12.0053 3.35986 13.5518 3.35986 13.5518C3.35986 13.5518 3.35602 13.9589 5.41954 13.9277C5.41954 13.9277 6.7165 13.921 6.72034 13.5341C6.7237 13.1779 5.92738 12.8779 5.53714 12.721Z" fill="#6E9383"/>
<path d="M19.6649 12C19.1849 11.9976 18.8523 12.5635 18.4625 12.721C18.0723 12.8784 17.2759 13.1784 17.2793 13.5341C17.2831 13.921 18.5801 13.9277 18.5801 13.9277C20.6436 13.9589 20.6398 13.5518 20.6398 13.5518C20.6398 13.5518 20.6249 12.0053 19.6649 12Z" fill="#6E9383"/>
<path d="M7.19982 15.84C6.56862 16.1558 5.87214 16.32 5.16654 16.32H4.31982C4.31982 16.32 4.31982 17.28 4.79982 17.76" stroke="#6E9383" stroke-miterlimit="10" stroke-linecap="round"/>
<path d="M19.1998 17.76C19.6798 17.28 19.6798 16.32 19.6798 16.32H18.8331C18.127 16.32 17.431 16.1558 16.7998 15.84" stroke="#6E9383" stroke-miterlimit="10" stroke-linecap="round"/>
</svg>
