<svg width="24" height="24" viewBox="0 0 24 24" fill="none" xmlns="http://www.w3.org/2000/svg">
<g clip-path="url(#clip0_161_3525)">
<path d="M5.27988 18.24C6.60537 18.24 7.67988 17.1655 7.67988 15.84C7.67988 14.5145 6.60537 13.44 5.27988 13.44C3.9544 13.44 2.87988 14.5145 2.87988 15.84C2.87988 17.1655 3.9544 18.24 5.27988 18.24Z" stroke="#0C5B27" stroke-miterlimit="10"/>
<path d="M18.7203 18.24C20.0458 18.24 21.1203 17.1655 21.1203 15.84C21.1203 14.5145 20.0458 13.44 18.7203 13.44C17.3948 13.44 16.3203 14.5145 16.3203 15.84C16.3203 17.1655 17.3948 18.24 18.7203 18.24Z" stroke="#0C5B27" stroke-miterlimit="10"/>
<path d="M7.68555 15.8189L16.3942 15.8304" stroke="#0C5B27" stroke-miterlimit="10"/>
<path d="M21.1742 15.8371L22.5959 15.839C23.1062 15.8395 23.5204 15.4258 23.5204 14.9155V12.1978C23.5204 11.2531 22.8374 10.4467 21.9052 10.2912L17.7604 9.60001H4.32039L2.05959 9.88273C1.15575 9.99553 0.475595 10.7606 0.468875 11.6717L0.446315 14.8565C0.442475 15.3821 0.867275 15.8102 1.39239 15.8107L2.85975 15.8126" stroke="#0C5B27" stroke-miterlimit="10"/>
<path d="M17.4902 9.48817L15.3806 6.47425C15.0672 6.02641 14.555 5.76001 14.0083 5.76001H6.25819C5.63611 5.76001 5.04379 6.02593 4.63051 6.49105L1.44043 10.08" stroke="#0C5B27" stroke-miterlimit="10"/>
<path d="M10.5596 6.23999V9.59999" stroke="#0C5B27" stroke-miterlimit="10"/>
</g>
<defs>
<clipPath id="clip0_161_3525">
<rect width="24" height="24" fill="white"/>
</clipPath>
</defs>
</svg>
