<svg width="25" height="24" viewBox="0 0 25 24" fill="none" xmlns="http://www.w3.org/2000/svg">
<g clip-path="url(#clip0_161_3563)">
<path d="M6.44043 5.76001H13.6404" stroke="#00624E" stroke-miterlimit="10" stroke-linecap="round" stroke-linejoin="round"/>
<path d="M16.5205 5.76001H17.9605" stroke="#00624E" stroke-miterlimit="10" stroke-linecap="round" stroke-linejoin="round"/>
<path d="M6.44043 8.64001H11.7204" stroke="#0C5B27" stroke-miterlimit="10" stroke-linecap="round" stroke-linejoin="round"/>
<path d="M16.5205 8.64001H17.9605" stroke="#0C5B27" stroke-miterlimit="10" stroke-linecap="round" stroke-linejoin="round"/>
<path d="M6.44043 11.52H13.6404" stroke="#0C5B27" stroke-miterlimit="10" stroke-linecap="round" stroke-linejoin="round"/>
<path d="M16.5205 11.52H17.9605" stroke="#0C5B27" stroke-miterlimit="10" stroke-linecap="round" stroke-linejoin="round"/>
<path d="M6.44043 14.4H11.7204" stroke="#0C5B27" stroke-miterlimit="10" stroke-linecap="round" stroke-linejoin="round"/>
<path d="M6.43996 17.76C6.70506 17.76 6.91996 17.5451 6.91996 17.28C6.91996 17.0149 6.70506 16.8 6.43996 16.8C6.17486 16.8 5.95996 17.0149 5.95996 17.28C5.95996 17.5451 6.17486 17.76 6.43996 17.76Z" fill="#0C5B27"/>
<path d="M7.88039 17.76C8.14549 17.76 8.36039 17.5451 8.36039 17.28C8.36039 17.0149 8.14549 16.8 7.88039 16.8C7.61529 16.8 7.40039 17.0149 7.40039 17.28C7.40039 17.5451 7.61529 17.76 7.88039 17.76Z" fill="#0C5B27"/>
<path d="M9.31984 17.76C9.58494 17.76 9.79984 17.5451 9.79984 17.28C9.79984 17.0149 9.58494 16.8 9.31984 16.8C9.05475 16.8 8.83984 17.0149 8.83984 17.28C8.83984 17.5451 9.05475 17.76 9.31984 17.76Z" fill="#0C5B27"/>
<path d="M10.7603 17.76C11.0254 17.76 11.2403 17.5451 11.2403 17.28C11.2403 17.0149 11.0254 16.8 10.7603 16.8C10.4952 16.8 10.2803 17.0149 10.2803 17.28C10.2803 17.5451 10.4952 17.76 10.7603 17.76Z" fill="#0C5B27"/>
<path d="M12.1997 17.76C12.4648 17.76 12.6797 17.5451 12.6797 17.28C12.6797 17.0149 12.4648 16.8 12.1997 16.8C11.9346 16.8 11.7197 17.0149 11.7197 17.28C11.7197 17.5451 11.9346 17.76 12.1997 17.76Z" fill="#0C5B27"/>
<path d="M13.6402 17.76C13.9053 17.76 14.1202 17.5451 14.1202 17.28C14.1202 17.0149 13.9053 16.8 13.6402 16.8C13.3751 16.8 13.1602 17.0149 13.1602 17.28C13.1602 17.5451 13.3751 17.76 13.6402 17.76Z" fill="#0C5B27"/>
<path d="M14.4167 22.08H4.04008V2.21664L4.30552 2.34912C4.4404 2.4168 4.59976 2.4168 4.73512 2.34912L5.48008 1.97664L6.22552 2.34912C6.3604 2.4168 6.51976 2.4168 6.65512 2.34912L7.40008 1.97664L8.14552 2.34912C8.2804 2.4168 8.43976 2.4168 8.57512 2.34912L9.32008 1.97664L10.0655 2.34912C10.2004 2.4168 10.3598 2.4168 10.4951 2.34912L11.2401 1.97664L11.9855 2.34912C12.1204 2.4168 12.2798 2.4168 12.4151 2.34912L13.1601 1.97664L13.9055 2.34912C14.0404 2.4168 14.1998 2.4168 14.3351 2.34912L15.0801 1.97664L15.8255 2.34912C15.9604 2.4168 16.1198 2.4168 16.2551 2.34912L17.0001 1.97664L17.7455 2.34912C17.8804 2.4168 18.0398 2.4168 18.1751 2.34912L18.9201 1.97664L19.6655 2.34912C19.8004 2.4168 19.9598 2.4168 20.0951 2.34912L20.3601 2.21664V13.5264C20.6908 13.5821 21.011 13.6656 21.3201 13.775V1.44C21.3201 1.27344 21.2337 1.11936 21.0926 1.03152C20.9505 0.943684 20.7738 0.936484 20.6255 1.0104L19.8801 1.38336L19.1346 1.01088C18.9998 0.943204 18.8404 0.943204 18.705 1.01088L17.9601 1.38336L17.2146 1.01088C17.0798 0.943204 16.9204 0.943204 16.785 1.01088L16.0401 1.38336L15.2946 1.01088C15.1598 0.943204 15.0004 0.943204 14.865 1.01088L14.1201 1.38336L13.3746 1.01088C13.2398 0.943204 13.0804 0.943204 12.945 1.01088L12.2001 1.38336L11.4546 1.01088C11.3198 0.943204 11.1604 0.943204 11.025 1.01088L10.2801 1.38336L9.53464 1.01088C9.39976 0.943204 9.2404 0.943204 9.10504 1.01088L8.36008 1.38336L7.61464 1.01088C7.47976 0.943204 7.3204 0.943204 7.18504 1.01088L6.44008 1.38336L5.69464 1.01088C5.55976 0.943204 5.4004 0.943204 5.26504 1.01088L4.52008 1.38336L3.77464 1.0104C3.62584 0.936484 3.44968 0.944164 3.3076 1.03152C3.16648 1.11936 3.08008 1.27344 3.08008 1.44V22.56C3.08008 22.8254 3.29512 23.04 3.56008 23.04H15.1156C14.8511 22.7453 14.6164 22.4246 14.4167 22.08Z" fill="#0C5B27"/>
<path d="M22.2326 19.2C22.2326 19.488 22.0406 19.68 21.7526 19.68H17.0486C16.7606 19.68 16.5686 19.488 16.5686 19.2C16.5686 18.912 16.7606 18.72 17.0486 18.72H21.8006C22.0406 18.72 22.2326 18.912 22.2326 19.2ZM24.2006 19.2C24.2006 21.84 22.0406 24 19.4006 24C16.7606 24 14.6006 21.84 14.6006 19.2C14.6006 16.56 16.7606 14.4 19.4006 14.4C22.0406 14.4 24.2006 16.56 24.2006 19.2ZM23.2406 19.2C23.2406 17.088 21.5126 15.36 19.4006 15.36C17.2886 15.36 15.5606 17.088 15.5606 19.2C15.5606 21.312 17.2886 23.04 19.4006 23.04C21.5126 23.04 23.2406 21.312 23.2406 19.2Z" fill="#0C5B27"/>
</g>
<defs>
<clipPath id="clip0_161_3563">
<rect width="24" height="24" fill="white" transform="translate(0.200195)"/>
</clipPath>
</defs>
</svg>
