<svg width="24" height="24" viewBox="0 0 24 24" fill="none" xmlns="http://www.w3.org/2000/svg">
<path d="M23.04 12C23.04 12 18.0974 17.76 12 17.76C5.90252 17.76 0.959961 12 0.959961 12C0.959961 12 5.90252 6.23999 12 6.23999C18.0974 6.23999 23.04 12 23.04 12Z" stroke="#454545" stroke-miterlimit="10" stroke-linecap="round" stroke-linejoin="round"/>
<path d="M15.9141 7.0152C16.7633 7.95216 17.2802 9.19536 17.2802 10.56C17.2802 13.4765 14.9167 15.84 12.0002 15.84C9.08373 15.84 6.72021 13.4765 6.72021 10.56C6.72021 9.20016 7.23382 7.96032 8.07814 7.0248" stroke="#454545" stroke-miterlimit="10" stroke-linecap="round" stroke-linejoin="round"/>
<path d="M12.0005 8.65997C13.0496 8.66018 13.8999 9.51115 13.8999 10.5604C13.8997 11.6094 13.0495 12.4596 12.0005 12.4598C10.9513 12.4598 10.1003 11.6095 10.1001 10.5604C10.1001 9.51102 10.9511 8.65997 12.0005 8.65997Z" fill="#454545" stroke="#454545"/>
</svg>
