<svg width="25" height="24" viewBox="0 0 25 24" fill="none" xmlns="http://www.w3.org/2000/svg">
<path d="M9.41992 18.26V19.1799H6.58008V18.26H9.41992Z" fill="#04585D" stroke="#04585D"/>
<path d="M14.2197 18.26V19.1799H11.3799V18.26H14.2197Z" fill="#04585D" stroke="#04585D"/>
<path d="M19.0397 19.68H16.1597C15.8947 19.68 15.6797 19.465 15.6797 19.2V18.24C15.6797 17.975 15.8947 17.76 16.1597 17.76H19.0397C19.3046 17.76 19.5197 17.975 19.5197 18.24V19.2C19.5197 19.465 19.3046 19.68 19.0397 19.68Z" fill="#04585D"/>
<path d="M9.44008 22.56H6.56008C6.29512 22.56 6.08008 22.345 6.08008 22.08V21.12C6.08008 20.8551 6.29512 20.64 6.56008 20.64H9.44008C9.70504 20.64 9.92008 20.8551 9.92008 21.12V22.08C9.92008 22.345 9.70504 22.56 9.44008 22.56Z" fill="#04585D"/>
<path d="M14.2399 22.56H11.3599C11.0949 22.56 10.8799 22.345 10.8799 22.08V21.12C10.8799 20.8551 11.0949 20.64 11.3599 20.64H14.2399C14.5048 20.64 14.7199 20.8551 14.7199 21.12V22.08C14.7199 22.345 14.5048 22.56 14.2399 22.56Z" fill="#04585D"/>
<path d="M19.0397 22.56H16.1597C15.8947 22.56 15.6797 22.345 15.6797 22.08V21.12C15.6797 20.8551 15.8947 20.64 16.1597 20.64H19.0397C19.3046 20.64 19.5197 20.8551 19.5197 21.12V22.08C19.5197 22.345 19.3046 22.56 19.0397 22.56Z" fill="#04585D"/>
<path d="M4.16016 22.08V14.4C4.16016 13.608 4.80816 12.96 5.60016 12.96H7.04016" stroke="#04585D" stroke-miterlimit="10" stroke-linecap="round" stroke-linejoin="round"/>
<path d="M18.5596 12.96H19.9996C20.7916 12.96 21.4396 13.608 21.4396 14.4V22.08" stroke="#04585D" stroke-miterlimit="10" stroke-linecap="round" stroke-linejoin="round"/>
<path d="M19.9996 15.36C19.9996 14.8296 19.57 14.4 19.0396 14.4H18.0796V15.84H7.51961V14.4H6.55961C6.02921 14.4 5.59961 14.8296 5.59961 15.36C5.59961 15.8904 6.02921 16.32 6.55961 16.32H19.0396C19.57 16.32 19.9996 15.8904 19.9996 15.36Z" fill="#04585D"/>
<path d="M7.04004 15.84V1.92001L8.00004 2.40001L8.96004 1.92001L9.92004 2.40001L10.88 1.92001L11.84 2.40001L12.8 1.92001L13.76 2.40001L14.72 1.92001L15.68 2.40001L16.64 1.92001L17.6 2.40001L18.56 1.92001V15.84H7.04004Z" stroke="#04585D" stroke-miterlimit="10" stroke-linecap="round" stroke-linejoin="round"/>
<path d="M14.7194 7.20001C14.7194 7.20001 14.7194 5.76001 12.7994 5.76001C10.8794 5.76001 10.8794 7.22497 10.8794 7.22497C10.8794 9.30385 15.1994 8.52913 15.1994 10.8211C15.1994 10.8211 15.1994 12.48 12.7994 12.48C10.3994 12.48 10.3994 10.56 10.3994 10.56" stroke="#04585D" stroke-miterlimit="10" stroke-linejoin="round"/>
<path d="M12.7998 4.32001V5.76001" stroke="#04585D" stroke-miterlimit="10" stroke-linejoin="round"/>
<path d="M12.7998 13.92V12.48" stroke="#04585D" stroke-miterlimit="10" stroke-linejoin="round"/>
</svg>
