<svg width="25" height="24" viewBox="0 0 25 24" fill="none" xmlns="http://www.w3.org/2000/svg">
<path d="M2.32031 16.32L8.56031 10.56L10.4803 12.48L15.7603 7.2L17.6803 9.12L22.4803 3.84" stroke="#00624E" stroke-miterlimit="10"/>
<path d="M22.4807 8.64V3.84H17.6807" stroke="#00624E" stroke-miterlimit="10"/>
<path d="M22.4805 21.12V10.56" stroke="#00624E" stroke-miterlimit="10"/>
<path d="M19.6006 21.12V9.60001" stroke="#00624E" stroke-miterlimit="10"/>
<path d="M16.7207 21.12V12" stroke="#00624E" stroke-miterlimit="10"/>
<path d="M13.8408 21.12V12" stroke="#00624E" stroke-miterlimit="10"/>
<path d="M10.96 21.12V14.88" stroke="#00624E" stroke-miterlimit="10"/>
<path d="M8.08008 21.12V14.4" stroke="#00624E" stroke-miterlimit="10"/>
<path d="M5.2002 21.12V16.8" stroke="#00624E" stroke-miterlimit="10"/>
<path d="M2.32031 21.12V18.72" stroke="#00624E" stroke-miterlimit="10"/>
<path d="M5.20031 3.84C3.61007 3.84 2.32031 5.12976 2.32031 6.72C2.32031 8.31024 3.61007 9.6 5.20031 9.6C6.79055 9.6 8.08031 8.31024 8.08031 6.72C8.08031 5.12976 6.79055 3.84 5.20031 3.84Z" stroke="#00624E" stroke-miterlimit="10" stroke-linecap="round" stroke-linejoin="round"/>
<path d="M5.6349 8.02415H4.76514V6.28511H4.08594L4.9557 5.41583H5.6349V8.02415Z" fill="#00624E"/>
</svg>
