<svg width="21" height="22" viewBox="0 0 21 22" fill="none" xmlns="http://www.w3.org/2000/svg">
<path d="M10.5063 17.9451H20.4513V7.99756H10.5063" stroke="#00624E" stroke-miterlimit="10" stroke-linecap="round"/>
<path d="M17.3491 7.99756C18.5166 7.99756 18.5766 9.22006 18.8991 9.54256C19.2191 9.86256 20.4516 9.94506 20.4516 10.7176" stroke="#00624E" stroke-miterlimit="10"/>
<path d="M18.0841 12.97C18.0841 13.3625 17.7666 13.6825 17.3741 13.6825C16.9816 13.6825 16.6641 13.3625 16.6641 12.97C16.6641 12.58 16.9816 12.26 17.3741 12.26C17.7666 12.26 18.0841 12.58 18.0841 12.97Z" stroke="#00624E" stroke-miterlimit="10"/>
<path d="M10.0342 15.6376C10.4517 15.9001 10.9367 16.0501 11.4542 16.0501C13.0242 16.0501 14.2967 14.6726 14.2967 12.9701C14.2967 11.2701 13.0242 9.89258 11.4542 9.89258C10.9367 9.89258 10.4517 10.0426 10.0342 10.3051" stroke="#00624E" stroke-miterlimit="10" stroke-linecap="round"/>
<path d="M20.4516 15.2251C20.4516 15.9976 19.2191 16.0801 18.8991 16.4001C18.5766 16.7226 18.5166 17.9451 17.3491 17.9451" fill="#00624E"/>
<path d="M20.4516 15.2251C20.4516 15.9976 19.2191 16.0801 18.8991 16.4001C18.5766 16.7226 18.5166 17.9451 17.3491 17.9451" stroke="#00624E" stroke-miterlimit="10"/>
<path d="M20.4516 15.2251C20.4516 15.9976 19.2191 16.0801 18.8991 16.4001C18.5766 16.7226 18.5166 17.9451 17.3491 17.9451" fill="#00624E"/>
<path d="M20.4516 15.2251C20.4516 15.9976 19.2191 16.0801 18.8991 16.4001C18.5766 16.7226 18.5166 17.9451 17.3491 17.9451" stroke="#00624E" stroke-miterlimit="10"/>
<path d="M8.13916 5.63002V0.89502L9.08666 1.36752L10.0342 0.89502L10.9792 1.36752L11.9267 0.89502L12.8742 1.36752L13.8217 0.89502L14.7692 1.36752L15.7167 0.89502L16.6642 1.36752L17.6117 0.89502V6.57752" stroke="#00624E" stroke-miterlimit="10" stroke-linejoin="round"/>
<path d="M10.0342 3.73511H12.4017H10.0342Z" fill="#00624E"/>
<path d="M10.0342 3.73511H12.4017" stroke="#00624E" stroke-miterlimit="10" stroke-linecap="round" stroke-linejoin="round"/>
<path d="M14.769 3.73511H15.7165H14.769Z" fill="#00624E"/>
<path d="M14.769 3.73511H15.7165" stroke="#00624E" stroke-miterlimit="10" stroke-linecap="round" stroke-linejoin="round"/>
<path d="M14.769 5.63013H15.7165H14.769Z" fill="#00624E"/>
<path d="M14.769 5.63013H15.7165" stroke="#00624E" stroke-miterlimit="10" stroke-linecap="round" stroke-linejoin="round"/>
<path d="M2.45654 11.7876H3.40154" stroke="#00624E" stroke-miterlimit="10" stroke-linecap="round" stroke-linejoin="round"/>
<path d="M7.19141 11.7876H8.13891H7.19141Z" fill="#00624E"/>
<path d="M7.19141 11.7876H8.13891" stroke="#0C5B27" stroke-miterlimit="10" stroke-linecap="round" stroke-linejoin="round"/>
<path d="M2.45654 9.89258H4.82404" stroke="#0C5B27" stroke-miterlimit="10" stroke-linecap="round" stroke-linejoin="round"/>
<path d="M7.19141 9.89258H8.13891" stroke="#0C5B27" stroke-miterlimit="10" stroke-linecap="round" stroke-linejoin="round"/>
<path d="M2.45654 15.575H3.87654" stroke="#0C5B27" stroke-miterlimit="10" stroke-linecap="round" stroke-linejoin="round"/>
<path d="M7.19141 15.575H8.13891" stroke="#0C5B27" stroke-miterlimit="10" stroke-linecap="round" stroke-linejoin="round"/>
<path d="M2.45654 13.6826H4.82404" stroke="#0C5B27" stroke-miterlimit="10" stroke-linecap="round" stroke-linejoin="round"/>
<path d="M7.19141 13.6826H8.13891" stroke="#0C5B27" stroke-miterlimit="10" stroke-linecap="round" stroke-linejoin="round"/>
<path d="M11.9265 7.52513V6.57763C11.9265 6.05513 11.504 5.63013 10.979 5.63013M10.979 5.63013C10.4565 5.63013 10.034 6.05513 10.034 6.57763V20.7851L9.08652 20.3126L8.13902 20.7851L7.19152 20.3126L6.24402 20.7851L5.29652 20.3126L4.34902 20.7851L3.40152 20.3126L2.45652 20.7851L1.50902 20.3126L0.561523 20.7851V6.57763C0.561523 6.05513 0.984024 5.63013 1.50902 5.63013H10.979Z" stroke="#0C5B27" stroke-miterlimit="10" stroke-linecap="round" stroke-linejoin="round"/>
</svg>
