<svg width="24" height="24" viewBox="0 0 24 24" fill="none" xmlns="http://www.w3.org/2000/svg">
<g clip-path="url(#clip0_901_510)">
<path d="M11.9999 1.44C6.16794 1.44 1.43994 6.168 1.43994 12C1.43994 17.832 6.16794 22.56 11.9999 22.56C17.8319 22.56 22.5599 17.832 22.5599 12C22.5599 6.168 17.8319 1.44 11.9999 1.44Z" stroke="#6E9383" stroke-miterlimit="10" stroke-linecap="round" stroke-linejoin="round"/>
<path d="M11.9998 4.32001C7.75806 4.32001 4.31982 7.75825 4.31982 12C4.31982 16.2418 7.75806 19.68 11.9998 19.68C16.2416 19.68 19.6798 16.2418 19.6798 12C19.6798 7.75825 16.2416 4.32001 11.9998 4.32001Z" stroke="#6E9383" stroke-miterlimit="10" stroke-linecap="round" stroke-linejoin="round"/>
<path d="M12.0002 7.20001C9.34916 7.20001 7.2002 9.34897 7.2002 12C7.2002 14.6511 9.34916 16.8 12.0002 16.8C14.6512 16.8 16.8002 14.6511 16.8002 12C16.8002 9.34897 14.6512 7.20001 12.0002 7.20001Z" stroke="#6E9383" stroke-miterlimit="10" stroke-linecap="round" stroke-linejoin="round"/>
<path d="M12.0005 11.06C12.5195 11.0602 12.9399 11.4814 12.9399 12.0004C12.9397 12.5193 12.5194 12.9396 12.0005 12.9399C11.4814 12.9399 11.0603 12.5194 11.0601 12.0004C11.0601 11.4812 11.4813 11.06 12.0005 11.06Z" fill="#6E9383" stroke="#6E9383"/>
</g>
<defs>
<clipPath id="clip0_901_510">
<rect width="24" height="24" fill="white"/>
</clipPath>
</defs>
</svg>
