<svg width="24" height="24" viewBox="0 0 24 24" fill="none" xmlns="http://www.w3.org/2000/svg">
<path d="M6.21289 16.7476C6.46443 16.7477 6.66895 16.9518 6.66895 17.2036C6.66883 17.4548 6.46407 17.6595 6.21289 17.6597C5.96106 17.6597 5.75696 17.4552 5.75684 17.2036C5.75684 16.9514 5.9607 16.7476 6.21289 16.7476Z" fill="#454545" stroke="#454545"/>
<path d="M10.0352 16.7476C10.2872 16.7477 10.4912 16.9515 10.4912 17.2036C10.4911 17.4551 10.2869 17.6595 10.0352 17.6597C9.78387 17.6597 9.57922 17.4549 9.5791 17.2036C9.5791 16.9517 9.78351 16.7476 10.0352 16.7476Z" fill="#454545" stroke="#454545"/>
<path d="M13.8584 16.7476C14.1099 16.7477 14.3145 16.9518 14.3145 17.2036C14.3143 17.4548 14.1096 17.6595 13.8584 17.6597C13.6066 17.6597 13.4025 17.4552 13.4023 17.2036C13.4023 16.9514 13.6062 16.7476 13.8584 16.7476Z" fill="#454545" stroke="#454545"/>
<path d="M18.6363 17.2034C18.6363 17.7309 18.2088 18.1592 17.6804 18.1592C17.1529 18.1592 16.7246 17.7309 16.7246 17.2034C16.7246 16.6751 17.1529 16.2476 17.6804 16.2476C18.2088 16.2476 18.6363 16.6751 18.6363 17.2034Z" fill="#454545"/>
<path d="M20.0697 23.4158H3.82302C3.29469 23.4158 2.86719 22.9875 2.86719 22.46V11.4691C2.86719 10.9408 3.29469 10.5133 3.82302 10.5133H20.0697C20.598 10.5133 21.0255 10.9408 21.0255 11.4691V22.46C21.0255 22.9875 20.598 23.4158 20.0697 23.4158Z" stroke="#454545" stroke-miterlimit="10"/>
<path d="M6.21191 10.5134V7.16835C6.21191 4.00085 8.77941 1.43335 11.9461 1.43335C15.1127 1.43335 17.6802 4.00085 17.6802 7.16835V10.5134" stroke="#454545" stroke-miterlimit="10"/>
</svg>
