<svg width="25" height="24" viewBox="0 0 25 24" fill="none" xmlns="http://www.w3.org/2000/svg">
<g clip-path="url(#clip0_161_3571)">
<path d="M6.83984 5.76001H14.0398" stroke="#04585D" stroke-miterlimit="10" stroke-linecap="round" stroke-linejoin="round"/>
<path d="M16.9199 5.76001H18.3599" stroke="#04585D" stroke-miterlimit="10" stroke-linecap="round" stroke-linejoin="round"/>
<path d="M6.83984 8.64001H12.1198" stroke="#04585D" stroke-miterlimit="10" stroke-linecap="round" stroke-linejoin="round"/>
<path d="M16.9199 8.64001H18.3599" stroke="#04585D" stroke-miterlimit="10" stroke-linecap="round" stroke-linejoin="round"/>
<path d="M6.83984 11.52H14.0398" stroke="#04585D" stroke-miterlimit="10" stroke-linecap="round" stroke-linejoin="round"/>
<path d="M16.9199 11.52H18.3599" stroke="#04585D" stroke-miterlimit="10" stroke-linecap="round" stroke-linejoin="round"/>
<path d="M6.83984 14.4H12.1198" stroke="#04585D" stroke-miterlimit="10" stroke-linecap="round" stroke-linejoin="round"/>
<path d="M6.83937 17.76C7.10447 17.76 7.31937 17.5451 7.31937 17.28C7.31937 17.0149 7.10447 16.8 6.83937 16.8C6.57428 16.8 6.35938 17.0149 6.35938 17.28C6.35938 17.5451 6.57428 17.76 6.83937 17.76Z" fill="#04585D"/>
<path d="M8.2798 17.76C8.5449 17.76 8.7598 17.5451 8.7598 17.28C8.7598 17.0149 8.5449 16.8 8.2798 16.8C8.01471 16.8 7.7998 17.0149 7.7998 17.28C7.7998 17.5451 8.01471 17.76 8.2798 17.76Z" fill="#04585D"/>
<path d="M9.71926 17.76C9.98435 17.76 10.1993 17.5451 10.1993 17.28C10.1993 17.0149 9.98435 16.8 9.71926 16.8C9.45416 16.8 9.23926 17.0149 9.23926 17.28C9.23926 17.5451 9.45416 17.76 9.71926 17.76Z" fill="#04585D"/>
<path d="M11.1597 17.76C11.4248 17.76 11.6397 17.5451 11.6397 17.28C11.6397 17.0149 11.4248 16.8 11.1597 16.8C10.8946 16.8 10.6797 17.0149 10.6797 17.28C10.6797 17.5451 10.8946 17.76 11.1597 17.76Z" fill="#04585D"/>
<path d="M12.5991 17.76C12.8642 17.76 13.0791 17.5451 13.0791 17.28C13.0791 17.0149 12.8642 16.8 12.5991 16.8C12.334 16.8 12.1191 17.0149 12.1191 17.28C12.1191 17.5451 12.334 17.76 12.5991 17.76Z" fill="#04585D"/>
<path d="M14.0396 17.76C14.3047 17.76 14.5196 17.5451 14.5196 17.28C14.5196 17.0149 14.3047 16.8 14.0396 16.8C13.7745 16.8 13.5596 17.0149 13.5596 17.28C13.5596 17.5451 13.7745 17.76 14.0396 17.76Z" fill="#04585D"/>
<path d="M14.8161 22.08H4.43949V2.21664L4.70493 2.34912C4.83981 2.4168 4.99917 2.4168 5.13453 2.34912L5.87949 1.97664L6.62493 2.34912C6.75981 2.4168 6.91917 2.4168 7.05453 2.34912L7.79949 1.97664L8.54493 2.34912C8.67981 2.4168 8.83917 2.4168 8.97453 2.34912L9.71949 1.97664L10.4649 2.34912C10.5998 2.4168 10.7592 2.4168 10.8945 2.34912L11.6395 1.97664L12.3849 2.34912C12.5198 2.4168 12.6792 2.4168 12.8145 2.34912L13.5595 1.97664L14.3049 2.34912C14.4398 2.4168 14.5992 2.4168 14.7345 2.34912L15.4795 1.97664L16.2249 2.34912C16.3598 2.4168 16.5192 2.4168 16.6545 2.34912L17.3995 1.97664L18.1449 2.34912C18.2798 2.4168 18.4392 2.4168 18.5745 2.34912L19.3195 1.97664L20.0649 2.34912C20.1998 2.4168 20.3592 2.4168 20.4945 2.34912L20.7595 2.21664V13.5264C21.0902 13.5821 21.4104 13.6656 21.7195 13.775V1.44C21.7195 1.27344 21.6331 1.11936 21.492 1.03152C21.3499 0.943684 21.1733 0.936484 21.0249 1.0104L20.2795 1.38336L19.5341 1.01088C19.3992 0.943204 19.2398 0.943204 19.1045 1.01088L18.3595 1.38336L17.6141 1.01088C17.4792 0.943204 17.3198 0.943204 17.1845 1.01088L16.4395 1.38336L15.6941 1.01088C15.5592 0.943204 15.3998 0.943204 15.2645 1.01088L14.5195 1.38336L13.7741 1.01088C13.6392 0.943204 13.4798 0.943204 13.3445 1.01088L12.5995 1.38336L11.8541 1.01088C11.7192 0.943204 11.5598 0.943204 11.4245 1.01088L10.6795 1.38336L9.93405 1.01088C9.79917 0.943204 9.63981 0.943204 9.50445 1.01088L8.75949 1.38336L8.01405 1.01088C7.87917 0.943204 7.71981 0.943204 7.58445 1.01088L6.83949 1.38336L6.09405 1.01088C5.95917 0.943204 5.79981 0.943204 5.66445 1.01088L4.91949 1.38336L4.17405 1.0104C4.02525 0.936484 3.84909 0.944164 3.70701 1.03152C3.56589 1.11936 3.47949 1.27344 3.47949 1.44V22.56C3.47949 22.8254 3.69453 23.04 3.95949 23.04H15.515C15.2505 22.7453 15.0158 22.4246 14.8161 22.08Z" fill="#04585D"/>
<path d="M21.816 17.856L20.472 19.2L21.816 20.544C22.008 20.736 22.008 21.024 21.816 21.216C21.72 21.312 21.576 21.36 21.48 21.36C21.384 21.36 21.24 21.312 21.144 21.216L19.8 19.872L18.456 21.216C18.36 21.312 18.216 21.36 18.12 21.36C18.024 21.36 17.88 21.312 17.784 21.216C17.592 21.024 17.592 20.736 17.784 20.544L19.128 19.2L17.784 17.856C17.592 17.664 17.592 17.376 17.784 17.184C17.976 16.992 18.264 16.992 18.456 17.184L19.8 18.528L21.144 17.184C21.336 16.992 21.624 16.992 21.816 17.184C22.008 17.376 22.008 17.664 21.816 17.856ZM24.6 19.2C24.6 21.84 22.44 24 19.8 24C17.16 24 15 21.84 15 19.2C15 16.56 17.16 14.4 19.8 14.4C22.44 14.4 24.6 16.56 24.6 19.2ZM23.64 19.2C23.64 17.088 21.912 15.36 19.8 15.36C17.688 15.36 15.96 17.088 15.96 19.2C15.96 21.312 17.688 23.04 19.8 23.04C21.912 23.04 23.64 21.312 23.64 19.2Z" fill="#04585D"/>
</g>
<defs>
<clipPath id="clip0_161_3571">
<rect width="24" height="24" fill="white" transform="translate(0.599609)"/>
</clipPath>
</defs>
</svg>
