<svg width="23" height="22" viewBox="0 0 23 22" fill="none" xmlns="http://www.w3.org/2000/svg">
<path d="M13.5411 7.99761V5.15761H15.9086L12.1211 0.922607L8.33105 5.15761H10.7011V7.99761" stroke="#04585D" stroke-miterlimit="10" stroke-linecap="round"/>
<path d="M2.17578 19.3651H22.0658V7.99756H2.17578V19.3651Z" stroke="#04585D" stroke-miterlimit="10"/>
<path d="M5.27828 7.99756C4.11078 7.99756 4.05078 9.22006 3.72828 9.54256C3.40828 9.86256 2.17578 9.94506 2.17578 10.7176" stroke="#04585D" stroke-miterlimit="10"/>
<path d="M18.9634 7.99756C20.1309 7.99756 20.1909 9.22006 20.5134 9.54256C20.8334 9.86256 22.0659 9.94506 22.0659 10.7176" stroke="#04585D" stroke-miterlimit="10"/>
<path d="M5.96346 13.4451C5.96346 13.8376 5.64596 14.1551 5.25346 14.1551C4.86096 14.1551 4.54346 13.8376 4.54346 13.4451C4.54346 13.0526 4.86096 12.7351 5.25346 12.7351C5.64596 12.7351 5.96346 13.0526 5.96346 13.4451Z" stroke="#04585D" stroke-miterlimit="10"/>
<path d="M19.6983 13.4451C19.6983 13.8376 19.3808 14.1551 18.9883 14.1551C18.5958 14.1551 18.2783 13.8376 18.2783 13.4451C18.2783 13.0526 18.5958 12.7351 18.9883 12.7351C19.3808 12.7351 19.6983 13.0526 19.6983 13.4451Z" stroke="#04585D" stroke-miterlimit="10"/>
<path d="M15.9086 13.6827C15.9086 16.0352 14.2136 17.9452 12.1211 17.9452C10.0286 17.9452 8.33105 16.0352 8.33105 13.6827C8.33105 11.3277 10.0286 9.42017 12.1211 9.42017C14.2136 9.42017 15.9086 11.3277 15.9086 13.6827Z" stroke="#04585D" stroke-miterlimit="10"/>
<path d="M2.17578 16.645C2.17578 17.4175 3.40828 17.5 3.72828 17.82C4.05078 18.1425 4.11078 19.365 5.27828 19.365" stroke="#04585D" stroke-miterlimit="10"/>
<path d="M22.0659 16.645C22.0659 17.4175 20.8334 17.5 20.5134 17.82C20.1909 18.1425 20.1309 19.365 18.9634 19.365" stroke="#04585D" stroke-miterlimit="10"/>
<path d="M2.17578 16.645C2.17578 17.4175 3.40828 17.5 3.72828 17.82C4.05078 18.1425 4.11078 19.365 5.27828 19.365" stroke="#04585D" stroke-miterlimit="10"/>
<path d="M22.0659 16.645C22.0659 17.4175 20.8334 17.5 20.5134 17.82C20.1909 18.1425 20.1309 19.365 18.9634 19.365" stroke="#04585D" stroke-miterlimit="10"/>
<path d="M2.17592 20.7852H20.1709V19.3652H2.17592V9.42017H0.753418V20.7852H2.17592Z" stroke="#04585D" stroke-miterlimit="10"/>
</svg>
