<svg width="24" height="24" viewBox="0 0 24 24" fill="none" xmlns="http://www.w3.org/2000/svg">
<g clip-path="url(#clip0_901_360)">
<path d="M19.2001 7.67999L11.5258 10.6378L11.5277 10.6411C10.957 10.8302 10.5601 11.3515 10.5601 12C10.5601 12.816 11.1841 13.44 12.0001 13.44C12.3418 13.44 12.6457 13.3262 12.8881 13.139L12.8909 13.1443L19.2001 7.67999Z" stroke="#6E9383" stroke-miterlimit="10" stroke-linecap="round" stroke-linejoin="round"/>
<path d="M11.9999 22.56C6.19194 22.56 1.43994 17.808 1.43994 12C1.43994 6.192 6.19194 1.44 11.9999 1.44C17.8079 1.44 22.5599 6.192 22.5599 12C22.5599 17.808 17.8079 22.56 11.9999 22.56Z" stroke="#6E9383" stroke-miterlimit="10" stroke-linecap="round" stroke-linejoin="round"/>
<path d="M12 3.30911V4.29791" stroke="#6E9383" stroke-miterlimit="10" stroke-linecap="round" stroke-linejoin="round"/>
<path d="M20.6402 11.9491H19.6514" stroke="#6E9383" stroke-miterlimit="10" stroke-linecap="round" stroke-linejoin="round"/>
<path d="M3.35986 11.9491H4.34866" stroke="#6E9383" stroke-miterlimit="10" stroke-linecap="round" stroke-linejoin="round"/>
<path d="M7.6582 4.46976L8.1742 5.32944" stroke="#6E9383" stroke-miterlimit="10" stroke-linecap="round" stroke-linejoin="round"/>
<path d="M4.52051 16.2907L5.38019 15.7747" stroke="#6E9383" stroke-miterlimit="10" stroke-linecap="round" stroke-linejoin="round"/>
<path d="M4.52051 7.608L5.38019 8.12352" stroke="#6E9383" stroke-miterlimit="10" stroke-linecap="round" stroke-linejoin="round"/>
<path d="M19.4793 16.2907L18.6196 15.7747" stroke="#6E9383" stroke-miterlimit="10" stroke-linecap="round" stroke-linejoin="round"/>
<path d="M16.3417 4.46976L15.8257 5.32944" stroke="#6E9383" stroke-miterlimit="10" stroke-linecap="round" stroke-linejoin="round"/>
</g>
<defs>
<clipPath id="clip0_901_360">
<rect width="24" height="24" fill="white"/>
</clipPath>
</defs>
</svg>
