<svg width="16" height="14" viewBox="0 0 16 14" fill="none" xmlns="http://www.w3.org/2000/svg">
<path d="M1.04348 0C0.468174 0 0 0.4711 0 1.05V12.95C0 13.5289 0.468174 14 1.04348 14H14.9565C15.5318 14 16 13.5289 16 12.95V1.05C16 0.4711 15.5318 0 14.9565 0H1.04348ZM6.6087 0.7H14.9565C15.1485 0.7 15.3043 0.8568 15.3043 1.05V12.95C15.3043 13.1432 15.1485 13.3 14.9565 13.3H6.6087V0.7ZM1.73913 2.1C1.93113 2.1 2.08696 2.2568 2.08696 2.45C2.08696 2.6432 1.93113 2.8 1.73913 2.8C1.54713 2.8 1.3913 2.6432 1.3913 2.45C1.3913 2.2568 1.54713 2.1 1.73913 2.1ZM3.13043 2.1H4.86957C5.06191 2.1 5.21739 2.25645 5.21739 2.45C5.21739 2.64355 5.06191 2.8 4.86957 2.8H3.13043C2.93809 2.8 2.78261 2.64355 2.78261 2.45C2.78261 2.25645 2.93809 2.1 3.13043 2.1ZM9.73234 2.44658C9.64197 2.44929 9.55621 2.48729 9.49321 2.55254L7.75408 4.30254C7.68887 4.36818 7.65224 4.45719 7.65224 4.55C7.65224 4.64281 7.68887 4.73182 7.75408 4.79746L9.49321 6.54746C9.52526 6.58105 9.56365 6.60787 9.60613 6.62635C9.64861 6.64482 9.69432 6.65458 9.7406 6.65505C9.78687 6.65553 9.83278 6.64671 9.87562 6.62911C9.91846 6.6115 9.95739 6.58548 9.99011 6.55255C10.0228 6.51962 10.0487 6.48045 10.0662 6.43734C10.0837 6.39423 10.0925 6.34804 10.092 6.30148C10.0915 6.25491 10.0818 6.20891 10.0634 6.16616C10.0451 6.12342 10.0184 6.08479 9.98505 6.05254L8.49185 4.55L9.98505 3.04746C10.0353 2.9983 10.0696 2.935 10.0835 2.86587C10.0974 2.79674 10.0903 2.725 10.0629 2.66004C10.0356 2.59509 9.98944 2.53995 9.93045 2.50186C9.87146 2.46377 9.8024 2.4445 9.73234 2.44658ZM1.73913 3.5C1.93113 3.5 2.08696 3.6568 2.08696 3.85C2.08696 4.0432 1.93113 4.2 1.73913 4.2C1.54713 4.2 1.3913 4.0432 1.3913 3.85C1.3913 3.6568 1.54713 3.5 1.73913 3.5ZM3.13043 3.5H4.86957C5.06191 3.5 5.21739 3.65645 5.21739 3.85C5.21739 4.04355 5.06191 4.2 4.86957 4.2H3.13043C2.93809 4.2 2.78261 4.04355 2.78261 3.85C2.78261 3.65645 2.93809 3.5 3.13043 3.5ZM1.73913 4.9C1.93113 4.9 2.08696 5.0568 2.08696 5.25C2.08696 5.4432 1.93113 5.6 1.73913 5.6C1.54713 5.6 1.3913 5.4432 1.3913 5.25C1.3913 5.0568 1.54713 4.9 1.73913 4.9ZM3.13043 4.9H4.86957C5.06191 4.9 5.21739 5.05645 5.21739 5.25C5.21739 5.44355 5.06191 5.6 4.86957 5.6H3.13043C2.93809 5.6 2.78261 5.44355 2.78261 5.25C2.78261 5.05645 2.93809 4.9 3.13043 4.9ZM1.73913 6.3C1.93113 6.3 2.08696 6.4568 2.08696 6.65C2.08696 6.8432 1.93113 7 1.73913 7C1.54713 7 1.3913 6.8432 1.3913 6.65C1.3913 6.4568 1.54713 6.3 1.73913 6.3ZM3.13043 6.3H4.86957C5.06191 6.3 5.21739 6.45645 5.21739 6.65C5.21739 6.84355 5.06191 7 4.86957 7H3.13043C2.93809 7 2.78261 6.84355 2.78261 6.65C2.78261 6.45645 2.93809 6.3 3.13043 6.3Z" fill="#1C2925"/>
</svg>
