<svg width="16" height="16" viewBox="0 0 16 16" fill="none" xmlns="http://www.w3.org/2000/svg">
<path d="M9.47189 7.26165L7.89355 5.68331L9.47189 4.10498" stroke="#1C2925" stroke-miterlimit="10" stroke-linecap="round" stroke-linejoin="round"/>
<path d="M14.2085 1.57837H1.5785C1.05684 1.57837 0.631836 2.00337 0.631836 2.5267V13.26C0.631836 13.7834 1.05684 14.2084 1.5785 14.2084H14.2085C14.7302 14.2084 15.1552 13.7834 15.1552 13.26V2.5267C15.1552 2.00337 14.7302 1.57837 14.2085 1.57837ZM2.21017 7.89337C2.03684 7.89337 1.89517 7.7517 1.89517 7.57837C1.89517 7.40337 2.03684 7.2617 2.21017 7.2617C2.38517 7.2617 2.52684 7.40337 2.52684 7.57837C2.52684 7.7517 2.38517 7.89337 2.21017 7.89337ZM2.21017 6.63004C2.03684 6.63004 1.89517 6.48837 1.89517 6.31504C1.89517 6.14004 2.03684 5.99837 2.21017 5.99837C2.38517 5.99837 2.52684 6.14004 2.52684 6.31504C2.52684 6.48837 2.38517 6.63004 2.21017 6.63004ZM2.21017 5.3667C2.03684 5.3667 1.89517 5.2267 1.89517 5.0517C1.89517 4.8767 2.03684 4.7367 2.21017 4.7367C2.38517 4.7367 2.52684 4.8767 2.52684 5.0517C2.52684 5.2267 2.38517 5.3667 2.21017 5.3667ZM2.21017 4.10504C2.03684 4.10504 1.89517 3.96337 1.89517 3.78837C1.89517 3.61504 2.03684 3.47337 2.21017 3.47337C2.38517 3.47337 2.52684 3.61504 2.52684 3.78837C2.52684 3.96337 2.38517 4.10504 2.21017 4.10504ZM5.05184 7.89337H3.4735C3.2985 7.89337 3.15684 7.7517 3.15684 7.57837C3.15684 7.40337 3.2985 7.2617 3.4735 7.2617H5.05184C5.22684 7.2617 5.36684 7.40337 5.36684 7.57837C5.36684 7.7517 5.22684 7.89337 5.05184 7.89337ZM5.05184 6.63004H3.4735C3.2985 6.63004 3.15684 6.49004 3.15684 6.31504C3.15684 6.14004 3.2985 5.99837 3.4735 5.99837H5.05184C5.22684 5.99837 5.36684 6.14004 5.36684 6.31504C5.36684 6.49004 5.22684 6.63004 5.05184 6.63004ZM5.05184 5.3667H3.4735C3.2985 5.3667 3.15684 5.2267 3.15684 5.0517C3.15684 4.8767 3.2985 4.7367 3.4735 4.7367H5.05184C5.22684 4.7367 5.36684 4.8767 5.36684 5.0517C5.36684 5.2267 5.22684 5.3667 5.05184 5.3667ZM5.05184 4.10504H3.4735C3.2985 4.10504 3.15684 3.96337 3.15684 3.78837C3.15684 3.61504 3.2985 3.47337 3.4735 3.47337H5.05184C5.22684 3.47337 5.36684 3.61504 5.36684 3.78837C5.36684 3.96337 5.22684 4.10504 5.05184 4.10504ZM14.5235 13.26C14.5235 13.435 14.3818 13.5767 14.2085 13.5767H6.63017V2.21004H14.2085C14.3818 2.21004 14.5235 2.3517 14.5235 2.5267V13.26Z" fill="#1C2925"/>
</svg>
