<svg width="24" height="24" viewBox="0 0 24 24" fill="none" xmlns="http://www.w3.org/2000/svg">
<g clip-path="url(#clip0_901_236)">
<path d="M20.2559 3.36002C20.2559 2.83202 19.8239 2.40002 19.3439 2.40002H4.65592C4.17592 2.40002 3.74392 2.83202 3.74392 3.36002H3.40792C2.59192 3.36002 1.91992 4.03202 1.91992 4.89602V5.28002H22.0799V4.89602C22.0799 4.03202 21.4079 3.36002 20.5919 3.36002H20.2559Z" stroke="#454545" stroke-miterlimit="10" stroke-linecap="round" stroke-linejoin="round"/>
<path d="M9.12012 2.39998V1.43998C9.12012 0.91198 9.55212 0.47998 10.0801 0.47998H13.9201C14.4481 0.47998 14.8801 0.91198 14.8801 1.43998V2.39998" stroke="#454545" stroke-miterlimit="10" stroke-linecap="round" stroke-linejoin="round"/>
<path d="M2.87988 5.28003L5.37588 22.368C5.47188 23.04 6.04788 23.52 6.71988 23.52H17.2799C17.9519 23.52 18.4799 23.04 18.6239 22.368L21.1199 5.28003" stroke="#454545" stroke-miterlimit="10" stroke-linecap="round" stroke-linejoin="round"/>
<path d="M7.53615 20.256L5.95215 8.30402" stroke="#454545" stroke-miterlimit="10" stroke-linecap="round" stroke-linejoin="round"/>
<path d="M10.5119 20.256L9.98389 8.30402" stroke="#454545" stroke-miterlimit="10" stroke-linecap="round" stroke-linejoin="round"/>
<path d="M14.0158 8.30402L13.4878 20.256" stroke="#454545" stroke-miterlimit="10" stroke-linecap="round" stroke-linejoin="round"/>
<path d="M18.0479 8.30402L16.4639 20.256" stroke="#454545" stroke-miterlimit="10" stroke-linecap="round" stroke-linejoin="round"/>
</g>
<defs>
<clipPath id="clip0_901_236">
<rect width="24" height="24" fill="white"/>
</clipPath>
</defs>
</svg>
